<?xml version="1.0" encoding="UTF-8" standalone="no"?>
<!DOCTYPE svg PUBLIC "-//W3C//DTD SVG 1.1//EN" "http://www.w3.org/Graphics/SVG/1.1/DTD/svg11.dtd">
<svg xmlns="http://www.w3.org/2000/svg" xmlns:xlink="http://www.w3.org/1999/xlink" version="1.1" width="280pt" height="54pt" viewBox="0 0 280 54">
<g enable-background="new">
<clipPath id="cp0">
<path transform="matrix(1,0,0,-1,-362,541)" d="M 0 0 L 1001 0 L 1001 709 L 0 709 Z "/>
</clipPath>
<g clip-path="url(#cp0)">
<path transform="matrix(.1,0,0,-.1,-362,541)" d="M 4462.79 5301.38 C 4462.79 5314.13 4452.45 5324.46 4439.7 5324.46 C 4426.95 5324.46 4416.62 5314.13 4416.62 5301.38 C 4416.62 5288.63 4426.95 5278.29 4439.7 5278.29 C 4452.45 5278.29 4462.79 5288.63 4462.79 5301.38 Z M 4439.7 5301.38 "/>
<clipPath id="cp1">
<path transform="matrix(.1,0,0,-.1,-362,541)" d="M 4488.67 4972.99 C 4488.67 5000.03 4466.75 5021.96 4439.7 5021.96 C 4412.66 5021.96 4390.73 5000.03 4390.73 4972.99 C 4390.73 4945.94 4412.66 4924.02 4439.7 4924.02 C 4466.75 4924.02 4488.67 4945.94 4488.67 4972.99 Z M 4439.7 4972.99 "/>
</clipPath>
<g clip-path="url(#cp1)">
<path transform="matrix(.1,0,0,-.1,-362,541)" stroke-width="9.23334" stroke-linecap="butt" stroke-miterlimit="10" stroke-linejoin="miter" fill="none" stroke="#000000" d="M 4439.7 5021.96 L 4439.7 4924.02 M 4390.73 4972.99 L 4488.67 4972.99 "/>
</g>
<path transform="matrix(.1,0,0,-.1,-362,541)" stroke-width="9.23334" stroke-linecap="butt" stroke-miterlimit="10" stroke-linejoin="miter" fill="none" stroke="#000000" d="M 4488.67 4972.99 C 4488.67 5000.03 4466.75 5021.96 4439.7 5021.96 C 4412.66 5021.96 4390.73 5000.03 4390.73 4972.99 C 4390.73 4945.94 4412.66 4924.02 4439.7 4924.02 C 4466.75 4924.02 4488.67 4945.94 4488.67 4972.99 Z M 4439.7 4972.99 "/>
<path transform="matrix(.1,0,0,-.1,-362,541)" stroke-width="9.23334" stroke-linecap="butt" stroke-miterlimit="10" stroke-linejoin="miter" fill="none" stroke="#000000" d="M 3738.74 5301.38 L 3623.8 5301.38 "/>
<path transform="matrix(.1,0,0,-.1,-362,541)" stroke-width="9.23334" stroke-linecap="butt" stroke-miterlimit="10" stroke-linejoin="miter" fill="none" stroke="#000000" d="M 4165.73 5301.38 L 3945.34 5301.38 "/>
<path transform="matrix(.1,0,0,-.1,-362,541)" stroke-width="9.23334" stroke-linecap="butt" stroke-miterlimit="10" stroke-linejoin="miter" fill="none" stroke="#000000" d="M 4416.62 5301.38 L 4165.73 5301.38 "/>
<path transform="matrix(.1,0,0,-.1,-362,541)" stroke-width="9.23334" stroke-linecap="butt" stroke-miterlimit="10" stroke-linejoin="miter" fill="none" stroke="#000000" d="M 4439.7 5278.3 L 4439.7 5021.95 "/>
<path transform="matrix(.1,0,0,-.1,-362,541)" stroke-width="9.23334" stroke-linecap="butt" stroke-miterlimit="10" stroke-linejoin="miter" fill="none" stroke="#000000" d="M 4713.68 5301.38 L 4462.79 5301.38 "/>
<path transform="matrix(.1,0,0,-.1,-362,541)" stroke-width="9.23334" stroke-linecap="butt" stroke-miterlimit="10" stroke-linejoin="miter" fill="none" stroke="#000000" d="M 4934.06 5301.38 L 4713.68 5301.38 "/>
<path transform="matrix(.1,0,0,-.1,-362,541)" stroke-width="9.23334" stroke-linecap="butt" stroke-miterlimit="10" stroke-linejoin="miter" fill="none" stroke="#000000" d="M 5255.6 5301.38 L 5140.66 5301.38 "/>
<path transform="matrix(.1,0,0,-.1,-362,541)" stroke-width="9.23334" stroke-linecap="butt" stroke-miterlimit="10" stroke-linejoin="miter" fill="none" stroke="#000000" d="M 3738.74 4972.98 L 3623.8 4972.98 "/>
<path transform="matrix(.1,0,0,-.1,-362,541)" stroke-width="9.23334" stroke-linecap="butt" stroke-miterlimit="10" stroke-linejoin="miter" fill="none" stroke="#000000" d="M 4060.28 4972.98 L 3945.34 4972.98 "/>
<path transform="matrix(.1,0,0,-.1,-362,541)" stroke-width="9.23334" stroke-linecap="butt" stroke-miterlimit="10" stroke-linejoin="miter" fill="none" stroke="#000000" d="M 4390.73 4972.98 L 4271.17 4972.98 "/>
<path transform="matrix(.1,0,0,-.1,-362,541)" stroke-width="9.23334" stroke-linecap="butt" stroke-miterlimit="10" stroke-linejoin="miter" fill="none" stroke="#000000" d="M 4608.23 4972.98 L 4488.67 4972.98 "/>
<path transform="matrix(.1,0,0,-.1,-362,541)" stroke-width="9.23334" stroke-linecap="butt" stroke-miterlimit="10" stroke-linejoin="miter" fill="none" stroke="#000000" d="M 4934.06 4972.98 L 4819.12 4972.98 "/>
<path transform="matrix(.1,0,0,-.1,-362,541)" stroke-width="9.23334" stroke-linecap="butt" stroke-miterlimit="10" stroke-linejoin="miter" fill="none" stroke="#000000" d="M 5255.6 4972.98 L 5140.66 4972.98 "/>
<path transform="matrix(.1,0,0,-.1,-362,541)" d="M 3738.74 5204.77 L 3945.338 5204.77 L 3945.338 5397.981 L 3738.74 5397.981 Z " fill="#ffffff"/>
<path transform="matrix(.1,0,0,-.1,-362,541)" stroke-width="9.23334" stroke-linecap="butt" stroke-miterlimit="10" stroke-linejoin="miter" fill="none" stroke="#000000" d="M 3738.74 5204.77 L 3945.338 5204.77 L 3945.338 5397.981 L 3738.74 5397.981 Z "/>
<symbol id="font_2_1">
<path d="M .47900004 .39200003 L .661 .578 C .73800006 .656 .76800009 .67300006 .83800008 .675 L .84300008 .72200009 L .56 .72200009 L .555 .675 L .57500007 .675 C .61 .675 .62700006 .666 .62700006 .646 C .62700006 .62600007 .614 .605 .57900008 .568 L .45700003 .44300003 L .38500003 .615 C .37600003 .637 .37500004 .64000007 .37500004 .647 C .37500004 .666 .39600004 .675 .44200004 .675 L .46000005 .675 L .46500004 .72200009 L .15 .72200009 L .14500001 .675 L .169 .675 C .23400003 .675 .245 .66800007 .272 .605 L .37600003 .36 L .17900002 .15300001 C .10400001 .074 .07400001 .056 .0050000029 .047000003 L 0 0 L .286 0 L .29200004 .047000003 L .277 .047000003 C .23300001 .047000003 .20900002 .059000005 .20900002 .082 C .20900002 .1 .22300002 .124000009 .24800003 .15 L .39900003 .30900003 L .48900003 .095000009 C .49300004 .086 .49500004 .076000008 .49500004 .07 C .49500004 .052 .48200003 .047000003 .43400005 .047000003 L .40300004 .047000003 L .397 0 L .71800008 0 L .72300007 .047000003 L .697 .047000003 C .63100007 .047000003 .62500008 .051000004 .595 .120000008 L .47900004 .39200003 Z "/>
</symbol>
<use xlink:href="#font_2_1" transform="matrix(12.8805,0,0,-12.8805,16.381714,15.45697)"/>
<path transform="matrix(.1,0,0,-.1,-362,541)" d="M 4934.06 5204.77 L 5140.658 5204.77 L 5140.658 5397.981 L 4934.06 5397.981 Z " fill="#ffffff"/>
<path transform="matrix(.1,0,0,-.1,-362,541)" stroke-width="9.23334" stroke-linecap="butt" stroke-miterlimit="10" stroke-linejoin="miter" fill="none" stroke="#000000" d="M 4934.06 5204.77 L 5140.658 5204.77 L 5140.658 5397.981 L 4934.06 5397.981 Z "/>
<use xlink:href="#font_2_1" transform="matrix(12.8805,0,0,-12.8805,135.91373,15.45697)"/>
<path transform="matrix(.1,0,0,-.1,-362,541)" d="M 3738.74 4876.38 L 3945.338 4876.38 L 3945.338 5069.587 L 3738.74 5069.587 Z " fill="#ffffff"/>
<path transform="matrix(.1,0,0,-.1,-362,541)" stroke-width="9.23334" stroke-linecap="butt" stroke-miterlimit="10" stroke-linejoin="miter" fill="none" stroke="#000000" d="M 3738.74 4876.38 L 3945.338 4876.38 L 3945.338 5069.587 L 3738.74 5069.587 Z "/>
<use xlink:href="#font_2_1" transform="matrix(12.8805,0,0,-12.8805,16.381714,48.29599)"/>
<path transform="matrix(.1,0,0,-.1,-362,541)" d="M 4060.28 4876.38 L 4271.171 4876.38 L 4271.171 5069.587 L 4060.28 5069.587 Z " fill="#ffffff"/>
<path transform="matrix(.1,0,0,-.1,-362,541)" stroke-width="9.23334" stroke-linecap="butt" stroke-miterlimit="10" stroke-linejoin="miter" fill="none" stroke="#000000" d="M 4060.28 4876.38 L 4271.171 4876.38 L 4271.171 5069.587 L 4060.28 5069.587 Z "/>
<symbol id="font_2_2">
<path d="M .611 .354 L .55 .123 C .535 .07 .535 .069000009 .527 .061000006 C .51600006 .051000004 .49200005 .047000003 .44300003 .047000003 L .439 .047000003 L .43400003 0 L .75100007 0 L .757 .047000003 L .731 .047000003 C .666 .047000003 .652 .052 .652 .074 C .652 .081 .656 .104 .661 .123 L .78900006 .59900006 C .804 .65400007 .804 .65400007 .81200006 .661 C .823 .671 .846 .675 .896 .675 L .90000006 .675 L .90500006 .72200009 L .587 .72200009 L .582 .675 L .60800006 .675 C .67300006 .675 .68700006 .67 .68700006 .648 C .68700006 .64000007 .684 .623 .67700007 .59900006 L .624 .40100003 L .302 .40100003 L .356 .59900006 C .37 .65400007 .37 .65400007 .379 .661 C .389 .671 .41300006 .675 .462 .675 L .46600003 .675 L .47100003 .72200009 L .15400002 .72200009 L .148 .675 L .17400001 .675 C .23900001 .675 .25300003 .67 .25300003 .648 C .25300003 .64000007 .24900002 .619 .24400002 .59900006 L .116000007 .123 C .102000009 .07 .101 .069000009 .09300001 .061000006 C .082 .051000004 .059000005 .047000003 .010000002 .047000003 L .0050000029 .047000003 L 0 0 L .31800003 0 L .323 .047000003 L .297 .047000003 C .23200001 .047000003 .21800001 .052 .21800001 .074 C .21800001 .082 .21800001 .082 .22800002 .123 L .29000003 .354 L .611 .354 Z "/>
</symbol>
<use xlink:href="#font_2_2" transform="matrix(12.8805,0,0,-12.8805,48.571546,48.29599)"/>
<path transform="matrix(.1,0,0,-.1,-362,541)" d="M 4608.23 4876.38 L 4819.121 4876.38 L 4819.121 5069.587 L 4608.23 5069.587 Z " fill="#ffffff"/>
<path transform="matrix(.1,0,0,-.1,-362,541)" stroke-width="9.23334" stroke-linecap="butt" stroke-miterlimit="10" stroke-linejoin="miter" fill="none" stroke="#000000" d="M 4608.23 4876.38 L 4819.121 4876.38 L 4819.121 5069.587 L 4608.23 5069.587 Z "/>
<use xlink:href="#font_2_2" transform="matrix(12.8805,0,0,-12.8805,103.365558,48.29599)"/>
<path transform="matrix(.1,0,0,-.1,-362,541)" d="M 4934.06 4876.38 L 5140.658 4876.38 L 5140.658 5069.587 L 4934.06 5069.587 Z " fill="#ffffff"/>
<path transform="matrix(.1,0,0,-.1,-362,541)" stroke-width="9.23334" stroke-linecap="butt" stroke-miterlimit="10" stroke-linejoin="miter" fill="none" stroke="#000000" d="M 4934.06 4876.38 L 5140.658 4876.38 L 5140.658 5069.587 L 4934.06 5069.587 Z "/>
<use xlink:href="#font_2_1" transform="matrix(12.8805,0,0,-12.8805,135.91373,48.29599)"/>
<symbol id="font_3_5">
<path d="M .5500001 0 L .5500001 .058 L 0 .058 L 0 0 L .5500001 0 M .5500001 .22 L .5500001 .27800004 L 0 .27800004 L 0 .22 L .5500001 .22 Z "/>
</symbol>
<use xlink:href="#font_3_5" transform="matrix(12.742,0,0,-12.742,171.30506,25.459755)"/>
<symbol id="font_2_4">
<path d="M .34500004 .13100001 C .286 .07000001 .24200002 .047000003 .19000001 .047000003 C .13000001 .047000003 .093 .087000008 .093 .15100001 C .093 .158 .094000007 .172 .095 .185 C .21200001 .21300002 .23200001 .21900001 .27700005 .23900001 C .35400004 .273 .39700005 .324 .39700005 .38200004 C .39700005 .44300003 .34800003 .485 .27800004 .485 C .132 .485 0 .33600004 0 .17300001 C 0 .065 .065000008 0 .17300001 0 C .25000004 0 .31500004 .034 .36900003 .104 L .34500004 .13100001 M .1 .224 C .123 .35900004 .184 .445 .25800003 .445 C .29100005 .445 .31300003 .422 .31300003 .388 C .31300003 .333 .27400003 .286 .202 .254 C .17300001 .24100001 .156 .23600002 .1 .224 Z "/>
</symbol>
<use xlink:href="#font_2_4" transform="matrix(12.8805,0,0,-12.8805,182.37633,27.475068)"/>
<symbol id="font_2_5">
<path d="M .20400001 .48400004 L .012 .469 L .007999999 .43300004 L .032000007 .43300004 C .073 .43300004 .089 .42400003 .089 .402 C .089 .393 .086 .38000003 .080000009 .358 L .022000002 .163 C .0040000008 .1 0 .084 0 .062 C 0 .027 .030000003 0 .069 0 C .11200001 0 .15300001 .023000002 .19300002 .069000009 C .21100001 .089 .22700002 .111 .255 .154 L .22400002 .171 C .17400001 .094000007 .13000001 .050000006 .10300001 .050000006 C .093 .050000006 .086 .059 .086 .071 C .086 .081 .09 .099 .098 .127 L .20400001 .48400004 M .18600002 .72800007 C .15600002 .72800007 .13200002 .70400008 .13200002 .674 C .13200002 .64500007 .15600002 .62 .18500002 .62 C .21600002 .62 .24000003 .64400008 .24000003 .674 C .24000003 .70400008 .21600002 .72800007 .18600002 .72800007 Z "/>
</symbol>
<use xlink:href="#font_2_5" transform="matrix(9.66036,0,0,-9.66036,189.23087,21.696402)"/>
<symbol id="font_4_1">
<path d="M .42700003 .28100003 L .57800009 .50200006 L .505 .50200006 L .423 .34300003 C .423 .47700004 .386 .51400008 .278 .51400008 C .08500001 .51400008 0 .308 0 .163 C 0 .076000008 .038000004 0 .147 0 C .22100002 0 .28300003 .07300001 .32700003 .136 C .326 .126 .326 .116000007 .326 .106000009 C .326 .076000008 .33 .048 .342 .028 C .35300002 .01 .36600004 0 .38900004 0 C .41300003 0 .447 .007999999 .47300003 .028 C .492 .043 .531 .080000009 .55799999 .144 L .53400006 .158 C .508 .10700001 .46600006 .052 .44400005 .052 C .416 .052 .416 .10400001 .416 .128 C .416 .172 .421 .23 .42700003 .28100003 M .33200003 .213 C .28 .12900001 .22800002 .054000006 .162 .054000006 C .112 .054000006 .096 .10400001 .096 .16 C .096 .276 .158 .479 .279 .479 C .32700003 .479 .34100003 .41300003 .34100003 .338 C .34100003 .296 .337 .25100003 .33200003 .213 Z "/>
</symbol>
<use xlink:href="#font_4_1" transform="matrix(9.34872,0,0,-9.34872,193.21179,21.673342)"/>
<symbol id="font_5_4">
<path d="M .24300002 .8590001 C .18300002 .8220001 .15100001 .79600009 .11700001 .75600007 C .041000006 .66600009 0 .55100008 0 .43 C 0 .316 .036000004 .209 .103000018 .120000008 C .141 .072 .17500001 .042000005 .24300002 0 L .24300002 .037 C .143 .125 .103000018 .238 .103000018 .43 C .103000018 .62200006 .143 .734 .24300002 .8220001 L .24300002 .8590001 Z "/>
</symbol>
<symbol id="font_5_3">
<path d="M .47 .216 L .42600004 .216 L .41600005 .165 C .40300004 .101 .395 .094000007 .33300004 .094000007 L .10900001 .094000007 C .17800002 .16600001 .20100002 .187 .26500003 .23700002 C .35600005 .307 .395 .342 .418 .372 C .45000003 .416 .46600006 .46100004 .46600006 .509 C .46600006 .62200006 .37100003 .70400008 .24100003 .70400008 C .11400001 .70400008 .016000003 .62200006 .016000003 .51600006 C .016000003 .453 .048000006 .41000004 .096000019 .41000004 C .13300002 .41000004 .158 .43500004 .158 .47100003 C .158 .49600003 .14400001 .51900008 .12200001 .528 C .08500001 .544 .083000008 .545 .083000008 .558 C .083000008 .573 .09300001 .596 .10700001 .61300006 C .13200002 .643 .17400001 .661 .22100002 .661 C .30300004 .661 .35300002 .61 .35300002 .526 C .35300002 .45200003 .31800003 .38500003 .23500002 .29700003 L .17600002 .23500002 C .14100002 .19800002 .11500001 .17 .098000008 .15100001 C .062000004 .109000008 .044000005 .086 0 .028 L 0 0 L .45100004 0 L .47 .216 Z "/>
</symbol>
<use xlink:href="#font_5_4" transform="matrix(12.8804,0,0,-12.8804,200.07552,28.86615)"/>
<use xlink:href="#font_5_3" transform="matrix(12.8804,0,0,-12.8804,204.35182,27.28186)"/>
<symbol id="font_3_3">
<path d="M 0 .85 L 0 0 L .058000007 0 L .058000007 .85 L 0 .85 Z "/>
</symbol>
<use xlink:href="#font_3_3" transform="matrix(12.742,0,0,-12.742,212.46425,29.103966)"/>
<symbol id="font_5_2">
<path d="M .24200002 .71900007 C .102000009 .71900007 0 .566 0 .357 C 0 .15100001 .099 0 .23400003 0 C .374 0 .472 .14600002 .472 .35400004 C .472 .46000005 .45000003 .54800006 .40800003 .61700007 C .36900003 .68 .305 .71900007 .24200002 .71900007 M .23500002 .676 C .268 .676 .3 .65400007 .32400004 .614 C .351 .568 .36 .509 .36 .37200005 C .36 .23200001 .35300002 .16600001 .33300004 .12200001 C .31000004 .073 .27400003 .043 .23600003 .043 C .20300001 .043 .171 .065 .14700002 .105000007 C .11900001 .15200001 .11100001 .215 .11100001 .37800003 C .11100001 .49400003 .11800001 .55300006 .13800001 .596 C .16100002 .647 .197 .676 .23500002 .676 Z "/>
</symbol>
<use xlink:href="#font_5_2" transform="matrix(12.8804,0,0,-12.8804,215.14968,27.475068)"/>
<use xlink:href="#font_5_2" transform="matrix(12.8804,0,0,-12.8804,222.31118,27.475068)"/>
<symbol id="font_3_2">
<path d="M .192 .42700003 L 0 .025000006 L .052 0 L .256 .42700003 L .052 .8540001 L 0 .829 L .192 .42700003 Z "/>
</symbol>
<symbol id="font_3_4">
<path d="M .256 .829 L .204 .8540001 L 0 .42700003 L .204 0 L .256 .025000006 L .064 .42700003 L .256 .829 Z "/>
</symbol>
<use xlink:href="#font_3_2" transform="matrix(12.742,0,0,-12.742,229.35189,29.12945)"/>
<use xlink:href="#font_3_4" transform="matrix(12.742,0,0,-12.742,235.175,29.12945)"/>
<use xlink:href="#font_5_2" transform="matrix(12.8804,0,0,-12.8804,239.38918,27.475068)"/>
<use xlink:href="#font_5_2" transform="matrix(12.8804,0,0,-12.8804,246.55068,27.475068)"/>
<symbol id="font_3_1">
<path d="M .5500001 0 L .5500001 .058 L 0 .058 L 0 0 L .5500001 0 Z "/>
</symbol>
<use xlink:href="#font_3_3" transform="matrix(12.742,0,0,-12.742,254.57216,29.103966)"/>
<use xlink:href="#font_3_1" transform="matrix(12.742,0,0,-12.742,259.49073,24.058135)"/>
<symbol id="font_2_3">
<path d="M .316 .047000003 L .294 .047000003 C .22800002 .047000003 .21400002 .052 .21400002 .075 C .21400002 .08400001 .215 .089 .224 .123 L .352 .59900006 C .366 .651 .366 .652 .375 .661 C .387 .67200008 .40100003 .674 .45900003 .675 L .46400003 .72200009 L .15400002 .72200009 L .148 .675 L .17000002 .675 C .236 .675 .25 .67 .25 .648 C .25 .64000007 .24700001 .62600007 .24000001 .59900006 L .112 .123 C .099 .07300001 .098000008 .07 .089 .061000006 C .07700001 .05 .064 .048 .004999999 .047000003 L 0 0 L .31 0 L .316 .047000003 Z "/>
</symbol>
<use xlink:href="#font_2_3" transform="matrix(12.8805,0,0,-12.8805,269.5381,27.28186)"/>
<symbol id="font_5_1">
<path d="M 0 0 C .060000007 .037 .09200001 .063 .126 .104 C .202 .193 .24300002 .30900003 .24300002 .43 C .24300002 .544 .207 .651 .14 .7390001 C .102 .78800007 .068 .8180001 0 .8590001 L 0 .8220001 C .10000001 .734 .14 .62200006 .14 .43 C .14 .23700002 .10000001 .125 0 .037 L 0 0 Z "/>
</symbol>
<use xlink:href="#font_5_1" transform="matrix(12.8804,0,0,-12.8804,276.82197,28.86615)"/>
</g>
</g>
</svg>
