<?xml version="1.0" encoding="UTF-8" standalone="no"?>
<!DOCTYPE svg PUBLIC "-//W3C//DTD SVG 1.1//EN" "http://www.w3.org/Graphics/SVG/1.1/DTD/svg11.dtd">
<svg xmlns="http://www.w3.org/2000/svg" xmlns:xlink="http://www.w3.org/1999/xlink" version="1.1" width="350pt" height="131pt" viewBox="0 0 350 131">
<g enable-background="new">
<clipPath id="cp0">
<path transform="matrix(1,0,0,-1,-301,555)" d="M 0 0 L 1001 0 L 1001 709 L 0 709 Z "/>
</clipPath>
<g clip-path="url(#cp0)">
<path transform="matrix(.1,0,0,-.1,-301,555)" d="M 4742.7 5445.23 C 4742.7 5457.97 4732.36 5468.31 4719.62 5468.31 C 4706.87 5468.31 4696.53 5457.97 4696.53 5445.23 C 4696.53 5432.48 4706.87 5422.14 4719.62 5422.14 C 4732.36 5422.14 4742.7 5432.48 4742.7 5445.23 Z M 4719.62 5445.23 " fill="#ffffff"/>
<path transform="matrix(.1,0,0,-.1,-301,555)" stroke-width="9.23334" stroke-linecap="butt" stroke-miterlimit="10" stroke-linejoin="miter" fill="none" stroke="#000000" d="M 4742.7 5445.23 C 4742.7 5457.97 4732.36 5468.31 4719.62 5468.31 C 4706.87 5468.31 4696.53 5457.97 4696.53 5445.23 C 4696.53 5432.48 4706.87 5422.14 4719.62 5422.14 C 4732.36 5422.14 4742.7 5432.48 4742.7 5445.23 Z M 4719.62 5445.23 "/>
<path transform="matrix(.1,0,0,-.1,-301,555)" d="M 5900.45 5445.23 C 5900.45 5457.97 5890.12 5468.31 5877.37 5468.31 C 5864.62 5468.31 5854.29 5457.97 5854.29 5445.23 C 5854.29 5432.48 5864.62 5422.14 5877.37 5422.14 C 5890.12 5422.14 5900.45 5432.48 5900.45 5445.23 Z M 5877.37 5445.23 " fill="#ffffff"/>
<path transform="matrix(.1,0,0,-.1,-301,555)" stroke-width="9.23334" stroke-linecap="butt" stroke-miterlimit="10" stroke-linejoin="miter" fill="none" stroke="#000000" d="M 5900.45 5445.23 C 5900.45 5457.97 5890.12 5468.31 5877.37 5468.31 C 5864.62 5468.31 5854.29 5457.97 5854.29 5445.23 C 5854.29 5432.48 5864.62 5422.14 5877.37 5422.14 C 5890.12 5422.14 5900.45 5432.48 5900.45 5445.23 Z M 5877.37 5445.23 "/>
<path transform="matrix(.1,0,0,-.1,-301,555)" d="M 4742.7 5116.82 C 4742.7 5129.57 4732.36 5139.91 4719.62 5139.91 C 4706.87 5139.91 4696.53 5129.57 4696.53 5116.82 C 4696.53 5104.08 4706.87 5093.74 4719.62 5093.74 C 4732.36 5093.74 4742.7 5104.08 4742.7 5116.82 Z M 4719.62 5116.82 " fill="#ffffff"/>
<path transform="matrix(.1,0,0,-.1,-301,555)" stroke-width="9.23334" stroke-linecap="butt" stroke-miterlimit="10" stroke-linejoin="miter" fill="none" stroke="#000000" d="M 4742.7 5116.82 C 4742.7 5129.57 4732.36 5139.91 4719.62 5139.91 C 4706.87 5139.91 4696.53 5129.57 4696.53 5116.82 C 4696.53 5104.08 4706.87 5093.74 4719.62 5093.74 C 4732.36 5093.74 4742.7 5104.08 4742.7 5116.82 Z M 4719.62 5116.82 "/>
<path transform="matrix(.1,0,0,-.1,-301,555)" d="M 5900.45 5116.82 C 5900.45 5129.57 5890.12 5139.91 5877.37 5139.91 C 5864.62 5139.91 5854.29 5129.57 5854.29 5116.82 C 5854.29 5104.08 5864.62 5093.74 5877.37 5093.74 C 5890.12 5093.74 5900.45 5104.08 5900.45 5116.82 Z M 5877.37 5116.82 " fill="#ffffff"/>
<path transform="matrix(.1,0,0,-.1,-301,555)" stroke-width="9.23334" stroke-linecap="butt" stroke-miterlimit="10" stroke-linejoin="miter" fill="none" stroke="#000000" d="M 5900.45 5116.82 C 5900.45 5129.57 5890.12 5139.91 5877.37 5139.91 C 5864.62 5139.91 5854.29 5129.57 5854.29 5116.82 C 5854.29 5104.08 5864.62 5093.74 5877.37 5093.74 C 5890.12 5093.74 5900.45 5104.08 5900.45 5116.82 Z M 5877.37 5116.82 "/>
<path transform="matrix(.1,0,0,-.1,-301,555)" d="M 4742.7 4788.44 C 4742.7 4801.19 4732.36 4811.52 4719.61 4811.52 C 4706.87 4811.52 4696.53 4801.19 4696.53 4788.44 C 4696.53 4775.69 4706.87 4765.36 4719.61 4765.36 C 4732.36 4765.36 4742.7 4775.69 4742.7 4788.44 Z M 4719.61 4788.44 " fill="#ffffff"/>
<path transform="matrix(.1,0,0,-.1,-301,555)" stroke-width="9.23334" stroke-linecap="butt" stroke-miterlimit="10" stroke-linejoin="miter" fill="none" stroke="#000000" d="M 4742.7 4788.44 C 4742.7 4801.19 4732.36 4811.52 4719.61 4811.52 C 4706.87 4811.52 4696.53 4801.19 4696.53 4788.44 C 4696.53 4775.69 4706.87 4765.36 4719.61 4765.36 C 4732.36 4765.36 4742.7 4775.69 4742.7 4788.44 Z M 4719.61 4788.44 "/>
<path transform="matrix(.1,0,0,-.1,-301,555)" d="M 5900.45 4788.44 C 5900.45 4801.19 5890.12 4811.52 5877.37 4811.52 C 5864.62 4811.52 5854.29 4801.19 5854.29 4788.44 C 5854.29 4775.69 5864.62 4765.36 5877.37 4765.36 C 5890.12 4765.36 5900.45 4775.69 5900.45 4788.44 Z M 5877.37 4788.44 " fill="#ffffff"/>
<path transform="matrix(.1,0,0,-.1,-301,555)" stroke-width="9.23334" stroke-linecap="butt" stroke-miterlimit="10" stroke-linejoin="miter" fill="none" stroke="#000000" d="M 5900.45 4788.44 C 5900.45 4801.19 5890.12 4811.52 5877.37 4811.52 C 5864.62 4811.52 5854.29 4801.19 5854.29 4788.44 C 5854.29 4775.69 5864.62 4765.36 5877.37 4765.36 C 5890.12 4765.36 5900.45 4775.69 5900.45 4788.44 Z M 5877.37 4788.44 "/>
<clipPath id="cp1">
<path transform="matrix(.1,0,0,-.1,-301,555)" d="M 4768.59 4460.05 C 4768.59 4487.1 4746.66 4509.02 4719.61 4509.02 C 4692.57 4509.02 4670.64 4487.1 4670.64 4460.05 C 4670.64 4433 4692.57 4411.08 4719.61 4411.08 C 4746.66 4411.08 4768.59 4433 4768.59 4460.05 Z M 4719.61 4460.05 "/>
</clipPath>
<g clip-path="url(#cp1)">
<path transform="matrix(.1,0,0,-.1,-301,555)" stroke-width="9.23334" stroke-linecap="butt" stroke-miterlimit="10" stroke-linejoin="miter" fill="none" stroke="#000000" d="M 4719.61 4509.02 L 4719.61 4411.08 M 4670.64 4460.05 L 4768.59 4460.05 "/>
</g>
<path transform="matrix(.1,0,0,-.1,-301,555)" stroke-width="9.23334" stroke-linecap="butt" stroke-miterlimit="10" stroke-linejoin="miter" fill="none" stroke="#000000" d="M 4768.59 4460.05 C 4768.59 4487.1 4746.66 4509.02 4719.61 4509.02 C 4692.57 4509.02 4670.64 4487.1 4670.64 4460.05 C 4670.64 4433 4692.57 4411.08 4719.61 4411.08 C 4746.66 4411.08 4768.59 4433 4768.59 4460.05 Z M 4719.61 4460.05 "/>
<clipPath id="cp2">
<path transform="matrix(.1,0,0,-.1,-301,555)" d="M 5926.34 4460.05 C 5926.34 4487.1 5904.41 4509.02 5877.37 4509.02 C 5850.32 4509.02 5828.4 4487.1 5828.4 4460.05 C 5828.4 4433 5850.32 4411.08 5877.37 4411.08 C 5904.41 4411.08 5926.34 4433 5926.34 4460.05 Z M 5877.37 4460.05 "/>
</clipPath>
<g clip-path="url(#cp2)">
<path transform="matrix(.1,0,0,-.1,-301,555)" stroke-width="9.23334" stroke-linecap="butt" stroke-miterlimit="10" stroke-linejoin="miter" fill="none" stroke="#000000" d="M 5877.37 4509.02 L 5877.37 4411.08 M 5828.4 4460.05 L 5926.34 4460.05 "/>
</g>
<path transform="matrix(.1,0,0,-.1,-301,555)" stroke-width="9.23334" stroke-linecap="butt" stroke-miterlimit="10" stroke-linejoin="miter" fill="none" stroke="#000000" d="M 5926.34 4460.05 C 5926.34 4487.1 5904.41 4509.02 5877.37 4509.02 C 5850.32 4509.02 5828.4 4487.1 5828.4 4460.05 C 5828.4 4433 5850.32 4411.08 5877.37 4411.08 C 5904.41 4411.08 5926.34 4433 5926.34 4460.05 Z M 5877.37 4460.05 "/>
<path transform="matrix(.1,0,0,-.1,-301,555)" stroke-width="9.23334" stroke-linecap="butt" stroke-miterlimit="10" stroke-linejoin="miter" fill="none" stroke="#000000" d="M 4202.49 5445.23 L 4087.55 5445.23 "/>
<path transform="matrix(.1,0,0,-.1,-301,555)" stroke-width="9.23334" stroke-linecap="butt" stroke-miterlimit="10" stroke-linejoin="miter" fill="none" stroke="#000000" d="M 4202.49 5116.84 L 4087.55 5116.84 "/>
<path transform="matrix(.1,0,0,-.1,-301,555)" stroke-width="9.23334" stroke-linecap="butt" stroke-miterlimit="10" stroke-linejoin="miter" fill="none" stroke="#000000" d="M 4202.49 4788.44 L 4087.55 4788.44 "/>
<path transform="matrix(.1,0,0,-.1,-301,555)" stroke-width="9.23334" stroke-linecap="butt" stroke-miterlimit="10" stroke-linejoin="miter" fill="none" stroke="#000000" d="M 4696.52 5445.23 L 4551.08 5445.23 "/>
<path transform="matrix(.1,0,0,-.1,-301,555)" stroke-width="9.23334" stroke-linecap="butt" stroke-miterlimit="10" stroke-linejoin="miter" fill="none" stroke="#000000" d="M 4719.61 5422.15 L 4719.61 5139.92 "/>
<path transform="matrix(.1,0,0,-.1,-301,555)" stroke-width="9.23334" stroke-linecap="butt" stroke-miterlimit="10" stroke-linejoin="miter" fill="none" stroke="#000000" d="M 5298.49 5445.23 L 4742.69 5445.23 "/>
<path transform="matrix(.1,0,0,-.1,-301,555)" stroke-width="9.23334" stroke-linecap="butt" stroke-miterlimit="10" stroke-linejoin="miter" fill="none" stroke="#000000" d="M 5854.3 5445.23 L 5298.49 5445.23 "/>
<path transform="matrix(.1,0,0,-.1,-301,555)" stroke-width="9.23334" stroke-linecap="butt" stroke-miterlimit="10" stroke-linejoin="miter" fill="none" stroke="#000000" d="M 5877.38 5422.15 L 5877.38 5139.92 "/>
<path transform="matrix(.1,0,0,-.1,-301,555)" stroke-width="9.23334" stroke-linecap="butt" stroke-miterlimit="10" stroke-linejoin="miter" fill="none" stroke="#000000" d="M 6045.91 5445.23 L 5900.46 5445.23 "/>
<path transform="matrix(.1,0,0,-.1,-301,555)" stroke-width="9.23334" stroke-linecap="butt" stroke-miterlimit="10" stroke-linejoin="miter" fill="none" stroke="#000000" d="M 6045.91 5116.84 L 5900.46 5116.84 "/>
<path transform="matrix(.1,0,0,-.1,-301,555)" stroke-width="9.23334" stroke-linecap="butt" stroke-miterlimit="10" stroke-linejoin="miter" fill="none" stroke="#000000" d="M 6045.91 4788.44 L 5900.46 4788.44 "/>
<path transform="matrix(.1,0,0,-.1,-301,555)" stroke-width="9.23334" stroke-linecap="butt" stroke-miterlimit="10" stroke-linejoin="miter" fill="none" stroke="#000000" d="M 6509.44 5445.23 L 6394.5 5445.23 "/>
<path transform="matrix(.1,0,0,-.1,-301,555)" stroke-width="9.23334" stroke-linecap="butt" stroke-miterlimit="10" stroke-linejoin="miter" fill="none" stroke="#000000" d="M 4202.49 5116.84 L 4087.55 5116.84 "/>
<path transform="matrix(.1,0,0,-.1,-301,555)" stroke-width="9.23334" stroke-linecap="butt" stroke-miterlimit="10" stroke-linejoin="miter" fill="none" stroke="#000000" d="M 4696.52 5116.84 L 4551.08 5116.84 "/>
<path transform="matrix(.1,0,0,-.1,-301,555)" stroke-width="9.23334" stroke-linecap="butt" stroke-miterlimit="10" stroke-linejoin="miter" fill="none" stroke="#000000" d="M 4719.61 5093.75 L 4719.61 4811.52 "/>
<path transform="matrix(.1,0,0,-.1,-301,555)" stroke-width="9.23334" stroke-linecap="butt" stroke-miterlimit="10" stroke-linejoin="miter" fill="none" stroke="#000000" d="M 5298.49 5116.84 L 4742.69 5116.84 "/>
<path transform="matrix(.1,0,0,-.1,-301,555)" stroke-width="9.23334" stroke-linecap="butt" stroke-miterlimit="10" stroke-linejoin="miter" fill="none" stroke="#000000" d="M 5854.3 5116.84 L 5298.49 5116.84 "/>
<path transform="matrix(.1,0,0,-.1,-301,555)" stroke-width="9.23334" stroke-linecap="butt" stroke-miterlimit="10" stroke-linejoin="miter" fill="none" stroke="#000000" d="M 5877.38 5093.75 L 5877.38 4811.52 "/>
<path transform="matrix(.1,0,0,-.1,-301,555)" stroke-width="9.23334" stroke-linecap="butt" stroke-miterlimit="10" stroke-linejoin="miter" fill="none" stroke="#000000" d="M 6045.91 5116.84 L 5900.46 5116.84 "/>
<path transform="matrix(.1,0,0,-.1,-301,555)" stroke-width="9.23334" stroke-linecap="butt" stroke-miterlimit="10" stroke-linejoin="miter" fill="none" stroke="#000000" d="M 6509.44 5116.84 L 6394.5 5116.84 "/>
<path transform="matrix(.1,0,0,-.1,-301,555)" stroke-width="9.23334" stroke-linecap="butt" stroke-miterlimit="10" stroke-linejoin="miter" fill="none" stroke="#000000" d="M 4202.49 4788.44 L 4087.55 4788.44 "/>
<path transform="matrix(.1,0,0,-.1,-301,555)" stroke-width="9.23334" stroke-linecap="butt" stroke-miterlimit="10" stroke-linejoin="miter" fill="none" stroke="#000000" d="M 4696.52 4788.44 L 4551.08 4788.44 "/>
<path transform="matrix(.1,0,0,-.1,-301,555)" stroke-width="9.23334" stroke-linecap="butt" stroke-miterlimit="10" stroke-linejoin="miter" fill="none" stroke="#000000" d="M 4719.61 4765.36 L 4719.61 4509.02 "/>
<path transform="matrix(.1,0,0,-.1,-301,555)" stroke-width="9.23334" stroke-linecap="butt" stroke-miterlimit="10" stroke-linejoin="miter" fill="none" stroke="#000000" d="M 5298.49 4788.44 L 4742.69 4788.44 "/>
<path transform="matrix(.1,0,0,-.1,-301,555)" stroke-width="9.23334" stroke-linecap="butt" stroke-miterlimit="10" stroke-linejoin="miter" fill="none" stroke="#000000" d="M 5854.3 4788.44 L 5298.49 4788.44 "/>
<path transform="matrix(.1,0,0,-.1,-301,555)" stroke-width="9.23334" stroke-linecap="butt" stroke-miterlimit="10" stroke-linejoin="miter" fill="none" stroke="#000000" d="M 5877.38 4765.36 L 5877.38 4509.02 "/>
<path transform="matrix(.1,0,0,-.1,-301,555)" stroke-width="9.23334" stroke-linecap="butt" stroke-miterlimit="10" stroke-linejoin="miter" fill="none" stroke="#000000" d="M 6045.91 4788.44 L 5900.46 4788.44 "/>
<path transform="matrix(.1,0,0,-.1,-301,555)" stroke-width="9.23334" stroke-linecap="butt" stroke-miterlimit="10" stroke-linejoin="miter" fill="none" stroke="#000000" d="M 6509.44 4788.44 L 6394.5 4788.44 "/>
<path transform="matrix(.1,0,0,-.1,-301,555)" stroke-width="9.23334" stroke-linecap="butt" stroke-miterlimit="10" stroke-linejoin="miter" fill="none" stroke="#000000" d="M 4376.79 4460.04 L 4087.55 4460.04 "/>
<path transform="matrix(.1,0,0,-.1,-301,555)" stroke-width="9.23334" stroke-linecap="butt" stroke-miterlimit="10" stroke-linejoin="miter" fill="none" stroke="#000000" d="M 4670.64 4460.04 L 4376.79 4460.04 "/>
<path transform="matrix(.1,0,0,-.1,-301,555)" stroke-width="9.23334" stroke-linecap="butt" stroke-miterlimit="10" stroke-linejoin="miter" fill="none" stroke="#000000" d="M 4888.14 4460.04 L 4768.58 4460.04 "/>
<path transform="matrix(.1,0,0,-.1,-301,555)" stroke-width="9.23334" stroke-linecap="butt" stroke-miterlimit="10" stroke-linejoin="miter" fill="none" stroke="#000000" d="M 5828.41 4460.04 L 5708.85 4460.04 "/>
<path transform="matrix(.1,0,0,-.1,-301,555)" stroke-width="9.23334" stroke-linecap="butt" stroke-miterlimit="10" stroke-linejoin="miter" fill="none" stroke="#000000" d="M 6220.2 4460.04 L 5926.35 4460.04 "/>
<path transform="matrix(.1,0,0,-.1,-301,555)" stroke-width="9.23334" stroke-linecap="butt" stroke-miterlimit="10" stroke-linejoin="miter" fill="none" stroke="#000000" d="M 6509.44 4460.04 L 6220.2 4460.04 "/>
<path transform="matrix(.1,0,0,-.1,-301,555)" stroke-width="9.23334" stroke-linecap="butt" stroke-miterlimit="10" stroke-linejoin="miter" fill="none" stroke="#000000" d="M 4046.63 5480.38 C 4037.97 5476.05 4032.2 5465.96 4032.2 5451.53 L 4032.2 5145.69 C 4032.2 5131.27 4026.43 5121.16 4017.77 5116.84 C 4026.43 5112.51 4032.2 5102.41 4032.2 5087.98 L 4032.2 4782.14 C 4032.2 4767.72 4037.97 4757.62 4046.63 4753.29 "/>
<symbol id="font_3_4">
<path d="M .06300001 0 L .06300001 .65200009 L 0 .65200009 L 0 0 L .06300001 0 Z "/>
</symbol>
<use xlink:href="#font_3_4" transform="matrix(12.742,0,0,-12.742,.54417517,43.647516)"/>
<use xlink:href="#font_3_4" transform="matrix(12.742,0,0,-12.742,.54417517,51.292444)"/>
<symbol id="font_4_1">
<path d="M .35900004 .9050001 C .33900003 .7900001 .23900002 .26900003 .23900002 .26900003 C .136 .27600003 .097 .337 .097 .42000003 C .097 .53400006 .15600002 .67200008 .24700001 .711 L .23600003 .73 C .088 .6980001 0 .56700006 0 .44300003 C 0 .32000003 .10800001 .23300001 .231 .23000002 C .23300001 .23000002 .19300002 .023000002 .19300002 .008000001 C .19500001 .001000002 .19600001 0 .21100001 0 C .22700003 0 .23000002 .001000002 .23300001 .0069999995 C .23700002 .012999997 .277 .16700001 .29200004 .23000002 C .46300004 .23400001 .632 .37800003 .632 .549 C .632 .69600006 .48700003 .7440001 .41400004 .7440001 L .46300004 .934 L .462 .934 C .45200003 .934 .36 .908 .35900004 .9050001 M .526 .49300004 C .49900005 .367 .43700005 .27600003 .30100004 .26900003 L .404 .70600005 C .483 .70600005 .534 .65000006 .534 .558 C .534 .538 .532 .517 .527 .49400003 L .526 .49300004 Z "/>
</symbol>
<use xlink:href="#font_4_1" transform="matrix(12.465,0,0,-12.465,3.5071674,49.91997)"/>
<symbol id="font_3_3">
<path d="M .24700003 .586 L 0 .024999977 L .052 0 L .311 .586 L .052 1.172 L 0 1.1470001 L .24700003 .586 Z "/>
</symbol>
<use xlink:href="#font_3_3" transform="matrix(12.742,0,0,-12.742,12.79747,50.782754)"/>
<symbol id="font_5_6">
<path d="M .5500001 0 L .5500001 .058 L 0 .058 L 0 0 L .5500001 0 M .5500001 .22 L .5500001 .27800004 L 0 .27800004 L 0 .22 L .5500001 .22 Z "/>
</symbol>
<use xlink:href="#font_5_6" transform="matrix(12.742,0,0,-12.742,21.196536,45.081308)"/>
<symbol id="font_4_2">
<path d="M .42700003 .28100003 L .57800009 .50200006 L .505 .50200006 L .423 .34300003 C .423 .47700004 .386 .51400008 .278 .51400008 C .08500001 .51400008 0 .308 0 .163 C 0 .076000008 .038000004 0 .147 0 C .22100002 0 .28300003 .07300001 .32700003 .136 C .326 .126 .326 .116000007 .326 .106000009 C .326 .076000008 .33 .048 .342 .028 C .35300002 .01 .36600004 0 .38900004 0 C .41300003 0 .447 .007999999 .47300003 .028 C .492 .043 .531 .080000009 .55799999 .144 L .53400006 .158 C .508 .10700001 .46600006 .052 .44400005 .052 C .416 .052 .416 .10400001 .416 .128 C .416 .172 .421 .23 .42700003 .28100003 M .33200003 .213 C .28 .12900001 .22800002 .054000006 .162 .054000006 C .112 .054000006 .096 .10400001 .096 .16 C .096 .276 .158 .479 .279 .479 C .32700003 .479 .34100003 .41300003 .34100003 .338 C .34100003 .296 .337 .25100003 .33200003 .213 Z "/>
</symbol>
<use xlink:href="#font_4_2" transform="matrix(12.465,0,0,-12.465,32.599504,47.052995)"/>
<symbol id="font_5_5">
<path d="M 0 .85 L 0 0 L .058000007 0 L .058000007 .85 L 0 .85 Z "/>
</symbol>
<use xlink:href="#font_5_5" transform="matrix(12.742,0,0,-12.742,43.120187,48.5935)"/>
<symbol id="font_6_4">
<path d="M .234 .17 L .24900002 .10300001 C .266 .028 .292 0 .34100003 0 C .37800003 0 .396 .012 .442 .068 C .46 .089 .463 .094000007 .48900003 .14 L .458 .157 C .448 .141 .44500003 .136 .43 .115 C .40100003 .076000008 .384 .061000006 .366 .061000006 C .343 .061000006 .333 .083000008 .315 .165 L .296 .26 L .34 .34100003 C .36400003 .38600005 .38500003 .408 .403 .408 C .411 .408 .416 .40400005 .42000003 .39500005 C .42900003 .375 .43600003 .37 .45400004 .37 C .485 .37 .504 .39100004 .504 .42400003 C .504 .45900006 .48000003 .485 .44700004 .485 C .42000003 .485 .39000003 .47100003 .36900003 .448 C .349 .426 .34800003 .426 .314 .36300005 L .285 .311 L .27400003 .366 C .257 .45200003 .23500002 .485 .194 .485 C .17200002 .485 .15 .472 .125 .444 C .109000008 .426 .095 .40600003 .05 .34100003 L .079 .32 C .13 .393 .14400001 .408 .16100002 .408 C .16800002 .408 .178 .40100003 .18200001 .393 C .19100002 .37700004 .19100002 .37700004 .211 .278 L .22300002 .22000002 L .178 .14 C .15 .089 .125 .061000006 .109000008 .061000006 C .102000009 .061000006 .096 .068 .094000007 .081 C .089 .108 .076000008 .120000008 .051 .120000008 C .021 .120000008 0 .096 0 .062000004 C 0 .025000003 .026 0 .066 0 C .114 0 .16100002 .04 .204 .116000007 L .234 .17 Z "/>
</symbol>
<use xlink:href="#font_6_4" transform="matrix(12.8805,0,0,-12.8805,45.39312,47.09662)"/>
<symbol id="font_5_3">
<path d="M .192 .42700003 L 0 .025000006 L .052 0 L .256 .42700003 L .052 .8540001 L 0 .829 L .192 .42700003 Z "/>
</symbol>
<symbol id="font_5_2">
<path d="M 0 .30400003 L 0 .24600002 L .24600002 .24600002 L .24600002 0 L .30400003 0 L .30400003 .24600002 L .5500001 .24600002 L .5500001 .30400003 L .30400003 .30400003 L .30400003 .55 L .24600002 .55 L .24600002 .30400003 L 0 .30400003 Z "/>
</symbol>
<use xlink:href="#font_5_3" transform="matrix(12.742,0,0,-12.742,52.817949,48.618986)"/>
<use xlink:href="#font_5_2" transform="matrix(12.742,0,0,-12.742,60.131319,46.814218)"/>
<symbol id="font_4_3">
<path d="M .41500003 .9840001 C .279 .9840001 .17800002 .8310001 .15100001 .70300009 L 0 0 L .09500001 .027999998 L .15100001 .287 C .17600002 .25 .23100002 .23000002 .276 .23000002 C .441 .23000002 .56700006 .379 .56700006 .544 C .56700006 .619 .531 .699 .41500003 .70500007 C .50100007 .725 .56500008 .788 .56500008 .87600007 C .56500008 .90700009 .55300006 .9330001 .531 .954 C .50400009 .9790001 .454 .9840001 .41500003 .9840001 M .466 .49800004 C .43400003 .34900005 .391 .26700003 .281 .26700003 C .23500003 .26700003 .18400002 .312 .18400002 .40800003 C .18400002 .43 .187 .45500005 .19300002 .48200003 L .246 .7260001 C .263 .80700007 .298 .947 .404 .947 C .45900003 .947 .48100005 .91200008 .48100005 .8640001 C .48100005 .81200006 .46300004 .722 .384 .722 C .347 .722 .327 .732 .315 .732 C .296 .732 .287 .7210001 .283 .702 C .282 .697 .281 .6930001 .281 .689 C .281 .67700007 .28800003 .67200008 .30200003 .67200008 C .316 .67200008 .33900003 .68200007 .375 .68200007 C .43800003 .68200007 .47 .60800006 .47 .54 C .47 .526 .469 .51100006 .466 .49800004 Z "/>
</symbol>
<use xlink:href="#font_4_3" transform="matrix(12.465,0,0,-12.465,70.445148,49.91994)"/>
<use xlink:href="#font_5_5" transform="matrix(12.742,0,0,-12.742,80.83695,48.5935)"/>
<symbol id="font_6_5">
<path d="M .29900003 .517 C .27600003 .62600007 .24800003 .67200008 .20500002 .67200008 C .16100002 .67200008 .116000007 .61700007 .075 .509 L .106000009 .495 C .143 .57500007 .15400002 .591 .171 .591 C .185 .591 .19800002 .57000008 .20900002 .527 C .24000001 .41300003 .25800003 .329 .28 .20300001 C .24700001 .15100001 .24000001 .141 .22300002 .119 C .183 .07000001 .14400001 .041999997 .117000009 .041999997 C .105000007 .041999997 .098000008 .047999994 .098000008 .058 C .098000008 .089 .098000008 .089 .095000009 .097 C .08800001 .116000007 .071 .128 .052 .128 C .023000002 .128 0 .104 0 .074 C 0 .032999994 .040000004 0 .09200001 0 C .15 0 .204 .033999996 .263 .108 C .31 .16800002 .389 .3 .46400003 .44600005 C .521 .556 .53300008 .587 .53300008 .62 C .53300008 .651 .51500007 .67200008 .488 .67200008 C .46100004 .67200008 .439 .64900007 .439 .62200006 C .439 .61700007 .44000004 .611 .441 .605 C .44700004 .57100006 .44700004 .568 .44700004 .55300006 C .44700004 .503 .40800003 .40900005 .343 .306 L .29900003 .517 Z "/>
</symbol>
<use xlink:href="#font_6_5" transform="matrix(12.8805,0,0,-12.8805,83.20958,49.505273)"/>
<use xlink:href="#font_5_3" transform="matrix(12.742,0,0,-12.742,91.08748,48.618986)"/>
<path transform="matrix(.1,0,0,-.1,-301,555)" d="M 4202.49 4690.13 L 4551.076 4690.13 L 4551.076 5543.548 L 4202.49 5543.548 Z " fill="#ffffff"/>
<path transform="matrix(.1,0,0,-.1,-301,555)" stroke-width="9.23334" stroke-linecap="butt" stroke-miterlimit="10" stroke-linejoin="miter" fill="none" stroke="#000000" d="M 4202.49 4690.13 L 4551.076 4690.13 L 4551.076 5543.548 L 4202.49 5543.548 Z "/>
<symbol id="font_6_3">
<path d="M .611 .354 L .55 .123 C .535 .07 .535 .069000009 .527 .061000006 C .51600006 .051000004 .49200005 .047000003 .44300003 .047000003 L .439 .047000003 L .43400003 0 L .75100007 0 L .757 .047000003 L .731 .047000003 C .666 .047000003 .652 .052 .652 .074 C .652 .081 .656 .104 .661 .123 L .78900006 .59900006 C .804 .65400007 .804 .65400007 .81200006 .661 C .823 .671 .846 .675 .896 .675 L .90000006 .675 L .90500006 .72200009 L .587 .72200009 L .582 .675 L .60800006 .675 C .67300006 .675 .68700006 .67 .68700006 .648 C .68700006 .64000007 .684 .623 .67700007 .59900006 L .624 .40100003 L .302 .40100003 L .356 .59900006 C .37 .65400007 .37 .65400007 .379 .661 C .389 .671 .41300006 .675 .462 .675 L .46600003 .675 L .47100003 .72200009 L .15400002 .72200009 L .148 .675 L .17400001 .675 C .23900001 .675 .25300003 .67 .25300003 .648 C .25300003 .64000007 .24900002 .619 .24400002 .59900006 L .116000007 .123 C .102000009 .07 .101 .069000009 .09300001 .061000006 C .082 .051000004 .059000005 .047000003 .010000002 .047000003 L .0050000029 .047000003 L 0 0 L .31800003 0 L .323 .047000003 L .297 .047000003 C .23200001 .047000003 .21800001 .052 .21800001 .074 C .21800001 .082 .21800001 .082 .22800002 .123 L .29000003 .354 L .611 .354 Z "/>
</symbol>
<use xlink:href="#font_6_3" transform="matrix(12.8805,0,0,-12.8805,123.79256,48.532014)"/>
<symbol id="font_5_4">
<path d="M 0 .28100003 C 0 .126 .12600002 0 .28100003 0 C .43600003 0 .56200006 .126 .56200006 .28100003 C .56200006 .43600003 .43600003 .56200006 .28100003 .56200006 C .12600002 .56200006 0 .43600003 0 .28100003 M .5120001 .28100003 C .5120001 .22700002 .493 .177 .46200005 .13800001 L .32000003 .28100003 L .46200005 .42300005 C .493 .38400004 .5120001 .33500005 .5120001 .28100003 M .279 .24000001 L .42100004 .097 C .38200004 .067 .33400003 .050000006 .28100003 .050000006 C .22700003 .050000006 .17700002 .068 .13800001 .099 L .279 .24000001 M .13800001 .46200005 C .17700002 .49300004 .22700003 .512 .28100003 .512 C .33400003 .512 .38200004 .49400006 .42100004 .46400006 L .279 .32200004 L .13800001 .46200005 M .050000013 .28100003 C .050000013 .33400003 .067 .38200004 .097 .42100004 L .238 .28100003 L .097 .14 C .067 .179 .050000013 .22800002 .050000013 .28100003 Z "/>
</symbol>
<use xlink:href="#font_5_4" transform="matrix(9.55655,0,0,-9.55655,136.49588,43.494718)"/>
<symbol id="font_6_1">
<path d="M .21500002 .485 L .034 .47000004 L .030000003 .43400003 L .054000006 .43400003 C .095000009 .43400003 .111 .425 .111 .403 C .111 .394 .10800001 .38100005 .102000009 .35900004 L 0 .015000001 L .087000008 .015000001 L .128 .15400002 C .15400002 .24100001 .16600001 .269 .202 .32200004 C .245 .38600005 .298 .425 .34100003 .425 C .36400003 .425 .381 .407 .381 .384 C .381 .36700005 .37600003 .34500004 .36600004 .314 L .31300003 .158 C .3 .119 .29500003 .096 .29500003 .074 C .29500003 .032 .32500003 0 .365 0 C .42800004 0 .49200005 .053000004 .54800006 .15 L .51900008 .171 C .469 .09200001 .42600004 .051000004 .395 .051000004 C .38500003 .051000004 .37700004 .059000005 .37700004 .07000001 C .37700004 .081 .38000003 .093 .39600004 .13700001 L .44300003 .27500005 C .45900003 .32 .46700005 .35900004 .46700005 .388 C .46700005 .44100005 .42400003 .485 .37100003 .485 C .312 .485 .25300003 .44200004 .186 .35000003 L .21500002 .485 Z "/>
</symbol>
<use xlink:href="#font_6_1" transform="matrix(9.66036,0,0,-9.66036,143.0457,43.649179)"/>
<path transform="matrix(.1,0,0,-.1,-301,555)" d="M 6045.91 4690.13 L 6394.496 4690.13 L 6394.496 5543.548 L 6045.91 5543.548 Z " fill="#ffffff"/>
<path transform="matrix(.1,0,0,-.1,-301,555)" stroke-width="9.23334" stroke-linecap="butt" stroke-miterlimit="10" stroke-linejoin="miter" fill="none" stroke="#000000" d="M 6045.91 4690.13 L 6394.496 4690.13 L 6394.496 5543.548 L 6045.91 5543.548 Z "/>
<use xlink:href="#font_6_3" transform="matrix(12.8805,0,0,-12.8805,308.13255,48.532014)"/>
<use xlink:href="#font_5_4" transform="matrix(9.55655,0,0,-9.55655,320.83628,43.494718)"/>
<use xlink:href="#font_6_1" transform="matrix(9.66036,0,0,-9.66036,327.38575,43.649179)"/>
<use xlink:href="#font_5_5" transform="matrix(12.742,0,0,-12.742,88.16111,114.27328)"/>
<symbol id="font_7_1">
<path d="M .24200002 .71900007 C .102000009 .71900007 0 .566 0 .357 C 0 .15100001 .099 0 .23400003 0 C .374 0 .472 .14600002 .472 .35400004 C .472 .46000005 .45000003 .54800006 .40800003 .61700007 C .36900003 .68 .305 .71900007 .24200002 .71900007 M .23500002 .676 C .268 .676 .3 .65400007 .32400004 .614 C .351 .568 .36 .509 .36 .37200005 C .36 .23200001 .35300002 .16600001 .33300004 .12200001 C .31000004 .073 .27400003 .043 .23600003 .043 C .20300001 .043 .171 .065 .14700002 .105000007 C .11900001 .15200001 .11100001 .215 .11100001 .37800003 C .11100001 .49400003 .11800001 .55300006 .13800001 .596 C .16100002 .647 .197 .676 .23500002 .676 Z "/>
</symbol>
<use xlink:href="#font_7_1" transform="matrix(12.8804,0,0,-12.8804,90.84539,112.7764)"/>
<use xlink:href="#font_5_3" transform="matrix(12.742,0,0,-12.742,97.88661,114.29876)"/>
<path transform="matrix(.1,0,0,-.1,-301,555)" d="M 4888.14 4245.5 L 5708.855 4245.5 L 5708.855 4674.598 L 4888.14 4674.598 Z " fill="#ffffff"/>
<path transform="matrix(.1,0,0,-.1,-301,555)" stroke-width="9.23334" stroke-linecap="butt" stroke-miterlimit="10" stroke-linejoin="miter" fill="none" stroke="#000000" d="M 4888.14 4245.5 L 5708.855 4245.5 L 5708.855 4674.598 L 4888.14 4674.598 Z "/>
<symbol id="font_3_1">
<path d="M 0 0 L .19300002 0 L .19300002 .031999828 C .07699999 .03799987 .07100001 .03799987 .07100001 .29799987 L .07100001 2.096 C .07100001 2.356 .07699999 2.353 .19300002 2.359 L .19300002 2.391 L 0 2.391 L 0 0 Z "/>
</symbol>
<use xlink:href="#font_3_1" transform="matrix(12.742,0,0,-12.742,201.01697,124.222408)"/>
<symbol id="font_7_2">
<path d="M .22200004 .70400008 C .18800003 .66300007 .09600001 .632 .0040000008 .63000008 L .0040000008 .587 L .092 .587 C .15 .587 .15400002 .583 .15400002 .52400007 L .15400002 .123 L .15400002 .094000007 C .15400002 .052 .14500001 .047000003 .065000008 .047000003 L 0 .047000003 L 0 0 L .39600004 0 L .39600004 .047000003 L .34100003 .047000003 C .28800003 .047000003 .26600004 .051000004 .25800003 .061000006 C .25100003 .068 .25100003 .068 .25100003 .123 L .25100003 .536 C .25100003 .58500006 .25300003 .633 .25800003 .70400008 L .22200004 .70400008 Z "/>
</symbol>
<use xlink:href="#font_7_2" transform="matrix(12.8804,0,0,-12.8804,206.21443,103.872409)"/>
<use xlink:href="#font_7_1" transform="matrix(12.8804,0,0,-12.8804,235.15682,104.06561)"/>
<use xlink:href="#font_7_1" transform="matrix(12.8804,0,0,-12.8804,205.46736,121.006229)"/>
<symbol id="font_6_6">
<path d="M .34500004 .13100001 C .286 .07000001 .24200002 .047000003 .19000001 .047000003 C .13000001 .047000003 .093 .087000008 .093 .15100001 C .093 .158 .094000007 .172 .095 .185 C .21200001 .21300002 .23200001 .21900001 .27700005 .23900001 C .35400004 .273 .39700005 .324 .39700005 .38200004 C .39700005 .44300003 .34800003 .485 .27800004 .485 C .132 .485 0 .33600004 0 .17300001 C 0 .065 .065000008 0 .17300001 0 C .25000004 0 .31500004 .034 .36900003 .104 L .34500004 .13100001 M .1 .224 C .123 .35900004 .184 .445 .25800003 .445 C .29100005 .445 .31300003 .422 .31300003 .388 C .31300003 .333 .27400003 .286 .202 .254 C .17300001 .24100001 .156 .23600002 .1 .224 Z "/>
</symbol>
<use xlink:href="#font_6_6" transform="matrix(12.8805,0,0,-12.8805,224.24443,121.006229)"/>
<symbol id="font_5_1">
<path d="M .5500001 0 L .5500001 .058 L 0 .058 L 0 0 L .5500001 0 Z "/>
</symbol>
<use xlink:href="#font_5_1" transform="matrix(9.55655,0,0,-9.55655,231.1317,113.36707)"/>
<symbol id="font_6_7">
<path d="M .20400001 .48400004 L .012 .469 L .007999999 .43300004 L .032000007 .43300004 C .073 .43300004 .089 .42400003 .089 .402 C .089 .393 .086 .38000003 .080000009 .358 L .022000002 .163 C .0040000008 .1 0 .084 0 .062 C 0 .027 .030000003 0 .069 0 C .11200001 0 .15300001 .023000002 .19300002 .069000009 C .21100001 .089 .22700002 .111 .255 .154 L .22400002 .171 C .17400001 .094000007 .13000001 .050000006 .10300001 .050000006 C .093 .050000006 .086 .059 .086 .071 C .086 .081 .09 .099 .098 .127 L .20400001 .48400004 M .18600002 .72800007 C .15600002 .72800007 .13200002 .70400008 .13200002 .674 C .13200002 .64500007 .15600002 .62 .18500002 .62 C .21600002 .62 .24000003 .64400008 .24000003 .674 C .24000003 .70400008 .21600002 .72800007 .18600002 .72800007 Z "/>
</symbol>
<use xlink:href="#font_6_7" transform="matrix(9.66036,0,0,-9.66036,237.97592,115.92013)"/>
<symbol id="font_8_1">
<path d="M .63 0 L .34600003 .693 L .272 .693 L 0 0 L .63 0 M .503 .054 L .061 .054 L .27600003 .601 L .503 .054 Z "/>
</symbol>
<use xlink:href="#font_8_1" transform="matrix(9.86807,0,0,-9.86807,241.68053,115.78488)"/>
<symbol id="font_6_2">
<path d="M .24400002 .63600006 L .157 .63600006 L .108 .47000004 L .014 .47000004 L 0 .42300005 L .094000007 .42300005 L .019000004 .171 C .005000001 .12100001 0 .098000008 0 .076000008 C 0 .034 .032000007 0 .072000008 0 C .11900001 0 .175 .031000002 .21000001 .078 C .224 .097 .234 .113000009 .26000003 .155 L .23000002 .17500001 C .168 .081 .139 .053000004 .10600001 .053000004 C .09200001 .053000004 .083000008 .064 .083000008 .081 C .083000008 .089 .08400001 .096 .08600001 .104 L .18100001 .42300005 L .29000003 .42300005 L .30400003 .47000004 L .19500001 .47000004 L .24400002 .63600006 Z "/>
</symbol>
<use xlink:href="#font_6_2" transform="matrix(9.66036,0,0,-9.66036,248.93592,115.92979)"/>
<symbol id="font_3_2">
<path d="M .19299999 2.391 L 0 2.391 L 0 2.3590003 C .116000007 2.3530002 .122 2.3560003 .122 2.0960003 L .122 .2980001 C .122 .03799987 .116000007 .03799987 0 .032000066 L 0 0 L .19299999 0 L .19299999 2.391 Z "/>
</symbol>
<use xlink:href="#font_3_2" transform="matrix(12.742,0,0,-12.742,254.26297,124.20963)"/>
</g>
</g>
</svg>
