<?xml version="1.0" encoding="UTF-8" standalone="no"?>
<!DOCTYPE svg PUBLIC "-//W3C//DTD SVG 1.1//EN" "http://www.w3.org/Graphics/SVG/1.1/DTD/svg11.dtd">
<svg xmlns="http://www.w3.org/2000/svg" xmlns:xlink="http://www.w3.org/1999/xlink" version="1.1" width="332pt" height="164pt" viewBox="0 0 332 164">
<g enable-background="new">
<clipPath id="cp0">
<path transform="matrix(1,0,0,-1,-301,555)" d="M 0 0 L 1001 0 L 1001 709 L 0 709 Z "/>
</clipPath>
<g clip-path="url(#cp0)">
<path transform="matrix(.1,0,0,-.1,-301,555)" stroke-width="9.23334" stroke-linecap="butt" stroke-miterlimit="10" stroke-linejoin="miter" fill="none" stroke="#000000" d="M 4202.5 5197.39 L 4087.56 5197.39 "/>
<path transform="matrix(.1,0,0,-.1,-301,555)" stroke-width="9.23334" stroke-linecap="butt" stroke-miterlimit="10" stroke-linejoin="miter" fill="none" stroke="#000000" d="M 4202.5 4869 L 4087.56 4869 "/>
<path transform="matrix(.1,0,0,-.1,-301,555)" stroke-width="9.23334" stroke-linecap="butt" stroke-miterlimit="10" stroke-linejoin="miter" fill="none" stroke="#000000" d="M 4202.5 4540.6 L 4087.56 4540.6 "/>
<path transform="matrix(.1,0,0,-.1,-301,555)" stroke-width="9.23334" stroke-linecap="butt" stroke-miterlimit="10" stroke-linejoin="miter" fill="none" stroke="#000000" d="M 4202.5 4212.2 L 4087.56 4212.2 "/>
<path transform="matrix(.1,0,0,-.1,-301,555)" stroke-width="9.23334" stroke-linecap="butt" stroke-miterlimit="10" stroke-linejoin="miter" fill="none" stroke="#000000" d="M 5174.61 5197.39 L 4649.3 5197.39 "/>
<path transform="matrix(.1,0,0,-.1,-301,555)" stroke-width="9.23334" stroke-linecap="butt" stroke-miterlimit="10" stroke-linejoin="miter" fill="none" stroke="#000000" d="M 5699.9 5197.39 L 5174.61 5197.39 "/>
<path transform="matrix(.1,0,0,-.1,-301,555)" stroke-width="9.23334" stroke-linecap="butt" stroke-miterlimit="10" stroke-linejoin="miter" fill="none" stroke="#000000" d="M 5699.9 4869 L 5174.61 4869 "/>
<path transform="matrix(.1,0,0,-.1,-301,555)" stroke-width="9.23334" stroke-linecap="butt" stroke-miterlimit="10" stroke-linejoin="miter" fill="none" stroke="#000000" d="M 5699.9 4540.6 L 5174.61 4540.6 "/>
<path transform="matrix(.1,0,0,-.1,-301,555)" stroke-width="9.23334" stroke-linecap="butt" stroke-miterlimit="10" stroke-linejoin="miter" fill="none" stroke="#000000" d="M 5699.9 4212.2 L 5584.96 4212.2 "/>
<path transform="matrix(.1,0,0,-.1,-301,555)" stroke-width="9.23334" stroke-linecap="butt" stroke-miterlimit="10" stroke-linejoin="miter" fill="none" stroke="#000000" d="M 6261.65 5197.39 L 6146.71 5197.39 "/>
<path transform="matrix(.1,0,0,-.1,-301,555)" stroke-width="9.23334" stroke-linecap="butt" stroke-miterlimit="10" stroke-linejoin="miter" fill="none" stroke="#000000" d="M 4202.5 4869 L 4087.56 4869 "/>
<path transform="matrix(.1,0,0,-.1,-301,555)" stroke-width="9.23334" stroke-linecap="butt" stroke-miterlimit="10" stroke-linejoin="miter" fill="none" stroke="#000000" d="M 5174.61 4869 L 4649.3 4869 "/>
<path transform="matrix(.1,0,0,-.1,-301,555)" stroke-width="9.23334" stroke-linecap="butt" stroke-miterlimit="10" stroke-linejoin="miter" fill="none" stroke="#000000" d="M 5699.9 4869 L 5174.61 4869 "/>
<path transform="matrix(.1,0,0,-.1,-301,555)" stroke-width="9.23334" stroke-linecap="butt" stroke-miterlimit="10" stroke-linejoin="miter" fill="none" stroke="#000000" d="M 6261.65 4869 L 6146.71 4869 "/>
<path transform="matrix(.1,0,0,-.1,-301,555)" stroke-width="9.23334" stroke-linecap="butt" stroke-miterlimit="10" stroke-linejoin="miter" fill="none" stroke="#000000" d="M 4202.5 4540.6 L 4087.56 4540.6 "/>
<path transform="matrix(.1,0,0,-.1,-301,555)" stroke-width="9.23334" stroke-linecap="butt" stroke-miterlimit="10" stroke-linejoin="miter" fill="none" stroke="#000000" d="M 5174.61 4540.6 L 4649.3 4540.6 "/>
<path transform="matrix(.1,0,0,-.1,-301,555)" stroke-width="9.23334" stroke-linecap="butt" stroke-miterlimit="10" stroke-linejoin="miter" fill="none" stroke="#000000" d="M 5699.9 4540.6 L 5174.61 4540.6 "/>
<path transform="matrix(.1,0,0,-.1,-301,555)" stroke-width="9.23334" stroke-linecap="butt" stroke-miterlimit="10" stroke-linejoin="miter" fill="none" stroke="#000000" d="M 6261.65 4540.6 L 6146.71 4540.6 "/>
<path transform="matrix(.1,0,0,-.1,-301,555)" stroke-width="9.23334" stroke-linecap="butt" stroke-miterlimit="10" stroke-linejoin="miter" fill="none" stroke="#000000" d="M 4202.5 4212.2 L 4087.56 4212.2 "/>
<path transform="matrix(.1,0,0,-.1,-301,555)" stroke-width="9.23334" stroke-linecap="butt" stroke-miterlimit="10" stroke-linejoin="miter" fill="none" stroke="#000000" d="M 4764.25 4212.2 L 4649.3 4212.2 "/>
<path transform="matrix(.1,0,0,-.1,-301,555)" stroke-width="9.23334" stroke-linecap="butt" stroke-miterlimit="10" stroke-linejoin="miter" fill="none" stroke="#000000" d="M 5699.9 4212.2 L 5584.96 4212.2 "/>
<path transform="matrix(.1,0,0,-.1,-301,555)" stroke-width="9.23334" stroke-linecap="butt" stroke-miterlimit="10" stroke-linejoin="miter" fill="none" stroke="#000000" d="M 6261.65 4212.2 L 6146.71 4212.2 "/>
<path transform="matrix(.1,0,0,-.1,-301,555)" stroke-width="9.23334" stroke-linecap="butt" stroke-miterlimit="10" stroke-linejoin="miter" fill="none" stroke="#000000" d="M 4046.64 5232.54 C 4037.98 5228.21 4032.21 5218.12 4032.21 5203.69 L 4032.21 4897.85 C 4032.21 4883.43 4026.44 4873.32 4017.78 4869 C 4026.44 4864.67 4032.21 4854.57 4032.21 4840.14 L 4032.21 4534.3 C 4032.21 4519.88 4037.98 4509.78 4046.64 4505.45 "/>
<symbol id="font_1_4">
<path d="M .06300001 0 L .06300001 .65200009 L 0 .65200009 L 0 0 L .06300001 0 Z "/>
</symbol>
<use xlink:href="#font_1_4" transform="matrix(12.742,0,0,-12.742,.54417517,68.43148)"/>
<use xlink:href="#font_1_4" transform="matrix(12.742,0,0,-12.742,.54417517,76.07641)"/>
<symbol id="font_2_1">
<path d="M .35900004 .9050001 C .33900003 .7900001 .23900002 .26900003 .23900002 .26900003 C .136 .27600003 .097 .337 .097 .42000003 C .097 .53400006 .15600002 .67200008 .24700001 .711 L .23600003 .73 C .088 .6980001 0 .56700006 0 .44300003 C 0 .32000003 .10800001 .23300001 .231 .23000002 C .23300001 .23000002 .19300002 .023000002 .19300002 .008000001 C .19500001 .001000002 .19600001 0 .21100001 0 C .22700003 0 .23000002 .001000002 .23300001 .0069999995 C .23700002 .012999997 .277 .16700001 .29200004 .23000002 C .46300004 .23400001 .632 .37800003 .632 .549 C .632 .69600006 .48700003 .7440001 .41400004 .7440001 L .46300004 .934 L .462 .934 C .45200003 .934 .36 .908 .35900004 .9050001 M .526 .49300004 C .49900005 .367 .43700005 .27600003 .30100004 .26900003 L .404 .70600005 C .483 .70600005 .534 .65000006 .534 .558 C .534 .538 .532 .517 .527 .49400003 L .526 .49300004 Z "/>
</symbol>
<use xlink:href="#font_2_1" transform="matrix(12.465,0,0,-12.465,3.5071674,74.70434)"/>
<symbol id="font_1_3">
<path d="M .24700003 .586 L 0 .024999977 L .052 0 L .311 .586 L .052 1.172 L 0 1.1470001 L .24700003 .586 Z "/>
</symbol>
<use xlink:href="#font_1_3" transform="matrix(12.742,0,0,-12.742,12.79747,75.56715)"/>
<symbol id="font_3_5">
<path d="M .5500001 0 L .5500001 .058 L 0 .058 L 0 0 L .5500001 0 M .5500001 .22 L .5500001 .27800004 L 0 .27800004 L 0 .22 L .5500001 .22 Z "/>
</symbol>
<use xlink:href="#font_3_5" transform="matrix(12.742,0,0,-12.742,21.197726,69.8657)"/>
<symbol id="font_2_2">
<path d="M .42700003 .28100003 L .57800009 .50200006 L .505 .50200006 L .423 .34300003 C .423 .47700004 .386 .51400008 .278 .51400008 C .08500001 .51400008 0 .308 0 .163 C 0 .076000008 .038000004 0 .147 0 C .22100002 0 .28300003 .07300001 .32700003 .136 C .326 .126 .326 .116000007 .326 .106000009 C .326 .076000008 .33 .048 .342 .028 C .35300002 .01 .36600004 0 .38900004 0 C .41300003 0 .447 .007999999 .47300003 .028 C .492 .043 .531 .080000009 .55799999 .144 L .53400006 .158 C .508 .10700001 .46600006 .052 .44400005 .052 C .416 .052 .416 .10400001 .416 .128 C .416 .172 .421 .23 .42700003 .28100003 M .33200003 .213 C .28 .12900001 .22800002 .054000006 .162 .054000006 C .112 .054000006 .096 .10400001 .096 .16 C .096 .276 .158 .479 .279 .479 C .32700003 .479 .34100003 .41300003 .34100003 .338 C .34100003 .296 .337 .25100003 .33200003 .213 Z "/>
</symbol>
<use xlink:href="#font_2_2" transform="matrix(12.465,0,0,-12.465,32.600694,71.83739)"/>
<symbol id="font_3_4">
<path d="M 0 .85 L 0 0 L .058000007 0 L .058000007 .85 L 0 .85 Z "/>
</symbol>
<use xlink:href="#font_3_4" transform="matrix(12.742,0,0,-12.742,43.120157,73.37789)"/>
<symbol id="font_4_2">
<path d="M .234 .17 L .24900002 .10300001 C .266 .028 .292 0 .34100003 0 C .37800003 0 .396 .012 .442 .068 C .46 .089 .463 .094000007 .48900003 .14 L .458 .157 C .448 .141 .44500003 .136 .43 .115 C .40100003 .076000008 .384 .061000006 .366 .061000006 C .343 .061000006 .333 .083000008 .315 .165 L .296 .26 L .34 .34100003 C .36400003 .38600005 .38500003 .408 .403 .408 C .411 .408 .416 .40400005 .42000003 .39500005 C .42900003 .375 .43600003 .37 .45400004 .37 C .485 .37 .504 .39100004 .504 .42400003 C .504 .45900006 .48000003 .485 .44700004 .485 C .42000003 .485 .39000003 .47100003 .36900003 .448 C .349 .426 .34800003 .426 .314 .36300005 L .285 .311 L .27400003 .366 C .257 .45200003 .23500002 .485 .194 .485 C .17200002 .485 .15 .472 .125 .444 C .109000008 .426 .095 .40600003 .05 .34100003 L .079 .32 C .13 .393 .14400001 .408 .16100002 .408 C .16800002 .408 .178 .40100003 .18200001 .393 C .19100002 .37700004 .19100002 .37700004 .211 .278 L .22300002 .22000002 L .178 .14 C .15 .089 .125 .061000006 .109000008 .061000006 C .102000009 .061000006 .096 .068 .094000007 .081 C .089 .108 .076000008 .120000008 .051 .120000008 C .021 .120000008 0 .096 0 .062000004 C 0 .025000003 .026 0 .066 0 C .114 0 .16100002 .04 .204 .116000007 L .234 .17 Z "/>
</symbol>
<use xlink:href="#font_4_2" transform="matrix(12.8805,0,0,-12.8805,45.39309,71.88101)"/>
<symbol id="font_3_3">
<path d="M .192 .42700003 L 0 .025000006 L .052 0 L .256 .42700003 L .052 .8540001 L 0 .829 L .192 .42700003 Z "/>
</symbol>
<symbol id="font_3_2">
<path d="M 0 .30400003 L 0 .24600002 L .24600002 .24600002 L .24600002 0 L .30400003 0 L .30400003 .24600002 L .5500001 .24600002 L .5500001 .30400003 L .30400003 .30400003 L .30400003 .55 L .24600002 .55 L .24600002 .30400003 L 0 .30400003 Z "/>
</symbol>
<use xlink:href="#font_3_3" transform="matrix(12.742,0,0,-12.742,52.817949,73.40337)"/>
<use xlink:href="#font_3_2" transform="matrix(12.742,0,0,-12.742,60.131319,71.59861)"/>
<symbol id="font_2_4">
<path d="M .41500003 .9840001 C .279 .9840001 .17800002 .8310001 .15100001 .70300009 L 0 0 L .09500001 .027999998 L .15100001 .287 C .17600002 .25 .23100002 .23000002 .276 .23000002 C .441 .23000002 .56700006 .379 .56700006 .544 C .56700006 .619 .531 .699 .41500003 .70500007 C .50100007 .725 .56500008 .788 .56500008 .87600007 C .56500008 .90700009 .55300006 .9330001 .531 .954 C .50400009 .9790001 .454 .9840001 .41500003 .9840001 M .466 .49800004 C .43400003 .34900005 .391 .26700003 .281 .26700003 C .23500003 .26700003 .18400002 .312 .18400002 .40800003 C .18400002 .43 .187 .45500005 .19300002 .48200003 L .246 .7260001 C .263 .80700007 .298 .947 .404 .947 C .45900003 .947 .48100005 .91200008 .48100005 .8640001 C .48100005 .81200006 .46300004 .722 .384 .722 C .347 .722 .327 .732 .315 .732 C .296 .732 .287 .7210001 .283 .702 C .282 .697 .281 .6930001 .281 .689 C .281 .67700007 .28800003 .67200008 .30200003 .67200008 C .316 .67200008 .33900003 .68200007 .375 .68200007 C .43800003 .68200007 .47 .60800006 .47 .54 C .47 .526 .469 .51100006 .466 .49800004 Z "/>
</symbol>
<use xlink:href="#font_2_4" transform="matrix(12.465,0,0,-12.465,70.445148,74.70434)"/>
<use xlink:href="#font_3_4" transform="matrix(12.742,0,0,-12.742,80.83695,73.37789)"/>
<symbol id="font_4_3">
<path d="M .29900003 .517 C .27600003 .62600007 .24800003 .67200008 .20500002 .67200008 C .16100002 .67200008 .116000007 .61700007 .075 .509 L .106000009 .495 C .143 .57500007 .15400002 .591 .171 .591 C .185 .591 .19800002 .57000008 .20900002 .527 C .24000001 .41300003 .25800003 .329 .28 .20300001 C .24700001 .15100001 .24000001 .141 .22300002 .119 C .183 .07000001 .14400001 .041999997 .117000009 .041999997 C .105000007 .041999997 .098000008 .047999994 .098000008 .058 C .098000008 .089 .098000008 .089 .095000009 .097 C .08800001 .116000007 .071 .128 .052 .128 C .023000002 .128 0 .104 0 .074 C 0 .032999994 .040000004 0 .09200001 0 C .15 0 .204 .033999996 .263 .108 C .31 .16800002 .389 .3 .46400003 .44600005 C .521 .556 .53300008 .587 .53300008 .62 C .53300008 .651 .51500007 .67200008 .488 .67200008 C .46100004 .67200008 .439 .64900007 .439 .62200006 C .439 .61700007 .44000004 .611 .441 .605 C .44700004 .57100006 .44700004 .568 .44700004 .55300006 C .44700004 .503 .40800003 .40900005 .343 .306 L .29900003 .517 Z "/>
</symbol>
<use xlink:href="#font_4_3" transform="matrix(12.8805,0,0,-12.8805,83.20958,74.289669)"/>
<use xlink:href="#font_3_3" transform="matrix(12.742,0,0,-12.742,91.08748,73.40337)"/>
<path transform="matrix(.1,0,0,-.1,-301,555)" d="M 4202.5 4118.22 L 4649.305 4118.22 L 4649.305 5291.3806 L 4202.5 5291.3806 Z " fill="#ffffff"/>
<path transform="matrix(.1,0,0,-.1,-301,555)" stroke-width="9.23334" stroke-linecap="butt" stroke-miterlimit="10" stroke-linejoin="miter" fill="none" stroke="#000000" d="M 4202.5 4118.22 L 4649.305 4118.22 L 4649.305 5291.3806 L 4202.5 5291.3806 Z "/>
<symbol id="font_5_1">
<path d="M .218 .49600006 C .09600001 .49600006 0 .38700003 0 .24700001 C 0 .11000001 .09600001 0 .21599999 0 C .336 0 .432 .11000001 .432 .24800001 C .432 .385 .336 .49600006 .218 .49600006 M .218 .453 C .28800003 .453 .32700003 .38 .32700003 .24800001 C .32700003 .115 .28800003 .043 .21599999 .043 C .144 .043 .10500001 .115 .10500001 .24700001 C .10500001 .38300003 .143 .453 .218 .453 Z "/>
</symbol>
<symbol id="font_5_2">
<path d="M .17700002 .46600003 L 0 .455 L 0 .41200004 L .041 .41200004 C .07800001 .41200004 .08400001 .40500004 .08400001 .36200003 L .08400001 .123 L .08400001 .083000008 C .08400001 .043 .073 .036000004 .007999999 .036000004 L .003999999 .036000004 L .003999999 0 L .27100004 0 L .27100004 .036000004 L .252 .036000004 C .18800001 .036000004 .17700002 .043 .17700002 .083000008 L .17700002 .123 L .17700002 .133 C .17700002 .208 .19100002 .284 .21600002 .34100003 C .24000001 .397 .27400003 .42800004 .316 .43300004 C .30200003 .41700004 .298 .407 .298 .388 C .298 .356 .321 .333 .35300002 .333 C .38900004 .333 .41400004 .36 .41400004 .40100003 C .41400004 .44900004 .38000003 .48100005 .32700003 .48100005 C .26400004 .48100005 .209 .43 .17700002 .342 L .17700002 .46600003 Z "/>
</symbol>
<symbol id="font_5_3">
<path d="M .40800003 .337 C .40800003 .40000005 .397 .43200005 .36800004 .45600004 C .335 .482 .286 .49600006 .222 .49600006 C .110000018 .49600006 .026999999 .44300003 .026999999 .371 C .026999999 .333 .05 .30900003 .08500001 .30900003 C .11600001 .30900003 .13900002 .33000005 .13900002 .36 C .13900002 .37300004 .134 .38700003 .12400001 .40100003 C .118 .408 .11700001 .411 .11700001 .41400004 C .11700001 .435 .158 .453 .206 .453 C .23700002 .453 .272 .44300003 .28800003 .42800004 C .307 .412 .314 .388 .314 .343 L .314 .30400003 C .20900002 .286 .17700002 .278 .128 .259 C .042 .22700002 0 .18 0 .117000009 C 0 .046000005 .057 0 .14500001 0 C .21400002 0 .27600003 .028 .319 .079 C .335 .028 .36 .008 .40700004 .008 C .45200003 .008 .49900005 .037 .49900005 .066 C .49900005 .073 .49400006 .078 .48900006 .078 C .48500005 .078 .48100005 .07700001 .474 .074 C .45800004 .068 .45400004 .067 .446 .067 C .418 .067 .40800003 .086 .40800003 .136 L .40800003 .337 M .314 .215 C .314 .155 .31100003 .141 .29400004 .115 C .26900003 .078 .22300002 .053000004 .18 .053000004 C .135 .053000004 .10100001 .086 .10100001 .13100001 C .10100001 .17300001 .12200001 .20300001 .16600001 .224 C .19700001 .238 .236 .24800001 .314 .261 L .314 .215 Z "/>
</symbol>
<symbol id="font_5_4">
<path d="M .35300002 .162 C .321 .09 .287 .061000006 .23500002 .061000006 C .155 .061000006 .10500001 .134 .10500001 .25100003 C .10500001 .37200005 .15400002 .453 .22800002 .453 C .25800003 .453 .284 .439 .284 .42300005 C .284 .42000003 .282 .417 .278 .411 C .262 .39200003 .25800003 .38200004 .25800003 .365 C .25800003 .33200003 .283 .30900003 .31800003 .30900003 C .35300002 .30900003 .379 .337 .379 .37700004 C .379 .444 .312 .49600006 .22299999 .49600006 C .093 .49600006 0 .389 0 .24000001 C 0 .098000008 .085 0 .20900002 0 C .298 0 .349 .041 .39200003 .147 L .35300002 .162 Z "/>
</symbol>
<symbol id="font_5_6">
<path d="M .185 .73700007 L 0 .726 L 0 .683 L .049000004 .683 C .085 .683 .091000009 .67600008 .091000009 .633 L .091000009 .123 L .091000009 .083000008 C .091000009 .043 .080000009 .036000004 .015999999 .036000004 L .009 .036000004 L .009 0 L .268 0 L .268 .036000004 L .261 .036000004 C .19600001 .036000004 .185 .043 .185 .083000008 L .185 .123 L .185 .73700007 Z "/>
</symbol>
<symbol id="font_5_5">
<path d="M .43000005 .24000001 C .43100003 .39000006 .34600003 .49600006 .224 .49600006 C .096000019 .49600006 0 .385 0 .23500002 C 0 .095000009 .091000009 0 .22600001 0 C .321 0 .38900004 .047000003 .43000005 .142 L .395 .16100002 C .35400004 .08400001 .312 .054 .245 .054 C .19400002 .054 .157 .076000008 .13100001 .120000008 C .113000009 .15 .105000007 .185 .106000009 .24000001 L .43000005 .24000001 M .10700001 .283 C .10700001 .314 .11100002 .33600004 .12100001 .36400003 C .142 .42400003 .17400001 .453 .222 .453 C .28300003 .453 .323 .40000005 .323 .32 C .323 .291 .314 .283 .282 .283 L .10700001 .283 Z "/>
</symbol>
<use xlink:href="#font_5_1" transform="matrix(12.8804,0,0,-12.8804,124.30595,89.3472)"/>
<use xlink:href="#font_5_2" transform="matrix(12.8804,0,0,-12.8804,130.57869,89.15399)"/>
<use xlink:href="#font_5_3" transform="matrix(12.8804,0,0,-12.8804,136.59384,89.3472)"/>
<use xlink:href="#font_5_4" transform="matrix(12.8804,0,0,-12.8804,143.62653,89.3472)"/>
<use xlink:href="#font_5_6" transform="matrix(12.8804,0,0,-12.8804,149.06195,89.15399)"/>
<use xlink:href="#font_5_5" transform="matrix(12.8804,0,0,-12.8804,153.32537,89.3472)"/>
<path transform="matrix(.1,0,0,-.1,-301,555)" d="M 5699.9 4118.22 L 6146.705 4118.22 L 6146.705 5291.3806 L 5699.9 5291.3806 Z " fill="#ffffff"/>
<path transform="matrix(.1,0,0,-.1,-301,555)" stroke-width="9.23334" stroke-linecap="butt" stroke-miterlimit="10" stroke-linejoin="miter" fill="none" stroke="#000000" d="M 5699.9 4118.22 L 6146.705 4118.22 L 6146.705 5291.3806 L 5699.9 5291.3806 Z "/>
<use xlink:href="#font_5_1" transform="matrix(12.8804,0,0,-12.8804,274.0429,89.3472)"/>
<use xlink:href="#font_5_2" transform="matrix(12.8804,0,0,-12.8804,280.31565,89.15399)"/>
<use xlink:href="#font_5_3" transform="matrix(12.8804,0,0,-12.8804,286.33079,89.3472)"/>
<use xlink:href="#font_5_4" transform="matrix(12.8804,0,0,-12.8804,293.36347,89.3472)"/>
<use xlink:href="#font_5_6" transform="matrix(12.8804,0,0,-12.8804,298.79887,89.15399)"/>
<use xlink:href="#font_5_5" transform="matrix(12.8804,0,0,-12.8804,303.06227,89.3472)"/>
<use xlink:href="#font_3_4" transform="matrix(12.742,0,0,-12.742,88.16059,139.057)"/>
<symbol id="font_5_7">
<path d="M .24200002 .71900007 C .102000009 .71900007 0 .566 0 .357 C 0 .15100001 .099 0 .23400003 0 C .374 0 .472 .14600002 .472 .35400004 C .472 .46000005 .45000003 .54800006 .40800003 .61700007 C .36900003 .68 .305 .71900007 .24200002 .71900007 M .23500002 .676 C .268 .676 .3 .65400007 .32400004 .614 C .351 .568 .36 .509 .36 .37200005 C .36 .23200001 .35300002 .16600001 .33300004 .12200001 C .31000004 .073 .27400003 .043 .23600003 .043 C .20300001 .043 .171 .065 .14700002 .105000007 C .11900001 .15200001 .11100001 .215 .11100001 .37800003 C .11100001 .49400003 .11800001 .55300006 .13800001 .596 C .16100002 .647 .197 .676 .23500002 .676 Z "/>
</symbol>
<use xlink:href="#font_5_7" transform="matrix(12.8804,0,0,-12.8804,90.84603,137.56012)"/>
<use xlink:href="#font_3_3" transform="matrix(12.742,0,0,-12.742,97.88609,139.08249)"/>
<path transform="matrix(.1,0,0,-.1,-301,555)" d="M 4764.25 3997.66 L 5584.9689 3997.66 L 5584.9689 4426.754 L 4764.25 4426.754 Z " fill="#ffffff"/>
<path transform="matrix(.1,0,0,-.1,-301,555)" stroke-width="9.23334" stroke-linecap="butt" stroke-miterlimit="10" stroke-linejoin="miter" fill="none" stroke="#000000" d="M 4764.25 3997.66 L 5584.9689 3997.66 L 5584.9689 4426.754 L 4764.25 4426.754 Z "/>
<symbol id="font_1_1">
<path d="M 0 0 L .19300002 0 L .19300002 .031999828 C .07699999 .03799987 .07100001 .03799987 .07100001 .29799987 L .07100001 2.096 C .07100001 2.356 .07699999 2.353 .19300002 2.359 L .19300002 2.391 L 0 2.391 L 0 0 Z "/>
</symbol>
<use xlink:href="#font_1_1" transform="matrix(12.742,0,0,-12.742,188.62897,149.0054)"/>
<symbol id="font_5_8">
<path d="M .22200004 .70400008 C .18800003 .66300007 .09600001 .632 .0040000008 .63000008 L .0040000008 .587 L .092 .587 C .15 .587 .15400002 .583 .15400002 .52400007 L .15400002 .123 L .15400002 .094000007 C .15400002 .052 .14500001 .047000003 .065000008 .047000003 L 0 .047000003 L 0 0 L .39600004 0 L .39600004 .047000003 L .34100003 .047000003 C .28800003 .047000003 .26600004 .051000004 .25800003 .061000006 C .25100003 .068 .25100003 .068 .25100003 .123 L .25100003 .536 C .25100003 .58500006 .25300003 .633 .25800003 .70400008 L .22200004 .70400008 Z "/>
</symbol>
<use xlink:href="#font_5_8" transform="matrix(12.8804,0,0,-12.8804,193.82604,128.6554)"/>
<use xlink:href="#font_5_7" transform="matrix(12.8804,0,0,-12.8804,222.76839,128.8486)"/>
<use xlink:href="#font_5_7" transform="matrix(12.8804,0,0,-12.8804,193.07897,145.78922)"/>
<symbol id="font_4_4">
<path d="M .34500004 .13100001 C .286 .07000001 .24200002 .047000003 .19000001 .047000003 C .13000001 .047000003 .093 .087000008 .093 .15100001 C .093 .158 .094000007 .172 .095 .185 C .21200001 .21300002 .23200001 .21900001 .27700005 .23900001 C .35400004 .273 .39700005 .324 .39700005 .38200004 C .39700005 .44300003 .34800003 .485 .27800004 .485 C .132 .485 0 .33600004 0 .17300001 C 0 .065 .065000008 0 .17300001 0 C .25000004 0 .31500004 .034 .36900003 .104 L .34500004 .13100001 M .1 .224 C .123 .35900004 .184 .445 .25800003 .445 C .29100005 .445 .31300003 .422 .31300003 .388 C .31300003 .333 .27400003 .286 .202 .254 C .17300001 .24100001 .156 .23600002 .1 .224 Z "/>
</symbol>
<use xlink:href="#font_4_4" transform="matrix(12.8805,0,0,-12.8805,211.856,145.78922)"/>
<symbol id="font_3_1">
<path d="M .5500001 0 L .5500001 .058 L 0 .058 L 0 0 L .5500001 0 Z "/>
</symbol>
<use xlink:href="#font_3_1" transform="matrix(9.55655,0,0,-9.55655,218.74205,138.15047)"/>
<symbol id="font_4_5">
<path d="M .20400001 .48400004 L .012 .469 L .007999999 .43300004 L .032000007 .43300004 C .073 .43300004 .089 .42400003 .089 .402 C .089 .393 .086 .38000003 .080000009 .358 L .022000002 .163 C .0040000008 .1 0 .084 0 .062 C 0 .027 .030000003 0 .069 0 C .11200001 0 .15300001 .023000002 .19300002 .069000009 C .21100001 .089 .22700002 .111 .255 .154 L .22400002 .171 C .17400001 .094000007 .13000001 .050000006 .10300001 .050000006 C .093 .050000006 .086 .059 .086 .071 C .086 .081 .09 .099 .098 .127 L .20400001 .48400004 M .18600002 .72800007 C .15600002 .72800007 .13200002 .70400008 .13200002 .674 C .13200002 .64500007 .15600002 .62 .18500002 .62 C .21600002 .62 .24000003 .64400008 .24000003 .674 C .24000003 .70400008 .21600002 .72800007 .18600002 .72800007 Z "/>
</symbol>
<use xlink:href="#font_4_5" transform="matrix(9.66036,0,0,-9.66036,225.5867,140.7035)"/>
<symbol id="font_6_1">
<path d="M .63 0 L .34600003 .693 L .272 .693 L 0 0 L .63 0 M .503 .054 L .061 .054 L .27600003 .601 L .503 .054 Z "/>
</symbol>
<use xlink:href="#font_6_1" transform="matrix(9.86807,0,0,-9.86807,229.2921,140.56827)"/>
<symbol id="font_4_1">
<path d="M .24400002 .63600006 L .157 .63600006 L .108 .47000004 L .014 .47000004 L 0 .42300005 L .094000007 .42300005 L .019000004 .171 C .005000001 .12100001 0 .098000008 0 .076000008 C 0 .034 .032000007 0 .072000008 0 C .11900001 0 .175 .031000002 .21000001 .078 C .224 .097 .234 .113000009 .26000003 .155 L .23000002 .17500001 C .168 .081 .139 .053000004 .10600001 .053000004 C .09200001 .053000004 .083000008 .064 .083000008 .081 C .083000008 .089 .08400001 .096 .08600001 .104 L .18100001 .42300005 L .29000003 .42300005 L .30400003 .47000004 L .19500001 .47000004 L .24400002 .63600006 Z "/>
</symbol>
<use xlink:href="#font_4_1" transform="matrix(9.66036,0,0,-9.66036,236.54749,140.71318)"/>
<symbol id="font_1_2">
<path d="M .19299999 2.391 L 0 2.391 L 0 2.3590003 C .116000007 2.3530002 .122 2.3560003 .122 2.0960003 L .122 .2980001 C .122 .03799987 .116000007 .03799987 0 .032000066 L 0 0 L .19299999 0 L .19299999 2.391 Z "/>
</symbol>
<use xlink:href="#font_1_2" transform="matrix(12.742,0,0,-12.742,241.87454,148.99263)"/>
<path transform="matrix(.1,0,0,-.1,-301,555)" stroke-width="9.23334" stroke-linecap="butt" stroke-dasharray="57.7091,34.6255" stroke-miterlimit="10" stroke-linejoin="miter" fill="none" stroke="#ff0000" d="M 4145.03 5336.62 L 4145.03 3917.79 "/>
<use xlink:href="#font_1_4" transform="matrix(12.742,0,0,-12.742,102.19417,8.946463)"/>
<use xlink:href="#font_1_4" transform="matrix(12.742,0,0,-12.742,102.19417,16.59258)"/>
<symbol id="font_2_3">
<path d="M .024000003 .58500006 C .050000006 .63600006 .09600001 .689 .11800001 .689 C .12900001 .689 .134 .679 .134 .66 C .134 .61300006 .094000007 .47700004 .094000007 .41700004 C .094000007 .284 .146 .23000002 .27600003 .23000002 C .278 .23000002 .24000001 .023000002 .24000001 .009000003 C .243 .001000002 .245 0 .257 0 C .27 0 .272 .001000002 .278 .0069999995 C .282 .012000009 .31800003 .15600002 .337 .23000002 C .38500003 .231 .4 .23500002 .48200003 .293 C .49600003 .30200003 .5450001 .351 .5680001 .39500005 C .62900009 .513 .63000008 .6750001 .73800006 .722 L .73800006 .72300007 C .73800006 .72800007 .7340001 .7440001 .7340001 .7440001 C .69400009 .74300006 .63900008 .739 .59800007 .70000007 C .54700008 .65200009 .56100007 .41700004 .46 .328 C .395 .272 .379 .27 .347 .27 C .347 .27 .46 .734 .48200003 .80700007 L .479 .80700007 C .469 .80700007 .38000003 .781 .38000003 .778 C .36 .66300007 .284 .268 .284 .27 C .20300001 .27 .18800001 .30200003 .18800001 .40800003 C .18800001 .48200003 .22600001 .58500006 .22600001 .67300006 C .22600001 .712 .214 .7440001 .17400001 .7440001 C .101 .7440001 .030000003 .688 0 .59900006 L .024000003 .58500006 Z "/>
</symbol>
<use xlink:href="#font_2_3" transform="matrix(12.465,0,0,-12.465,105.03251,15.21935)"/>
<use xlink:href="#font_5_7" transform="matrix(9.66036,0,0,-9.66036,114.973888,14.42469)"/>
<use xlink:href="#font_1_3" transform="matrix(12.742,0,0,-12.742,121.587299,16.08213)"/>
<path transform="matrix(.1,0,0,-.1,-301,555)" stroke-width="9.23334" stroke-linecap="butt" stroke-dasharray="57.7091,34.6255" stroke-miterlimit="10" stroke-linejoin="miter" fill="none" stroke="#ff0000" d="M 4706.77 5336.62 L 4706.77 3917.79 "/>
<use xlink:href="#font_1_4" transform="matrix(12.742,0,0,-12.742,158.36818,8.946463)"/>
<use xlink:href="#font_1_4" transform="matrix(12.742,0,0,-12.742,158.36818,16.59258)"/>
<use xlink:href="#font_2_3" transform="matrix(12.465,0,0,-12.465,161.20653,15.21935)"/>
<use xlink:href="#font_5_8" transform="matrix(9.66036,0,0,-9.66036,171.70819,14.279785)"/>
<use xlink:href="#font_1_3" transform="matrix(12.742,0,0,-12.742,177.76015,16.08213)"/>
<path transform="matrix(.1,0,0,-.1,-301,555)" stroke-width="9.23334" stroke-linecap="butt" stroke-dasharray="57.7091,34.6255" stroke-miterlimit="10" stroke-linejoin="miter" fill="none" stroke="#ff0000" d="M 5642.43 5336.62 L 5642.43 3917.79 "/>
<use xlink:href="#font_1_4" transform="matrix(12.742,0,0,-12.742,251.93215,8.946463)"/>
<use xlink:href="#font_1_4" transform="matrix(12.742,0,0,-12.742,251.93215,16.59258)"/>
<use xlink:href="#font_2_3" transform="matrix(12.465,0,0,-12.465,254.77165,15.21935)"/>
<symbol id="font_5_9">
<path d="M .47 .216 L .42600004 .216 L .41600005 .165 C .40300004 .101 .395 .094000007 .33300004 .094000007 L .10900001 .094000007 C .17800002 .16600001 .20100002 .187 .26500003 .23700002 C .35600005 .307 .395 .342 .418 .372 C .45000003 .416 .46600006 .46100004 .46600006 .509 C .46600006 .62200006 .37100003 .70400008 .24100003 .70400008 C .11400001 .70400008 .016000003 .62200006 .016000003 .51600006 C .016000003 .453 .048000006 .41000004 .096000019 .41000004 C .13300002 .41000004 .158 .43500004 .158 .47100003 C .158 .49600003 .14400001 .51900008 .12200001 .528 C .08500001 .544 .083000008 .545 .083000008 .558 C .083000008 .573 .09300001 .596 .10700001 .61300006 C .13200002 .643 .17400001 .661 .22100002 .661 C .30300004 .661 .35300002 .61 .35300002 .526 C .35300002 .45200003 .31800003 .38500003 .23500002 .29700003 L .17600002 .23500002 C .14100002 .19800002 .11500001 .17 .098000008 .15100001 C .062000004 .109000008 .044000005 .086 0 .028 L 0 0 L .45100004 0 L .47 .216 Z "/>
</symbol>
<use xlink:href="#font_5_9" transform="matrix(9.66036,0,0,-9.66036,264.64543,14.279785)"/>
<use xlink:href="#font_1_3" transform="matrix(12.742,0,0,-12.742,271.3253,16.08213)"/>
<path transform="matrix(.1,0,0,-.1,-301,555)" stroke-width="9.23334" stroke-linecap="butt" stroke-dasharray="57.7091,34.6255" stroke-miterlimit="10" stroke-linejoin="miter" fill="none" stroke="#ff0000" d="M 6204.18 5336.62 L 6204.18 3917.79 "/>
<use xlink:href="#font_1_4" transform="matrix(12.742,0,0,-12.742,308.10618,8.946463)"/>
<use xlink:href="#font_1_4" transform="matrix(12.742,0,0,-12.742,308.10618,16.59258)"/>
<use xlink:href="#font_2_3" transform="matrix(12.465,0,0,-12.465,310.94486,15.21935)"/>
<symbol id="font_5_a">
<path d="M .30400003 .38300003 C .31800003 .388 .32000003 .388 .32700003 .39100004 C .397 .42000003 .43700005 .476 .43700005 .547 C .43700005 .651 .35700003 .71900007 .23300001 .71900007 C .116000007 .71900007 .027000003 .65000006 .027000003 .559 C .027000003 .518 .055 .48900003 .093 .48900003 C .12799999 .48900003 .15200001 .513 .15200001 .549 C .15200001 .57 .144 .584 .121 .6 C .11100001 .607 .108 .612 .108 .61800006 C .108 .646 .167 .676 .22300002 .676 C .29500003 .676 .33300004 .63100007 .33300004 .546 C .33300004 .453 .29500003 .40400005 .22300002 .40400005 C .21400002 .40400005 .19800002 .40500004 .183 .40600003 C .17500001 .407 .167 .407 .16100002 .407 C .14000002 .407 .12900001 .398 .12900001 .38 C .12900001 .36300005 .14000002 .35500003 .16 .35500003 C .16300002 .35500003 .171 .35500003 .18400002 .356 C .222 .357 .22300002 .357 .231 .357 C .305 .357 .34500004 .30400003 .34500004 .20500002 C .34500004 .102000009 .29400004 .043 .20500002 .043 C .14200002 .043 .074 .07700001 .074 .108 C .074 .117000009 .076000008 .119 .09600001 .13 C .124000009 .147 .13499999 .164 .13499999 .18900001 C .13499999 .22500001 .108 .25200004 .071 .25200004 C .029 .25200004 0 .216 0 .164 C 0 .067 .08900001 0 .21700001 0 C .36100004 0 .45600004 .080000009 .45600004 .20300001 C .45600004 .297 .40700004 .35400004 .30400003 .38300003 Z "/>
</symbol>
<use xlink:href="#font_5_a" transform="matrix(9.66036,0,0,-9.66036,320.88584,14.42469)"/>
<use xlink:href="#font_1_3" transform="matrix(12.742,0,0,-12.742,327.49967,16.08213)"/>
</g>
</g>
</svg>
