<?xml version="1.0" encoding="UTF-8" standalone="no"?>
<!DOCTYPE svg PUBLIC "-//W3C//DTD SVG 1.1//EN" "http://www.w3.org/Graphics/SVG/1.1/DTD/svg11.dtd">
<svg xmlns="http://www.w3.org/2000/svg" xmlns:xlink="http://www.w3.org/1999/xlink" version="1.1" width="255pt" height="54pt" viewBox="0 0 255 54">
<g enable-background="new">
<clipPath id="cp0">
<path transform="matrix(1,0,0,-1,-299,556)" d="M 0 0 L 1001 0 L 1001 709 L 0 709 Z "/>
</clipPath>
<g clip-path="url(#cp0)">
<path transform="matrix(.1,0,0,-.1,-299,556)" d="M 3837.22 5451.42 C 3837.22 5464.17 3826.88 5474.5 3814.14 5474.5 C 3801.39 5474.5 3791.05 5464.17 3791.05 5451.42 C 3791.05 5438.67 3801.39 5428.34 3814.14 5428.34 C 3826.88 5428.34 3837.22 5438.67 3837.22 5451.42 Z M 3814.14 5451.42 "/>
<path transform="matrix(.1,0,0,-.1,-299,556)" d="M 5299.75 5451.42 C 5299.75 5464.17 5289.42 5474.5 5276.67 5474.5 C 5263.92 5474.5 5253.59 5464.17 5253.59 5451.42 C 5253.59 5438.67 5263.92 5428.34 5276.67 5428.34 C 5289.42 5428.34 5299.75 5438.67 5299.75 5451.42 Z M 5276.67 5451.42 " fill="#ffffff"/>
<path transform="matrix(.1,0,0,-.1,-299,556)" stroke-width="9.23334" stroke-linecap="butt" stroke-miterlimit="10" stroke-linejoin="miter" fill="none" stroke="#000000" d="M 5299.75 5451.42 C 5299.75 5464.17 5289.42 5474.5 5276.67 5474.5 C 5263.92 5474.5 5253.59 5464.17 5253.59 5451.42 C 5253.59 5438.67 5263.92 5428.34 5276.67 5428.34 C 5289.42 5428.34 5299.75 5438.67 5299.75 5451.42 Z M 5276.67 5451.42 "/>
<clipPath id="cp1">
<path transform="matrix(.1,0,0,-.1,-299,556)" d="M 3863.11 5123.02 C 3863.11 5150.07 3841.18 5171.99 3814.14 5171.99 C 3787.09 5171.99 3765.16 5150.07 3765.16 5123.02 C 3765.16 5095.98 3787.09 5074.05 3814.14 5074.05 C 3841.18 5074.05 3863.11 5095.98 3863.11 5123.02 Z M 3814.14 5123.02 "/>
</clipPath>
<g clip-path="url(#cp1)">
<path transform="matrix(.1,0,0,-.1,-299,556)" stroke-width="9.23334" stroke-linecap="butt" stroke-miterlimit="10" stroke-linejoin="miter" fill="none" stroke="#000000" d="M 3814.14 5171.99 L 3814.14 5074.05 M 3765.16 5123.02 L 3863.11 5123.02 "/>
</g>
<path transform="matrix(.1,0,0,-.1,-299,556)" stroke-width="9.23334" stroke-linecap="butt" stroke-miterlimit="10" stroke-linejoin="miter" fill="none" stroke="#000000" d="M 3863.11 5123.02 C 3863.11 5150.07 3841.18 5171.99 3814.14 5171.99 C 3787.09 5171.99 3765.16 5150.07 3765.16 5123.02 C 3765.16 5095.98 3787.09 5074.05 3814.14 5074.05 C 3841.18 5074.05 3863.11 5095.98 3863.11 5123.02 Z M 3814.14 5123.02 "/>
<path transform="matrix(.1,0,0,-.1,-299,556)" stroke-width="9.23334" stroke-linecap="butt" stroke-miterlimit="10" stroke-linejoin="miter" fill="none" stroke="#000000" d="M 3113.16 5451.43 L 2998.22 5451.43 "/>
<path transform="matrix(.1,0,0,-.1,-299,556)" stroke-width="9.23334" stroke-linecap="butt" stroke-miterlimit="10" stroke-linejoin="miter" fill="none" stroke="#000000" d="M 3540.14 5451.43 L 3319.76 5451.43 "/>
<path transform="matrix(.1,0,0,-.1,-299,556)" stroke-width="9.23334" stroke-linecap="butt" stroke-miterlimit="10" stroke-linejoin="miter" fill="none" stroke="#000000" d="M 3791.04 5451.43 L 3540.14 5451.43 "/>
<path transform="matrix(.1,0,0,-.1,-299,556)" stroke-width="9.23334" stroke-linecap="butt" stroke-miterlimit="10" stroke-linejoin="miter" fill="none" stroke="#000000" d="M 3814.12 5428.34 L 3814.12 5172 "/>
<path transform="matrix(.1,0,0,-.1,-299,556)" stroke-width="9.23334" stroke-linecap="butt" stroke-miterlimit="10" stroke-linejoin="miter" fill="none" stroke="#000000" d="M 4088.09 5451.43 L 3837.2 5451.43 "/>
<path transform="matrix(.1,0,0,-.1,-299,556)" stroke-width="9.23334" stroke-linecap="butt" stroke-miterlimit="10" stroke-linejoin="miter" fill="none" stroke="#000000" d="M 4308.48 5451.43 L 4088.09 5451.43 "/>
<path transform="matrix(.1,0,0,-.1,-299,556)" stroke-width="9.23334" stroke-linecap="butt" stroke-miterlimit="10" stroke-linejoin="miter" fill="none" stroke="#000000" d="M 4630.02 5451.43 L 4515.08 5451.43 "/>
<path transform="matrix(.1,0,0,-.1,-299,556)" stroke-width="9.23334" stroke-linecap="butt" stroke-miterlimit="10" stroke-linejoin="miter" fill="none" stroke="#000000" d="M 5253.59 5451.43 L 5020.56 5451.43 "/>
<path transform="matrix(.1,0,0,-.1,-299,556)" stroke-width="9.23334" stroke-linecap="butt" stroke-miterlimit="10" stroke-linejoin="miter" fill="none" stroke="#000000" d="M 5276.68 5428.34 L 5276.68 5215.14 "/>
<path transform="matrix(.1,0,0,-.1,-299,556)" stroke-width="9.23334" stroke-linecap="butt" stroke-miterlimit="10" stroke-linejoin="miter" fill="none" stroke="#000000" d="M 5532.8 5451.43 L 5299.76 5451.43 "/>
<path transform="matrix(.1,0,0,-.1,-299,556)" stroke-width="9.23334" stroke-linecap="butt" stroke-miterlimit="10" stroke-linejoin="miter" fill="none" stroke="#000000" d="M 3113.16 5123.03 L 2998.22 5123.03 "/>
<path transform="matrix(.1,0,0,-.1,-299,556)" stroke-width="9.23334" stroke-linecap="butt" stroke-miterlimit="10" stroke-linejoin="miter" fill="none" stroke="#000000" d="M 3434.7 5123.03 L 3319.76 5123.03 "/>
<path transform="matrix(.1,0,0,-.1,-299,556)" stroke-width="9.23334" stroke-linecap="butt" stroke-miterlimit="10" stroke-linejoin="miter" fill="none" stroke="#000000" d="M 3765.15 5123.03 L 3645.59 5123.03 "/>
<path transform="matrix(.1,0,0,-.1,-299,556)" stroke-width="9.23334" stroke-linecap="butt" stroke-miterlimit="10" stroke-linejoin="miter" fill="none" stroke="#000000" d="M 3982.65 5123.03 L 3863.09 5123.03 "/>
<path transform="matrix(.1,0,0,-.1,-299,556)" stroke-width="9.23334" stroke-linecap="butt" stroke-miterlimit="10" stroke-linejoin="miter" fill="none" stroke="#000000" d="M 4308.48 5123.03 L 4193.54 5123.03 "/>
<path transform="matrix(.1,0,0,-.1,-299,556)" stroke-width="9.23334" stroke-linecap="butt" stroke-miterlimit="10" stroke-linejoin="miter" fill="none" stroke="#000000" d="M 4647.93 5123.03 L 4515.08 5123.03 "/>
<path transform="matrix(.1,0,0,-.1,-299,556)" stroke-width="9.23334" stroke-linecap="butt" stroke-miterlimit="10" stroke-linejoin="miter" fill="none" stroke="#000000" d="M 5135.5 5123.03 L 5002.65 5123.03 "/>
<path transform="matrix(.1,0,0,-.1,-299,556)" stroke-width="9.23334" stroke-linecap="butt" stroke-miterlimit="10" stroke-linejoin="miter" fill="none" stroke="#000000" d="M 5532.8 5123.03 L 5417.86 5123.03 "/>
<path transform="matrix(.1,0,0,-.1,-299,556)" d="M 3113.16 5354.82 L 3319.7579 5354.82 L 3319.7579 5548.027 L 3113.16 5548.027 Z " fill="#ffffff"/>
<path transform="matrix(.1,0,0,-.1,-299,556)" stroke-width="9.23334" stroke-linecap="butt" stroke-miterlimit="10" stroke-linejoin="miter" fill="none" stroke="#000000" d="M 3113.16 5354.82 L 3319.7579 5354.82 L 3319.7579 5548.027 L 3113.16 5548.027 Z "/>
<symbol id="font_2_1">
<path d="M .47900004 .39200003 L .661 .578 C .73800006 .656 .76800009 .67300006 .83800008 .675 L .84300008 .72200009 L .56 .72200009 L .555 .675 L .57500007 .675 C .61 .675 .62700006 .666 .62700006 .646 C .62700006 .62600007 .614 .605 .57900008 .568 L .45700003 .44300003 L .38500003 .615 C .37600003 .637 .37500004 .64000007 .37500004 .647 C .37500004 .666 .39600004 .675 .44200004 .675 L .46000005 .675 L .46500004 .72200009 L .15 .72200009 L .14500001 .675 L .169 .675 C .23400003 .675 .245 .66800007 .272 .605 L .37600003 .36 L .17900002 .15300001 C .10400001 .074 .07400001 .056 .0050000029 .047000003 L 0 0 L .286 0 L .29200004 .047000003 L .277 .047000003 C .23300001 .047000003 .20900002 .059000005 .20900002 .082 C .20900002 .1 .22300002 .124000009 .24800003 .15 L .39900003 .30900003 L .48900003 .095000009 C .49300004 .086 .49500004 .076000008 .49500004 .07 C .49500004 .052 .48200003 .047000003 .43400005 .047000003 L .40300004 .047000003 L .397 0 L .71800008 0 L .72300007 .047000003 L .697 .047000003 C .63100007 .047000003 .62500008 .051000004 .595 .120000008 L .47900004 .39200003 Z "/>
</symbol>
<use xlink:href="#font_2_1" transform="matrix(12.8805,0,0,-12.8805,16.825715,15.452026)"/>
<path transform="matrix(.1,0,0,-.1,-299,556)" d="M 4308.48 5354.82 L 4515.078 5354.82 L 4515.078 5548.027 L 4308.48 5548.027 Z " fill="#ffffff"/>
<path transform="matrix(.1,0,0,-.1,-299,556)" stroke-width="9.23334" stroke-linecap="butt" stroke-miterlimit="10" stroke-linejoin="miter" fill="none" stroke="#000000" d="M 4308.48 5354.82 L 4515.078 5354.82 L 4515.078 5548.027 L 4308.48 5548.027 Z "/>
<use xlink:href="#font_2_1" transform="matrix(12.8805,0,0,-12.8805,136.35572,15.452026)"/>
<symbol id="font_3_1">
<path d="M 0 0 L .504 0 L .504 .08 L 0 .08 L 0 0 M 0 .202 L .504 .202 L .504 .282 L 0 .282 L 0 .202 Z "/>
</symbol>
<use xlink:href="#font_3_1" transform="matrix(12.8804,0,0,-12.8804,180.28221,28.369225)"/>
<path transform="matrix(.1,0,0,-.1,-299,556)" d="M 3113.16 5026.43 L 3319.7579 5026.43 L 3319.7579 5219.637 L 3113.16 5219.637 Z " fill="#ffffff"/>
<path transform="matrix(.1,0,0,-.1,-299,556)" stroke-width="9.23334" stroke-linecap="butt" stroke-miterlimit="10" stroke-linejoin="miter" fill="none" stroke="#000000" d="M 3113.16 5026.43 L 3319.7579 5026.43 L 3319.7579 5219.637 L 3113.16 5219.637 Z "/>
<use xlink:href="#font_2_1" transform="matrix(12.8805,0,0,-12.8805,16.825715,48.291994)"/>
<path transform="matrix(.1,0,0,-.1,-299,556)" d="M 3434.7 5026.43 L 3645.591 5026.43 L 3645.591 5219.637 L 3434.7 5219.637 Z " fill="#ffffff"/>
<path transform="matrix(.1,0,0,-.1,-299,556)" stroke-width="9.23334" stroke-linecap="butt" stroke-miterlimit="10" stroke-linejoin="miter" fill="none" stroke="#000000" d="M 3434.7 5026.43 L 3645.591 5026.43 L 3645.591 5219.637 L 3434.7 5219.637 Z "/>
<symbol id="font_2_3">
<path d="M .611 .354 L .55 .123 C .535 .07 .535 .069000009 .527 .061000006 C .51600006 .051000004 .49200005 .047000003 .44300003 .047000003 L .439 .047000003 L .43400003 0 L .75100007 0 L .757 .047000003 L .731 .047000003 C .666 .047000003 .652 .052 .652 .074 C .652 .081 .656 .104 .661 .123 L .78900006 .59900006 C .804 .65400007 .804 .65400007 .81200006 .661 C .823 .671 .846 .675 .896 .675 L .90000006 .675 L .90500006 .72200009 L .587 .72200009 L .582 .675 L .60800006 .675 C .67300006 .675 .68700006 .67 .68700006 .648 C .68700006 .64000007 .684 .623 .67700007 .59900006 L .624 .40100003 L .302 .40100003 L .356 .59900006 C .37 .65400007 .37 .65400007 .379 .661 C .389 .671 .41300006 .675 .462 .675 L .46600003 .675 L .47100003 .72200009 L .15400002 .72200009 L .148 .675 L .17400001 .675 C .23900001 .675 .25300003 .67 .25300003 .648 C .25300003 .64000007 .24900002 .619 .24400002 .59900006 L .116000007 .123 C .102000009 .07 .101 .069000009 .09300001 .061000006 C .082 .051000004 .059000005 .047000003 .010000002 .047000003 L .0050000029 .047000003 L 0 0 L .31800003 0 L .323 .047000003 L .297 .047000003 C .23200001 .047000003 .21800001 .052 .21800001 .074 C .21800001 .082 .21800001 .082 .22800002 .123 L .29000003 .354 L .611 .354 Z "/>
</symbol>
<use xlink:href="#font_2_3" transform="matrix(12.8805,0,0,-12.8805,49.01353,48.291994)"/>
<path transform="matrix(.1,0,0,-.1,-299,556)" d="M 3982.65 5026.43 L 4193.541 5026.43 L 4193.541 5219.637 L 3982.65 5219.637 Z " fill="#ffffff"/>
<path transform="matrix(.1,0,0,-.1,-299,556)" stroke-width="9.23334" stroke-linecap="butt" stroke-miterlimit="10" stroke-linejoin="miter" fill="none" stroke="#000000" d="M 3982.65 5026.43 L 4193.541 5026.43 L 4193.541 5219.637 L 3982.65 5219.637 Z "/>
<use xlink:href="#font_2_3" transform="matrix(12.8805,0,0,-12.8805,103.80855,48.291994)"/>
<path transform="matrix(.1,0,0,-.1,-299,556)" d="M 4308.48 5026.43 L 4515.078 5026.43 L 4515.078 5219.637 L 4308.48 5219.637 Z " fill="#ffffff"/>
<path transform="matrix(.1,0,0,-.1,-299,556)" stroke-width="9.23334" stroke-linecap="butt" stroke-miterlimit="10" stroke-linejoin="miter" fill="none" stroke="#000000" d="M 4308.48 5026.43 L 4515.078 5026.43 L 4515.078 5219.637 L 4308.48 5219.637 Z "/>
<use xlink:href="#font_2_1" transform="matrix(12.8805,0,0,-12.8805,136.35572,48.291994)"/>
<path transform="matrix(.1,0,0,-.1,-299,556)" d="M 5135.5 5026.43 L 5417.855 5026.43 L 5417.855 5219.637 L 5135.5 5219.637 Z " fill="#ffffff"/>
<path transform="matrix(.1,0,0,-.1,-299,556)" stroke-width="9.23334" stroke-linecap="butt" stroke-miterlimit="10" stroke-linejoin="miter" fill="none" stroke="#000000" d="M 5135.5 5026.43 L 5417.855 5026.43 L 5417.855 5219.637 L 5135.5 5219.637 Z "/>
<symbol id="font_4_1">
<path d="M .5500001 0 L .5500001 .058 L 0 .058 L 0 0 L .5500001 0 Z "/>
</symbol>
<use xlink:href="#font_4_1" transform="matrix(12.742,0,0,-12.742,220.24909,45.068269)"/>
<symbol id="font_2_2">
<path d="M .69200006 .72200009 L .18900001 .72200009 L .108 .483 L .149 .47200004 C .15200001 .47700004 .15600002 .48400004 .16000001 .492 C .21900001 .592 .22900002 .606 .266 .633 C .30400003 .66200008 .36 .675 .44300003 .675 L .539 .675 L .005999999 .038000004 L 0 0 L .554 0 L .636 .256 L .594 .268 C .551 .18300002 .532 .15400002 .49800004 .120000008 C .44600005 .068 .38500003 .047000003 .28700004 .047000003 L .15200001 .047000003 L .686 .683 L .69200006 .72200009 Z "/>
</symbol>
<use xlink:href="#font_2_2" transform="matrix(12.8805,0,0,-12.8805,228.56587,48.291994)"/>
</g>
</g>
</svg>
