<?xml version="1.0" encoding="UTF-8" standalone="no"?>
<!DOCTYPE svg PUBLIC "-//W3C//DTD SVG 1.1//EN" "http://www.w3.org/Graphics/SVG/1.1/DTD/svg11.dtd">
<svg xmlns="http://www.w3.org/2000/svg" xmlns:xlink="http://www.w3.org/1999/xlink" version="1.1" width="142pt" height="83pt" viewBox="0 0 142 83">
<g enable-background="new">
<clipPath id="cp0">
<path transform="matrix(1,0,0,-1,-301,555)" d="M 0 0 L 1001 0 L 1001 709 L 0 709 Z "/>
</clipPath>
<g clip-path="url(#cp0)">
<path transform="matrix(.1,0,0,-.1,-301,555)" d="M 3616.36 5485.3 C 3616.36 5498.05 3606.03 5508.38 3593.28 5508.38 C 3580.53 5508.38 3570.2 5498.05 3570.2 5485.3 C 3570.2 5472.55 3580.53 5462.21 3593.28 5462.21 C 3606.03 5462.21 3616.36 5472.55 3616.36 5485.3 Z M 3593.28 5485.3 "/>
<path transform="matrix(.1,0,0,-.1,-301,555)" d="M 4233.67 5485.3 C 4233.67 5498.05 4223.33 5508.38 4210.59 5508.38 C 4197.84 5508.38 4187.5 5498.05 4187.5 5485.3 C 4187.5 5472.55 4197.84 5462.21 4210.59 5462.21 C 4223.33 5462.21 4233.67 5472.55 4233.67 5485.3 Z M 4210.59 5485.3 "/>
<path transform="matrix(.1,0,0,-.1,-301,555)" stroke-width="9.23334" stroke-linecap="butt" stroke-miterlimit="10" stroke-linejoin="miter" fill="none" stroke="#000000" d="M 3570.18 5485.3 L 3382.99 5485.3 "/>
<path transform="matrix(.1,0,0,-.1,-301,555)" stroke-width="9.23334" stroke-linecap="butt" stroke-miterlimit="10" stroke-linejoin="miter" fill="none" stroke="#000000" d="M 3593.27 5462.22 L 3593.27 4920.63 "/>
<path transform="matrix(.1,0,0,-.1,-301,555)" stroke-width="9.23334" stroke-linecap="butt" stroke-miterlimit="10" stroke-linejoin="miter" fill="none" stroke="#000000" d="M 3901.93 5485.3 L 3616.35 5485.3 "/>
<path transform="matrix(.1,0,0,-.1,-301,555)" stroke-width="9.23334" stroke-linecap="butt" stroke-miterlimit="10" stroke-linejoin="miter" fill="none" stroke="#000000" d="M 4187.5 5485.3 L 3901.93 5485.3 "/>
<path transform="matrix(.1,0,0,-.1,-301,555)" stroke-width="9.23334" stroke-linecap="butt" stroke-miterlimit="10" stroke-linejoin="miter" fill="none" stroke="#000000" d="M 4210.59 5462.22 L 4210.59 4920.63 "/>
<path transform="matrix(.1,0,0,-.1,-301,555)" stroke-width="9.23334" stroke-linecap="butt" stroke-miterlimit="10" stroke-linejoin="miter" fill="none" stroke="#000000" d="M 4420.86 5485.3 L 4233.67 5485.3 "/>
<path transform="matrix(.1,0,0,-.1,-301,555)" stroke-width="9.23334" stroke-linecap="butt" stroke-miterlimit="10" stroke-linejoin="miter" fill="none" stroke="#000000" d="M 3593.27 5189.75 L 3382.99 5189.75 "/>
<path transform="matrix(.1,0,0,-.1,-301,555)" stroke-width="9.23334" stroke-linecap="butt" stroke-miterlimit="10" stroke-linejoin="miter" fill="none" stroke="#000000" d="M 3593.27 5156.91 L 3382.99 5156.91 "/>
<path transform="matrix(.1,0,0,-.1,-301,555)" stroke-width="9.23334" stroke-linecap="butt" stroke-miterlimit="10" stroke-linejoin="miter" fill="none" stroke="#000000" d="M 3593.27 5124.07 L 3382.99 5124.07 "/>
<path transform="matrix(.1,0,0,-.1,-301,555)" stroke-width="9.23334" stroke-linecap="butt" stroke-miterlimit="10" stroke-linejoin="miter" fill="none" stroke="#000000" d="M 3803.54 5156.91 L 3593.27 5156.91 "/>
<path transform="matrix(.1,0,0,-.1,-301,555)" stroke-width="9.23334" stroke-linecap="butt" stroke-miterlimit="10" stroke-linejoin="miter" fill="none" stroke="#000000" d="M 3803.54 4828.51 L 3688.6 4828.51 "/>
<path transform="matrix(.1,0,0,-.1,-301,555)" stroke-width="9.23334" stroke-linecap="butt" stroke-miterlimit="10" stroke-linejoin="miter" fill="none" stroke="#000000" d="M 3803.54 5189.75 L 3593.27 5189.75 "/>
<path transform="matrix(.1,0,0,-.1,-301,555)" stroke-width="9.23334" stroke-linecap="butt" stroke-miterlimit="10" stroke-linejoin="miter" fill="none" stroke="#000000" d="M 3803.54 5156.91 L 3593.27 5156.91 "/>
<path transform="matrix(.1,0,0,-.1,-301,555)" stroke-width="9.23334" stroke-linecap="butt" stroke-miterlimit="10" stroke-linejoin="miter" fill="none" stroke="#000000" d="M 3803.54 5124.07 L 3593.27 5124.07 "/>
<path transform="matrix(.1,0,0,-.1,-301,555)" stroke-width="9.23334" stroke-linecap="butt" stroke-miterlimit="10" stroke-linejoin="miter" fill="none" stroke="#000000" d="M 4210.59 5189.75 L 4000.31 5189.75 "/>
<path transform="matrix(.1,0,0,-.1,-301,555)" stroke-width="9.23334" stroke-linecap="butt" stroke-miterlimit="10" stroke-linejoin="miter" fill="none" stroke="#000000" d="M 4210.59 5156.91 L 4000.31 5156.91 "/>
<path transform="matrix(.1,0,0,-.1,-301,555)" stroke-width="9.23334" stroke-linecap="butt" stroke-miterlimit="10" stroke-linejoin="miter" fill="none" stroke="#000000" d="M 4210.59 5124.07 L 4000.31 5124.07 "/>
<path transform="matrix(.1,0,0,-.1,-301,555)" stroke-width="9.23334" stroke-linecap="butt" stroke-miterlimit="10" stroke-linejoin="miter" fill="none" stroke="#000000" d="M 4420.86 5189.75 L 4210.59 5189.75 "/>
<path transform="matrix(.1,0,0,-.1,-301,555)" stroke-width="9.23334" stroke-linecap="butt" stroke-miterlimit="10" stroke-linejoin="miter" fill="none" stroke="#000000" d="M 4420.86 5156.91 L 4210.59 5156.91 "/>
<path transform="matrix(.1,0,0,-.1,-301,555)" stroke-width="9.23334" stroke-linecap="butt" stroke-miterlimit="10" stroke-linejoin="miter" fill="none" stroke="#000000" d="M 4420.86 5124.07 L 4210.59 5124.07 "/>
<path transform="matrix(.1,0,0,-.1,-301,555)" stroke-width="9.23334" stroke-linecap="butt" stroke-miterlimit="10" stroke-linejoin="miter" fill="none" stroke="#000000" d="M 3497.93 4828.51 L 3382.99 4828.51 "/>
<path transform="matrix(.1,0,0,-.1,-301,555)" stroke-width="9.23334" stroke-linecap="butt" stroke-miterlimit="10" stroke-linejoin="miter" fill="none" stroke="#000000" d="M 3803.54 4828.51 L 3688.6 4828.51 "/>
<path transform="matrix(.1,0,0,-.1,-301,555)" stroke-width="9.23334" stroke-linecap="butt" stroke-miterlimit="10" stroke-linejoin="miter" fill="none" stroke="#000000" d="M 4115.25 4828.51 L 4000.31 4828.51 "/>
<path transform="matrix(.1,0,0,-.1,-301,555)" stroke-width="9.23334" stroke-linecap="butt" stroke-miterlimit="10" stroke-linejoin="miter" fill="none" stroke="#000000" d="M 4420.86 4828.51 L 4305.92 4828.51 "/>
<symbol id="font_1_4">
<path d="M 0 .85 L 0 0 L .058000007 0 L .058000007 .85 L 0 .85 Z "/>
</symbol>
<use xlink:href="#font_1_4" transform="matrix(12.742,0,0,-12.742,16.736613,11.338098)"/>
<symbol id="font_2_2">
<path d="M .499 .67200008 L .46 .67200008 L .39900003 .60300007 C .36600004 .648 .323 .67200008 .27100004 .67200008 C .13000001 .67200008 0 .51600006 0 .347 C 0 .301 .016 .256 .042000005 .231 C .067 .20500002 .112 .18800001 .15100001 .18800001 C .202 .18800001 .24400002 .209 .289 .257 L .246 .112 C .22600001 .039000006 .22500001 .038000004 .148 .036 L .14400001 0 L .39000003 0 L .39400003 .036 L .386 .036 C .33800004 .036 .32200004 .041999997 .32200004 .062000008 C .32200004 .07000001 .32700003 .091 .333 .112 L .499 .67200008 M .27600003 .633 C .323 .633 .356 .59400007 .356 .53800007 C .356 .48900003 .33600004 .407 .312 .35500003 C .277 .279 .22600001 .236 .17300001 .236 C .127 .236 .095000009 .278 .095000009 .34000004 C .095000009 .394 .11400001 .47000004 .141 .521 C .178 .592 .22800002 .633 .27600003 .633 Z "/>
</symbol>
<use xlink:href="#font_2_2" transform="matrix(12.8805,0,0,-12.8805,19.572876,12.249871)"/>
<symbol id="font_1_3">
<path d="M .192 .42700003 L 0 .025000006 L .052 0 L .256 .42700003 L .052 .8540001 L 0 .829 L .192 .42700003 Z "/>
</symbol>
<use xlink:href="#font_1_3" transform="matrix(12.742,0,0,-12.742,27.430863,11.363582)"/>
<use xlink:href="#font_1_4" transform="matrix(12.742,0,0,-12.742,17.733103,44.585779)"/>
<symbol id="font_2_3">
<path d="M .234 .17 L .24900002 .10300001 C .266 .028 .292 0 .34100003 0 C .37800003 0 .396 .012 .442 .068 C .46 .089 .463 .094000007 .48900003 .14 L .458 .157 C .448 .141 .44500003 .136 .43 .115 C .40100003 .076000008 .384 .061000006 .366 .061000006 C .343 .061000006 .333 .083000008 .315 .165 L .296 .26 L .34 .34100003 C .36400003 .38600005 .38500003 .408 .403 .408 C .411 .408 .416 .40400005 .42000003 .39500005 C .42900003 .375 .43600003 .37 .45400004 .37 C .485 .37 .504 .39100004 .504 .42400003 C .504 .45900006 .48000003 .485 .44700004 .485 C .42000003 .485 .39000003 .47100003 .36900003 .448 C .349 .426 .34800003 .426 .314 .36300005 L .285 .311 L .27400003 .366 C .257 .45200003 .23500002 .485 .194 .485 C .17200002 .485 .15 .472 .125 .444 C .109000008 .426 .095 .40600003 .05 .34100003 L .079 .32 C .13 .393 .14400001 .408 .16100002 .408 C .16800002 .408 .178 .40100003 .18200001 .393 C .19100002 .37700004 .19100002 .37700004 .211 .278 L .22300002 .22000002 L .178 .14 C .15 .089 .125 .061000006 .109000008 .061000006 C .102000009 .061000006 .096 .068 .094000007 .081 C .089 .108 .076000008 .120000008 .051 .120000008 C .021 .120000008 0 .096 0 .062000004 C 0 .025000003 .026 0 .066 0 C .114 0 .16100002 .04 .204 .116000007 L .234 .17 Z "/>
</symbol>
<use xlink:href="#font_2_3" transform="matrix(12.8805,0,0,-12.8805,20.006432,43.088899)"/>
<use xlink:href="#font_1_3" transform="matrix(12.742,0,0,-12.742,27.430893,44.611265)"/>
<path transform="matrix(.1,0,0,-.1,-301,555)" d="M 3803.54 4734.18 L 4000.3062 4734.18 L 4000.3062 5251.243 L 3803.54 5251.243 Z " fill="#ffffff"/>
<path transform="matrix(.1,0,0,-.1,-301,555)" stroke-width="9.23334" stroke-linecap="butt" stroke-miterlimit="10" stroke-linejoin="miter" fill="none" stroke="#000000" d="M 3803.54 4734.18 L 4000.3062 4734.18 L 4000.3062 5251.243 L 3803.54 5251.243 Z "/>
<symbol id="font_2_4">
<path d="M .41700004 .75200006 C .30900003 .75200006 .21300002 .707 .12900001 .61700007 C .046 .529 0 .412 0 .29000003 C 0 .113000009 .106000009 0 .272 0 C .37700004 0 .47000007 .04 .55 .119 C .642 .21100001 .695 .337 .695 .46500004 C .695 .552 .669 .62 .615 .67300006 C .564 .723 .49300007 .75200006 .41700004 .75200006 M .42000003 .709 C .47200004 .709 .523 .685 .544 .649 C .563 .61800006 .578 .558 .578 .51100006 C .578 .408 .532 .259 .47000007 .15900001 C .42500005 .086 .35200004 .043 .27400003 .043 C .178 .043 .118 .112 .118 .22200002 C .118 .343 .176 .52500006 .24100001 .609 C .29400004 .67700007 .35100005 .709 .42000003 .709 Z "/>
</symbol>
<use xlink:href="#font_2_4" transform="matrix(12.8805,0,0,-12.8805,84.48623,60.530214)"/>
<use xlink:href="#font_1_4" transform="matrix(9.55655,0,0,-9.55655,1.2597166,69.86179)"/>
<symbol id="font_3_1">
<path d="M .24200002 .71900007 C .102000009 .71900007 0 .566 0 .357 C 0 .15100001 .099 0 .23400003 0 C .374 0 .472 .14600002 .472 .35400004 C .472 .46000005 .45000003 .54800006 .40800003 .61700007 C .36900003 .68 .305 .71900007 .24200002 .71900007 M .23500002 .676 C .268 .676 .3 .65400007 .32400004 .614 C .351 .568 .36 .509 .36 .37200005 C .36 .23200001 .35300002 .16600001 .33300004 .12200001 C .31000004 .073 .27400003 .043 .23600003 .043 C .20300001 .043 .171 .065 .14700002 .105000007 C .11900001 .15200001 .11100001 .215 .11100001 .37800003 C .11100001 .49400003 .11800001 .55300006 .13800001 .596 C .16100002 .647 .197 .676 .23500002 .676 Z "/>
</symbol>
<use xlink:href="#font_3_1" transform="matrix(9.66036,0,0,-9.66036,3.2739909,68.640117)"/>
<symbol id="font_1_2">
<path d="M .5500001 0 L .5500001 .058 L 0 .058 L 0 0 L .5500001 0 Z "/>
</symbol>
<use xlink:href="#font_1_3" transform="matrix(9.55655,0,0,-9.55655,8.554318,69.880908)"/>
<use xlink:href="#font_1_2" transform="matrix(9.55655,0,0,-9.55655,12.768758,66.0774)"/>
<use xlink:href="#font_1_4" transform="matrix(9.55655,0,0,-9.55655,19.888379,69.86179)"/>
<symbol id="font_3_2">
<path d="M .22200004 .70400008 C .18800003 .66300007 .09600001 .632 .0040000008 .63000008 L .0040000008 .587 L .092 .587 C .15 .587 .15400002 .583 .15400002 .52400007 L .15400002 .123 L .15400002 .094000007 C .15400002 .052 .14500001 .047000003 .065000008 .047000003 L 0 .047000003 L 0 0 L .39600004 0 L .39600004 .047000003 L .34100003 .047000003 C .28800003 .047000003 .26600004 .051000004 .25800003 .061000006 C .25100003 .068 .25100003 .068 .25100003 .123 L .25100003 .536 C .25100003 .58500006 .25300003 .633 .25800003 .70400008 L .22200004 .70400008 Z "/>
</symbol>
<use xlink:href="#font_3_2" transform="matrix(9.66036,0,0,-9.66036,22.459292,68.49521)"/>
<use xlink:href="#font_1_3" transform="matrix(9.55655,0,0,-9.55655,27.179717,69.880908)"/>
<path transform="matrix(.1,0,0,-.1,-301,555)" stroke-width="7.39121" stroke-linecap="butt" stroke-miterlimit="10" stroke-linejoin="miter" fill="none" stroke="#000000" d="M 3012.09 4839.27 L 3315.83 4839.27 "/>
<symbol id="font_1_1">
<path d="M .30100004 .13099998 L .128 .523 C .12400001 .531 .12200001 .53700008 .11500001 .53700008 C .112 .53700008 .111 .536 .10100001 .52900007 L 0 .45700003 L .014000006 .43800003 C .030000002 .44200004 .046000005 .44600005 .05600001 .44600005 C .058 .44600005 .059 .44600005 .059 .445 L .256 0 L .28500004 0 C .28500004 0 .75000008 .962 .753 .96300008 C .758 .97400006 .75600007 .975 .75600007 .98 C .75600007 .99100008 .753 1.018 .74100008 1.018 L .73200008 1.018 L .30100004 .13099998 Z "/>
</symbol>
<use xlink:href="#font_1_1" transform="matrix(9.55655,0,0,-9.55655,9.65898,82.4563)"/>
<path transform="matrix(.1,0,0,-.1,-301,555)" stroke-width="5.50286" stroke-linecap="butt" stroke-miterlimit="10" stroke-linejoin="miter" fill="none" stroke="#000000" d="M 3176.89 4819.93 L 3230.6 4819.93 "/>
<symbol id="font_3_3">
<path d="M .47 .216 L .42600004 .216 L .41600005 .165 C .40300004 .101 .395 .094000007 .33300004 .094000007 L .10900001 .094000007 C .17800002 .16600001 .20100002 .187 .26500003 .23700002 C .35600005 .307 .395 .342 .418 .372 C .45000003 .416 .46600006 .46100004 .46600006 .509 C .46600006 .62200006 .37100003 .70400008 .24100003 .70400008 C .11400001 .70400008 .016000003 .62200006 .016000003 .51600006 C .016000003 .453 .048000006 .41000004 .096000019 .41000004 C .13300002 .41000004 .158 .43500004 .158 .47100003 C .158 .49600003 .14400001 .51900008 .12200001 .528 C .08500001 .544 .083000008 .545 .083000008 .558 C .083000008 .573 .09300001 .596 .10700001 .61300006 C .13200002 .643 .17400001 .661 .22100002 .661 C .30300004 .661 .35300002 .61 .35300002 .526 C .35300002 .45200003 .31800003 .38500003 .23500002 .29700003 L .17600002 .23500002 C .14100002 .19800002 .11500001 .17 .098000008 .15100001 C .062000004 .109000008 .044000005 .086 0 .028 L 0 0 L .45100004 0 L .47 .216 Z "/>
</symbol>
<use xlink:href="#font_3_3" transform="matrix(9.66036,0,0,-9.66036,17.027108,81.526)"/>
<path transform="matrix(.1,0,0,-.1,-301,555)" d="M 3496.66 4731.91 L 3689.867 4731.91 L 3689.867 4925.117 L 3496.66 4925.117 Z " fill="#ffffff"/>
<path transform="matrix(.1,0,0,-.1,-301,555)" stroke-width="9.23334" stroke-linecap="butt" stroke-miterlimit="10" stroke-linejoin="miter" fill="none" stroke="#000000" d="M 3496.66 4731.91 L 3689.867 4731.91 L 3689.867 4925.117 L 3496.66 4925.117 Z "/>
<symbol id="font_2_1">
<path d="M .69200006 .72200009 L .18900001 .72200009 L .108 .483 L .149 .47200004 C .15200001 .47700004 .15600002 .48400004 .16000001 .492 C .21900001 .592 .22900002 .606 .266 .633 C .30400003 .66200008 .36 .675 .44300003 .675 L .539 .675 L .005999999 .038000004 L 0 0 L .554 0 L .636 .256 L .594 .268 C .551 .18300002 .532 .15400002 .49800004 .120000008 C .44600005 .068 .38500003 .047000003 .28700004 .047000003 L .15200001 .047000003 L .686 .683 L .69200006 .72200009 Z "/>
</symbol>
<use xlink:href="#font_2_1" transform="matrix(12.8805,0,0,-12.8805,53.642984,76.742008)"/>
<path transform="matrix(.1,0,0,-.1,-301,555)" d="M 4113.98 4731.91 L 4307.187 4731.91 L 4307.187 4925.117 L 4113.98 4925.117 Z " fill="#ffffff"/>
<path transform="matrix(.1,0,0,-.1,-301,555)" stroke-width="9.23334" stroke-linecap="butt" stroke-miterlimit="10" stroke-linejoin="miter" fill="none" stroke="#000000" d="M 4113.98 4731.91 L 4307.187 4731.91 L 4307.187 4925.117 L 4113.98 4925.117 Z "/>
<use xlink:href="#font_2_1" transform="matrix(12.8805,0,0,-12.8805,115.374,76.742008)"/>
</g>
</g>
</svg>
