<?xml version="1.0" encoding="UTF-8" standalone="no"?>
<!DOCTYPE svg PUBLIC "-//W3C//DTD SVG 1.1//EN" "http://www.w3.org/Graphics/SVG/1.1/DTD/svg11.dtd">
<svg xmlns="http://www.w3.org/2000/svg" xmlns:xlink="http://www.w3.org/1999/xlink" version="1.1" width="200pt" height="54pt" viewBox="0 0 200 54">
<g enable-background="new">
<clipPath id="cp0">
<path transform="matrix(1,0,0,-1,-299,556)" d="M 0 0 L 1001 0 L 1001 709 L 0 709 Z "/>
</clipPath>
<g clip-path="url(#cp0)">
<path transform="matrix(.1,0,0,-.1,-299,556)" d="M 3239.11 5451.42 C 3239.11 5464.17 3228.77 5474.5 3216.03 5474.5 C 3203.28 5474.5 3192.94 5464.17 3192.94 5451.42 C 3192.94 5438.67 3203.28 5428.34 3216.03 5428.34 C 3228.77 5428.34 3239.11 5438.67 3239.11 5451.42 Z M 3216.03 5451.42 "/>
<path transform="matrix(.1,0,0,-.1,-299,556)" d="M 3874.63 5451.42 C 3874.63 5464.17 3864.29 5474.5 3851.54 5474.5 C 3838.79 5474.5 3828.46 5464.17 3828.46 5451.42 C 3828.46 5438.67 3838.79 5428.34 3851.54 5428.34 C 3864.29 5428.34 3874.63 5438.67 3874.63 5451.42 Z M 3851.54 5451.42 "/>
<clipPath id="cp1">
<path transform="matrix(.1,0,0,-.1,-299,556)" d="M 3265 5123.02 C 3265 5150.07 3243.07 5171.99 3216.03 5171.99 C 3188.98 5171.99 3167.05 5150.07 3167.05 5123.02 C 3167.05 5095.98 3188.98 5074.05 3216.03 5074.05 C 3243.07 5074.05 3265 5095.98 3265 5123.02 Z M 3216.03 5123.02 "/>
</clipPath>
<g clip-path="url(#cp1)">
<path transform="matrix(.1,0,0,-.1,-299,556)" stroke-width="9.23334" stroke-linecap="butt" stroke-miterlimit="10" stroke-linejoin="miter" fill="none" stroke="#000000" d="M 3216.03 5171.99 L 3216.03 5074.05 M 3167.05 5123.02 L 3265 5123.02 "/>
</g>
<path transform="matrix(.1,0,0,-.1,-299,556)" stroke-width="9.23334" stroke-linecap="butt" stroke-miterlimit="10" stroke-linejoin="miter" fill="none" stroke="#000000" d="M 3265 5123.02 C 3265 5150.07 3243.07 5171.99 3216.03 5171.99 C 3188.98 5171.99 3167.05 5150.07 3167.05 5123.02 C 3167.05 5095.98 3188.98 5074.05 3216.03 5074.05 C 3243.07 5074.05 3265 5095.98 3265 5123.02 Z M 3216.03 5123.02 "/>
<clipPath id="cp2">
<path transform="matrix(.1,0,0,-.1,-299,556)" d="M 3900.5 5123.02 C 3900.5 5150.07 3878.58 5171.99 3851.53 5171.99 C 3824.48 5171.99 3802.56 5150.07 3802.56 5123.02 C 3802.56 5095.98 3824.48 5074.05 3851.53 5074.05 C 3878.58 5074.05 3900.5 5095.98 3900.5 5123.02 Z M 3851.53 5123.02 "/>
</clipPath>
<g clip-path="url(#cp2)">
<path transform="matrix(.1,0,0,-.1,-299,556)" stroke-width="9.23334" stroke-linecap="butt" stroke-miterlimit="10" stroke-linejoin="miter" fill="none" stroke="#000000" d="M 3851.53 5171.99 L 3851.53 5074.05 M 3802.56 5123.02 L 3900.5 5123.02 "/>
</g>
<path transform="matrix(.1,0,0,-.1,-299,556)" stroke-width="9.23334" stroke-linecap="butt" stroke-miterlimit="10" stroke-linejoin="miter" fill="none" stroke="#000000" d="M 3900.5 5123.02 C 3900.5 5150.07 3878.58 5171.99 3851.53 5171.99 C 3824.48 5171.99 3802.56 5150.07 3802.56 5123.02 C 3802.56 5095.98 3824.48 5074.05 3851.53 5074.05 C 3878.58 5074.05 3900.5 5095.98 3900.5 5123.02 Z M 3851.53 5123.02 "/>
<path transform="matrix(.1,0,0,-.1,-299,556)" stroke-width="9.23334" stroke-linecap="butt" stroke-miterlimit="10" stroke-linejoin="miter" fill="none" stroke="#000000" d="M 3192.93 5451.43 L 2998.23 5451.43 "/>
<path transform="matrix(.1,0,0,-.1,-299,556)" stroke-width="9.23334" stroke-linecap="butt" stroke-miterlimit="10" stroke-linejoin="miter" fill="none" stroke="#000000" d="M 3216.01 5428.34 L 3216.01 5172 "/>
<path transform="matrix(.1,0,0,-.1,-299,556)" stroke-width="9.23334" stroke-linecap="butt" stroke-miterlimit="10" stroke-linejoin="miter" fill="none" stroke="#000000" d="M 3533.77 5451.43 L 3239.1 5451.43 "/>
<path transform="matrix(.1,0,0,-.1,-299,556)" stroke-width="9.23334" stroke-linecap="butt" stroke-miterlimit="10" stroke-linejoin="miter" fill="none" stroke="#000000" d="M 3828.45 5451.43 L 3533.77 5451.43 "/>
<path transform="matrix(.1,0,0,-.1,-299,556)" stroke-width="9.23334" stroke-linecap="butt" stroke-miterlimit="10" stroke-linejoin="miter" fill="none" stroke="#000000" d="M 3851.54 5428.34 L 3851.54 5172 "/>
<path transform="matrix(.1,0,0,-.1,-299,556)" stroke-width="9.23334" stroke-linecap="butt" stroke-miterlimit="10" stroke-linejoin="miter" fill="none" stroke="#000000" d="M 4069.32 5451.43 L 3874.62 5451.43 "/>
<path transform="matrix(.1,0,0,-.1,-299,556)" stroke-width="9.23334" stroke-linecap="butt" stroke-miterlimit="10" stroke-linejoin="miter" fill="none" stroke="#000000" d="M 4628.7 5451.43 L 4459.86 5451.43 "/>
<path transform="matrix(.1,0,0,-.1,-299,556)" stroke-width="9.23334" stroke-linecap="butt" stroke-miterlimit="10" stroke-linejoin="miter" fill="none" stroke="#000000" d="M 4988.2 5451.43 L 4819.37 5451.43 "/>
<path transform="matrix(.1,0,0,-.1,-299,556)" stroke-width="9.23334" stroke-linecap="butt" stroke-miterlimit="10" stroke-linejoin="miter" fill="none" stroke="#000000" d="M 3167.04 5123.03 L 2998.23 5123.03 "/>
<path transform="matrix(.1,0,0,-.1,-299,556)" stroke-width="9.23334" stroke-linecap="butt" stroke-miterlimit="10" stroke-linejoin="miter" fill="none" stroke="#000000" d="M 3433.8 5123.03 L 3264.98 5123.03 "/>
<path transform="matrix(.1,0,0,-.1,-299,556)" stroke-width="9.23334" stroke-linecap="butt" stroke-miterlimit="10" stroke-linejoin="miter" fill="none" stroke="#000000" d="M 3802.56 5123.03 L 3633.75 5123.03 "/>
<path transform="matrix(.1,0,0,-.1,-299,556)" stroke-width="9.23334" stroke-linecap="butt" stroke-miterlimit="10" stroke-linejoin="miter" fill="none" stroke="#000000" d="M 4087.22 5123.03 L 3900.51 5123.03 "/>
<path transform="matrix(.1,0,0,-.1,-299,556)" stroke-width="9.23334" stroke-linecap="butt" stroke-miterlimit="10" stroke-linejoin="miter" fill="none" stroke="#000000" d="M 4624.05 5123.03 L 4441.95 5123.03 "/>
<path transform="matrix(.1,0,0,-.1,-299,556)" stroke-width="9.23334" stroke-linecap="butt" stroke-miterlimit="10" stroke-linejoin="miter" fill="none" stroke="#000000" d="M 4988.2 5123.03 L 4824.01 5123.03 "/>
<symbol id="font_3_1">
<path d="M 0 0 L .504 0 L .504 .08 L 0 .08 L 0 0 M 0 .202 L .504 .202 L .504 .282 L 0 .282 L 0 .202 Z "/>
</symbol>
<use xlink:href="#font_3_1" transform="matrix(12.8804,0,0,-12.8804,124.2129,28.369408)"/>
<path transform="matrix(.1,0,0,-.1,-299,556)" d="M 4627.43 5354.82 L 4820.641 5354.82 L 4820.641 5548.027 L 4627.43 5548.027 Z " fill="#ffffff"/>
<path transform="matrix(.1,0,0,-.1,-299,556)" stroke-width="9.23334" stroke-linecap="butt" stroke-miterlimit="10" stroke-linejoin="miter" fill="none" stroke="#000000" d="M 4627.43 5354.82 L 4820.641 5354.82 L 4820.641 5548.027 L 4627.43 5548.027 Z "/>
<symbol id="font_4_2">
<path d="M .69200006 .72200009 L .18900001 .72200009 L .108 .483 L .149 .47200004 C .15200001 .47700004 .15600002 .48400004 .16000001 .492 C .21900001 .592 .22900002 .606 .266 .633 C .30400003 .66200008 .36 .675 .44300003 .675 L .539 .675 L .005999999 .038000004 L 0 0 L .554 0 L .636 .256 L .594 .268 C .551 .18300002 .532 .15400002 .49800004 .120000008 C .44600005 .068 .38500003 .047000003 .28700004 .047000003 L .15200001 .047000003 L .686 .683 L .69200006 .72200009 Z "/>
</symbol>
<use xlink:href="#font_4_2" transform="matrix(12.8805,0,0,-12.8805,168.717,15.452026)"/>
<path transform="matrix(.1,0,0,-.1,-299,556)" d="M 3433.8 5026.43 L 3633.753 5026.43 L 3633.753 5219.637 L 3433.8 5219.637 Z " fill="#ffffff"/>
<path transform="matrix(.1,0,0,-.1,-299,556)" stroke-width="9.23334" stroke-linecap="butt" stroke-miterlimit="10" stroke-linejoin="miter" fill="none" stroke="#000000" d="M 3433.8 5026.43 L 3633.753 5026.43 L 3633.753 5219.637 L 3433.8 5219.637 Z "/>
<symbol id="font_4_1">
<path d="M .33 .36400003 L .23000002 .61300006 C .22300002 .63000008 .21900001 .643 .21900001 .651 C .21900001 .66800007 .236 .675 .28 .675 L .308 .675 L .31300003 .72200009 L .004999999 .72200009 L 0 .675 L .017 .675 C .076000008 .675 .095 .66200008 .118 .606 L .238 .30800004 L .18800001 .123 C .17400001 .07 .17400001 .069000009 .165 .061000006 C .155 .051000004 .131 .047000003 .082 .047000003 L .060000007 .047000003 L .054 0 L .40100003 0 L .40600003 .047000003 L .37 .047000003 C .30400003 .047000003 .29000003 .052 .29000003 .074 C .29000003 .082 .29000003 .082 .3 .123 L .35000003 .30800004 L .55 .564 C .62 .652 .64900007 .671 .721 .675 L .726 .72200009 L .444 .72200009 L .439 .675 L .462 .675 C .50200006 .675 .526 .66 .526 .63600006 C .526 .623 .51600006 .601 .5 .582 L .33 .36400003 Z "/>
</symbol>
<use xlink:href="#font_4_1" transform="matrix(12.8805,0,0,-12.8805,49.408178,48.291994)"/>
<path transform="matrix(.1,0,0,-.1,-299,556)" d="M 4624.05 5026.43 L 4824.003 5026.43 L 4824.003 5219.637 L 4624.05 5219.637 Z " fill="#ffffff"/>
<path transform="matrix(.1,0,0,-.1,-299,556)" stroke-width="9.23334" stroke-linecap="butt" stroke-miterlimit="10" stroke-linejoin="miter" fill="none" stroke="#000000" d="M 4624.05 5026.43 L 4824.003 5026.43 L 4824.003 5219.637 L 4624.05 5219.637 Z "/>
<use xlink:href="#font_4_1" transform="matrix(12.8805,0,0,-12.8805,168.43418,48.291994)"/>
</g>
</g>
</svg>
