<?xml version="1.0" encoding="UTF-8" standalone="no"?>
<!DOCTYPE svg PUBLIC "-//W3C//DTD SVG 1.1//EN" "http://www.w3.org/Graphics/SVG/1.1/DTD/svg11.dtd">
<svg xmlns="http://www.w3.org/2000/svg" xmlns:xlink="http://www.w3.org/1999/xlink" version="1.1" width="332pt" height="54pt" viewBox="0 0 332 54">
<g enable-background="new">
<clipPath id="cp0">
<path transform="matrix(1,0,0,-1,-299,555)" d="M 0 0 L 1001 0 L 1001 709 L 0 709 Z "/>
</clipPath>
<g clip-path="url(#cp0)">
<path transform="matrix(.1,0,0,-.1,-299,555)" d="M 3287.5 5446.93 C 3287.5 5459.68 3277.16 5470.01 3264.42 5470.01 C 3251.67 5470.01 3241.33 5459.68 3241.33 5446.93 C 3241.33 5434.18 3251.67 5423.84 3264.42 5423.84 C 3277.16 5423.84 3287.5 5434.18 3287.5 5446.93 Z M 3264.42 5446.93 "/>
<path transform="matrix(.1,0,0,-.1,-299,555)" d="M 3535.21 5350.32 L 3792.823 5350.32 L 3792.823 5543.527 L 3535.21 5543.527 Z " fill="#ffffff"/>
<clipPath id="cp1">
<path transform="matrix(.1,0,0,-.1,-299,555)" d="M 3535.21 5350.32 L 3792.823 5350.32 L 3792.823 5543.527 L 3535.21 5543.527 Z "/>
</clipPath>
<g clip-path="url(#cp1)">
<path transform="matrix(.1,0,0,-.1,-299,555)" stroke-width="9.23334" stroke-linecap="butt" stroke-miterlimit="10" stroke-linejoin="miter" fill="none" stroke="#000000" d="M 3568.05 5429.14 C 3616.16 5486.48 3711.87 5486.48 3759.98 5429.14 "/>
<path transform="matrix(.1,0,0,-.1,-299,555)" stroke-width="9.23334" stroke-linecap="butt" stroke-miterlimit="10" stroke-linejoin="miter" fill="none" stroke="#000000" d="M 3664.02 5383.16 L 3737.39 5478.14 "/>
<path transform="matrix(.1,0,0,-.1,-299,555)" d="M 3751.02 5495.78 C 3748.78 5494.05 3738.21 5487.01 3730.13 5483.75 L 3744.66 5472.53 C 3745.76 5481.18 3749.91 5493.18 3751.02 5495.78 Z "/>
<path transform="matrix(.1,0,0,-.1,-299,555)" stroke-width="9.14048" stroke-linecap="butt" stroke-miterlimit="10" stroke-linejoin="miter" fill="none" stroke="#000000" d="M 3751.02 5495.78 C 3748.78 5494.05 3738.21 5487.01 3730.13 5483.75 L 3744.66 5472.53 C 3745.76 5481.18 3749.91 5493.18 3751.02 5495.78 Z "/>
</g>
<path transform="matrix(.1,0,0,-.1,-299,555)" stroke-width="9.23334" stroke-linecap="butt" stroke-miterlimit="10" stroke-linejoin="miter" fill="none" stroke="#000000" d="M 3535.21 5350.32 L 3792.823 5350.32 L 3792.823 5543.527 L 3535.21 5543.527 Z "/>
<path transform="matrix(.1,0,0,-.1,-299,555)" d="M 4520.98 5350.32 L 4778.589 5350.32 L 4778.589 5543.527 L 4520.98 5543.527 Z " fill="#ffffff"/>
<clipPath id="cp2">
<path transform="matrix(.1,0,0,-.1,-299,555)" d="M 4520.98 5350.32 L 4778.589 5350.32 L 4778.589 5543.527 L 4520.98 5543.527 Z "/>
</clipPath>
<g clip-path="url(#cp2)">
<path transform="matrix(.1,0,0,-.1,-299,555)" stroke-width="9.23334" stroke-linecap="butt" stroke-miterlimit="10" stroke-linejoin="miter" fill="none" stroke="#000000" d="M 4553.82 5429.14 C 4601.93 5486.48 4697.64 5486.48 4745.75 5429.14 "/>
<path transform="matrix(.1,0,0,-.1,-299,555)" stroke-width="9.23334" stroke-linecap="butt" stroke-miterlimit="10" stroke-linejoin="miter" fill="none" stroke="#000000" d="M 4649.78 5383.16 L 4723.16 5478.14 "/>
<path transform="matrix(.1,0,0,-.1,-299,555)" d="M 4736.78 5495.78 C 4734.54 5494.05 4723.98 5487.01 4715.89 5483.75 L 4730.42 5472.53 C 4731.53 5481.18 4735.68 5493.18 4736.78 5495.78 Z "/>
<path transform="matrix(.1,0,0,-.1,-299,555)" stroke-width="9.14048" stroke-linecap="butt" stroke-miterlimit="10" stroke-linejoin="miter" fill="none" stroke="#000000" d="M 4736.78 5495.78 C 4734.54 5494.05 4723.98 5487.01 4715.89 5483.75 L 4730.42 5472.53 C 4731.53 5481.18 4735.68 5493.18 4736.78 5495.78 Z "/>
</g>
<path transform="matrix(.1,0,0,-.1,-299,555)" stroke-width="9.23334" stroke-linecap="butt" stroke-miterlimit="10" stroke-linejoin="miter" fill="none" stroke="#000000" d="M 4520.98 5350.32 L 4778.589 5350.32 L 4778.589 5543.527 L 4520.98 5543.527 Z "/>
<path transform="matrix(.1,0,0,-.1,-299,555)" d="M 5874.9 5350.32 L 6132.5129 5350.32 L 6132.5129 5543.527 L 5874.9 5543.527 Z " fill="#ffffff"/>
<clipPath id="cp3">
<path transform="matrix(.1,0,0,-.1,-299,555)" d="M 5874.9 5350.32 L 6132.5129 5350.32 L 6132.5129 5543.527 L 5874.9 5543.527 Z "/>
</clipPath>
<g clip-path="url(#cp3)">
<path transform="matrix(.1,0,0,-.1,-299,555)" stroke-width="9.23334" stroke-linecap="butt" stroke-miterlimit="10" stroke-linejoin="miter" fill="none" stroke="#000000" d="M 5907.74 5429.14 C 5955.85 5486.48 6051.56 5486.48 6099.67 5429.14 "/>
<path transform="matrix(.1,0,0,-.1,-299,555)" stroke-width="9.23334" stroke-linecap="butt" stroke-miterlimit="10" stroke-linejoin="miter" fill="none" stroke="#000000" d="M 6003.71 5383.16 L 6077.08 5478.14 "/>
<path transform="matrix(.1,0,0,-.1,-299,555)" d="M 6090.7 5495.78 C 6088.46 5494.05 6077.9 5487.01 6069.81 5483.75 L 6084.34 5472.53 C 6085.45 5481.18 6089.6 5493.18 6090.7 5495.78 Z "/>
<path transform="matrix(.1,0,0,-.1,-299,555)" stroke-width="9.14048" stroke-linecap="butt" stroke-miterlimit="10" stroke-linejoin="miter" fill="none" stroke="#000000" d="M 6090.7 5495.78 C 6088.46 5494.05 6077.9 5487.01 6069.81 5483.75 L 6084.34 5472.53 C 6085.45 5481.18 6089.6 5493.18 6090.7 5495.78 Z "/>
</g>
<path transform="matrix(.1,0,0,-.1,-299,555)" stroke-width="9.23334" stroke-linecap="butt" stroke-miterlimit="10" stroke-linejoin="miter" fill="none" stroke="#000000" d="M 5874.9 5350.32 L 6132.5129 5350.32 L 6132.5129 5543.527 L 5874.9 5543.527 Z "/>
<path transform="matrix(.1,0,0,-.1,-299,555)" stroke-width="9.23334" stroke-linecap="butt" stroke-miterlimit="10" stroke-linejoin="miter" fill="none" stroke="#000000" d="M 3241.32 5446.93 L 2998.22 5446.93 "/>
<path transform="matrix(.1,0,0,-.1,-299,555)" stroke-width="9.23334" stroke-linecap="butt" stroke-miterlimit="10" stroke-linejoin="miter" fill="none" stroke="#000000" d="M 3264.4 5423.84 L 3264.4 5211.69 "/>
<path transform="matrix(.1,0,0,-.1,-299,555)" stroke-width="9.23334" stroke-linecap="butt" stroke-miterlimit="10" stroke-linejoin="miter" fill="none" stroke="#000000" d="M 3535.2 5446.93 L 3287.48 5446.93 "/>
<path transform="matrix(.1,0,0,-.1,-299,555)" stroke-width="9.23334" stroke-linecap="butt" stroke-miterlimit="10" stroke-linejoin="miter" fill="none" stroke="#000000" d="M 4520.98 5446.93 L 4352.16 5446.93 "/>
<path transform="matrix(.1,0,0,-.1,-299,555)" stroke-width="9.23334" stroke-linecap="butt" stroke-miterlimit="10" stroke-linejoin="miter" fill="none" stroke="#000000" d="M 5065.81 5446.93 L 5065.81 5211.69 "/>
<path transform="matrix(.1,0,0,-.1,-299,555)" stroke-width="9.23334" stroke-linecap="butt" stroke-miterlimit="10" stroke-linejoin="miter" fill="none" stroke="#000000" d="M 5032.96 5446.93 L 5032.96 5211.69 "/>
<path transform="matrix(.1,0,0,-.1,-299,555)" stroke-width="9.23334" stroke-linecap="butt" stroke-miterlimit="10" stroke-linejoin="miter" fill="none" stroke="#000000" d="M 5049.39 5463.35 L 4778.59 5463.35 "/>
<path transform="matrix(.1,0,0,-.1,-299,555)" stroke-width="9.23334" stroke-linecap="butt" stroke-miterlimit="10" stroke-linejoin="miter" fill="none" stroke="#000000" d="M 5049.39 5430.51 L 4778.59 5430.51 "/>
<path transform="matrix(.1,0,0,-.1,-299,555)" stroke-width="9.23334" stroke-linecap="butt" stroke-miterlimit="10" stroke-linejoin="miter" fill="none" stroke="#000000" d="M 5874.92 5446.93 L 5706.11 5446.93 "/>
<path transform="matrix(.1,0,0,-.1,-299,555)" stroke-width="9.23334" stroke-linecap="butt" stroke-miterlimit="10" stroke-linejoin="miter" fill="none" stroke="#000000" d="M 6020.14 5350.32 L 6020.14 5211.69 "/>
<path transform="matrix(.1,0,0,-.1,-299,555)" stroke-width="9.23334" stroke-linecap="butt" stroke-miterlimit="10" stroke-linejoin="miter" fill="none" stroke="#000000" d="M 5987.3 5350.32 L 5987.3 5211.69 "/>
<path transform="matrix(.1,0,0,-.1,-299,555)" stroke-width="9.23334" stroke-linecap="butt" stroke-miterlimit="10" stroke-linejoin="miter" fill="none" stroke="#000000" d="M 3162.41 5118.53 L 2998.22 5118.53 "/>
<path transform="matrix(.1,0,0,-.1,-299,555)" stroke-width="9.23334" stroke-linecap="butt" stroke-miterlimit="10" stroke-linejoin="miter" fill="none" stroke="#000000" d="M 3664 5118.53 L 3366.38 5118.53 "/>
<path transform="matrix(.1,0,0,-.1,-299,555)" stroke-width="9.23334" stroke-linecap="butt" stroke-miterlimit="10" stroke-linejoin="miter" fill="none" stroke="#000000" d="M 3979.53 5118.53 L 3664 5118.53 "/>
<path transform="matrix(.1,0,0,-.1,-299,555)" stroke-width="9.23334" stroke-linecap="butt" stroke-miterlimit="10" stroke-linejoin="miter" fill="none" stroke="#000000" d="M 4649.78 5118.53 L 4334.26 5118.53 "/>
<path transform="matrix(.1,0,0,-.1,-299,555)" stroke-width="9.23334" stroke-linecap="butt" stroke-miterlimit="10" stroke-linejoin="miter" fill="none" stroke="#000000" d="M 4947.4 5118.53 L 4649.78 5118.53 "/>
<path transform="matrix(.1,0,0,-.1,-299,555)" stroke-width="9.23334" stroke-linecap="butt" stroke-miterlimit="10" stroke-linejoin="miter" fill="none" stroke="#000000" d="M 5333.47 5118.53 L 5151.37 5118.53 "/>
<path transform="matrix(.1,0,0,-.1,-299,555)" stroke-width="9.23334" stroke-linecap="butt" stroke-miterlimit="10" stroke-linejoin="miter" fill="none" stroke="#000000" d="M 5901.74 5118.53 L 5688.2 5118.53 "/>
<path transform="matrix(.1,0,0,-.1,-299,555)" stroke-width="9.23334" stroke-linecap="butt" stroke-miterlimit="10" stroke-linejoin="miter" fill="none" stroke="#000000" d="M 6301.35 5118.53 L 6105.71 5118.53 "/>
<symbol id="font_4_1">
<path d="M 0 0 L .504 0 L .504 .08 L 0 .08 L 0 0 M 0 .202 L .504 .202 L .504 .282 L 0 .282 L 0 .202 Z "/>
</symbol>
<use xlink:href="#font_4_1" transform="matrix(12.8804,0,0,-12.8804,113.443889,27.817406)"/>
<use xlink:href="#font_4_1" transform="matrix(12.8804,0,0,-12.8804,248.8361,27.817406)"/>
<path transform="matrix(.1,0,0,-.1,-299,555)" d="M 3162.41 5021.93 L 3366.379 5021.93 L 3366.379 5215.141 L 3162.41 5215.141 Z " fill="#ffffff"/>
<path transform="matrix(.1,0,0,-.1,-299,555)" stroke-width="9.23334" stroke-linecap="butt" stroke-miterlimit="10" stroke-linejoin="miter" fill="none" stroke="#000000" d="M 3162.41 5021.93 L 3366.379 5021.93 L 3366.379 5215.141 L 3162.41 5215.141 Z "/>
<symbol id="font_5_1">
<path d="M .0069999995 .69 L .031999999 .69 C .09700001 .69 .11100001 .685 .11100001 .663 C .11100001 .65500006 .107 .634 .102000009 .614 L .020000004 .30900003 C .0040000008 .25100003 0 .22500001 0 .19100002 C 0 .067 .087000008 0 .25000004 0 C .30100004 0 .35100005 .008 .39000003 .023000002 C .45500005 .048 .49400003 .091000009 .52500006 .172 C .53900006 .207 .53900006 .207 .56600007 .30900003 L .62200006 .52 C .665 .675 .674 .686 .762 .69 L .767 .73700007 L .504 .73700007 L .49800004 .69 C .56200006 .69100007 .591 .67300006 .591 .635 C .591 .61300006 .59000006 .609 .568 .52 L .51000007 .305 C .481 .194 .46900005 .16100002 .44500006 .127 C .40600003 .071 .34800003 .043 .27100004 .043 C .16900003 .043 .11000001 .093 .11000001 .178 C .11000001 .20400001 .117000009 .25300003 .124000009 .28100003 L .21400002 .614 C .22800002 .66800007 .22800002 .66800007 .23700002 .676 C .24700001 .686 .27100004 .69 .32000003 .69 L .32400004 .69 L .33 .73700007 L .012000002 .73700007 L .0069999995 .69 Z "/>
</symbol>
<use xlink:href="#font_5_1" transform="matrix(12.8805,0,0,-12.8805,22.641888,47.8302)"/>
<path transform="matrix(.1,0,0,-.1,-299,555)" d="M 4947.4 5021.93 L 5151.369 5021.93 L 5151.369 5215.141 L 4947.4 5215.141 Z " fill="#ffffff"/>
<path transform="matrix(.1,0,0,-.1,-299,555)" stroke-width="9.23334" stroke-linecap="butt" stroke-miterlimit="10" stroke-linejoin="miter" fill="none" stroke="#000000" d="M 4947.4 5021.93 L 5151.369 5021.93 L 5151.369 5215.141 L 4947.4 5215.141 Z "/>
<use xlink:href="#font_5_1" transform="matrix(12.8805,0,0,-12.8805,201.1389,47.8302)"/>
<path transform="matrix(.1,0,0,-.1,-299,555)" d="M 5901.74 5021.93 L 6105.705 5021.93 L 6105.705 5215.141 L 5901.74 5215.141 Z " fill="#ffffff"/>
<path transform="matrix(.1,0,0,-.1,-299,555)" stroke-width="9.23334" stroke-linecap="butt" stroke-miterlimit="10" stroke-linejoin="miter" fill="none" stroke="#000000" d="M 5901.74 5021.93 L 6105.705 5021.93 L 6105.705 5215.141 L 5901.74 5215.141 Z "/>
<use xlink:href="#font_5_1" transform="matrix(12.8805,0,0,-12.8805,296.5719,47.8302)"/>
<path transform="matrix(.1,0,0,-.1,-299,555)" d="M 5082.04 5446.93 C 5082.04 5464.96 5067.42 5479.57 5049.39 5479.57 C 5031.36 5479.57 5016.74 5464.96 5016.74 5446.93 C 5016.74 5428.9 5031.36 5414.28 5049.39 5414.28 C 5067.42 5414.28 5082.04 5428.9 5082.04 5446.93 Z M 5049.39 5446.93 "/>
</g>
</g>
</svg>
