<?xml version="1.0" encoding="UTF-8" standalone="no"?>
<!DOCTYPE svg PUBLIC "-//W3C//DTD SVG 1.1//EN" "http://www.w3.org/Graphics/SVG/1.1/DTD/svg11.dtd">
<svg xmlns="http://www.w3.org/2000/svg" xmlns:xlink="http://www.w3.org/1999/xlink" version="1.1" width="333pt" height="48pt" viewBox="0 0 333 48">
<g enable-background="new">
<clipPath id="cp0">
<path transform="matrix(0,1,1,0,-299,-154)" d="M 0 0 L 709 0 L 709 1001 L 0 1001 Z "/>
</clipPath>
<g clip-path="url(#cp0)">
<path transform="matrix(0,.1,.1,0,-299,-154)" d="M 1569.54 3394.16 C 1556.79 3394.16 1546.46 3383.83 1546.46 3371.08 C 1546.46 3358.33 1556.79 3348 1569.54 3348 C 1582.29 3348 1592.63 3358.33 1592.63 3371.08 C 1592.63 3383.83 1582.29 3394.16 1569.54 3394.16 Z M 1569.54 3371.08 "/>
<path transform="matrix(0,.1,.1,0,-299,-154)" d="M 1569.54 5064.24 C 1556.79 5064.24 1546.46 5053.91 1546.46 5041.16 C 1546.46 5028.41 1556.79 5018.07 1569.54 5018.07 C 1582.29 5018.07 1592.63 5028.41 1592.63 5041.16 C 1592.63 5053.91 1582.29 5064.24 1569.54 5064.24 Z M 1569.54 5041.16 "/>
<path transform="matrix(0,.1,.1,0,-299,-154)" d="M 1569.54 6116.2 C 1556.79 6116.2 1546.46 6105.87 1546.46 6093.12 C 1546.46 6080.37 1556.79 6070.04 1569.54 6070.04 C 1582.29 6070.04 1592.63 6080.37 1592.63 6093.12 C 1592.63 6105.87 1582.29 6116.2 1569.54 6116.2 Z M 1569.54 6093.12 "/>
<clipPath id="cp1">
<path transform="matrix(0,.1,.1,0,-299,-154)" d="M 1897.94 5090.13 C 1870.89 5090.13 1848.97 5068.2 1848.97 5041.16 C 1848.97 5014.11 1870.89 4992.18 1897.94 4992.18 C 1924.99 4992.18 1946.91 5014.11 1946.91 5041.16 C 1946.91 5068.2 1924.99 5090.13 1897.94 5090.13 Z M 1897.94 5041.16 "/>
</clipPath>
<g clip-path="url(#cp1)">
<path transform="matrix(0,.1,.1,0,-299,-154)" stroke-width="9.23334" stroke-linecap="butt" stroke-miterlimit="10" stroke-linejoin="miter" fill="none" stroke="#000000" d="M 1848.97 5041.16 L 1946.91 5041.16 M 1897.94 4992.18 L 1897.94 5090.13 "/>
</g>
<path transform="matrix(0,.1,.1,0,-299,-154)" stroke-width="9.23334" stroke-linecap="butt" stroke-miterlimit="10" stroke-linejoin="miter" fill="none" stroke="#000000" d="M 1897.94 5090.13 C 1870.89 5090.13 1848.97 5068.2 1848.97 5041.16 C 1848.97 5014.11 1870.89 4992.18 1897.94 4992.18 C 1924.99 4992.18 1946.91 5014.11 1946.91 5041.16 C 1946.91 5068.2 1924.99 5090.13 1897.94 5090.13 Z M 1897.94 5041.16 "/>
<clipPath id="cp2">
<path transform="matrix(0,.1,.1,0,-299,-154)" d="M 1897.94 6142.09 C 1870.89 6142.09 1848.97 6120.16 1848.97 6093.12 C 1848.97 6066.07 1870.89 6044.14 1897.94 6044.14 C 1924.99 6044.14 1946.91 6066.07 1946.91 6093.12 C 1946.91 6120.16 1924.99 6142.09 1897.94 6142.09 Z M 1897.94 6093.12 "/>
</clipPath>
<g clip-path="url(#cp2)">
<path transform="matrix(0,.1,.1,0,-299,-154)" stroke-width="9.23334" stroke-linecap="butt" stroke-miterlimit="10" stroke-linejoin="miter" fill="none" stroke="#000000" d="M 1848.97 6093.12 L 1946.91 6093.12 M 1897.94 6044.14 L 1897.94 6142.09 "/>
</g>
<path transform="matrix(0,.1,.1,0,-299,-154)" stroke-width="9.23334" stroke-linecap="butt" stroke-miterlimit="10" stroke-linejoin="miter" fill="none" stroke="#000000" d="M 1897.94 6142.09 C 1870.89 6142.09 1848.97 6120.16 1848.97 6093.12 C 1848.97 6066.07 1870.89 6044.14 1897.94 6044.14 C 1924.99 6044.14 1946.91 6066.07 1946.91 6093.12 C 1946.91 6120.16 1924.99 6142.09 1897.94 6142.09 Z M 1897.94 6093.12 "/>
<path transform="matrix(0,.1,.1,0,-299,-154)" stroke-width="9.23334" stroke-linecap="butt" stroke-miterlimit="10" stroke-linejoin="miter" fill="none" stroke="#000000" d="M 1569.54 3347.98 L 1569.54 2998.21 "/>
<path transform="matrix(0,.1,.1,0,-299,-154)" stroke-width="9.23334" stroke-linecap="butt" stroke-miterlimit="10" stroke-linejoin="miter" fill="none" stroke="#000000" d="M 1592.63 3371.06 L 1784.39 3371.06 "/>
<path transform="matrix(0,.1,.1,0,-299,-154)" stroke-width="9.23334" stroke-linecap="butt" stroke-miterlimit="10" stroke-linejoin="miter" fill="none" stroke="#000000" d="M 1569.54 3743.91 L 1569.54 3394.14 "/>
<path transform="matrix(0,.1,.1,0,-299,-154)" stroke-width="9.23334" stroke-linecap="butt" stroke-miterlimit="10" stroke-linejoin="miter" fill="none" stroke="#000000" d="M 1569.54 4561 L 1569.54 4134.45 "/>
<path transform="matrix(0,.1,.1,0,-299,-154)" stroke-width="9.23334" stroke-linecap="butt" stroke-miterlimit="10" stroke-linejoin="miter" fill="none" stroke="#000000" d="M 1569.54 5018.07 L 1569.54 4561 "/>
<path transform="matrix(0,.1,.1,0,-299,-154)" stroke-width="9.23334" stroke-linecap="butt" stroke-miterlimit="10" stroke-linejoin="miter" fill="none" stroke="#000000" d="M 1592.63 5041.15 L 1848.97 5041.15 "/>
<path transform="matrix(0,.1,.1,0,-299,-154)" stroke-width="9.23334" stroke-linecap="butt" stroke-miterlimit="10" stroke-linejoin="miter" fill="none" stroke="#000000" d="M 1569.54 5567.14 L 1569.54 5064.23 "/>
<path transform="matrix(0,.1,.1,0,-299,-154)" stroke-width="9.23334" stroke-linecap="butt" stroke-miterlimit="10" stroke-linejoin="miter" fill="none" stroke="#000000" d="M 1569.54 6070.05 L 1569.54 5567.14 "/>
<path transform="matrix(0,.1,.1,0,-299,-154)" stroke-width="9.23334" stroke-linecap="butt" stroke-miterlimit="10" stroke-linejoin="miter" fill="none" stroke="#000000" d="M 1592.63 6093.13 L 1848.97 6093.13 "/>
<path transform="matrix(0,.1,.1,0,-299,-154)" stroke-width="9.23334" stroke-linecap="butt" stroke-miterlimit="10" stroke-linejoin="miter" fill="none" stroke="#000000" d="M 1569.54 6310.92 L 1569.54 6116.22 "/>
<path transform="matrix(0,.1,.1,0,-299,-154)" stroke-width="9.23334" stroke-linecap="butt" stroke-miterlimit="10" stroke-linejoin="miter" fill="none" stroke="#000000" d="M 1897.94 3162.41 L 1897.94 2998.21 "/>
<path transform="matrix(0,.1,.1,0,-299,-154)" stroke-width="9.23334" stroke-linecap="butt" stroke-miterlimit="10" stroke-linejoin="miter" fill="none" stroke="#000000" d="M 1897.94 3761.81 L 1897.94 3579.71 "/>
<path transform="matrix(0,.1,.1,0,-299,-154)" stroke-width="9.23334" stroke-linecap="butt" stroke-miterlimit="10" stroke-linejoin="miter" fill="none" stroke="#000000" d="M 1897.94 4298.64 L 1897.94 4116.54 "/>
<path transform="matrix(0,.1,.1,0,-299,-154)" stroke-width="9.23334" stroke-linecap="butt" stroke-miterlimit="10" stroke-linejoin="miter" fill="none" stroke="#000000" d="M 1897.94 4992.18 L 1897.94 4823.37 "/>
<path transform="matrix(0,.1,.1,0,-299,-154)" stroke-width="9.23334" stroke-linecap="butt" stroke-miterlimit="10" stroke-linejoin="miter" fill="none" stroke="#000000" d="M 1897.94 5258.94 L 1897.94 5090.12 "/>
<path transform="matrix(0,.1,.1,0,-299,-154)" stroke-width="9.23334" stroke-linecap="butt" stroke-miterlimit="10" stroke-linejoin="miter" fill="none" stroke="#000000" d="M 1897.94 6044.16 L 1897.94 5875.35 "/>
<path transform="matrix(0,.1,.1,0,-299,-154)" stroke-width="9.23334" stroke-linecap="butt" stroke-miterlimit="10" stroke-linejoin="miter" fill="none" stroke="#000000" d="M 1897.94 6310.92 L 1897.94 6142.11 "/>
<symbol id="font_3_3">
<path d="M 0 0 L .504 0 L .504 .08 L 0 .08 L 0 0 M 0 .202 L .504 .202 L .504 .282 L 0 .282 L 0 .202 Z "/>
</symbol>
<use xlink:href="#font_3_3" transform="matrix(12.8804,0,0,-12.8804,91.67289,20.466393)"/>
<path transform="matrix(0,.1,.1,0,-299,-154)" d="M 1784.39 3162.41 L 2011.495 3162.41 L 2011.495 3579.707 L 1784.39 3579.707 Z " fill="#ffffff"/>
<path transform="matrix(0,.1,.1,0,-299,-154)" stroke-width="9.23334" stroke-linecap="butt" stroke-miterlimit="10" stroke-linejoin="miter" fill="none" stroke="#000000" d="M 1784.39 3162.41 L 2011.495 3162.41 L 2011.495 3579.707 L 1784.39 3579.707 Z "/>
<symbol id="font_4_2">
<path d="M .289 .365 L .358 .365 C .44200004 .365 .47400005 .34000004 .47400005 .27500005 C .47400005 .263 .47300003 .24200002 .47100003 .22100002 C .46500004 .14500001 .46500004 .14 .46500004 .12100001 C .46500004 .049000004 .508 0 .57100006 0 C .63500007 0 .675 .041 .71400007 .147 L .67800006 .162 C .65300008 .091000009 .63600006 .069000009 .60800006 .069000009 C .587 .069000009 .578 .08800001 .578 .13 L .57900008 .18100001 C .58000007 .194 .58000007 .20600002 .58000007 .21700001 C .58000007 .30400003 .55 .352 .47700004 .379 C .555 .388 .59400007 .397 .63000008 .41500003 C .69200006 .44700004 .73200008 .508 .73200008 .573 C .73200008 .632 .70100006 .681 .646 .709 C .60700008 .72900006 .558 .73700007 .47400005 .73700007 L .15400002 .73700007 L .148 .69 L .174 .69 C .23900002 .69 .25300003 .685 .25300003 .663 C .25300003 .65500006 .24900002 .634 .24400002 .614 L .116000007 .13800001 C .102000009 .085 .101 .08400001 .093 .076000008 C .082 .066 .059 .062000004 .01 .062000004 L .004999999 .062000004 L 0 .015000001 L .31800003 .015000001 L .323 .062000004 L .29700003 .062000004 C .23200003 .062000004 .218 .067 .218 .089 C .218 .097 .218 .097 .22800002 .13800001 L .289 .365 M .30100004 .412 L .36 .63 C .374 .681 .38400004 .69 .43100003 .69 L .48000003 .69 C .564 .69 .61200007 .65000006 .61200007 .58 C .61200007 .519 .58400008 .47100003 .53000006 .439 C .49300004 .417 .46300004 .412 .37900005 .412 L .30100004 .412 Z "/>
</symbol>
<use xlink:href="#font_4_2" transform="matrix(12.8805,0,0,-12.8805,21.608893,38.6642)"/>
<symbol id="font_4_1">
<path d="M .29900003 .517 C .27600003 .62600007 .24800003 .67200008 .20500002 .67200008 C .16100002 .67200008 .116000007 .61700007 .075 .509 L .106000009 .495 C .143 .57500007 .15400002 .591 .171 .591 C .185 .591 .19800002 .57000008 .20900002 .527 C .24000001 .41300003 .25800003 .329 .28 .20300001 C .24700001 .15100001 .24000001 .141 .22300002 .119 C .183 .07000001 .14400001 .041999997 .117000009 .041999997 C .105000007 .041999997 .098000008 .047999994 .098000008 .058 C .098000008 .089 .098000008 .089 .095000009 .097 C .08800001 .116000007 .071 .128 .052 .128 C .023000002 .128 0 .104 0 .074 C 0 .032999994 .040000004 0 .09200001 0 C .15 0 .204 .033999996 .263 .108 C .31 .16800002 .389 .3 .46400003 .44600005 C .521 .556 .53300008 .587 .53300008 .62 C .53300008 .651 .51500007 .67200008 .488 .67200008 C .46100004 .67200008 .439 .64900007 .439 .62200006 C .439 .61700007 .44000004 .611 .441 .605 C .44700004 .57100006 .44700004 .568 .44700004 .55300006 C .44700004 .503 .40800003 .40900005 .343 .306 L .29900003 .517 Z "/>
</symbol>
<use xlink:href="#font_4_1" transform="matrix(9.66036,0,0,-9.66036,32.26683,42.499734)"/>
<symbol id="font_3_4">
<path d="M .24300002 .8590001 C .18300002 .8220001 .15100001 .79600009 .11700001 .75600007 C .041000006 .66600009 0 .55100008 0 .43 C 0 .316 .036000004 .209 .103000018 .120000008 C .141 .072 .17500001 .042000005 .24300002 0 L .24300002 .037 C .143 .125 .103000018 .238 .103000018 .43 C .103000018 .62200006 .143 .734 .24300002 .8220001 L .24300002 .8590001 Z "/>
</symbol>
<use xlink:href="#font_3_4" transform="matrix(12.8804,0,0,-12.8804,38.900739,40.055284)"/>
<symbol id="font_5_1">
<path d="M .467 .37700004 C .47900004 .43500004 .48800005 .49700005 .48800005 .55300006 C .48800005 .66400006 .45200003 .75500008 .32700003 .75500008 C .088 .75500008 0 .39800004 0 .198 C 0 .08400001 .040000004 0 .163 0 C .34600003 0 .42400003 .185 .467 .37700004 M .37600003 .40700004 L .126 .40700004 C .14400001 .49200005 .199 .72200009 .319 .72200009 C .38200004 .72200009 .4 .66 .4 .58800008 C .4 .52300009 .38500003 .44900004 .37600003 .40700004 M .368 .37100003 C .34300003 .25300003 .287 .030000002 .169 .030000002 C .107999999 .030000002 .09 .089 .09 .163 C .09 .23200001 .106000009 .31400005 .118 .37100003 L .368 .37100003 Z "/>
</symbol>
<use xlink:href="#font_5_1" transform="matrix(12.465,0,0,-12.465,43.125749,38.633039)"/>
<symbol id="font_3_5">
<path d="M 0 0 C .060000007 .037 .09200001 .063 .126 .104 C .202 .193 .24300002 .30900003 .24300002 .43 C .24300002 .544 .207 .651 .14 .7390001 C .102 .78800007 .068 .8180001 0 .8590001 L 0 .8220001 C .10000001 .734 .14 .62200006 .14 .43 C .14 .23700002 .10000001 .125 0 .037 L 0 0 Z "/>
</symbol>
<use xlink:href="#font_3_5" transform="matrix(12.8804,0,0,-12.8804,50.76265,40.055284)"/>
<path transform="matrix(0,.1,.1,0,-299,-154)" d="M 1784.39 4298.64 L 2011.495 4298.64 L 2011.495 4823.3635 L 1784.39 4823.3635 Z " fill="#ffffff"/>
<path transform="matrix(0,.1,.1,0,-299,-154)" stroke-width="9.23334" stroke-linecap="butt" stroke-miterlimit="10" stroke-linejoin="miter" fill="none" stroke="#000000" d="M 1784.39 4298.64 L 2011.495 4298.64 L 2011.495 4823.3635 L 1784.39 4823.3635 Z "/>
<use xlink:href="#font_4_2" transform="matrix(12.8805,0,0,-12.8805,135.2309,38.6642)"/>
<use xlink:href="#font_4_1" transform="matrix(9.66036,0,0,-9.66036,145.88924,42.499734)"/>
<use xlink:href="#font_3_4" transform="matrix(12.8804,0,0,-12.8804,152.52275,40.055284)"/>
<use xlink:href="#font_5_1" transform="matrix(12.465,0,0,-12.465,156.74776,38.633039)"/>
<symbol id="font_3_1">
<path d="M .26700003 .75000008 L 0 0 L .058000003 0 L .32500003 .75000008 L .26700003 .75000008 Z "/>
</symbol>
<symbol id="font_3_2">
<path d="M .47 .216 L .42600004 .216 L .41600005 .165 C .40300004 .101 .395 .094000007 .33300004 .094000007 L .10900001 .094000007 C .17800002 .16600001 .20100002 .187 .26500003 .23700002 C .35600005 .307 .395 .342 .418 .372 C .45000003 .416 .46600006 .46100004 .46600006 .509 C .46600006 .62200006 .37100003 .70400008 .24100003 .70400008 C .11400001 .70400008 .016000003 .62200006 .016000003 .51600006 C .016000003 .453 .048000006 .41000004 .096000019 .41000004 C .13300002 .41000004 .158 .43500004 .158 .47100003 C .158 .49600003 .14400001 .51900008 .12200001 .528 C .08500001 .544 .083000008 .545 .083000008 .558 C .083000008 .573 .09300001 .596 .10700001 .61300006 C .13200002 .643 .17400001 .661 .22100002 .661 C .30300004 .661 .35300002 .61 .35300002 .526 C .35300002 .45200003 .31800003 .38500003 .23500002 .29700003 L .17600002 .23500002 C .14100002 .19800002 .11500001 .17 .098000008 .15100001 C .062000004 .109000008 .044000005 .086 0 .028 L 0 0 L .45100004 0 L .47 .216 Z "/>
</symbol>
<use xlink:href="#font_3_1" transform="matrix(12.8804,0,0,-12.8804,163.39287,38.651319)"/>
<use xlink:href="#font_3_2" transform="matrix(12.8804,0,0,-12.8804,167.72069,38.470994)"/>
<use xlink:href="#font_3_5" transform="matrix(12.8804,0,0,-12.8804,175.1269,40.055284)"/>
<path transform="matrix(0,.1,.1,0,-299,-154)" d="M 1784.39 5258.94 L 2011.495 5258.94 L 2011.495 5875.35 L 1784.39 5875.35 Z " fill="#ffffff"/>
<path transform="matrix(0,.1,.1,0,-299,-154)" stroke-width="9.23334" stroke-linecap="butt" stroke-miterlimit="10" stroke-linejoin="miter" fill="none" stroke="#000000" d="M 1784.39 5258.94 L 2011.495 5258.94 L 2011.495 5875.35 L 1784.39 5875.35 Z "/>
<use xlink:href="#font_4_2" transform="matrix(12.8805,0,0,-12.8805,231.25888,38.6642)"/>
<use xlink:href="#font_4_1" transform="matrix(9.66036,0,0,-9.66036,241.91719,42.499734)"/>
<use xlink:href="#font_3_4" transform="matrix(12.8804,0,0,-12.8804,248.5519,40.055284)"/>
<symbol id="font_6_1">
<path d="M .5500001 0 L .5500001 .058 L 0 .058 L 0 0 L .5500001 0 Z "/>
</symbol>
<use xlink:href="#font_6_1" transform="matrix(12.742,0,0,-12.742,253.45996,35.24727)"/>
<use xlink:href="#font_5_1" transform="matrix(12.465,0,0,-12.465,261.94413,38.633039)"/>
<use xlink:href="#font_3_1" transform="matrix(12.8804,0,0,-12.8804,268.5892,38.651319)"/>
<use xlink:href="#font_3_2" transform="matrix(12.8804,0,0,-12.8804,272.917,38.470994)"/>
<use xlink:href="#font_3_5" transform="matrix(12.8804,0,0,-12.8804,280.32325,40.055284)"/>
</g>
</g>
</svg>
