<?xml version="1.0" encoding="UTF-8" standalone="no"?>
<!DOCTYPE svg PUBLIC "-//W3C//DTD SVG 1.1//EN" "http://www.w3.org/Graphics/SVG/1.1/DTD/svg11.dtd">
<svg xmlns="http://www.w3.org/2000/svg" xmlns:xlink="http://www.w3.org/1999/xlink" version="1.1" width="184pt" height="75pt" viewBox="0 0 184 75">
<g enable-background="new">
<clipPath id="cp0">
<path transform="matrix(0,1,1,0,-299,-154)" d="M 0 0 L 709 0 L 709 1001 L 0 1001 Z "/>
</clipPath>
<g clip-path="url(#cp0)">
<path transform="matrix(0,.1,.1,0,-299,-154)" d="M 1569.54 3249.92 C 1556.79 3249.92 1546.46 3239.58 1546.46 3226.84 C 1546.46 3214.09 1556.79 3203.75 1569.54 3203.75 C 1582.29 3203.75 1592.63 3214.09 1592.63 3226.84 C 1592.63 3239.58 1582.29 3249.92 1569.54 3249.92 Z M 1569.54 3226.84 "/>
<path transform="matrix(0,.1,.1,0,-299,-154)" d="M 1569.54 4086.84 C 1556.79 4086.84 1546.46 4076.5 1546.46 4063.76 C 1546.46 4051.01 1556.79 4040.67 1569.54 4040.67 C 1582.29 4040.67 1592.63 4051.01 1592.63 4063.76 C 1592.63 4076.5 1582.29 4086.84 1569.54 4086.84 Z M 1569.54 4063.76 "/>
<path transform="matrix(0,.1,.1,0,-299,-154)" d="M 1569.54 4358.21 C 1556.79 4358.21 1546.46 4347.87 1546.46 4335.12 C 1546.46 4322.38 1556.79 4312.04 1569.54 4312.04 C 1582.29 4312.04 1592.63 4322.38 1592.63 4335.12 C 1592.63 4347.87 1582.29 4358.21 1569.54 4358.21 Z M 1569.54 4335.12 "/>
<path transform="matrix(0,.1,.1,0,-299,-154)" d="M 1569.54 4629.57 C 1556.79 4629.57 1546.46 4619.24 1546.46 4606.49 C 1546.46 4593.74 1556.79 4583.41 1569.54 4583.41 C 1582.29 4583.41 1592.63 4593.74 1592.63 4606.49 C 1592.63 4619.24 1582.29 4629.57 1569.54 4629.57 Z M 1569.54 4606.49 "/>
<clipPath id="cp1">
<path transform="matrix(0,.1,.1,0,-299,-154)" d="M 1897.94 3291.24 C 1862.37 3291.24 1833.54 3262.4 1833.54 3226.84 C 1833.54 3191.27 1862.37 3162.43 1897.94 3162.43 C 1933.51 3162.43 1962.34 3191.27 1962.34 3226.84 C 1962.34 3262.4 1933.51 3291.24 1897.94 3291.24 Z M 1897.94 3226.84 "/>
</clipPath>
<g clip-path="url(#cp1)">
<path transform="matrix(0,.1,.1,0,-299,-154)" stroke-width="9.23334" stroke-linecap="butt" stroke-miterlimit="10" stroke-linejoin="miter" fill="none" stroke="#000000" d="M 1962.34 3291.24 L 1833.54 3162.43 M 1962.34 3162.43 L 1833.54 3291.24 M 1897.94 3162.43 L 1897.94 3291.24 "/>
</g>
<path transform="matrix(0,.1,.1,0,-299,-154)" d="M 1897.94 4086.84 C 1885.19 4086.84 1874.86 4076.5 1874.86 4063.76 C 1874.86 4051.01 1885.19 4040.67 1897.94 4040.67 C 1910.69 4040.67 1921.03 4051.01 1921.03 4063.76 C 1921.03 4076.5 1910.69 4086.84 1897.94 4086.84 Z M 1897.94 4063.76 "/>
<clipPath id="cp2">
<path transform="matrix(0,.1,.1,0,-299,-154)" d="M 1897.94 4384.09 C 1870.89 4384.09 1848.97 4362.17 1848.97 4335.12 C 1848.97 4308.08 1870.89 4286.15 1897.94 4286.15 C 1924.99 4286.15 1946.91 4308.08 1946.91 4335.12 C 1946.91 4362.17 1924.99 4384.09 1897.94 4384.09 Z M 1897.94 4335.12 "/>
</clipPath>
<g clip-path="url(#cp2)">
<path transform="matrix(0,.1,.1,0,-299,-154)" stroke-width="9.23334" stroke-linecap="butt" stroke-miterlimit="10" stroke-linejoin="miter" fill="none" stroke="#000000" d="M 1848.97 4335.12 L 1946.91 4335.12 M 1897.94 4286.15 L 1897.94 4384.09 "/>
</g>
<path transform="matrix(0,.1,.1,0,-299,-154)" stroke-width="9.23334" stroke-linecap="butt" stroke-miterlimit="10" stroke-linejoin="miter" fill="none" stroke="#000000" d="M 1897.94 4384.09 C 1870.89 4384.09 1848.97 4362.17 1848.97 4335.12 C 1848.97 4308.08 1870.89 4286.15 1897.94 4286.15 C 1924.99 4286.15 1946.91 4308.08 1946.91 4335.12 C 1946.91 4362.17 1924.99 4384.09 1897.94 4384.09 Z M 1897.94 4335.12 "/>
<path transform="matrix(0,.1,.1,0,-299,-154)" d="M 1897.94 4629.57 C 1885.19 4629.57 1874.86 4619.24 1874.86 4606.49 C 1874.86 4593.74 1885.19 4583.41 1897.94 4583.41 C 1910.69 4583.41 1921.03 4593.74 1921.03 4606.49 C 1921.03 4619.24 1910.69 4629.57 1897.94 4629.57 Z M 1897.94 4606.49 "/>
<clipPath id="cp3">
<path transform="matrix(0,.1,.1,0,-299,-154)" d="M 2226.33 3291.24 C 2190.76 3291.24 2161.93 3262.4 2161.93 3226.84 C 2161.93 3191.27 2190.76 3162.43 2226.33 3162.43 C 2261.9 3162.43 2290.73 3191.27 2290.73 3226.84 C 2290.73 3262.4 2261.9 3291.24 2226.33 3291.24 Z M 2226.33 3226.84 "/>
</clipPath>
<g clip-path="url(#cp3)">
<path transform="matrix(0,.1,.1,0,-299,-154)" stroke-width="9.23334" stroke-linecap="butt" stroke-miterlimit="10" stroke-linejoin="miter" fill="none" stroke="#000000" d="M 2290.73 3291.24 L 2161.93 3162.43 M 2290.73 3162.43 L 2161.93 3291.24 M 2226.33 3162.43 L 2226.33 3291.24 "/>
</g>
<clipPath id="cp4">
<path transform="matrix(0,.1,.1,0,-299,-154)" d="M 2226.33 4112.73 C 2199.28 4112.73 2177.36 4090.8 2177.36 4063.76 C 2177.36 4036.71 2199.28 4014.79 2226.33 4014.79 C 2253.38 4014.79 2275.3 4036.71 2275.3 4063.76 C 2275.3 4090.8 2253.38 4112.73 2226.33 4112.73 Z M 2226.33 4063.76 "/>
</clipPath>
<g clip-path="url(#cp4)">
<path transform="matrix(0,.1,.1,0,-299,-154)" stroke-width="9.23334" stroke-linecap="butt" stroke-miterlimit="10" stroke-linejoin="miter" fill="none" stroke="#000000" d="M 2177.36 4063.76 L 2275.3 4063.76 M 2226.33 4014.79 L 2226.33 4112.73 "/>
</g>
<path transform="matrix(0,.1,.1,0,-299,-154)" stroke-width="9.23334" stroke-linecap="butt" stroke-miterlimit="10" stroke-linejoin="miter" fill="none" stroke="#000000" d="M 2226.33 4112.73 C 2199.28 4112.73 2177.36 4090.8 2177.36 4063.76 C 2177.36 4036.71 2199.28 4014.79 2226.33 4014.79 C 2253.38 4014.79 2275.3 4036.71 2275.3 4063.76 C 2275.3 4090.8 2253.38 4112.73 2226.33 4112.73 Z M 2226.33 4063.76 "/>
<path transform="matrix(0,.1,.1,0,-299,-154)" d="M 2226.33 4358.21 C 2213.58 4358.21 2203.25 4347.87 2203.25 4335.12 C 2203.25 4322.38 2213.58 4312.04 2226.33 4312.04 C 2239.08 4312.04 2249.41 4322.38 2249.41 4335.12 C 2249.41 4347.87 2239.08 4358.21 2226.33 4358.21 Z M 2226.33 4335.12 "/>
<clipPath id="cp5">
<path transform="matrix(0,.1,.1,0,-299,-154)" d="M 2226.33 4655.46 C 2199.28 4655.46 2177.36 4633.54 2177.36 4606.49 C 2177.36 4579.44 2199.28 4557.52 2226.33 4557.52 C 2253.38 4557.52 2275.3 4579.44 2275.3 4606.49 C 2275.3 4633.54 2253.38 4655.46 2226.33 4655.46 Z M 2226.33 4606.49 "/>
</clipPath>
<g clip-path="url(#cp5)">
<path transform="matrix(0,.1,.1,0,-299,-154)" stroke-width="9.23334" stroke-linecap="butt" stroke-miterlimit="10" stroke-linejoin="miter" fill="none" stroke="#000000" d="M 2177.36 4606.49 L 2275.3 4606.49 M 2226.33 4557.52 L 2226.33 4655.46 "/>
</g>
<path transform="matrix(0,.1,.1,0,-299,-154)" stroke-width="9.23334" stroke-linecap="butt" stroke-miterlimit="10" stroke-linejoin="miter" fill="none" stroke="#000000" d="M 2226.33 4655.46 C 2199.28 4655.46 2177.36 4633.54 2177.36 4606.49 C 2177.36 4579.44 2199.28 4557.52 2226.33 4557.52 C 2253.38 4557.52 2275.3 4579.44 2275.3 4606.49 C 2275.3 4633.54 2253.38 4655.46 2226.33 4655.46 Z M 2226.33 4606.49 "/>
<path transform="matrix(0,.1,.1,0,-299,-154)" stroke-width="9.23334" stroke-linecap="butt" stroke-miterlimit="10" stroke-linejoin="miter" fill="none" stroke="#000000" d="M 1569.54 3203.74 L 1569.54 2998.22 "/>
<path transform="matrix(0,.1,.1,0,-299,-154)" stroke-width="9.23334" stroke-linecap="butt" stroke-miterlimit="10" stroke-linejoin="miter" fill="none" stroke="#000000" d="M 1592.63 3226.82 L 2161.93 3226.82 "/>
<path transform="matrix(0,.1,.1,0,-299,-154)" stroke-width="9.23334" stroke-linecap="butt" stroke-miterlimit="10" stroke-linejoin="miter" fill="none" stroke="#000000" d="M 1569.54 3455.43 L 1569.54 3249.91 "/>
<path transform="matrix(0,.1,.1,0,-299,-154)" stroke-width="9.23334" stroke-linecap="butt" stroke-miterlimit="10" stroke-linejoin="miter" fill="none" stroke="#000000" d="M 1569.54 4040.66 L 1569.54 3845.96 "/>
<path transform="matrix(0,.1,.1,0,-299,-154)" stroke-width="9.23334" stroke-linecap="butt" stroke-miterlimit="10" stroke-linejoin="miter" fill="none" stroke="#000000" d="M 1592.63 4063.75 L 1874.86 4063.75 "/>
<path transform="matrix(0,.1,.1,0,-299,-154)" stroke-width="9.23334" stroke-linecap="butt" stroke-miterlimit="10" stroke-linejoin="miter" fill="none" stroke="#000000" d="M 1569.54 4312.04 L 1569.54 4086.83 "/>
<path transform="matrix(0,.1,.1,0,-299,-154)" stroke-width="9.23334" stroke-linecap="butt" stroke-miterlimit="10" stroke-linejoin="miter" fill="none" stroke="#000000" d="M 1592.63 4335.12 L 1848.97 4335.12 "/>
<path transform="matrix(0,.1,.1,0,-299,-154)" stroke-width="9.23334" stroke-linecap="butt" stroke-miterlimit="10" stroke-linejoin="miter" fill="none" stroke="#000000" d="M 1569.54 4583.41 L 1569.54 4358.2 "/>
<path transform="matrix(0,.1,.1,0,-299,-154)" stroke-width="9.23334" stroke-linecap="butt" stroke-miterlimit="10" stroke-linejoin="miter" fill="none" stroke="#000000" d="M 1592.63 4606.5 L 1874.86 4606.5 "/>
<path transform="matrix(0,.1,.1,0,-299,-154)" stroke-width="9.23334" stroke-linecap="butt" stroke-miterlimit="10" stroke-linejoin="miter" fill="none" stroke="#000000" d="M 1569.54 4824.28 L 1569.54 4629.58 "/>
<path transform="matrix(0,.1,.1,0,-299,-154)" stroke-width="9.23334" stroke-linecap="butt" stroke-miterlimit="10" stroke-linejoin="miter" fill="none" stroke="#000000" d="M 1897.94 3162.42 L 1897.94 2998.22 "/>
<path transform="matrix(0,.1,.1,0,-299,-154)" stroke-width="9.23334" stroke-linecap="butt" stroke-miterlimit="10" stroke-linejoin="miter" fill="none" stroke="#000000" d="M 1897.94 3226.82 L 2226.34 3226.82 "/>
<path transform="matrix(0,.1,.1,0,-299,-154)" stroke-width="9.23334" stroke-linecap="butt" stroke-miterlimit="10" stroke-linejoin="miter" fill="none" stroke="#000000" d="M 1897.94 3473.33 L 1897.94 3291.23 "/>
<path transform="matrix(0,.1,.1,0,-299,-154)" stroke-width="9.23334" stroke-linecap="butt" stroke-miterlimit="10" stroke-linejoin="miter" fill="none" stroke="#000000" d="M 1897.94 4040.66 L 1897.94 3828.06 "/>
<path transform="matrix(0,.1,.1,0,-299,-154)" stroke-width="9.23334" stroke-linecap="butt" stroke-miterlimit="10" stroke-linejoin="miter" fill="none" stroke="#000000" d="M 1921.02 4063.75 L 2177.36 4063.75 "/>
<path transform="matrix(0,.1,.1,0,-299,-154)" stroke-width="9.23334" stroke-linecap="butt" stroke-miterlimit="10" stroke-linejoin="miter" fill="none" stroke="#000000" d="M 1897.94 4286.15 L 1897.94 4086.83 "/>
<path transform="matrix(0,.1,.1,0,-299,-154)" stroke-width="9.23334" stroke-linecap="butt" stroke-miterlimit="10" stroke-linejoin="miter" fill="none" stroke="#000000" d="M 1897.94 4583.41 L 1897.94 4384.09 "/>
<path transform="matrix(0,.1,.1,0,-299,-154)" stroke-width="9.23334" stroke-linecap="butt" stroke-miterlimit="10" stroke-linejoin="miter" fill="none" stroke="#000000" d="M 1921.02 4606.5 L 2177.36 4606.5 "/>
<path transform="matrix(0,.1,.1,0,-299,-154)" stroke-width="9.23334" stroke-linecap="butt" stroke-miterlimit="10" stroke-linejoin="miter" fill="none" stroke="#000000" d="M 1897.94 4824.28 L 1897.94 4629.58 "/>
<path transform="matrix(0,.1,.1,0,-299,-154)" stroke-width="9.23334" stroke-linecap="butt" stroke-miterlimit="10" stroke-linejoin="miter" fill="none" stroke="#000000" d="M 2226.34 3162.42 L 2226.34 2998.22 "/>
<path transform="matrix(0,.1,.1,0,-299,-154)" stroke-width="9.23334" stroke-linecap="butt" stroke-miterlimit="10" stroke-linejoin="miter" fill="none" stroke="#000000" d="M 2226.34 3473.33 L 2226.34 3291.23 "/>
<path transform="matrix(0,.1,.1,0,-299,-154)" stroke-width="9.23334" stroke-linecap="butt" stroke-miterlimit="10" stroke-linejoin="miter" fill="none" stroke="#000000" d="M 2226.34 4014.78 L 2226.34 3828.06 "/>
<path transform="matrix(0,.1,.1,0,-299,-154)" stroke-width="9.23334" stroke-linecap="butt" stroke-miterlimit="10" stroke-linejoin="miter" fill="none" stroke="#000000" d="M 2226.34 4312.04 L 2226.34 4112.72 "/>
<path transform="matrix(0,.1,.1,0,-299,-154)" stroke-width="9.23334" stroke-linecap="butt" stroke-miterlimit="10" stroke-linejoin="miter" fill="none" stroke="#000000" d="M 2203.25 4335.12 L 1946.91 4335.12 "/>
<path transform="matrix(0,.1,.1,0,-299,-154)" stroke-width="9.23334" stroke-linecap="butt" stroke-miterlimit="10" stroke-linejoin="miter" fill="none" stroke="#000000" d="M 2226.34 4557.52 L 2226.34 4358.2 "/>
<path transform="matrix(0,.1,.1,0,-299,-154)" stroke-width="9.23334" stroke-linecap="butt" stroke-miterlimit="10" stroke-linejoin="miter" fill="none" stroke="#000000" d="M 2226.34 4824.28 L 2226.34 4655.46 "/>
<symbol id="font_6_1">
<path d="M 0 0 L .504 0 L .504 .08 L 0 .08 L 0 0 M 0 .202 L .504 .202 L .504 .282 L 0 .282 L 0 .202 Z "/>
</symbol>
<use xlink:href="#font_6_1" transform="matrix(12.8804,0,0,-12.8804,62.822885,36.8854)"/>
</g>
</g>
</svg>
