<?xml version="1.0" encoding="UTF-8" standalone="no"?>
<!DOCTYPE svg PUBLIC "-//W3C//DTD SVG 1.1//EN" "http://www.w3.org/Graphics/SVG/1.1/DTD/svg11.dtd">
<svg xmlns="http://www.w3.org/2000/svg" xmlns:xlink="http://www.w3.org/1999/xlink" version="1.1" width="406pt" height="47pt" viewBox="0 0 406 47">
<g enable-background="new">
<clipPath id="cp0">
<path transform="matrix(0,1,1,0,-299,-154)" d="M 0 0 L 709 0 L 709 1001 L 0 1001 Z "/>
</clipPath>
<g clip-path="url(#cp0)">
<path transform="matrix(0,.1,.1,0,-299,-154)" d="M 1569.55 3391.36 C 1556.8 3391.36 1546.47 3381.02 1546.47 3368.28 C 1546.47 3355.53 1556.8 3345.19 1569.55 3345.19 C 1582.3 3345.19 1592.64 3355.53 1592.64 3368.28 C 1592.64 3381.02 1582.3 3391.36 1569.55 3391.36 Z M 1569.55 3368.28 "/>
<path transform="matrix(0,.1,.1,0,-299,-154)" d="M 1569.55 5428.1 C 1556.8 5428.1 1546.47 5417.77 1546.47 5405.02 C 1546.47 5392.27 1556.8 5381.93 1569.55 5381.93 C 1582.3 5381.93 1592.64 5392.27 1592.64 5405.02 C 1592.64 5417.77 1582.3 5428.1 1569.55 5428.1 Z M 1569.55 5405.02 "/>
<path transform="matrix(0,.1,.1,0,-299,-154)" d="M 1569.55 6474.46 C 1556.8 6474.46 1546.47 6464.12 1546.47 6451.37 C 1546.47 6438.63 1556.8 6428.29 1569.55 6428.29 C 1582.3 6428.29 1592.64 6438.63 1592.64 6451.37 C 1592.64 6464.12 1582.3 6474.46 1569.55 6474.46 Z M 1569.55 6451.37 "/>
<clipPath id="cp1">
<path transform="matrix(0,.1,.1,0,-299,-154)" d="M 1897.94 5453.99 C 1870.89 5453.99 1848.97 5432.06 1848.97 5405.02 C 1848.97 5377.97 1870.89 5356.05 1897.94 5356.05 C 1924.99 5356.05 1946.91 5377.97 1946.91 5405.02 C 1946.91 5432.06 1924.99 5453.99 1897.94 5453.99 Z M 1897.94 5405.02 "/>
</clipPath>
<g clip-path="url(#cp1)">
<path transform="matrix(0,.1,.1,0,-299,-154)" stroke-width="9.23334" stroke-linecap="butt" stroke-miterlimit="10" stroke-linejoin="miter" fill="none" stroke="#000000" d="M 1848.97 5405.02 L 1946.91 5405.02 M 1897.94 5356.05 L 1897.94 5453.99 "/>
</g>
<path transform="matrix(0,.1,.1,0,-299,-154)" stroke-width="9.23334" stroke-linecap="butt" stroke-miterlimit="10" stroke-linejoin="miter" fill="none" stroke="#000000" d="M 1897.94 5453.99 C 1870.89 5453.99 1848.97 5432.06 1848.97 5405.02 C 1848.97 5377.97 1870.89 5356.05 1897.94 5356.05 C 1924.99 5356.05 1946.91 5377.97 1946.91 5405.02 C 1946.91 5432.06 1924.99 5453.99 1897.94 5453.99 Z M 1897.94 5405.02 "/>
<clipPath id="cp2">
<path transform="matrix(0,.1,.1,0,-299,-154)" d="M 1897.94 6500.34 C 1870.89 6500.34 1848.97 6478.42 1848.97 6451.37 C 1848.97 6424.32 1870.89 6402.4 1897.94 6402.4 C 1924.99 6402.4 1946.91 6424.32 1946.91 6451.37 C 1946.91 6478.42 1924.99 6500.34 1897.94 6500.34 Z M 1897.94 6451.37 "/>
</clipPath>
<g clip-path="url(#cp2)">
<path transform="matrix(0,.1,.1,0,-299,-154)" stroke-width="9.23334" stroke-linecap="butt" stroke-miterlimit="10" stroke-linejoin="miter" fill="none" stroke="#000000" d="M 1848.97 6451.37 L 1946.91 6451.37 M 1897.94 6402.4 L 1897.94 6500.34 "/>
</g>
<path transform="matrix(0,.1,.1,0,-299,-154)" stroke-width="9.23334" stroke-linecap="butt" stroke-miterlimit="10" stroke-linejoin="miter" fill="none" stroke="#000000" d="M 1897.94 6500.34 C 1870.89 6500.34 1848.97 6478.42 1848.97 6451.37 C 1848.97 6424.32 1870.89 6402.4 1897.94 6402.4 C 1924.99 6402.4 1946.91 6424.32 1946.91 6451.37 C 1946.91 6478.42 1924.99 6500.34 1897.94 6500.34 Z M 1897.94 6451.37 "/>
<path transform="matrix(0,.1,.1,0,-299,-154)" stroke-width="9.23334" stroke-linecap="butt" stroke-miterlimit="10" stroke-linejoin="miter" fill="none" stroke="#000000" d="M 1569.55 3345.17 L 1569.55 2998.21 "/>
<path transform="matrix(0,.1,.1,0,-299,-154)" stroke-width="9.23334" stroke-linecap="butt" stroke-miterlimit="10" stroke-linejoin="miter" fill="none" stroke="#000000" d="M 1592.63 3368.26 L 1793.54 3368.26 "/>
<path transform="matrix(0,.1,.1,0,-299,-154)" stroke-width="9.23334" stroke-linecap="butt" stroke-miterlimit="10" stroke-linejoin="miter" fill="none" stroke="#000000" d="M 1569.55 3738.3 L 1569.55 3391.34 "/>
<path transform="matrix(0,.1,.1,0,-299,-154)" stroke-width="9.23334" stroke-linecap="butt" stroke-miterlimit="10" stroke-linejoin="miter" fill="none" stroke="#000000" d="M 1569.55 4398.48 L 1569.55 4128.84 "/>
<path transform="matrix(0,.1,.1,0,-299,-154)" stroke-width="9.23334" stroke-linecap="butt" stroke-miterlimit="10" stroke-linejoin="miter" fill="none" stroke="#000000" d="M 1569.55 4927.68 L 1569.55 4398.48 "/>
<path transform="matrix(0,.1,.1,0,-299,-154)" stroke-width="9.23334" stroke-linecap="butt" stroke-miterlimit="10" stroke-linejoin="miter" fill="none" stroke="#000000" d="M 1569.55 5381.94 L 1569.55 4927.68 "/>
<path transform="matrix(0,.1,.1,0,-299,-154)" stroke-width="9.23334" stroke-linecap="butt" stroke-miterlimit="10" stroke-linejoin="miter" fill="none" stroke="#000000" d="M 1592.63 5405.02 L 1848.97 5405.02 "/>
<path transform="matrix(0,.1,.1,0,-299,-154)" stroke-width="9.23334" stroke-linecap="butt" stroke-miterlimit="10" stroke-linejoin="miter" fill="none" stroke="#000000" d="M 1569.55 5928.21 L 1569.55 5428.11 "/>
<path transform="matrix(0,.1,.1,0,-299,-154)" stroke-width="9.23334" stroke-linecap="butt" stroke-miterlimit="10" stroke-linejoin="miter" fill="none" stroke="#000000" d="M 1569.55 6428.31 L 1569.55 5928.21 "/>
<path transform="matrix(0,.1,.1,0,-299,-154)" stroke-width="9.23334" stroke-linecap="butt" stroke-miterlimit="10" stroke-linejoin="miter" fill="none" stroke="#000000" d="M 1592.63 6451.39 L 1848.97 6451.39 "/>
<path transform="matrix(0,.1,.1,0,-299,-154)" stroke-width="9.23334" stroke-linecap="butt" stroke-miterlimit="10" stroke-linejoin="miter" fill="none" stroke="#000000" d="M 1569.55 6774.63 L 1569.55 6474.48 "/>
<path transform="matrix(0,.1,.1,0,-299,-154)" stroke-width="9.23334" stroke-linecap="butt" stroke-miterlimit="10" stroke-linejoin="miter" fill="none" stroke="#000000" d="M 1569.55 7044.27 L 1569.55 6774.63 "/>
<path transform="matrix(0,.1,.1,0,-299,-154)" stroke-width="9.23334" stroke-linecap="butt" stroke-miterlimit="10" stroke-linejoin="miter" fill="none" stroke="#000000" d="M 1897.95 3162.41 L 1897.95 2998.21 "/>
<path transform="matrix(0,.1,.1,0,-299,-154)" stroke-width="9.23334" stroke-linecap="butt" stroke-miterlimit="10" stroke-linejoin="miter" fill="none" stroke="#000000" d="M 1897.95 3756.2 L 1897.95 3574.1 "/>
<path transform="matrix(0,.1,.1,0,-299,-154)" stroke-width="9.23334" stroke-linecap="butt" stroke-miterlimit="10" stroke-linejoin="miter" fill="none" stroke="#000000" d="M 1897.95 4293.04 L 1897.95 4110.93 "/>
<path transform="matrix(0,.1,.1,0,-299,-154)" stroke-width="9.23334" stroke-linecap="butt" stroke-miterlimit="10" stroke-linejoin="miter" fill="none" stroke="#000000" d="M 1897.95 4668.13 L 1897.95 4503.93 "/>
<path transform="matrix(0,.1,.1,0,-299,-154)" stroke-width="9.23334" stroke-linecap="butt" stroke-miterlimit="10" stroke-linejoin="miter" fill="none" stroke="#000000" d="M 1897.95 5356.05 L 1897.95 5187.24 "/>
<path transform="matrix(0,.1,.1,0,-299,-154)" stroke-width="9.23334" stroke-linecap="butt" stroke-miterlimit="10" stroke-linejoin="miter" fill="none" stroke="#000000" d="M 1897.95 5622.81 L 1897.95 5453.99 "/>
<path transform="matrix(0,.1,.1,0,-299,-154)" stroke-width="9.23334" stroke-linecap="butt" stroke-miterlimit="10" stroke-linejoin="miter" fill="none" stroke="#000000" d="M 1897.95 6402.43 L 1897.95 6233.61 "/>
<path transform="matrix(0,.1,.1,0,-299,-154)" stroke-width="9.23334" stroke-linecap="butt" stroke-miterlimit="10" stroke-linejoin="miter" fill="none" stroke="#000000" d="M 1897.95 6669.18 L 1897.95 6500.37 "/>
<path transform="matrix(0,.1,.1,0,-299,-154)" stroke-width="9.23334" stroke-linecap="butt" stroke-miterlimit="10" stroke-linejoin="miter" fill="none" stroke="#000000" d="M 1897.95 7044.27 L 1897.95 6880.07 "/>
<symbol id="font_3_3">
<path d="M 0 0 L .504 0 L .504 .08 L 0 .08 L 0 0 M 0 .202 L .504 .202 L .504 .282 L 0 .282 L 0 .202 Z "/>
</symbol>
<use xlink:href="#font_3_3" transform="matrix(12.8804,0,0,-12.8804,91.11289,20.466393)"/>
<path transform="matrix(0,.1,.1,0,-299,-154)" d="M 1793.54 3162.41 L 2002.364 3162.41 L 2002.364 3574.1009 L 1793.54 3574.1009 Z " fill="#ffffff"/>
<path transform="matrix(0,.1,.1,0,-299,-154)" stroke-width="9.23334" stroke-linecap="butt" stroke-miterlimit="10" stroke-linejoin="miter" fill="none" stroke="#000000" d="M 1793.54 3162.41 L 2002.364 3162.41 L 2002.364 3574.1009 L 1793.54 3574.1009 Z "/>
<symbol id="font_4_3">
<path d="M .289 .365 L .358 .365 C .44200004 .365 .47400005 .34000004 .47400005 .27500005 C .47400005 .263 .47300003 .24200002 .47100003 .22100002 C .46500004 .14500001 .46500004 .14 .46500004 .12100001 C .46500004 .049000004 .508 0 .57100006 0 C .63500007 0 .675 .041 .71400007 .147 L .67800006 .162 C .65300008 .091000009 .63600006 .069000009 .60800006 .069000009 C .587 .069000009 .578 .08800001 .578 .13 L .57900008 .18100001 C .58000007 .194 .58000007 .20600002 .58000007 .21700001 C .58000007 .30400003 .55 .352 .47700004 .379 C .555 .388 .59400007 .397 .63000008 .41500003 C .69200006 .44700004 .73200008 .508 .73200008 .573 C .73200008 .632 .70100006 .681 .646 .709 C .60700008 .72900006 .558 .73700007 .47400005 .73700007 L .15400002 .73700007 L .148 .69 L .174 .69 C .23900002 .69 .25300003 .685 .25300003 .663 C .25300003 .65500006 .24900002 .634 .24400002 .614 L .116000007 .13800001 C .102000009 .085 .101 .08400001 .093 .076000008 C .082 .066 .059 .062000004 .01 .062000004 L .004999999 .062000004 L 0 .015000001 L .31800003 .015000001 L .323 .062000004 L .29700003 .062000004 C .23200003 .062000004 .218 .067 .218 .089 C .218 .097 .218 .097 .22800002 .13800001 L .289 .365 M .30100004 .412 L .36 .63 C .374 .681 .38400004 .69 .43100003 .69 L .48000003 .69 C .564 .69 .61200007 .65000006 .61200007 .58 C .61200007 .519 .58400008 .47100003 .53000006 .439 C .49300004 .417 .46300004 .412 .37900005 .412 L .30100004 .412 Z "/>
</symbol>
<use xlink:href="#font_4_3" transform="matrix(12.8805,0,0,-12.8805,21.608893,39.57921)"/>
<symbol id="font_4_2">
<path d="M .386 .16600001 C .359 .104 .333 .076000008 .3 .076000008 C .286 .076000008 .261 .082 .23300001 .09200001 C .17200002 .113000009 .16 .116000007 .132 .116000007 C .119 .116000007 .107 .11400001 .083000008 .10700001 C .106000009 .136 .125 .15 .204 .19600001 C .28100003 .24000001 .322 .272 .37100003 .328 C .418 .38100005 .45000003 .43600006 .45000003 .462 C .45000003 .47500003 .44 .485 .426 .485 C .41500003 .485 .407 .477 .402 .46000005 C .396 .439 .39000003 .43400003 .37600003 .43400003 C .359 .43400003 .33400003 .44200004 .30400003 .45700003 C .259 .47900004 .24200002 .485 .22 .485 C .156 .485 .103 .44 .055 .34600003 L .088 .329 C .119 .384 .14500001 .40900005 .17000002 .40900005 C .18 .40900005 .204 .403 .23000002 .39500005 C .285 .37600006 .292 .375 .322 .375 C .336 .375 .34800003 .37700004 .373 .38300003 C .34800003 .357 .337 .347 .299 .323 C .15200001 .23200001 .12900001 .21400002 .072 .15200001 C .026 .101 0 .054 0 .024 C 0 .009000001 .009 0 .024 0 C .043 0 .054 .017 .054 .046000005 C .054 .062000004 .055 .063 .063 .063 C .075 .063 .075 .063 .14000002 .032 C .188 .01 .224 0 .259 0 C .327 0 .39000003 .060000004 .421 .15400002 L .386 .16600001 Z "/>
</symbol>
<use xlink:href="#font_4_2" transform="matrix(9.66036,0,0,-9.66036,32.295499,41.608255)"/>
<symbol id="font_3_4">
<path d="M .24300002 .8590001 C .18300002 .8220001 .15100001 .79600009 .11700001 .75600007 C .041000006 .66600009 0 .55100008 0 .43 C 0 .316 .036000004 .209 .103000018 .120000008 C .141 .072 .17500001 .042000005 .24300002 0 L .24300002 .037 C .143 .125 .103000018 .238 .103000018 .43 C .103000018 .62200006 .143 .734 .24300002 .8220001 L .24300002 .8590001 Z "/>
</symbol>
<use xlink:href="#font_3_4" transform="matrix(12.8804,0,0,-12.8804,38.339704,40.97029)"/>
<symbol id="font_5_1">
<path d="M .467 .37700004 C .47900004 .43500004 .48800005 .49700005 .48800005 .55300006 C .48800005 .66400006 .45200003 .75500008 .32700003 .75500008 C .088 .75500008 0 .39800004 0 .198 C 0 .08400001 .040000004 0 .163 0 C .34600003 0 .42400003 .185 .467 .37700004 M .37600003 .40700004 L .126 .40700004 C .14400001 .49200005 .199 .72200009 .319 .72200009 C .38200004 .72200009 .4 .66 .4 .58800008 C .4 .52300009 .38500003 .44900004 .37600003 .40700004 M .368 .37100003 C .34300003 .25300003 .287 .030000002 .169 .030000002 C .107999999 .030000002 .09 .089 .09 .163 C .09 .23200001 .106000009 .31400005 .118 .37100003 L .368 .37100003 Z "/>
</symbol>
<use xlink:href="#font_5_1" transform="matrix(12.465,0,0,-12.465,42.564714,39.548048)"/>
<symbol id="font_3_5">
<path d="M 0 0 C .060000007 .037 .09200001 .063 .126 .104 C .202 .193 .24300002 .30900003 .24300002 .43 C .24300002 .544 .207 .651 .14 .7390001 C .102 .78800007 .068 .8180001 0 .8590001 L 0 .8220001 C .10000001 .734 .14 .62200006 .14 .43 C .14 .23700002 .10000001 .125 0 .037 L 0 0 Z "/>
</symbol>
<use xlink:href="#font_3_5" transform="matrix(12.8804,0,0,-12.8804,50.201616,40.97029)"/>
<path transform="matrix(0,.1,.1,0,-299,-154)" d="M 1801.34 4293.04 L 1994.551 4293.04 L 1994.551 4503.931 L 1801.34 4503.931 Z " fill="#ffffff"/>
<path transform="matrix(0,.1,.1,0,-299,-154)" stroke-width="9.23334" stroke-linecap="butt" stroke-miterlimit="10" stroke-linejoin="miter" fill="none" stroke="#000000" d="M 1801.34 4293.04 L 1994.551 4293.04 L 1994.551 4503.931 L 1801.34 4503.931 Z "/>
<symbol id="font_4_1">
<path d="M .611 .354 L .55 .123 C .535 .07 .535 .069000009 .527 .061000006 C .51600006 .051000004 .49200005 .047000003 .44300003 .047000003 L .439 .047000003 L .43400003 0 L .75100007 0 L .757 .047000003 L .731 .047000003 C .666 .047000003 .652 .052 .652 .074 C .652 .081 .656 .104 .661 .123 L .78900006 .59900006 C .804 .65400007 .804 .65400007 .81200006 .661 C .823 .671 .846 .675 .896 .675 L .90000006 .675 L .90500006 .72200009 L .587 .72200009 L .582 .675 L .60800006 .675 C .67300006 .675 .68700006 .67 .68700006 .648 C .68700006 .64000007 .684 .623 .67700007 .59900006 L .624 .40100003 L .302 .40100003 L .356 .59900006 C .37 .65400007 .37 .65400007 .379 .661 C .389 .671 .41300006 .675 .462 .675 L .46600003 .675 L .47100003 .72200009 L .15400002 .72200009 L .148 .675 L .17400001 .675 C .23900001 .675 .25300003 .67 .25300003 .648 C .25300003 .64000007 .24900002 .619 .24400002 .59900006 L .116000007 .123 C .102000009 .07 .101 .069000009 .09300001 .061000006 C .082 .051000004 .059000005 .047000003 .010000002 .047000003 L .0050000029 .047000003 L 0 0 L .31800003 0 L .323 .047000003 L .297 .047000003 C .23200001 .047000003 .21800001 .052 .21800001 .074 C .21800001 .082 .21800001 .082 .22800002 .123 L .29000003 .354 L .611 .354 Z "/>
</symbol>
<use xlink:href="#font_4_1" transform="matrix(12.8805,0,0,-12.8805,134.84755,40.389009)"/>
<path transform="matrix(0,.1,.1,0,-299,-154)" d="M 1793.54 4668.13 L 2002.364 4668.13 L 2002.364 5187.2429 L 1793.54 5187.2429 Z " fill="#ffffff"/>
<path transform="matrix(0,.1,.1,0,-299,-154)" stroke-width="9.23334" stroke-linecap="butt" stroke-miterlimit="10" stroke-linejoin="miter" fill="none" stroke="#000000" d="M 1793.54 4668.13 L 2002.364 4668.13 L 2002.364 5187.2429 L 1793.54 5187.2429 Z "/>
<use xlink:href="#font_4_3" transform="matrix(12.8805,0,0,-12.8805,172.1789,39.57921)"/>
<use xlink:href="#font_4_2" transform="matrix(9.66036,0,0,-9.66036,182.86551,41.608255)"/>
<use xlink:href="#font_3_4" transform="matrix(12.8804,0,0,-12.8804,188.91011,40.97029)"/>
<use xlink:href="#font_5_1" transform="matrix(12.465,0,0,-12.465,193.13396,39.548048)"/>
<symbol id="font_3_1">
<path d="M .26700003 .75000008 L 0 0 L .058000003 0 L .32500003 .75000008 L .26700003 .75000008 Z "/>
</symbol>
<symbol id="font_3_2">
<path d="M .47 .216 L .42600004 .216 L .41600005 .165 C .40300004 .101 .395 .094000007 .33300004 .094000007 L .10900001 .094000007 C .17800002 .16600001 .20100002 .187 .26500003 .23700002 C .35600005 .307 .395 .342 .418 .372 C .45000003 .416 .46600006 .46100004 .46600006 .509 C .46600006 .62200006 .37100003 .70400008 .24100003 .70400008 C .11400001 .70400008 .016000003 .62200006 .016000003 .51600006 C .016000003 .453 .048000006 .41000004 .096000019 .41000004 C .13300002 .41000004 .158 .43500004 .158 .47100003 C .158 .49600003 .14400001 .51900008 .12200001 .528 C .08500001 .544 .083000008 .545 .083000008 .558 C .083000008 .573 .09300001 .596 .10700001 .61300006 C .13200002 .643 .17400001 .661 .22100002 .661 C .30300004 .661 .35300002 .61 .35300002 .526 C .35300002 .45200003 .31800003 .38500003 .23500002 .29700003 L .17600002 .23500002 C .14100002 .19800002 .11500001 .17 .098000008 .15100001 C .062000004 .109000008 .044000005 .086 0 .028 L 0 0 L .45100004 0 L .47 .216 Z "/>
</symbol>
<use xlink:href="#font_3_1" transform="matrix(12.8804,0,0,-12.8804,199.78023,39.566328)"/>
<use xlink:href="#font_3_2" transform="matrix(12.8804,0,0,-12.8804,204.10805,39.386)"/>
<use xlink:href="#font_3_5" transform="matrix(12.8804,0,0,-12.8804,211.51427,40.97029)"/>
<path transform="matrix(0,.1,.1,0,-299,-154)" d="M 1793.54 5622.81 L 2002.364 5622.81 L 2002.364 6233.6115 L 1793.54 6233.6115 Z " fill="#ffffff"/>
<path transform="matrix(0,.1,.1,0,-299,-154)" stroke-width="9.23334" stroke-linecap="butt" stroke-miterlimit="10" stroke-linejoin="miter" fill="none" stroke="#000000" d="M 1793.54 5622.81 L 2002.364 5622.81 L 2002.364 6233.6115 L 1793.54 6233.6115 Z "/>
<use xlink:href="#font_4_3" transform="matrix(12.8805,0,0,-12.8805,267.6459,39.57921)"/>
<use xlink:href="#font_4_2" transform="matrix(9.66036,0,0,-9.66036,278.33253,41.608255)"/>
<use xlink:href="#font_3_4" transform="matrix(12.8804,0,0,-12.8804,284.37709,40.97029)"/>
<symbol id="font_6_1">
<path d="M .5500001 0 L .5500001 .058 L 0 .058 L 0 0 L .5500001 0 Z "/>
</symbol>
<use xlink:href="#font_6_1" transform="matrix(12.742,0,0,-12.742,289.28517,36.162279)"/>
<use xlink:href="#font_5_1" transform="matrix(12.465,0,0,-12.465,297.77055,39.548048)"/>
<use xlink:href="#font_3_1" transform="matrix(12.8804,0,0,-12.8804,304.41563,39.566328)"/>
<use xlink:href="#font_3_2" transform="matrix(12.8804,0,0,-12.8804,308.7434,39.386)"/>
<use xlink:href="#font_3_5" transform="matrix(12.8804,0,0,-12.8804,316.14967,40.97029)"/>
<path transform="matrix(0,.1,.1,0,-299,-154)" d="M 1801.34 6669.18 L 1994.551 6669.18 L 1994.551 6880.075 L 1801.34 6880.075 Z " fill="#ffffff"/>
<path transform="matrix(0,.1,.1,0,-299,-154)" stroke-width="9.23334" stroke-linecap="butt" stroke-miterlimit="10" stroke-linejoin="miter" fill="none" stroke="#000000" d="M 1801.34 6669.18 L 1994.551 6669.18 L 1994.551 6880.075 L 1801.34 6880.075 Z "/>
<use xlink:href="#font_4_1" transform="matrix(12.8805,0,0,-12.8805,372.45854,40.389009)"/>
</g>
</g>
</svg>
