<?xml version="1.0" encoding="UTF-8" standalone="no"?>
<!DOCTYPE svg PUBLIC "-//W3C//DTD SVG 1.1//EN" "http://www.w3.org/Graphics/SVG/1.1/DTD/svg11.dtd">
<svg xmlns="http://www.w3.org/2000/svg" xmlns:xlink="http://www.w3.org/1999/xlink" version="1.1" width="73pt" height="41pt" viewBox="0 0 73 41">
<g enable-background="new">
<clipPath id="cp0">
<path transform="matrix(1,0,0,-1,-153,810)" d="M 0 0 L 709 0 L 709 1001 L 0 1001 Z "/>
</clipPath>
<g clip-path="url(#cp0)">
<path transform="matrix(.1,0,0,-.1,-153,810)" stroke-width="9.23334" stroke-linecap="butt" stroke-miterlimit="10" stroke-linejoin="miter" fill="none" stroke="#000000" d="M 1982.98 8051.32 L 1713.33 8051.32 "/>
<path transform="matrix(.1,0,0,-.1,-153,810)" stroke-width="9.23334" stroke-linecap="butt" stroke-miterlimit="10" stroke-linejoin="miter" fill="none" stroke="#000000" d="M 2252.62 8051.32 L 1982.98 8051.32 "/>
<path transform="matrix(.1,0,0,-.1,-153,810)" stroke-width="9.23334" stroke-linecap="butt" stroke-miterlimit="10" stroke-linejoin="miter" fill="none" stroke="#000000" d="M 1877.53 7795.01 L 1713.33 7795.01 "/>
<path transform="matrix(.1,0,0,-.1,-153,810)" stroke-width="9.23334" stroke-linecap="butt" stroke-miterlimit="10" stroke-linejoin="miter" fill="none" stroke="#000000" d="M 2252.62 7795.01 L 2088.42 7795.01 "/>
<symbol id="font_1_2">
<path d="M .234 .17 L .24900002 .10300001 C .266 .028 .292 0 .34100003 0 C .37800003 0 .396 .012 .442 .068 C .46 .089 .463 .094000007 .48900003 .14 L .458 .157 C .448 .141 .44500003 .136 .43 .115 C .40100003 .076000008 .384 .061000006 .366 .061000006 C .343 .061000006 .333 .083000008 .315 .165 L .296 .26 L .34 .34100003 C .36400003 .38600005 .38500003 .408 .403 .408 C .411 .408 .416 .40400005 .42000003 .39500005 C .42900003 .375 .43600003 .37 .45400004 .37 C .485 .37 .504 .39100004 .504 .42400003 C .504 .45900006 .48000003 .485 .44700004 .485 C .42000003 .485 .39000003 .47100003 .36900003 .448 C .349 .426 .34800003 .426 .314 .36300005 L .285 .311 L .27400003 .366 C .257 .45200003 .23500002 .485 .194 .485 C .17200002 .485 .15 .472 .125 .444 C .109000008 .426 .095 .40600003 .05 .34100003 L .079 .32 C .13 .393 .14400001 .408 .16100002 .408 C .16800002 .408 .178 .40100003 .18200001 .393 C .19100002 .37700004 .19100002 .37700004 .211 .278 L .22300002 .22000002 L .178 .14 C .15 .089 .125 .061000006 .109000008 .061000006 C .102000009 .061000006 .096 .068 .094000007 .081 C .089 .108 .076000008 .120000008 .051 .120000008 C .021 .120000008 0 .096 0 .062000004 C 0 .025000003 .026 0 .066 0 C .114 0 .16100002 .04 .204 .116000007 L .234 .17 Z "/>
</symbol>
<use xlink:href="#font_1_2" transform="matrix(12.8805,0,0,-12.8805,.1879501,7.0871899)"/>
<symbol id="font_2_1">
<path d="M .22200004 .70400008 C .18800003 .66300007 .09600001 .632 .0040000008 .63000008 L .0040000008 .587 L .092 .587 C .15 .587 .15400002 .583 .15400002 .52400007 L .15400002 .123 L .15400002 .094000007 C .15400002 .052 .14500001 .047000003 .065000008 .047000003 L 0 .047000003 L 0 0 L .39600004 0 L .39600004 .047000003 L .34100003 .047000003 C .28800003 .047000003 .26600004 .051000004 .25800003 .061000006 C .25100003 .068 .25100003 .068 .25100003 .123 L .25100003 .536 C .25100003 .58500006 .25300003 .633 .25800003 .70400008 L .22200004 .70400008 Z "/>
</symbol>
<use xlink:href="#font_2_1" transform="matrix(9.66036,0,0,-9.66036,8.018877,8.970947)"/>
<use xlink:href="#font_1_2" transform="matrix(12.8805,0,0,-12.8805,.1879501,32.71768)"/>
<symbol id="font_2_2">
<path d="M .47 .216 L .42600004 .216 L .41600005 .165 C .40300004 .101 .395 .094000007 .33300004 .094000007 L .10900001 .094000007 C .17800002 .16600001 .20100002 .187 .26500003 .23700002 C .35600005 .307 .395 .342 .418 .372 C .45000003 .416 .46600006 .46100004 .46600006 .509 C .46600006 .62200006 .37100003 .70400008 .24100003 .70400008 C .11400001 .70400008 .016000003 .62200006 .016000003 .51600006 C .016000003 .453 .048000006 .41000004 .096000019 .41000004 C .13300002 .41000004 .158 .43500004 .158 .47100003 C .158 .49600003 .14400001 .51900008 .12200001 .528 C .08500001 .544 .083000008 .545 .083000008 .558 C .083000008 .573 .09300001 .596 .10700001 .61300006 C .13200002 .643 .17400001 .661 .22100002 .661 C .30300004 .661 .35300002 .61 .35300002 .526 C .35300002 .45200003 .31800003 .38500003 .23500002 .29700003 L .17600002 .23500002 C .14100002 .19800002 .11500001 .17 .098000008 .15100001 C .062000004 .109000008 .044000005 .086 0 .028 L 0 0 L .45100004 0 L .47 .216 Z "/>
</symbol>
<use xlink:href="#font_2_2" transform="matrix(9.66036,0,0,-9.66036,7.390954,34.602968)"/>
<path transform="matrix(.1,0,0,-.1,-153,810)" d="M 1877.53 7698.41 L 2088.4212 7698.41 L 2088.4212 7891.621 L 1877.53 7891.621 Z " fill="#ffffff"/>
<path transform="matrix(.1,0,0,-.1,-153,810)" stroke-width="9.23334" stroke-linecap="butt" stroke-miterlimit="10" stroke-linejoin="miter" fill="none" stroke="#000000" d="M 1877.53 7698.41 L 2088.4212 7698.41 L 2088.4212 7891.621 L 1877.53 7891.621 Z "/>
<symbol id="font_1_1">
<path d="M .611 .354 L .55 .123 C .535 .07 .535 .069000009 .527 .061000006 C .51600006 .051000004 .49200005 .047000003 .44300003 .047000003 L .439 .047000003 L .43400003 0 L .75100007 0 L .757 .047000003 L .731 .047000003 C .666 .047000003 .652 .052 .652 .074 C .652 .081 .656 .104 .661 .123 L .78900006 .59900006 C .804 .65400007 .804 .65400007 .81200006 .661 C .823 .671 .846 .675 .896 .675 L .90000006 .675 L .90500006 .72200009 L .587 .72200009 L .582 .675 L .60800006 .675 C .67300006 .675 .68700006 .67 .68700006 .648 C .68700006 .64000007 .684 .623 .67700007 .59900006 L .624 .40100003 L .302 .40100003 L .356 .59900006 C .37 .65400007 .37 .65400007 .379 .661 C .389 .671 .41300006 .675 .462 .675 L .46600003 .675 L .47100003 .72200009 L .15400002 .72200009 L .148 .675 L .17400001 .675 C .23900001 .675 .25300003 .67 .25300003 .648 C .25300003 .64000007 .24900002 .619 .24400002 .59900006 L .116000007 .123 C .102000009 .07 .101 .069000009 .09300001 .061000006 C .082 .051000004 .059000005 .047000003 .010000002 .047000003 L .0050000029 .047000003 L 0 0 L .31800003 0 L .323 .047000003 L .297 .047000003 C .23200001 .047000003 .21800001 .052 .21800001 .074 C .21800001 .082 .21800001 .082 .22800002 .123 L .29000003 .354 L .611 .354 Z "/>
</symbol>
<use xlink:href="#font_1_1" transform="matrix(12.8805,0,0,-12.8805,39.296537,35.093996)"/>
</g>
</g>
</svg>
