<?xml version="1.0" encoding="UTF-8" standalone="no"?>
<!DOCTYPE svg PUBLIC "-//W3C//DTD SVG 1.1//EN" "http://www.w3.org/Graphics/SVG/1.1/DTD/svg11.dtd">
<svg xmlns="http://www.w3.org/2000/svg" xmlns:xlink="http://www.w3.org/1999/xlink" version="1.1" width="243pt" height="47pt" viewBox="0 0 243 47">
<g enable-background="new">
<clipPath id="cp0">
<path transform="matrix(1,0,0,-1,-299,555)" d="M 0 0 L 1001 0 L 1001 709 L 0 709 Z "/>
</clipPath>
<g clip-path="url(#cp0)">
<path transform="matrix(.1,0,0,-.1,-299,555)" d="M 3816.45 5520.45 C 3816.45 5533.2 3806.11 5543.53 3793.36 5543.53 C 3780.61 5543.53 3770.28 5533.2 3770.28 5520.45 C 3770.28 5507.7 3780.61 5497.36 3793.36 5497.36 C 3806.11 5497.36 3816.45 5507.7 3816.45 5520.45 Z M 3793.36 5520.45 "/>
<path transform="matrix(.1,0,0,-.1,-299,555)" d="M 4642.54 5520.45 C 4642.54 5533.2 4632.2 5543.53 4619.45 5543.53 C 4606.7 5543.53 4596.37 5533.2 4596.37 5520.45 C 4596.37 5507.7 4606.7 5497.36 4619.45 5497.36 C 4632.2 5497.36 4642.54 5507.7 4642.54 5520.45 Z M 4619.45 5520.45 "/>
<clipPath id="cp1">
<path transform="matrix(.1,0,0,-.1,-299,555)" d="M 3842.34 5192.06 C 3842.34 5219.11 3820.41 5241.03 3793.36 5241.03 C 3766.32 5241.03 3744.39 5219.11 3744.39 5192.06 C 3744.39 5165.01 3766.32 5143.09 3793.36 5143.09 C 3820.41 5143.09 3842.34 5165.01 3842.34 5192.06 Z M 3793.36 5192.06 "/>
</clipPath>
<g clip-path="url(#cp1)">
<path transform="matrix(.1,0,0,-.1,-299,555)" stroke-width="9.23334" stroke-linecap="butt" stroke-miterlimit="10" stroke-linejoin="miter" fill="none" stroke="#000000" d="M 3793.36 5241.03 L 3793.36 5143.09 M 3744.39 5192.06 L 3842.34 5192.06 "/>
</g>
<path transform="matrix(.1,0,0,-.1,-299,555)" stroke-width="9.23334" stroke-linecap="butt" stroke-miterlimit="10" stroke-linejoin="miter" fill="none" stroke="#000000" d="M 3842.34 5192.06 C 3842.34 5219.11 3820.41 5241.03 3793.36 5241.03 C 3766.32 5241.03 3744.39 5219.11 3744.39 5192.06 C 3744.39 5165.01 3766.32 5143.09 3793.36 5143.09 C 3820.41 5143.09 3842.34 5165.01 3842.34 5192.06 Z M 3793.36 5192.06 "/>
<clipPath id="cp2">
<path transform="matrix(.1,0,0,-.1,-299,555)" d="M 4668.42 5192.06 C 4668.42 5219.11 4646.5 5241.03 4619.45 5241.03 C 4592.41 5241.03 4570.48 5219.11 4570.48 5192.06 C 4570.48 5165.01 4592.41 5143.09 4619.45 5143.09 C 4646.5 5143.09 4668.42 5165.01 4668.42 5192.06 Z M 4619.45 5192.06 "/>
</clipPath>
<g clip-path="url(#cp2)">
<path transform="matrix(.1,0,0,-.1,-299,555)" stroke-width="9.23334" stroke-linecap="butt" stroke-miterlimit="10" stroke-linejoin="miter" fill="none" stroke="#000000" d="M 4619.45 5241.03 L 4619.45 5143.09 M 4570.48 5192.06 L 4668.42 5192.06 "/>
</g>
<path transform="matrix(.1,0,0,-.1,-299,555)" stroke-width="9.23334" stroke-linecap="butt" stroke-miterlimit="10" stroke-linejoin="miter" fill="none" stroke="#000000" d="M 4668.42 5192.06 C 4668.42 5219.11 4646.5 5241.03 4619.45 5241.03 C 4592.41 5241.03 4570.48 5219.11 4570.48 5192.06 C 4570.48 5165.01 4592.41 5143.09 4619.45 5143.09 C 4646.5 5143.09 4668.42 5165.01 4668.42 5192.06 Z M 4619.45 5192.06 "/>
<path transform="matrix(.1,0,0,-.1,-299,555)" stroke-width="9.23334" stroke-linecap="butt" stroke-miterlimit="10" stroke-linejoin="miter" fill="none" stroke="#000000" d="M 3368.99 5520.45 L 2998.22 5520.45 "/>
<path transform="matrix(.1,0,0,-.1,-299,555)" stroke-width="9.23334" stroke-linecap="butt" stroke-miterlimit="10" stroke-linejoin="miter" fill="none" stroke="#000000" d="M 3770.27 5520.45 L 3368.99 5520.45 "/>
<path transform="matrix(.1,0,0,-.1,-299,555)" stroke-width="9.23334" stroke-linecap="butt" stroke-miterlimit="10" stroke-linejoin="miter" fill="none" stroke="#000000" d="M 3793.35 5497.37 L 3793.35 5241.03 "/>
<path transform="matrix(.1,0,0,-.1,-299,555)" stroke-width="9.23334" stroke-linecap="butt" stroke-miterlimit="10" stroke-linejoin="miter" fill="none" stroke="#000000" d="M 4011.13 5520.45 L 3816.43 5520.45 "/>
<path transform="matrix(.1,0,0,-.1,-299,555)" stroke-width="9.23334" stroke-linecap="butt" stroke-miterlimit="10" stroke-linejoin="miter" fill="none" stroke="#000000" d="M 4596.37 5520.45 L 4401.67 5520.45 "/>
<path transform="matrix(.1,0,0,-.1,-299,555)" stroke-width="9.23334" stroke-linecap="butt" stroke-miterlimit="10" stroke-linejoin="miter" fill="none" stroke="#000000" d="M 4619.46 5497.37 L 4619.46 5241.03 "/>
<path transform="matrix(.1,0,0,-.1,-299,555)" stroke-width="9.23334" stroke-linecap="butt" stroke-miterlimit="10" stroke-linejoin="miter" fill="none" stroke="#000000" d="M 5043.82 5520.45 L 4642.54 5520.45 "/>
<path transform="matrix(.1,0,0,-.1,-299,555)" stroke-width="9.23334" stroke-linecap="butt" stroke-miterlimit="10" stroke-linejoin="miter" fill="none" stroke="#000000" d="M 5414.59 5520.45 L 5043.82 5520.45 "/>
<path transform="matrix(.1,0,0,-.1,-299,555)" stroke-width="9.23334" stroke-linecap="butt" stroke-miterlimit="10" stroke-linejoin="miter" fill="none" stroke="#000000" d="M 3162.42 5192.05 L 2998.22 5192.05 "/>
<path transform="matrix(.1,0,0,-.1,-299,555)" stroke-width="9.23334" stroke-linecap="butt" stroke-miterlimit="10" stroke-linejoin="miter" fill="none" stroke="#000000" d="M 3744.38 5192.05 L 3575.56 5192.05 "/>
<path transform="matrix(.1,0,0,-.1,-299,555)" stroke-width="9.23334" stroke-linecap="butt" stroke-miterlimit="10" stroke-linejoin="miter" fill="none" stroke="#000000" d="M 4029.04 5192.05 L 3842.32 5192.05 "/>
<path transform="matrix(.1,0,0,-.1,-299,555)" stroke-width="9.23334" stroke-linecap="butt" stroke-miterlimit="10" stroke-linejoin="miter" fill="none" stroke="#000000" d="M 4570.48 5192.05 L 4383.77 5192.05 "/>
<path transform="matrix(.1,0,0,-.1,-299,555)" stroke-width="9.23334" stroke-linecap="butt" stroke-miterlimit="10" stroke-linejoin="miter" fill="none" stroke="#000000" d="M 4837.24 5192.05 L 4668.43 5192.05 "/>
<path transform="matrix(.1,0,0,-.1,-299,555)" stroke-width="9.23334" stroke-linecap="butt" stroke-miterlimit="10" stroke-linejoin="miter" fill="none" stroke="#000000" d="M 5414.59 5192.05 L 5250.39 5192.05 "/>
<symbol id="font_3_2">
<path d="M 0 0 L .504 0 L .504 .08 L 0 .08 L 0 0 M 0 .202 L .504 .202 L .504 .282 L 0 .282 L 0 .202 Z "/>
</symbol>
<use xlink:href="#font_3_2" transform="matrix(12.8804,0,0,-12.8804,118.3939,20.466393)"/>
<path transform="matrix(.1,0,0,-.1,-299,555)" d="M 3162.42 5087.64 L 3575.565 5087.64 L 3575.565 5296.4645 L 3162.42 5296.4645 Z " fill="#ffffff"/>
<path transform="matrix(.1,0,0,-.1,-299,555)" stroke-width="9.23334" stroke-linecap="butt" stroke-miterlimit="10" stroke-linejoin="miter" fill="none" stroke="#000000" d="M 3162.42 5087.64 L 3575.565 5087.64 L 3575.565 5296.4645 L 3162.42 5296.4645 Z "/>
<symbol id="font_4_2">
<path d="M .289 .365 L .358 .365 C .44200004 .365 .47400005 .34000004 .47400005 .27500005 C .47400005 .263 .47300003 .24200002 .47100003 .22100002 C .46500004 .14500001 .46500004 .14 .46500004 .12100001 C .46500004 .049000004 .508 0 .57100006 0 C .63500007 0 .675 .041 .71400007 .147 L .67800006 .162 C .65300008 .091000009 .63600006 .069000009 .60800006 .069000009 C .587 .069000009 .578 .08800001 .578 .13 L .57900008 .18100001 C .58000007 .194 .58000007 .20600002 .58000007 .21700001 C .58000007 .30400003 .55 .352 .47700004 .379 C .555 .388 .59400007 .397 .63000008 .41500003 C .69200006 .44700004 .73200008 .508 .73200008 .573 C .73200008 .632 .70100006 .681 .646 .709 C .60700008 .72900006 .558 .73700007 .47400005 .73700007 L .15400002 .73700007 L .148 .69 L .174 .69 C .23900002 .69 .25300003 .685 .25300003 .663 C .25300003 .65500006 .24900002 .634 .24400002 .614 L .116000007 .13800001 C .102000009 .085 .101 .08400001 .093 .076000008 C .082 .066 .059 .062000004 .01 .062000004 L .004999999 .062000004 L 0 .015000001 L .31800003 .015000001 L .323 .062000004 L .29700003 .062000004 C .23200003 .062000004 .218 .067 .218 .089 C .218 .097 .218 .097 .22800002 .13800001 L .289 .365 M .30100004 .412 L .36 .63 C .374 .681 .38400004 .69 .43100003 .69 L .48000003 .69 C .564 .69 .61200007 .65000006 .61200007 .58 C .61200007 .519 .58400008 .47100003 .53000006 .439 C .49300004 .417 .46300004 .412 .37900005 .412 L .30100004 .412 Z "/>
</symbol>
<use xlink:href="#font_4_2" transform="matrix(12.8805,0,0,-12.8805,21.607886,39.579195)"/>
<symbol id="font_4_1">
<path d="M .234 .17 L .24900002 .10300001 C .266 .028 .292 0 .34100003 0 C .37800003 0 .396 .012 .442 .068 C .46 .089 .463 .094000007 .48900003 .14 L .458 .157 C .448 .141 .44500003 .136 .43 .115 C .40100003 .076000008 .384 .061000006 .366 .061000006 C .343 .061000006 .333 .083000008 .315 .165 L .296 .26 L .34 .34100003 C .36400003 .38600005 .38500003 .408 .403 .408 C .411 .408 .416 .40400005 .42000003 .39500005 C .42900003 .375 .43600003 .37 .45400004 .37 C .485 .37 .504 .39100004 .504 .42400003 C .504 .45900006 .48000003 .485 .44700004 .485 C .42000003 .485 .39000003 .47100003 .36900003 .448 C .349 .426 .34800003 .426 .314 .36300005 L .285 .311 L .27400003 .366 C .257 .45200003 .23500002 .485 .194 .485 C .17200002 .485 .15 .472 .125 .444 C .109000008 .426 .095 .40600003 .05 .34100003 L .079 .32 C .13 .393 .14400001 .408 .16100002 .408 C .16800002 .408 .178 .40100003 .18200001 .393 C .19100002 .37700004 .19100002 .37700004 .211 .278 L .22300002 .22000002 L .178 .14 C .15 .089 .125 .061000006 .109000008 .061000006 C .102000009 .061000006 .096 .068 .094000007 .081 C .089 .108 .076000008 .120000008 .051 .120000008 C .021 .120000008 0 .096 0 .062000004 C 0 .025000003 .026 0 .066 0 C .114 0 .16100002 .04 .204 .116000007 L .234 .17 Z "/>
</symbol>
<use xlink:href="#font_4_1" transform="matrix(9.66036,0,0,-9.66036,32.191404,41.608224)"/>
<symbol id="font_3_3">
<path d="M .24300002 .8590001 C .18300002 .8220001 .15100001 .79600009 .11700001 .75600007 C .041000006 .66600009 0 .55100008 0 .43 C 0 .316 .036000004 .209 .103000018 .120000008 C .141 .072 .17500001 .042000005 .24300002 0 L .24300002 .037 C .143 .125 .103000018 .238 .103000018 .43 C .103000018 .62200006 .143 .734 .24300002 .8220001 L .24300002 .8590001 Z "/>
</symbol>
<use xlink:href="#font_3_3" transform="matrix(12.8804,0,0,-12.8804,38.484815,40.970277)"/>
<symbol id="font_5_1">
<path d="M .467 .37700004 C .47900004 .43500004 .48800005 .49700005 .48800005 .55300006 C .48800005 .66400006 .45200003 .75500008 .32700003 .75500008 C .088 .75500008 0 .39800004 0 .198 C 0 .08400001 .040000004 0 .163 0 C .34600003 0 .42400003 .185 .467 .37700004 M .37600003 .40700004 L .126 .40700004 C .14400001 .49200005 .199 .72200009 .319 .72200009 C .38200004 .72200009 .4 .66 .4 .58800008 C .4 .52300009 .38500003 .44900004 .37600003 .40700004 M .368 .37100003 C .34300003 .25300003 .287 .030000002 .169 .030000002 C .107999999 .030000002 .09 .089 .09 .163 C .09 .23200001 .106000009 .31400005 .118 .37100003 L .368 .37100003 Z "/>
</symbol>
<use xlink:href="#font_5_1" transform="matrix(12.465,0,0,-12.465,42.708665,39.54803)"/>
<symbol id="font_3_1">
<path d="M 0 0 C .060000007 .037 .09200001 .063 .126 .104 C .202 .193 .24300002 .30900003 .24300002 .43 C .24300002 .544 .207 .651 .14 .7390001 C .102 .78800007 .068 .8180001 0 .8590001 L 0 .8220001 C .10000001 .734 .14 .62200006 .14 .43 C .14 .23700002 .10000001 .125 0 .037 L 0 0 Z "/>
</symbol>
<use xlink:href="#font_3_1" transform="matrix(12.8804,0,0,-12.8804,50.345567,40.970277)"/>
<path transform="matrix(.1,0,0,-.1,-299,555)" d="M 4837.24 5087.64 L 5250.3854 5087.64 L 5250.3854 5296.4645 L 4837.24 5296.4645 Z " fill="#ffffff"/>
<path transform="matrix(.1,0,0,-.1,-299,555)" stroke-width="9.23334" stroke-linecap="butt" stroke-miterlimit="10" stroke-linejoin="miter" fill="none" stroke="#000000" d="M 4837.24 5087.64 L 5250.3854 5087.64 L 5250.3854 5296.4645 L 4837.24 5296.4645 Z "/>
<use xlink:href="#font_4_2" transform="matrix(12.8805,0,0,-12.8805,189.08789,39.579195)"/>
<use xlink:href="#font_4_1" transform="matrix(9.66036,0,0,-9.66036,199.67182,41.608224)"/>
<use xlink:href="#font_3_3" transform="matrix(12.8804,0,0,-12.8804,205.96523,40.970277)"/>
<use xlink:href="#font_5_1" transform="matrix(12.465,0,0,-12.465,210.18907,39.54803)"/>
<use xlink:href="#font_3_1" transform="matrix(12.8804,0,0,-12.8804,217.82598,40.970277)"/>
</g>
</g>
</svg>
