<?xml version="1.0" encoding="UTF-8" standalone="no"?>
<!DOCTYPE svg PUBLIC "-//W3C//DTD SVG 1.1//EN" "http://www.w3.org/Graphics/SVG/1.1/DTD/svg11.dtd">
<svg xmlns="http://www.w3.org/2000/svg" xmlns:xlink="http://www.w3.org/1999/xlink" version="1.1" width="243pt" height="50pt" viewBox="0 0 243 50">
<g enable-background="new">
<clipPath id="cp0">
<path transform="matrix(1,0,0,-1,-299,555)" d="M 0 0 L 1001 0 L 1001 709 L 0 709 Z "/>
</clipPath>
<g clip-path="url(#cp0)">
<path transform="matrix(.1,0,0,-.1,-299,555)" d="M 3814.99 5439.12 C 3814.99 5451.87 3804.65 5462.2 3791.9 5462.2 C 3779.16 5462.2 3768.82 5451.87 3768.82 5439.12 C 3768.82 5426.37 3779.16 5416.04 3791.9 5416.04 C 3804.65 5416.04 3814.99 5426.37 3814.99 5439.12 Z M 3791.9 5439.12 "/>
<path transform="matrix(.1,0,0,-.1,-299,555)" d="M 4641.09 5439.12 C 4641.09 5451.87 4630.75 5462.2 4618 5462.2 C 4605.25 5462.2 4594.92 5451.87 4594.92 5439.12 C 4594.92 5426.37 4605.25 5416.04 4618 5416.04 C 4630.75 5416.04 4641.09 5426.37 4641.09 5439.12 Z M 4618 5439.12 "/>
<clipPath id="cp1">
<path transform="matrix(.1,0,0,-.1,-299,555)" d="M 3840.88 5110.73 C 3840.88 5137.78 3818.95 5159.7 3791.9 5159.7 C 3764.86 5159.7 3742.93 5137.78 3742.93 5110.73 C 3742.93 5083.68 3764.86 5061.76 3791.9 5061.76 C 3818.95 5061.76 3840.88 5083.68 3840.88 5110.73 Z M 3791.9 5110.73 "/>
</clipPath>
<g clip-path="url(#cp1)">
<path transform="matrix(.1,0,0,-.1,-299,555)" stroke-width="9.23334" stroke-linecap="butt" stroke-miterlimit="10" stroke-linejoin="miter" fill="none" stroke="#000000" d="M 3791.9 5159.7 L 3791.9 5061.76 M 3742.93 5110.73 L 3840.88 5110.73 "/>
</g>
<path transform="matrix(.1,0,0,-.1,-299,555)" stroke-width="9.23334" stroke-linecap="butt" stroke-miterlimit="10" stroke-linejoin="miter" fill="none" stroke="#000000" d="M 3840.88 5110.73 C 3840.88 5137.78 3818.95 5159.7 3791.9 5159.7 C 3764.86 5159.7 3742.93 5137.78 3742.93 5110.73 C 3742.93 5083.68 3764.86 5061.76 3791.9 5061.76 C 3818.95 5061.76 3840.88 5083.68 3840.88 5110.73 Z M 3791.9 5110.73 "/>
<clipPath id="cp2">
<path transform="matrix(.1,0,0,-.1,-299,555)" d="M 4666.98 5110.73 C 4666.98 5137.78 4645.05 5159.7 4618 5159.7 C 4590.96 5159.7 4569.04 5137.78 4569.04 5110.73 C 4569.04 5083.68 4590.96 5061.76 4618 5061.76 C 4645.05 5061.76 4666.98 5083.68 4666.98 5110.73 Z M 4618 5110.73 "/>
</clipPath>
<g clip-path="url(#cp2)">
<path transform="matrix(.1,0,0,-.1,-299,555)" stroke-width="9.23334" stroke-linecap="butt" stroke-miterlimit="10" stroke-linejoin="miter" fill="none" stroke="#000000" d="M 4618 5159.7 L 4618 5061.76 M 4569.04 5110.73 L 4666.98 5110.73 "/>
</g>
<path transform="matrix(.1,0,0,-.1,-299,555)" stroke-width="9.23334" stroke-linecap="butt" stroke-miterlimit="10" stroke-linejoin="miter" fill="none" stroke="#000000" d="M 4666.98 5110.73 C 4666.98 5137.78 4645.05 5159.7 4618 5159.7 C 4590.96 5159.7 4569.04 5137.78 4569.04 5110.73 C 4569.04 5083.68 4590.96 5061.76 4618 5061.76 C 4645.05 5061.76 4666.98 5083.68 4666.98 5110.73 Z M 4618 5110.73 "/>
<path transform="matrix(.1,0,0,-.1,-299,555)" stroke-width="9.23334" stroke-linecap="butt" stroke-miterlimit="10" stroke-linejoin="miter" fill="none" stroke="#000000" d="M 3162.43 5439.13 L 2998.23 5439.13 "/>
<path transform="matrix(.1,0,0,-.1,-299,555)" stroke-width="9.23334" stroke-linecap="butt" stroke-miterlimit="10" stroke-linejoin="miter" fill="none" stroke="#000000" d="M 3768.82 5439.13 L 3574.11 5439.13 "/>
<path transform="matrix(.1,0,0,-.1,-299,555)" stroke-width="9.23334" stroke-linecap="butt" stroke-miterlimit="10" stroke-linejoin="miter" fill="none" stroke="#000000" d="M 3791.9 5416.05 L 3791.9 5159.7 "/>
<path transform="matrix(.1,0,0,-.1,-299,555)" stroke-width="9.23334" stroke-linecap="butt" stroke-miterlimit="10" stroke-linejoin="miter" fill="none" stroke="#000000" d="M 4009.69 5439.13 L 3814.98 5439.13 "/>
<path transform="matrix(.1,0,0,-.1,-299,555)" stroke-width="9.23334" stroke-linecap="butt" stroke-miterlimit="10" stroke-linejoin="miter" fill="none" stroke="#000000" d="M 4594.93 5439.13 L 4400.22 5439.13 "/>
<path transform="matrix(.1,0,0,-.1,-299,555)" stroke-width="9.23334" stroke-linecap="butt" stroke-miterlimit="10" stroke-linejoin="miter" fill="none" stroke="#000000" d="M 4618.01 5416.05 L 4618.01 5159.7 "/>
<path transform="matrix(.1,0,0,-.1,-299,555)" stroke-width="9.23334" stroke-linecap="butt" stroke-miterlimit="10" stroke-linejoin="miter" fill="none" stroke="#000000" d="M 4835.79 5439.13 L 4641.09 5439.13 "/>
<path transform="matrix(.1,0,0,-.1,-299,555)" stroke-width="9.23334" stroke-linecap="butt" stroke-miterlimit="10" stroke-linejoin="miter" fill="none" stroke="#000000" d="M 5411.68 5439.13 L 5247.48 5439.13 "/>
<path transform="matrix(.1,0,0,-.1,-299,555)" stroke-width="9.23334" stroke-linecap="butt" stroke-miterlimit="10" stroke-linejoin="miter" fill="none" stroke="#000000" d="M 3368.27 5110.73 L 2998.23 5110.73 "/>
<path transform="matrix(.1,0,0,-.1,-299,555)" stroke-width="9.23334" stroke-linecap="butt" stroke-miterlimit="10" stroke-linejoin="miter" fill="none" stroke="#000000" d="M 3742.93 5110.73 L 3368.27 5110.73 "/>
<path transform="matrix(.1,0,0,-.1,-299,555)" stroke-width="9.23334" stroke-linecap="butt" stroke-miterlimit="10" stroke-linejoin="miter" fill="none" stroke="#000000" d="M 4027.59 5110.73 L 3840.87 5110.73 "/>
<path transform="matrix(.1,0,0,-.1,-299,555)" stroke-width="9.23334" stroke-linecap="butt" stroke-miterlimit="10" stroke-linejoin="miter" fill="none" stroke="#000000" d="M 4569.04 5110.73 L 4382.32 5110.73 "/>
<path transform="matrix(.1,0,0,-.1,-299,555)" stroke-width="9.23334" stroke-linecap="butt" stroke-miterlimit="10" stroke-linejoin="miter" fill="none" stroke="#000000" d="M 5041.64 5110.73 L 4666.98 5110.73 "/>
<path transform="matrix(.1,0,0,-.1,-299,555)" stroke-width="9.23334" stroke-linecap="butt" stroke-miterlimit="10" stroke-linejoin="miter" fill="none" stroke="#000000" d="M 5411.68 5110.73 L 5041.64 5110.73 "/>
<path transform="matrix(.1,0,0,-.1,-299,555)" d="M 3162.43 5334.72 L 3574.118 5334.72 L 3574.118 5543.54 L 3162.43 5543.54 Z " fill="#ffffff"/>
<path transform="matrix(.1,0,0,-.1,-299,555)" stroke-width="9.23334" stroke-linecap="butt" stroke-miterlimit="10" stroke-linejoin="miter" fill="none" stroke="#000000" d="M 3162.43 5334.72 L 3574.118 5334.72 L 3574.118 5543.54 L 3162.43 5543.54 Z "/>
<symbol id="font_3_2">
<path d="M .289 .365 L .358 .365 C .44200004 .365 .47400005 .34000004 .47400005 .27500005 C .47400005 .263 .47300003 .24200002 .47100003 .22100002 C .46500004 .14500001 .46500004 .14 .46500004 .12100001 C .46500004 .049000004 .508 0 .57100006 0 C .63500007 0 .675 .041 .71400007 .147 L .67800006 .162 C .65300008 .091000009 .63600006 .069000009 .60800006 .069000009 C .587 .069000009 .578 .08800001 .578 .13 L .57900008 .18100001 C .58000007 .194 .58000007 .20600002 .58000007 .21700001 C .58000007 .30400003 .55 .352 .47700004 .379 C .555 .388 .59400007 .397 .63000008 .41500003 C .69200006 .44700004 .73200008 .508 .73200008 .573 C .73200008 .632 .70100006 .681 .646 .709 C .60700008 .72900006 .558 .73700007 .47400005 .73700007 L .15400002 .73700007 L .148 .69 L .174 .69 C .23900002 .69 .25300003 .685 .25300003 .663 C .25300003 .65500006 .24900002 .634 .24400002 .614 L .116000007 .13800001 C .102000009 .085 .101 .08400001 .093 .076000008 C .082 .066 .059 .062000004 .01 .062000004 L .004999999 .062000004 L 0 .015000001 L .31800003 .015000001 L .323 .062000004 L .29700003 .062000004 C .23200003 .062000004 .218 .067 .218 .089 C .218 .097 .218 .097 .22800002 .13800001 L .289 .365 M .30100004 .412 L .36 .63 C .374 .681 .38400004 .69 .43100003 .69 L .48000003 .69 C .564 .69 .61200007 .65000006 .61200007 .58 C .61200007 .519 .58400008 .47100003 .53000006 .439 C .49300004 .417 .46300004 .412 .37900005 .412 L .30100004 .412 Z "/>
</symbol>
<use xlink:href="#font_3_2" transform="matrix(12.8805,0,0,-12.8805,21.608893,14.871186)"/>
<symbol id="font_3_1">
<path d="M .386 .16600001 C .359 .104 .333 .076000008 .3 .076000008 C .286 .076000008 .261 .082 .23300001 .09200001 C .17200002 .113000009 .16 .116000007 .132 .116000007 C .119 .116000007 .107 .11400001 .083000008 .10700001 C .106000009 .136 .125 .15 .204 .19600001 C .28100003 .24000001 .322 .272 .37100003 .328 C .418 .38100005 .45000003 .43600006 .45000003 .462 C .45000003 .47500003 .44 .485 .426 .485 C .41500003 .485 .407 .477 .402 .46000005 C .396 .439 .39000003 .43400003 .37600003 .43400003 C .359 .43400003 .33400003 .44200004 .30400003 .45700003 C .259 .47900004 .24200002 .485 .22 .485 C .156 .485 .103 .44 .055 .34600003 L .088 .329 C .119 .384 .14500001 .40900005 .17000002 .40900005 C .18 .40900005 .204 .403 .23000002 .39500005 C .285 .37600006 .292 .375 .322 .375 C .336 .375 .34800003 .37700004 .373 .38300003 C .34800003 .357 .337 .347 .299 .323 C .15200001 .23200001 .12900001 .21400002 .072 .15200001 C .026 .101 0 .054 0 .024 C 0 .009000001 .009 0 .024 0 C .043 0 .054 .017 .054 .046000005 C .054 .062000004 .055 .063 .063 .063 C .075 .063 .075 .063 .14000002 .032 C .188 .01 .224 0 .259 0 C .327 0 .39000003 .060000004 .421 .15400002 L .386 .16600001 Z "/>
</symbol>
<use xlink:href="#font_3_1" transform="matrix(9.66036,0,0,-9.66036,32.295499,16.901375)"/>
<symbol id="font_4_3">
<path d="M .24300002 .8590001 C .18300002 .8220001 .15100001 .79600009 .11700001 .75600007 C .041000006 .66600009 0 .55100008 0 .43 C 0 .316 .036000004 .209 .103000018 .120000008 C .141 .072 .17500001 .042000005 .24300002 0 L .24300002 .037 C .143 .125 .103000018 .238 .103000018 .43 C .103000018 .62200006 .143 .734 .24300002 .8220001 L .24300002 .8590001 Z "/>
</symbol>
<use xlink:href="#font_4_3" transform="matrix(12.8804,0,0,-12.8804,38.339704,16.262269)"/>
<symbol id="font_5_1">
<path d="M .467 .37700004 C .47900004 .43500004 .48800005 .49700005 .48800005 .55300006 C .48800005 .66400006 .45200003 .75500008 .32700003 .75500008 C .088 .75500008 0 .39800004 0 .198 C 0 .08400001 .040000004 0 .163 0 C .34600003 0 .42400003 .185 .467 .37700004 M .37600003 .40700004 L .126 .40700004 C .14400001 .49200005 .199 .72200009 .319 .72200009 C .38200004 .72200009 .4 .66 .4 .58800008 C .4 .52300009 .38500003 .44900004 .37600003 .40700004 M .368 .37100003 C .34300003 .25300003 .287 .030000002 .169 .030000002 C .107999999 .030000002 .09 .089 .09 .163 C .09 .23200001 .106000009 .31400005 .118 .37100003 L .368 .37100003 Z "/>
</symbol>
<use xlink:href="#font_5_1" transform="matrix(12.465,0,0,-12.465,42.564714,14.840023)"/>
<symbol id="font_4_1">
<path d="M 0 0 C .060000007 .037 .09200001 .063 .126 .104 C .202 .193 .24300002 .30900003 .24300002 .43 C .24300002 .544 .207 .651 .14 .7390001 C .102 .78800007 .068 .8180001 0 .8590001 L 0 .8220001 C .10000001 .734 .14 .62200006 .14 .43 C .14 .23700002 .10000001 .125 0 .037 L 0 0 Z "/>
</symbol>
<symbol id="font_4_2">
<path d="M 0 0 L .504 0 L .504 .08 L 0 .08 L 0 0 M 0 .202 L .504 .202 L .504 .282 L 0 .282 L 0 .202 Z "/>
</symbol>
<use xlink:href="#font_4_1" transform="matrix(12.8804,0,0,-12.8804,50.201616,16.262269)"/>
<use xlink:href="#font_4_2" transform="matrix(12.8804,0,0,-12.8804,118.249279,28.59829)"/>
<path transform="matrix(.1,0,0,-.1,-299,555)" d="M 4835.79 5334.72 L 5247.481 5334.72 L 5247.481 5543.54 L 4835.79 5543.54 Z " fill="#ffffff"/>
<path transform="matrix(.1,0,0,-.1,-299,555)" stroke-width="9.23334" stroke-linecap="butt" stroke-miterlimit="10" stroke-linejoin="miter" fill="none" stroke="#000000" d="M 4835.79 5334.72 L 5247.481 5334.72 L 5247.481 5543.54 L 4835.79 5543.54 Z "/>
<use xlink:href="#font_3_2" transform="matrix(12.8805,0,0,-12.8805,188.94489,14.871186)"/>
<use xlink:href="#font_3_1" transform="matrix(9.66036,0,0,-9.66036,199.6315,16.900216)"/>
<use xlink:href="#font_4_3" transform="matrix(12.8804,0,0,-12.8804,205.6757,16.262269)"/>
<use xlink:href="#font_5_1" transform="matrix(12.465,0,0,-12.465,209.89995,14.840023)"/>
<use xlink:href="#font_4_1" transform="matrix(12.8804,0,0,-12.8804,217.53685,16.262269)"/>
</g>
</g>
</svg>
