<?xml version="1.0" encoding="UTF-8" standalone="no"?>
<!DOCTYPE svg PUBLIC "-//W3C//DTD SVG 1.1//EN" "http://www.w3.org/Graphics/SVG/1.1/DTD/svg11.dtd">
<svg xmlns="http://www.w3.org/2000/svg" xmlns:xlink="http://www.w3.org/1999/xlink" version="1.1" width="430pt" height="88pt" viewBox="0 0 430 88">
<g enable-background="new">
<clipPath id="cp0">
<path transform="matrix(0,1,1,0,-299,-154)" d="M 0 0 L 709 0 L 709 1001 L 0 1001 Z "/>
</clipPath>
<g clip-path="url(#cp0)">
<path transform="matrix(0,.1,.1,0,-299,-154)" d="M 1649.46 3238.24 C 1636.71 3238.24 1626.37 3227.91 1626.37 3215.16 C 1626.37 3202.41 1636.71 3192.07 1649.46 3192.07 C 1662.2 3192.07 1672.54 3202.41 1672.54 3215.16 C 1672.54 3227.91 1662.2 3238.24 1649.46 3238.24 Z M 1649.46 3215.16 "/>
<path transform="matrix(0,.1,.1,0,-299,-154)" d="M 1649.46 4847.83 C 1636.71 4847.83 1626.37 4837.5 1626.37 4824.75 C 1626.37 4812 1636.71 4801.66 1649.46 4801.66 C 1662.2 4801.66 1672.54 4812 1672.54 4824.75 C 1672.54 4837.5 1662.2 4847.83 1649.46 4847.83 Z M 1649.46 4824.75 "/>
<path transform="matrix(0,.1,.1,0,-299,-154)" d="M 1649.46 5954.34 C 1636.71 5954.34 1626.37 5944 1626.37 5931.25 C 1626.37 5918.5 1636.71 5908.17 1649.46 5908.17 C 1662.2 5908.17 1672.54 5918.5 1672.54 5931.25 C 1672.54 5944 1662.2 5954.34 1649.46 5954.34 Z M 1649.46 5931.25 "/>
<path transform="matrix(0,.1,.1,0,-299,-154)" d="M 1649.46 6546.23 C 1636.71 6546.23 1626.37 6535.9 1626.37 6523.15 C 1626.37 6510.4 1636.71 6500.07 1649.46 6500.07 C 1662.2 6500.07 1672.54 6510.4 1672.54 6523.15 C 1672.54 6535.9 1662.2 6546.23 1649.46 6546.23 Z M 1649.46 6523.15 "/>
<path transform="matrix(0,.1,.1,0,-299,-154)" d="M 1649.46 7138.14 C 1636.71 7138.14 1626.37 7127.81 1626.37 7115.06 C 1626.37 7102.31 1636.71 7091.98 1649.46 7091.98 C 1662.2 7091.98 1672.54 7102.31 1672.54 7115.06 C 1672.54 7127.81 1662.2 7138.14 1649.46 7138.14 Z M 1649.46 7115.06 "/>
<path transform="matrix(0,.1,.1,0,-299,-154)" d="M 1977.86 3238.24 C 1965.11 3238.24 1954.77 3227.91 1954.77 3215.16 C 1954.77 3202.41 1965.11 3192.07 1977.86 3192.07 C 1990.61 3192.07 2000.94 3202.41 2000.94 3215.16 C 2000.94 3227.91 1990.61 3238.24 1977.86 3238.24 Z M 1977.86 3215.16 "/>
<path transform="matrix(0,.1,.1,0,-299,-154)" d="M 1977.86 4321.36 C 1965.11 4321.36 1954.77 4311.02 1954.77 4298.27 C 1954.77 4285.52 1965.11 4275.19 1977.86 4275.19 C 1990.61 4275.19 2000.94 4285.52 2000.94 4298.27 C 2000.94 4311.02 1990.61 4321.36 1977.86 4321.36 Z M 1977.86 4298.27 "/>
<path transform="matrix(0,.1,.1,0,-299,-154)" d="M 1977.86 5427.86 C 1965.11 5427.86 1954.77 5417.52 1954.77 5404.77 C 1954.77 5392.02 1965.11 5381.69 1977.86 5381.69 C 1990.61 5381.69 2000.94 5392.02 2000.94 5404.77 C 2000.94 5417.52 1990.61 5427.86 1977.86 5427.86 Z M 1977.86 5404.77 "/>
<clipPath id="cp1">
<path transform="matrix(0,.1,.1,0,-299,-154)" d="M 1977.86 6572.12 C 1950.81 6572.12 1928.88 6550.2 1928.88 6523.15 C 1928.88 6496.11 1950.81 6474.18 1977.86 6474.18 C 2004.9 6474.18 2026.82 6496.11 2026.82 6523.15 C 2026.82 6550.2 2004.9 6572.12 1977.86 6572.12 Z M 1977.86 6523.15 "/>
</clipPath>
<g clip-path="url(#cp1)">
<path transform="matrix(0,.1,.1,0,-299,-154)" stroke-width="9.23334" stroke-linecap="butt" stroke-miterlimit="10" stroke-linejoin="miter" fill="none" stroke="#000000" d="M 1928.88 6523.15 L 2026.82 6523.15 M 1977.86 6474.18 L 1977.86 6572.12 "/>
</g>
<path transform="matrix(0,.1,.1,0,-299,-154)" stroke-width="9.23334" stroke-linecap="butt" stroke-miterlimit="10" stroke-linejoin="miter" fill="none" stroke="#000000" d="M 1977.86 6572.12 C 1950.81 6572.12 1928.88 6550.2 1928.88 6523.15 C 1928.88 6496.11 1950.81 6474.18 1977.86 6474.18 C 2004.9 6474.18 2026.82 6496.11 2026.82 6523.15 C 2026.82 6550.2 2004.9 6572.12 1977.86 6572.12 Z M 1977.86 6523.15 "/>
<clipPath id="cp2">
<path transform="matrix(0,.1,.1,0,-299,-154)" d="M 1977.86 7164.03 C 1950.81 7164.03 1928.88 7142.11 1928.88 7115.06 C 1928.88 7088.02 1950.81 7066.09 1977.86 7066.09 C 2004.9 7066.09 2026.82 7088.02 2026.82 7115.06 C 2026.82 7142.11 2004.9 7164.03 1977.86 7164.03 Z M 1977.86 7115.06 "/>
</clipPath>
<g clip-path="url(#cp2)">
<path transform="matrix(0,.1,.1,0,-299,-154)" stroke-width="9.23334" stroke-linecap="butt" stroke-miterlimit="10" stroke-linejoin="miter" fill="none" stroke="#000000" d="M 1928.88 7115.06 L 2026.82 7115.06 M 1977.86 7066.09 L 1977.86 7164.03 "/>
</g>
<path transform="matrix(0,.1,.1,0,-299,-154)" stroke-width="9.23334" stroke-linecap="butt" stroke-miterlimit="10" stroke-linejoin="miter" fill="none" stroke="#000000" d="M 1977.86 7164.03 C 1950.81 7164.03 1928.88 7142.11 1928.88 7115.06 C 1928.88 7088.02 1950.81 7066.09 1977.86 7066.09 C 2004.9 7066.09 2026.82 7088.02 2026.82 7115.06 C 2026.82 7142.11 2004.9 7164.03 1977.86 7164.03 Z M 1977.86 7115.06 "/>
<clipPath id="cp3">
<path transform="matrix(0,.1,.1,0,-299,-154)" d="M 2306.24 4347.24 C 2279.2 4347.24 2257.27 4325.32 2257.27 4298.27 C 2257.27 4271.22 2279.2 4249.3 2306.24 4249.3 C 2333.29 4249.3 2355.21 4271.22 2355.21 4298.27 C 2355.21 4325.32 2333.29 4347.24 2306.24 4347.24 Z M 2306.24 4298.27 "/>
</clipPath>
<g clip-path="url(#cp3)">
<path transform="matrix(0,.1,.1,0,-299,-154)" stroke-width="9.23334" stroke-linecap="butt" stroke-miterlimit="10" stroke-linejoin="miter" fill="none" stroke="#000000" d="M 2257.27 4298.27 L 2355.21 4298.27 M 2306.24 4249.3 L 2306.24 4347.24 "/>
</g>
<path transform="matrix(0,.1,.1,0,-299,-154)" stroke-width="9.23334" stroke-linecap="butt" stroke-miterlimit="10" stroke-linejoin="miter" fill="none" stroke="#000000" d="M 2306.24 4347.24 C 2279.2 4347.24 2257.27 4325.32 2257.27 4298.27 C 2257.27 4271.22 2279.2 4249.3 2306.24 4249.3 C 2333.29 4249.3 2355.21 4271.22 2355.21 4298.27 C 2355.21 4325.32 2333.29 4347.24 2306.24 4347.24 Z M 2306.24 4298.27 "/>
<clipPath id="cp4">
<path transform="matrix(0,.1,.1,0,-299,-154)" d="M 2306.24 4873.72 C 2279.2 4873.72 2257.27 4851.79 2257.27 4824.75 C 2257.27 4797.7 2279.2 4775.78 2306.24 4775.78 C 2333.29 4775.78 2355.21 4797.7 2355.21 4824.75 C 2355.21 4851.79 2333.29 4873.72 2306.24 4873.72 Z M 2306.24 4824.75 "/>
</clipPath>
<g clip-path="url(#cp4)">
<path transform="matrix(0,.1,.1,0,-299,-154)" stroke-width="9.23334" stroke-linecap="butt" stroke-miterlimit="10" stroke-linejoin="miter" fill="none" stroke="#000000" d="M 2257.27 4824.75 L 2355.21 4824.75 M 2306.24 4775.78 L 2306.24 4873.72 "/>
</g>
<path transform="matrix(0,.1,.1,0,-299,-154)" stroke-width="9.23334" stroke-linecap="butt" stroke-miterlimit="10" stroke-linejoin="miter" fill="none" stroke="#000000" d="M 2306.24 4873.72 C 2279.2 4873.72 2257.27 4851.79 2257.27 4824.75 C 2257.27 4797.7 2279.2 4775.78 2306.24 4775.78 C 2333.29 4775.78 2355.21 4797.7 2355.21 4824.75 C 2355.21 4851.79 2333.29 4873.72 2306.24 4873.72 Z M 2306.24 4824.75 "/>
<clipPath id="cp5">
<path transform="matrix(0,.1,.1,0,-299,-154)" d="M 2306.24 5453.74 C 2279.2 5453.74 2257.27 5431.82 2257.27 5404.77 C 2257.27 5377.73 2279.2 5355.8 2306.24 5355.8 C 2333.29 5355.8 2355.21 5377.73 2355.21 5404.77 C 2355.21 5431.82 2333.29 5453.74 2306.24 5453.74 Z M 2306.24 5404.77 "/>
</clipPath>
<g clip-path="url(#cp5)">
<path transform="matrix(0,.1,.1,0,-299,-154)" stroke-width="9.23334" stroke-linecap="butt" stroke-miterlimit="10" stroke-linejoin="miter" fill="none" stroke="#000000" d="M 2257.27 5404.77 L 2355.21 5404.77 M 2306.24 5355.8 L 2306.24 5453.74 "/>
</g>
<path transform="matrix(0,.1,.1,0,-299,-154)" stroke-width="9.23334" stroke-linecap="butt" stroke-miterlimit="10" stroke-linejoin="miter" fill="none" stroke="#000000" d="M 2306.24 5453.74 C 2279.2 5453.74 2257.27 5431.82 2257.27 5404.77 C 2257.27 5377.73 2279.2 5355.8 2306.24 5355.8 C 2333.29 5355.8 2355.21 5377.73 2355.21 5404.77 C 2355.21 5431.82 2333.29 5453.74 2306.24 5453.74 Z M 2306.24 5404.77 "/>
<clipPath id="cp6">
<path transform="matrix(0,.1,.1,0,-299,-154)" d="M 2306.24 5980.22 C 2279.2 5980.22 2257.27 5958.3 2257.27 5931.25 C 2257.27 5904.2 2279.2 5882.28 2306.24 5882.28 C 2333.29 5882.28 2355.21 5904.2 2355.21 5931.25 C 2355.21 5958.3 2333.29 5980.22 2306.24 5980.22 Z M 2306.24 5931.25 "/>
</clipPath>
<g clip-path="url(#cp6)">
<path transform="matrix(0,.1,.1,0,-299,-154)" stroke-width="9.23334" stroke-linecap="butt" stroke-miterlimit="10" stroke-linejoin="miter" fill="none" stroke="#000000" d="M 2257.27 5931.25 L 2355.21 5931.25 M 2306.24 5882.28 L 2306.24 5980.22 "/>
</g>
<path transform="matrix(0,.1,.1,0,-299,-154)" stroke-width="9.23334" stroke-linecap="butt" stroke-miterlimit="10" stroke-linejoin="miter" fill="none" stroke="#000000" d="M 2306.24 5980.22 C 2279.2 5980.22 2257.27 5958.3 2257.27 5931.25 C 2257.27 5904.2 2279.2 5882.28 2306.24 5882.28 C 2333.29 5882.28 2355.21 5904.2 2355.21 5931.25 C 2355.21 5958.3 2333.29 5980.22 2306.24 5980.22 Z M 2306.24 5931.25 "/>
<path transform="matrix(0,.1,.1,0,-299,-154)" stroke-width="9.23334" stroke-linecap="butt" stroke-miterlimit="10" stroke-linejoin="miter" fill="none" stroke="#000000" d="M 1649.45 3192.05 L 1649.45 2998.21 "/>
<path transform="matrix(0,.1,.1,0,-299,-154)" stroke-width="9.23334" stroke-linecap="butt" stroke-miterlimit="10" stroke-linejoin="miter" fill="none" stroke="#000000" d="M 1672.54 3215.14 L 1954.77 3215.14 "/>
<path transform="matrix(0,.1,.1,0,-299,-154)" stroke-width="9.23334" stroke-linecap="butt" stroke-miterlimit="10" stroke-linejoin="miter" fill="none" stroke="#000000" d="M 1649.45 3432.06 L 1649.45 3238.22 "/>
<path transform="matrix(0,.1,.1,0,-299,-154)" stroke-width="9.23334" stroke-linecap="butt" stroke-miterlimit="10" stroke-linejoin="miter" fill="none" stroke="#000000" d="M 1649.45 4033.64 L 1649.45 3822.6 "/>
<path transform="matrix(0,.1,.1,0,-299,-154)" stroke-width="9.23334" stroke-linecap="butt" stroke-miterlimit="10" stroke-linejoin="miter" fill="none" stroke="#000000" d="M 1649.45 4298.26 L 1649.45 4033.64 "/>
<path transform="matrix(0,.1,.1,0,-299,-154)" stroke-width="9.23334" stroke-linecap="butt" stroke-miterlimit="10" stroke-linejoin="miter" fill="none" stroke="#000000" d="M 1649.45 4561.5 L 1649.45 4298.26 "/>
<path transform="matrix(0,.1,.1,0,-299,-154)" stroke-width="9.23334" stroke-linecap="butt" stroke-miterlimit="10" stroke-linejoin="miter" fill="none" stroke="#000000" d="M 1649.45 4801.66 L 1649.45 4561.5 "/>
<path transform="matrix(0,.1,.1,0,-299,-154)" stroke-width="9.23334" stroke-linecap="butt" stroke-miterlimit="10" stroke-linejoin="miter" fill="none" stroke="#000000" d="M 1672.54 4824.75 L 2257.28 4824.75 "/>
<path transform="matrix(0,.1,.1,0,-299,-154)" stroke-width="9.23334" stroke-linecap="butt" stroke-miterlimit="10" stroke-linejoin="miter" fill="none" stroke="#000000" d="M 1649.45 5114.76 L 1649.45 4847.83 "/>
<path transform="matrix(0,.1,.1,0,-299,-154)" stroke-width="9.23334" stroke-linecap="butt" stroke-miterlimit="10" stroke-linejoin="miter" fill="none" stroke="#000000" d="M 1649.45 5404.78 L 1649.45 5114.76 "/>
<path transform="matrix(0,.1,.1,0,-299,-154)" stroke-width="9.23334" stroke-linecap="butt" stroke-miterlimit="10" stroke-linejoin="miter" fill="none" stroke="#000000" d="M 1649.45 5668.02 L 1649.45 5404.78 "/>
<path transform="matrix(0,.1,.1,0,-299,-154)" stroke-width="9.23334" stroke-linecap="butt" stroke-miterlimit="10" stroke-linejoin="miter" fill="none" stroke="#000000" d="M 1649.45 5908.18 L 1649.45 5668.02 "/>
<path transform="matrix(0,.1,.1,0,-299,-154)" stroke-width="9.23334" stroke-linecap="butt" stroke-miterlimit="10" stroke-linejoin="miter" fill="none" stroke="#000000" d="M 1672.54 5931.26 L 2257.28 5931.26 "/>
<path transform="matrix(0,.1,.1,0,-299,-154)" stroke-width="9.23334" stroke-linecap="butt" stroke-miterlimit="10" stroke-linejoin="miter" fill="none" stroke="#000000" d="M 1649.45 6227.22 L 1649.45 5954.35 "/>
<path transform="matrix(0,.1,.1,0,-299,-154)" stroke-width="9.23334" stroke-linecap="butt" stroke-miterlimit="10" stroke-linejoin="miter" fill="none" stroke="#000000" d="M 1649.45 6500.09 L 1649.45 6227.22 "/>
<path transform="matrix(0,.1,.1,0,-299,-154)" stroke-width="9.23334" stroke-linecap="butt" stroke-miterlimit="10" stroke-linejoin="miter" fill="none" stroke="#000000" d="M 1672.54 6523.18 L 1928.88 6523.18 "/>
<path transform="matrix(0,.1,.1,0,-299,-154)" stroke-width="9.23334" stroke-linecap="butt" stroke-miterlimit="10" stroke-linejoin="miter" fill="none" stroke="#000000" d="M 1649.45 6691.7 L 1649.45 6546.26 "/>
<path transform="matrix(0,.1,.1,0,-299,-154)" stroke-width="9.23334" stroke-linecap="butt" stroke-miterlimit="10" stroke-linejoin="miter" fill="none" stroke="#000000" d="M 1649.45 7092 L 1649.45 6946.56 "/>
<path transform="matrix(0,.1,.1,0,-299,-154)" stroke-width="9.23334" stroke-linecap="butt" stroke-miterlimit="10" stroke-linejoin="miter" fill="none" stroke="#000000" d="M 1672.54 7115.09 L 1928.88 7115.09 "/>
<path transform="matrix(0,.1,.1,0,-299,-154)" stroke-width="9.23334" stroke-linecap="butt" stroke-miterlimit="10" stroke-linejoin="miter" fill="none" stroke="#000000" d="M 1649.45 7283.62 L 1649.45 7138.17 "/>
<path transform="matrix(0,.1,.1,0,-299,-154)" stroke-width="9.23334" stroke-linecap="butt" stroke-miterlimit="10" stroke-linejoin="miter" fill="none" stroke="#000000" d="M 1977.85 3192.05 L 1977.85 2998.21 "/>
<path transform="matrix(0,.1,.1,0,-299,-154)" stroke-width="9.23334" stroke-linecap="butt" stroke-miterlimit="10" stroke-linejoin="miter" fill="none" stroke="#000000" d="M 2000.93 3215.14 L 2213.09 3215.14 "/>
<path transform="matrix(0,.1,.1,0,-299,-154)" stroke-width="9.23334" stroke-linecap="butt" stroke-miterlimit="10" stroke-linejoin="miter" fill="none" stroke="#000000" d="M 1977.85 3449.96 L 1977.85 3238.22 "/>
<path transform="matrix(0,.1,.1,0,-299,-154)" stroke-width="9.23334" stroke-linecap="butt" stroke-miterlimit="10" stroke-linejoin="miter" fill="none" stroke="#000000" d="M 1977.85 4033.64 L 1977.85 3804.7 "/>
<path transform="matrix(0,.1,.1,0,-299,-154)" stroke-width="9.23334" stroke-linecap="butt" stroke-miterlimit="10" stroke-linejoin="miter" fill="none" stroke="#000000" d="M 1977.85 4275.18 L 1977.85 4033.64 "/>
<path transform="matrix(0,.1,.1,0,-299,-154)" stroke-width="9.23334" stroke-linecap="butt" stroke-miterlimit="10" stroke-linejoin="miter" fill="none" stroke="#000000" d="M 2000.93 4298.26 L 2257.28 4298.26 "/>
<path transform="matrix(0,.1,.1,0,-299,-154)" stroke-width="9.23334" stroke-linecap="butt" stroke-miterlimit="10" stroke-linejoin="miter" fill="none" stroke="#000000" d="M 1977.85 4561.5 L 1977.85 4321.35 "/>
<path transform="matrix(0,.1,.1,0,-299,-154)" stroke-width="9.23334" stroke-linecap="butt" stroke-miterlimit="10" stroke-linejoin="miter" fill="none" stroke="#000000" d="M 1977.85 4824.75 L 1977.85 4561.5 "/>
<path transform="matrix(0,.1,.1,0,-299,-154)" stroke-width="9.23334" stroke-linecap="butt" stroke-miterlimit="10" stroke-linejoin="miter" fill="none" stroke="#000000" d="M 1977.85 5114.76 L 1977.85 4824.75 "/>
<path transform="matrix(0,.1,.1,0,-299,-154)" stroke-width="9.23334" stroke-linecap="butt" stroke-miterlimit="10" stroke-linejoin="miter" fill="none" stroke="#000000" d="M 1977.85 5381.7 L 1977.85 5114.76 "/>
<path transform="matrix(0,.1,.1,0,-299,-154)" stroke-width="9.23334" stroke-linecap="butt" stroke-miterlimit="10" stroke-linejoin="miter" fill="none" stroke="#000000" d="M 2000.93 5404.78 L 2257.28 5404.78 "/>
<path transform="matrix(0,.1,.1,0,-299,-154)" stroke-width="9.23334" stroke-linecap="butt" stroke-miterlimit="10" stroke-linejoin="miter" fill="none" stroke="#000000" d="M 1977.85 5668.02 L 1977.85 5427.86 "/>
<path transform="matrix(0,.1,.1,0,-299,-154)" stroke-width="9.23334" stroke-linecap="butt" stroke-miterlimit="10" stroke-linejoin="miter" fill="none" stroke="#000000" d="M 1977.85 5931.26 L 1977.85 5668.02 "/>
<path transform="matrix(0,.1,.1,0,-299,-154)" stroke-width="9.23334" stroke-linecap="butt" stroke-miterlimit="10" stroke-linejoin="miter" fill="none" stroke="#000000" d="M 1977.85 6099.79 L 1977.85 5931.26 "/>
<path transform="matrix(0,.1,.1,0,-299,-154)" stroke-width="9.23334" stroke-linecap="butt" stroke-miterlimit="10" stroke-linejoin="miter" fill="none" stroke="#000000" d="M 1977.85 6474.2 L 1977.85 6354.65 "/>
<path transform="matrix(0,.1,.1,0,-299,-154)" stroke-width="9.23334" stroke-linecap="butt" stroke-miterlimit="10" stroke-linejoin="miter" fill="none" stroke="#000000" d="M 1977.85 6691.7 L 1977.85 6572.14 "/>
<path transform="matrix(0,.1,.1,0,-299,-154)" stroke-width="9.23334" stroke-linecap="butt" stroke-miterlimit="10" stroke-linejoin="miter" fill="none" stroke="#000000" d="M 1977.85 7066.12 L 1977.85 6946.56 "/>
<path transform="matrix(0,.1,.1,0,-299,-154)" stroke-width="9.23334" stroke-linecap="butt" stroke-miterlimit="10" stroke-linejoin="miter" fill="none" stroke="#000000" d="M 1977.85 7283.62 L 1977.85 7164.06 "/>
<path transform="matrix(0,.1,.1,0,-299,-154)" stroke-width="9.23334" stroke-linecap="butt" stroke-miterlimit="10" stroke-linejoin="miter" fill="none" stroke="#000000" d="M 2306.25 3113.16 L 2306.25 2998.21 "/>
<path transform="matrix(0,.1,.1,0,-299,-154)" stroke-width="9.23334" stroke-linecap="butt" stroke-miterlimit="10" stroke-linejoin="miter" fill="none" stroke="#000000" d="M 2306.25 3449.96 L 2306.25 3317.12 "/>
<path transform="matrix(0,.1,.1,0,-299,-154)" stroke-width="9.23334" stroke-linecap="butt" stroke-miterlimit="10" stroke-linejoin="miter" fill="none" stroke="#000000" d="M 2306.25 3937.54 L 2306.25 3804.7 "/>
<path transform="matrix(0,.1,.1,0,-299,-154)" stroke-width="9.23334" stroke-linecap="butt" stroke-miterlimit="10" stroke-linejoin="miter" fill="none" stroke="#000000" d="M 2306.25 4249.29 L 2306.25 4129.73 "/>
<path transform="matrix(0,.1,.1,0,-299,-154)" stroke-width="9.23334" stroke-linecap="butt" stroke-miterlimit="10" stroke-linejoin="miter" fill="none" stroke="#000000" d="M 2306.25 4466.79 L 2306.25 4347.23 "/>
<path transform="matrix(0,.1,.1,0,-299,-154)" stroke-width="9.23334" stroke-linecap="butt" stroke-miterlimit="10" stroke-linejoin="miter" fill="none" stroke="#000000" d="M 2306.25 4775.77 L 2306.25 4656.21 "/>
<path transform="matrix(0,.1,.1,0,-299,-154)" stroke-width="9.23334" stroke-linecap="butt" stroke-miterlimit="10" stroke-linejoin="miter" fill="none" stroke="#000000" d="M 2306.25 4993.27 L 2306.25 4873.71 "/>
<path transform="matrix(0,.1,.1,0,-299,-154)" stroke-width="9.23334" stroke-linecap="butt" stroke-miterlimit="10" stroke-linejoin="miter" fill="none" stroke="#000000" d="M 2306.25 5355.81 L 2306.25 5236.25 "/>
<path transform="matrix(0,.1,.1,0,-299,-154)" stroke-width="9.23334" stroke-linecap="butt" stroke-miterlimit="10" stroke-linejoin="miter" fill="none" stroke="#000000" d="M 2306.25 5573.31 L 2306.25 5453.75 "/>
<path transform="matrix(0,.1,.1,0,-299,-154)" stroke-width="9.23334" stroke-linecap="butt" stroke-miterlimit="10" stroke-linejoin="miter" fill="none" stroke="#000000" d="M 2306.25 5882.29 L 2306.25 5762.73 "/>
<path transform="matrix(0,.1,.1,0,-299,-154)" stroke-width="9.23334" stroke-linecap="butt" stroke-miterlimit="10" stroke-linejoin="miter" fill="none" stroke="#000000" d="M 2306.25 6128.07 L 2306.25 5980.23 "/>
<path transform="matrix(0,.1,.1,0,-299,-154)" stroke-width="9.23334" stroke-linecap="butt" stroke-miterlimit="10" stroke-linejoin="miter" fill="none" stroke="#000000" d="M 2306.25 6523.18 L 2306.25 6326.36 "/>
<path transform="matrix(0,.1,.1,0,-299,-154)" stroke-width="9.23334" stroke-linecap="butt" stroke-miterlimit="10" stroke-linejoin="miter" fill="none" stroke="#000000" d="M 2306.25 6819.13 L 2306.25 6523.18 "/>
<path transform="matrix(0,.1,.1,0,-299,-154)" stroke-width="9.23334" stroke-linecap="butt" stroke-miterlimit="10" stroke-linejoin="miter" fill="none" stroke="#000000" d="M 2306.25 7115.09 L 2306.25 6819.13 "/>
<path transform="matrix(0,.1,.1,0,-299,-154)" stroke-width="9.23334" stroke-linecap="butt" stroke-miterlimit="10" stroke-linejoin="miter" fill="none" stroke="#000000" d="M 2306.25 7283.62 L 2306.25 7115.09 "/>
<symbol id="font_7_2">
<path d="M 0 0 L .504 0 L .504 .08 L 0 .08 L 0 0 M 0 .202 L .504 .202 L .504 .282 L 0 .282 L 0 .202 Z "/>
</symbol>
<use xlink:href="#font_7_2" transform="matrix(12.8804,0,0,-12.8804,60.4889,44.876398)"/>
<path transform="matrix(0,.1,.1,0,-299,-154)" d="M 1546.46 6691.7 L 1752.4519 6691.7 L 1752.4519 6946.555 L 1546.46 6946.555 Z " fill="#ffffff"/>
<path transform="matrix(0,.1,.1,0,-299,-154)" stroke-width="9.23334" stroke-linecap="butt" stroke-miterlimit="10" stroke-linejoin="miter" fill="none" stroke="#000000" d="M 1546.46 6691.7 L 1752.4519 6691.7 L 1752.4519 6946.555 L 1546.46 6946.555 Z "/>
<symbol id="font_8_4">
<path d="M .28 .31800003 L .298 .31800003 C .48400004 .31800003 .51900008 .323 .587 .35900004 C .657 .397 .69600006 .462 .69600006 .541 C .69600006 .60300007 .67 .65300008 .62200006 .68600007 C .58500006 .711 .532 .72200009 .449 .72200009 L .15400002 .72200009 L .148 .675 L .174 .675 C .23900002 .675 .25300003 .67 .25300003 .648 C .25300003 .64000007 .24900002 .619 .24400002 .59900006 L .116000007 .123 C .102000009 .069000009 .101 .069000009 .093 .061000006 C .082 .051000004 .059 .047000003 .009999998 .047000003 L .004999999 .047000003 L 0 0 L .31800003 0 L .323 .047000003 L .297 .047000003 C .23200003 .047000003 .218 .052 .218 .074 C .218 .082 .218 .082 .22800002 .123 L .28 .31800003 M .293 .365 L .363 .62700006 C .373 .665 .386 .675 .42700003 .675 L .439 .675 C .544 .675 .584 .64100006 .584 .55200007 C .584 .503 .568 .45600004 .541 .42200003 C .51500007 .39000003 .479 .372 .42400003 .367 C .41 .365 .41 .365 .312 .365 L .293 .365 Z "/>
</symbol>
<use xlink:href="#font_8_4" transform="matrix(12.8805,0,0,-12.8805,374.63795,14.451996)"/>
<symbol id="font_9_1">
<path d="M .42700003 .28100003 L .57800009 .50200006 L .505 .50200006 L .423 .34300003 C .423 .47700004 .386 .51400008 .278 .51400008 C .08500001 .51400008 0 .308 0 .163 C 0 .076000008 .038000004 0 .147 0 C .22100002 0 .28300003 .07300001 .32700003 .136 C .326 .126 .326 .116000007 .326 .106000009 C .326 .076000008 .33 .048 .342 .028 C .35300002 .01 .36600004 0 .38900004 0 C .41300003 0 .447 .007999999 .47300003 .028 C .492 .043 .531 .080000009 .55799999 .144 L .53400006 .158 C .508 .10700001 .46600006 .052 .44400005 .052 C .416 .052 .416 .10400001 .416 .128 C .416 .172 .421 .23 .42700003 .28100003 M .33200003 .213 C .28 .12900001 .22800002 .054000006 .162 .054000006 C .112 .054000006 .096 .10400001 .096 .16 C .096 .276 .158 .479 .279 .479 C .32700003 .479 .34100003 .41300003 .34100003 .338 C .34100003 .296 .337 .25100003 .33200003 .213 Z "/>
</symbol>
<use xlink:href="#font_9_1" transform="matrix(9.34872,0,0,-9.34872,384.63716,16.641528)"/>
<path transform="matrix(0,.1,.1,0,-299,-154)" d="M 1874.86 6099.79 L 2080.852 6099.79 L 2080.852 6354.642 L 1874.86 6354.642 Z " fill="#ffffff"/>
<path transform="matrix(0,.1,.1,0,-299,-154)" stroke-width="9.23334" stroke-linecap="butt" stroke-miterlimit="10" stroke-linejoin="miter" fill="none" stroke="#000000" d="M 1874.86 6099.79 L 2080.852 6099.79 L 2080.852 6354.642 L 1874.86 6354.642 Z "/>
<use xlink:href="#font_8_4" transform="matrix(12.8805,0,0,-12.8805,315.44593,47.292009)"/>
<use xlink:href="#font_9_1" transform="matrix(9.34872,0,0,-9.34872,325.44514,49.48154)"/>
<path transform="matrix(0,.1,.1,0,-299,-154)" d="M 1851.23 6691.7 L 2104.476 6691.7 L 2104.476 6946.555 L 1851.23 6946.555 Z " fill="#ffffff"/>
<path transform="matrix(0,.1,.1,0,-299,-154)" stroke-width="9.23334" stroke-linecap="butt" stroke-miterlimit="10" stroke-linejoin="miter" fill="none" stroke="#000000" d="M 1851.23 6691.7 L 2104.476 6691.7 L 2104.476 6946.555 L 1851.23 6946.555 Z "/>
<use xlink:href="#font_8_4" transform="matrix(12.8805,0,0,-12.8805,374.63795,49.054)"/>
<symbol id="font_7_1">
<path d="M .19100002 0 L .22500003 0 L .22500003 .08400001 C .22500003 .24800001 .23700002 .34600003 .27 .43600006 C .236 .485 .22500003 .52900007 .22500003 .62100008 C .25500003 .62100008 .268 .61800006 .29900003 .605 C .33900003 .587 .34600003 .58500006 .36200003 .58500006 C .393 .58500006 .416 .60800006 .416 .64000007 C .416 .66800007 .395 .69 .36600004 .69 C .351 .69 .34800003 .689 .298 .669 C .266 .657 .254 .65400007 .22500003 .653 C .22500003 .695 .23000002 .727 .24700001 .769 C .259 .801 .261 .81 .261 .82500007 C .261 .859 .24100003 .88100007 .208 .88100007 C .17500001 .88100007 .15500002 .859 .15500002 .82500007 C .15500002 .81 .158 .8 .16900002 .769 C .186 .726 .19100002 .697 .19100002 .653 C .16200002 .65400007 .15 .657 .118 .669 C .068 .689 .065 .69 .05 .69 C .021000002 .69 0 .669 0 .64000007 C 0 .60800006 .022999999 .58500006 .054 .58500006 C .07000001 .58500006 .07700001 .587 .11700001 .605 C .148 .61800006 .16100002 .62100008 .19100002 .62100008 C .19100002 .531 .18 .485 .14600002 .43600006 C .179 .34600003 .19100002 .24900002 .19100002 .08400001 L .19100002 0 Z "/>
</symbol>
<use xlink:href="#font_7_1" transform="matrix(9.55655,0,0,-9.55655,385.04014,44.08522)"/>
<use xlink:href="#font_9_1" transform="matrix(9.34872,0,0,-9.34872,384.63716,51.84354)"/>
<path transform="matrix(0,.1,.1,0,-299,-154)" d="M 2209.64 3113.16 L 2402.847 3113.16 L 2402.847 3317.125 L 2209.64 3317.125 Z " fill="#ffffff"/>
<path transform="matrix(0,.1,.1,0,-299,-154)" stroke-width="9.23334" stroke-linecap="butt" stroke-miterlimit="10" stroke-linejoin="miter" fill="none" stroke="#000000" d="M 2209.64 3113.16 L 2402.847 3113.16 L 2402.847 3317.125 L 2209.64 3317.125 Z "/>
<symbol id="font_8_5">
<path d="M .0069999995 .69 L .031999999 .69 C .09700001 .69 .11100001 .685 .11100001 .663 C .11100001 .65500006 .107 .634 .102000009 .614 L .020000004 .30900003 C .0040000008 .25100003 0 .22500001 0 .19100002 C 0 .067 .087000008 0 .25000004 0 C .30100004 0 .35100005 .008 .39000003 .023000002 C .45500005 .048 .49400003 .091000009 .52500006 .172 C .53900006 .207 .53900006 .207 .56600007 .30900003 L .62200006 .52 C .665 .675 .674 .686 .762 .69 L .767 .73700007 L .504 .73700007 L .49800004 .69 C .56200006 .69100007 .591 .67300006 .591 .635 C .591 .61300006 .59000006 .609 .568 .52 L .51000007 .305 C .481 .194 .46900005 .16100002 .44500006 .127 C .40600003 .071 .34800003 .043 .27100004 .043 C .16900003 .043 .11000001 .093 .11000001 .178 C .11000001 .20400001 .117000009 .25300003 .124000009 .28100003 L .21400002 .614 C .22800002 .66800007 .22800002 .66800007 .23700002 .676 C .24700001 .686 .27100004 .69 .32000003 .69 L .32400004 .69 L .33 .73700007 L .012000002 .73700007 L .0069999995 .69 Z "/>
</symbol>
<use xlink:href="#font_8_5" transform="matrix(12.8805,0,0,-12.8805,17.717877,81.309207)"/>
<path transform="matrix(0,.1,.1,0,-299,-154)" d="M 2209.64 3937.03 L 2402.847 3937.03 L 2402.847 4130.241 L 2209.64 4130.241 Z " fill="#ffffff"/>
<path transform="matrix(0,.1,.1,0,-299,-154)" stroke-width="9.23334" stroke-linecap="butt" stroke-miterlimit="10" stroke-linejoin="miter" fill="none" stroke="#000000" d="M 2209.64 3937.03 L 2402.847 3937.03 L 2402.847 4130.241 L 2209.64 4130.241 Z "/>
<symbol id="font_8_3">
<path d="M .577 .672 C .529 .72900006 .47800002 .75200006 .40200005 .75200006 C .29200004 .75200006 .192 .70000007 .112 .6 C .038 .51000007 0 .40600003 0 .29500003 C 0 .117000009 .116 0 .29400004 0 C .38200004 0 .45700003 .031000002 .514 .09 C .545 .12200001 .568 .15900001 .594 .22000002 L .55300006 .238 C .528 .185 .514 .16100002 .49600003 .14 C .44600005 .078 .38600005 .049000004 .31100003 .049000004 C .249 .049000004 .201 .069000009 .171 .108 C .141 .14500001 .125 .19800002 .125 .255 C .125 .36900003 .165 .50100007 .228 .598 C .27400003 .669 .34100003 .709 .41000004 .709 C .47600005 .709 .523 .675 .55 .60800006 C .566 .57100006 .573 .527 .57600006 .45000006 L .617 .45000006 L .67300006 .73 L .637 .73 L .577 .672 Z "/>
</symbol>
<use xlink:href="#font_8_3" transform="matrix(12.8805,0,0,-12.8805,100.02621,81.42621)"/>
<path transform="matrix(0,.1,.1,0,-299,-154)" d="M 2209.64 4464.9 L 2402.847 4464.9 L 2402.847 4658.111 L 2209.64 4658.111 Z " fill="#ffffff"/>
<path transform="matrix(0,.1,.1,0,-299,-154)" stroke-width="9.23334" stroke-linecap="butt" stroke-miterlimit="10" stroke-linejoin="miter" fill="none" stroke="#000000" d="M 2209.64 4464.9 L 2402.847 4464.9 L 2402.847 4658.111 L 2209.64 4658.111 Z "/>
<symbol id="font_8_2">
<path d="M .154 .72200009 L .148 .675 L .17400001 .675 C .23900001 .675 .25300003 .67 .25300003 .648 C .25300003 .64000007 .24900002 .619 .24400002 .59900006 L .116000007 .123 C .102000009 .069000009 .101 .069000009 .093 .061000006 C .083000008 .052 .058000003 .047000003 .02 .047000003 L .005000001 .047000003 L 0 0 L .363 0 C .43600003 0 .497 .009000001 .53700008 .027 C .614 .060000004 .6610001 .128 .6610001 .20600002 C .6610001 .28500004 .6100001 .33900003 .504 .37100003 C .55300006 .38000003 .58300009 .39000003 .61600008 .41000004 C .669 .44200004 .69900009 .49500004 .69900009 .555 C .69900009 .61300006 .669 .66300007 .61800006 .69100007 C .577 .71400007 .53300008 .72200009 .455 .72200009 L .154 .72200009 M .3 .39400003 L .358 .60700008 C .374 .66800007 .382 .675 .433 .675 L .462 .675 C .544 .675 .58000007 .643 .58000007 .57000008 C .58000007 .514 .55600008 .46 .517 .43 C .485 .40500004 .442 .39400003 .38300003 .39400003 L .3 .39400003 M .288 .347 L .351 .347 C .39900003 .347 .44500003 .34100003 .467 .33200003 C .513 .31300003 .53900006 .27400003 .53900006 .22500001 C .53900006 .17300001 .51500007 .120000008 .477 .087000008 C .447 .061000006 .398 .047000003 .338 .047000003 L .288 .047000003 C .23400001 .047000003 .21800001 .053000004 .21800001 .074 C .21800001 .082 .22000002 .094000007 .224 .109000008 L .288 .347 Z "/>
</symbol>
<use xlink:href="#font_8_2" transform="matrix(12.8805,0,0,-12.8805,152.03672,81.218997)"/>
<path transform="matrix(0,.1,.1,0,-299,-154)" d="M 2200.09 4993.27 L 2412.3992 4993.27 L 2412.3992 5236.25 L 2200.09 5236.25 Z " fill="#ffffff"/>
<path transform="matrix(0,.1,.1,0,-299,-154)" stroke-width="9.23334" stroke-linecap="butt" stroke-miterlimit="10" stroke-linejoin="miter" fill="none" stroke="#000000" d="M 2200.09 4993.27 L 2412.3992 4993.27 L 2412.3992 5236.25 L 2200.09 5236.25 Z "/>
<use xlink:href="#font_8_2" transform="matrix(12.8805,0,0,-12.8805,204.68372,82.623)"/>
<use xlink:href="#font_7_1" transform="matrix(9.55655,0,0,-9.55655,215.0738,78.97101)"/>
<path transform="matrix(0,.1,.1,0,-299,-154)" d="M 2209.64 5571.42 L 2402.847 5571.42 L 2402.847 5764.627 L 2209.64 5764.627 Z " fill="#ffffff"/>
<path transform="matrix(0,.1,.1,0,-299,-154)" stroke-width="9.23334" stroke-linecap="butt" stroke-miterlimit="10" stroke-linejoin="miter" fill="none" stroke="#000000" d="M 2209.64 5571.42 L 2402.847 5571.42 L 2402.847 5764.627 L 2209.64 5764.627 Z "/>
<use xlink:href="#font_8_2" transform="matrix(12.8805,0,0,-12.8805,262.6867,81.218997)"/>
<path transform="matrix(0,.1,.1,0,-299,-154)" d="M 2209.64 6128.07 L 2402.847 6128.07 L 2402.847 6326.359 L 2209.64 6326.359 Z " fill="#ffffff"/>
<path transform="matrix(0,.1,.1,0,-299,-154)" stroke-width="9.23334" stroke-linecap="butt" stroke-miterlimit="10" stroke-linejoin="miter" fill="none" stroke="#000000" d="M 2209.64 6128.07 L 2402.847 6128.07 L 2402.847 6326.359 L 2209.64 6326.359 Z "/>
<symbol id="font_8_1">
<path d="M .52400007 .73700007 L .48300005 .73700007 L .153 .16800002 C .1 .080000009 .059 .047000003 .004999995 .047000003 L 0 0 L .269 0 L .275 .047000003 L .25100003 .047000003 C .199 .047000003 .18200001 .057000005 .18200001 .087000008 C .18200001 .102000009 .18800001 .12200001 .20000002 .142 L .255 .238 L .51000007 .238 L .53300008 .115 C .535 .10300001 .537 .09 .537 .083000008 C .537 .054 .522 .047000003 .46500004 .047000003 L .449 .047000003 L .444 0 L .74500009 0 L .75000008 .047000003 L .725 .047000003 C .67 .047000003 .65900006 .056 .64900007 .108 L .52400007 .73700007 M .50200006 .28500004 L .282 .28500004 L .445 .572 L .50200006 .28500004 Z "/>
</symbol>
<use xlink:href="#font_8_1" transform="matrix(12.8805,0,0,-12.8805,318.33583,81.337009)"/>
</g>
</g>
</svg>
