<?xml version="1.0" encoding="UTF-8" standalone="no"?>
<!DOCTYPE svg PUBLIC "-//W3C//DTD SVG 1.1//EN" "http://www.w3.org/Graphics/SVG/1.1/DTD/svg11.dtd">
<svg xmlns="http://www.w3.org/2000/svg" xmlns:xlink="http://www.w3.org/1999/xlink" version="1.1" width="321pt" height="47pt" viewBox="0 0 321 47">
<g enable-background="new">
<clipPath id="cp0">
<path transform="matrix(0,1,1,0,-299,-154)" d="M 0 0 L 709 0 L 709 1001 L 0 1001 Z "/>
</clipPath>
<g clip-path="url(#cp0)">
<path transform="matrix(0,.1,.1,0,-299,-154)" d="M 1569.54 3497.39 C 1556.79 3497.39 1546.46 3487.06 1546.46 3474.31 C 1546.46 3461.56 1556.79 3451.23 1569.54 3451.23 C 1582.29 3451.23 1592.63 3461.56 1592.63 3474.31 C 1592.63 3487.06 1582.29 3497.39 1569.54 3497.39 Z M 1569.54 3474.31 "/>
<path transform="matrix(0,.1,.1,0,-299,-154)" d="M 1569.54 4080.61 C 1556.79 4080.61 1546.46 4070.27 1546.46 4057.52 C 1546.46 4044.77 1556.79 4034.44 1569.54 4034.44 C 1582.29 4034.44 1592.63 4044.77 1592.63 4057.52 C 1592.63 4070.27 1582.29 4080.61 1569.54 4080.61 Z M 1569.54 4057.52 "/>
<path transform="matrix(0,.1,.1,0,-299,-154)" d="M 1569.54 5169.29 C 1556.79 5169.29 1546.46 5158.96 1546.46 5146.21 C 1546.46 5133.46 1556.79 5123.13 1569.54 5123.13 C 1582.29 5123.13 1592.63 5133.46 1592.63 5146.21 C 1592.63 5158.96 1582.29 5169.29 1569.54 5169.29 Z M 1569.54 5146.21 "/>
<path transform="matrix(0,.1,.1,0,-299,-154)" d="M 1569.54 5752.5 C 1556.79 5752.5 1546.46 5742.17 1546.46 5729.42 C 1546.46 5716.67 1556.79 5706.34 1569.54 5706.34 C 1582.29 5706.34 1592.63 5716.67 1592.63 5729.42 C 1592.63 5742.17 1582.29 5752.5 1569.54 5752.5 Z M 1569.54 5729.42 "/>
<clipPath id="cp1">
<path transform="matrix(0,.1,.1,0,-299,-154)" d="M 1897.94 3523.28 C 1870.89 3523.28 1848.97 3501.36 1848.97 3474.31 C 1848.97 3447.27 1870.89 3425.34 1897.94 3425.34 C 1924.99 3425.34 1946.91 3447.27 1946.91 3474.31 C 1946.91 3501.36 1924.99 3523.28 1897.94 3523.28 Z M 1897.94 3474.31 "/>
</clipPath>
<g clip-path="url(#cp1)">
<path transform="matrix(0,.1,.1,0,-299,-154)" stroke-width="9.23334" stroke-linecap="butt" stroke-miterlimit="10" stroke-linejoin="miter" fill="none" stroke="#000000" d="M 1848.97 3474.31 L 1946.91 3474.31 M 1897.94 3425.34 L 1897.94 3523.28 "/>
</g>
<path transform="matrix(0,.1,.1,0,-299,-154)" stroke-width="9.23334" stroke-linecap="butt" stroke-miterlimit="10" stroke-linejoin="miter" fill="none" stroke="#000000" d="M 1897.94 3523.28 C 1870.89 3523.28 1848.97 3501.36 1848.97 3474.31 C 1848.97 3447.27 1870.89 3425.34 1897.94 3425.34 C 1924.99 3425.34 1946.91 3447.27 1946.91 3474.31 C 1946.91 3501.36 1924.99 3523.28 1897.94 3523.28 Z M 1897.94 3474.31 "/>
<clipPath id="cp2">
<path transform="matrix(0,.1,.1,0,-299,-154)" d="M 1897.94 4106.49 C 1870.89 4106.49 1848.97 4084.57 1848.97 4057.52 C 1848.97 4030.48 1870.89 4008.55 1897.94 4008.55 C 1924.99 4008.55 1946.91 4030.48 1946.91 4057.52 C 1946.91 4084.57 1924.99 4106.49 1897.94 4106.49 Z M 1897.94 4057.52 "/>
</clipPath>
<g clip-path="url(#cp2)">
<path transform="matrix(0,.1,.1,0,-299,-154)" stroke-width="9.23334" stroke-linecap="butt" stroke-miterlimit="10" stroke-linejoin="miter" fill="none" stroke="#000000" d="M 1848.97 4057.52 L 1946.91 4057.52 M 1897.94 4008.55 L 1897.94 4106.49 "/>
</g>
<path transform="matrix(0,.1,.1,0,-299,-154)" stroke-width="9.23334" stroke-linecap="butt" stroke-miterlimit="10" stroke-linejoin="miter" fill="none" stroke="#000000" d="M 1897.94 4106.49 C 1870.89 4106.49 1848.97 4084.57 1848.97 4057.52 C 1848.97 4030.48 1870.89 4008.55 1897.94 4008.55 C 1924.99 4008.55 1946.91 4030.48 1946.91 4057.52 C 1946.91 4084.57 1924.99 4106.49 1897.94 4106.49 Z M 1897.94 4057.52 "/>
<clipPath id="cp3">
<path transform="matrix(0,.1,.1,0,-299,-154)" d="M 1897.94 5195.18 C 1870.89 5195.18 1848.97 5173.25 1848.97 5146.21 C 1848.97 5119.16 1870.89 5097.24 1897.94 5097.24 C 1924.99 5097.24 1946.91 5119.16 1946.91 5146.21 C 1946.91 5173.25 1924.99 5195.18 1897.94 5195.18 Z M 1897.94 5146.21 "/>
</clipPath>
<g clip-path="url(#cp3)">
<path transform="matrix(0,.1,.1,0,-299,-154)" stroke-width="9.23334" stroke-linecap="butt" stroke-miterlimit="10" stroke-linejoin="miter" fill="none" stroke="#000000" d="M 1848.97 5146.21 L 1946.91 5146.21 M 1897.94 5097.24 L 1897.94 5195.18 "/>
</g>
<path transform="matrix(0,.1,.1,0,-299,-154)" stroke-width="9.23334" stroke-linecap="butt" stroke-miterlimit="10" stroke-linejoin="miter" fill="none" stroke="#000000" d="M 1897.94 5195.18 C 1870.89 5195.18 1848.97 5173.25 1848.97 5146.21 C 1848.97 5119.16 1870.89 5097.24 1897.94 5097.24 C 1924.99 5097.24 1946.91 5119.16 1946.91 5146.21 C 1946.91 5173.25 1924.99 5195.18 1897.94 5195.18 Z M 1897.94 5146.21 "/>
<clipPath id="cp4">
<path transform="matrix(0,.1,.1,0,-299,-154)" d="M 1897.94 5778.39 C 1870.89 5778.39 1848.97 5756.46 1848.97 5729.42 C 1848.97 5702.37 1870.89 5680.45 1897.94 5680.45 C 1924.99 5680.45 1946.91 5702.37 1946.91 5729.42 C 1946.91 5756.46 1924.99 5778.39 1897.94 5778.39 Z M 1897.94 5729.42 "/>
</clipPath>
<g clip-path="url(#cp4)">
<path transform="matrix(0,.1,.1,0,-299,-154)" stroke-width="9.23334" stroke-linecap="butt" stroke-miterlimit="10" stroke-linejoin="miter" fill="none" stroke="#000000" d="M 1848.97 5729.42 L 1946.91 5729.42 M 1897.94 5680.45 L 1897.94 5778.39 "/>
</g>
<path transform="matrix(0,.1,.1,0,-299,-154)" stroke-width="9.23334" stroke-linecap="butt" stroke-miterlimit="10" stroke-linejoin="miter" fill="none" stroke="#000000" d="M 1897.94 5778.39 C 1870.89 5778.39 1848.97 5756.46 1848.97 5729.42 C 1848.97 5702.37 1870.89 5680.45 1897.94 5680.45 C 1924.99 5680.45 1946.91 5702.37 1946.91 5729.42 C 1946.91 5756.46 1924.99 5778.39 1897.94 5778.39 Z M 1897.94 5729.42 "/>
<path transform="matrix(0,.1,.1,0,-299,-154)" stroke-width="9.23334" stroke-linecap="butt" stroke-miterlimit="10" stroke-linejoin="miter" fill="none" stroke="#000000" d="M 1569.55 3209.46 L 1569.55 2998.21 "/>
<path transform="matrix(0,.1,.1,0,-299,-154)" stroke-width="9.23334" stroke-linecap="butt" stroke-miterlimit="10" stroke-linejoin="miter" fill="none" stroke="#000000" d="M 1569.55 3451.21 L 1569.55 3209.46 "/>
<path transform="matrix(0,.1,.1,0,-299,-154)" stroke-width="9.23334" stroke-linecap="butt" stroke-miterlimit="10" stroke-linejoin="miter" fill="none" stroke="#000000" d="M 1592.63 3474.3 L 1848.97 3474.3 "/>
<path transform="matrix(0,.1,.1,0,-299,-154)" stroke-width="9.23334" stroke-linecap="butt" stroke-miterlimit="10" stroke-linejoin="miter" fill="none" stroke="#000000" d="M 1569.55 3765.91 L 1569.55 3497.38 "/>
<path transform="matrix(0,.1,.1,0,-299,-154)" stroke-width="9.23334" stroke-linecap="butt" stroke-miterlimit="10" stroke-linejoin="miter" fill="none" stroke="#000000" d="M 1569.55 4034.43 L 1569.55 3765.91 "/>
<path transform="matrix(0,.1,.1,0,-299,-154)" stroke-width="9.23334" stroke-linecap="butt" stroke-miterlimit="10" stroke-linejoin="miter" fill="none" stroke="#000000" d="M 1592.63 4057.52 L 1848.97 4057.52 "/>
<path transform="matrix(0,.1,.1,0,-299,-154)" stroke-width="9.23334" stroke-linecap="butt" stroke-miterlimit="10" stroke-linejoin="miter" fill="none" stroke="#000000" d="M 1569.55 4226.05 L 1569.55 4080.6 "/>
<path transform="matrix(0,.1,.1,0,-299,-154)" stroke-width="9.23334" stroke-linecap="butt" stroke-miterlimit="10" stroke-linejoin="miter" fill="none" stroke="#000000" d="M 1569.55 4854.61 L 1569.55 4616.58 "/>
<path transform="matrix(0,.1,.1,0,-299,-154)" stroke-width="9.23334" stroke-linecap="butt" stroke-miterlimit="10" stroke-linejoin="miter" fill="none" stroke="#000000" d="M 1569.55 5123.13 L 1569.55 4854.61 "/>
<path transform="matrix(0,.1,.1,0,-299,-154)" stroke-width="9.23334" stroke-linecap="butt" stroke-miterlimit="10" stroke-linejoin="miter" fill="none" stroke="#000000" d="M 1592.63 5146.21 L 1848.97 5146.21 "/>
<path transform="matrix(0,.1,.1,0,-299,-154)" stroke-width="9.23334" stroke-linecap="butt" stroke-miterlimit="10" stroke-linejoin="miter" fill="none" stroke="#000000" d="M 1569.55 5437.83 L 1569.55 5169.3 "/>
<path transform="matrix(0,.1,.1,0,-299,-154)" stroke-width="9.23334" stroke-linecap="butt" stroke-miterlimit="10" stroke-linejoin="miter" fill="none" stroke="#000000" d="M 1569.55 5706.35 L 1569.55 5437.83 "/>
<path transform="matrix(0,.1,.1,0,-299,-154)" stroke-width="9.23334" stroke-linecap="butt" stroke-miterlimit="10" stroke-linejoin="miter" fill="none" stroke="#000000" d="M 1592.63 5729.44 L 1848.97 5729.44 "/>
<path transform="matrix(0,.1,.1,0,-299,-154)" stroke-width="9.23334" stroke-linecap="butt" stroke-miterlimit="10" stroke-linejoin="miter" fill="none" stroke="#000000" d="M 1569.55 5991.22 L 1569.55 5752.52 "/>
<path transform="matrix(0,.1,.1,0,-299,-154)" stroke-width="9.23334" stroke-linecap="butt" stroke-miterlimit="10" stroke-linejoin="miter" fill="none" stroke="#000000" d="M 1569.55 6199.42 L 1569.55 5991.22 "/>
<path transform="matrix(0,.1,.1,0,-299,-154)" stroke-width="9.23334" stroke-linecap="butt" stroke-miterlimit="10" stroke-linejoin="miter" fill="none" stroke="#000000" d="M 1897.94 3113.16 L 1897.94 2998.21 "/>
<path transform="matrix(0,.1,.1,0,-299,-154)" stroke-width="9.23334" stroke-linecap="butt" stroke-miterlimit="10" stroke-linejoin="miter" fill="none" stroke="#000000" d="M 1897.94 3425.32 L 1897.94 3305.77 "/>
<path transform="matrix(0,.1,.1,0,-299,-154)" stroke-width="9.23334" stroke-linecap="butt" stroke-miterlimit="10" stroke-linejoin="miter" fill="none" stroke="#000000" d="M 1897.94 3642.82 L 1897.94 3523.27 "/>
<path transform="matrix(0,.1,.1,0,-299,-154)" stroke-width="9.23334" stroke-linecap="butt" stroke-miterlimit="10" stroke-linejoin="miter" fill="none" stroke="#000000" d="M 1897.94 4008.55 L 1897.94 3888.99 "/>
<path transform="matrix(0,.1,.1,0,-299,-154)" stroke-width="9.23334" stroke-linecap="butt" stroke-miterlimit="10" stroke-linejoin="miter" fill="none" stroke="#000000" d="M 1897.94 4243.95 L 1897.94 4106.49 "/>
<path transform="matrix(0,.1,.1,0,-299,-154)" stroke-width="9.23334" stroke-linecap="butt" stroke-miterlimit="10" stroke-linejoin="miter" fill="none" stroke="#000000" d="M 1897.94 4731.52 L 1897.94 4598.68 "/>
<path transform="matrix(0,.1,.1,0,-299,-154)" stroke-width="9.23334" stroke-linecap="butt" stroke-miterlimit="10" stroke-linejoin="miter" fill="none" stroke="#000000" d="M 1897.94 5097.25 L 1897.94 4977.69 "/>
<path transform="matrix(0,.1,.1,0,-299,-154)" stroke-width="9.23334" stroke-linecap="butt" stroke-miterlimit="10" stroke-linejoin="miter" fill="none" stroke="#000000" d="M 1897.94 5314.75 L 1897.94 5195.19 "/>
<path transform="matrix(0,.1,.1,0,-299,-154)" stroke-width="9.23334" stroke-linecap="butt" stroke-miterlimit="10" stroke-linejoin="miter" fill="none" stroke="#000000" d="M 1897.94 5680.46 L 1897.94 5560.91 "/>
<path transform="matrix(0,.1,.1,0,-299,-154)" stroke-width="9.23334" stroke-linecap="butt" stroke-miterlimit="10" stroke-linejoin="miter" fill="none" stroke="#000000" d="M 1897.94 5897.96 L 1897.94 5778.41 "/>
<path transform="matrix(0,.1,.1,0,-299,-154)" stroke-width="9.23334" stroke-linecap="butt" stroke-miterlimit="10" stroke-linejoin="miter" fill="none" stroke="#000000" d="M 1897.94 6199.42 L 1897.94 6084.48 "/>
<symbol id="font_5_2">
<path d="M 0 0 L .504 0 L .504 .08 L 0 .08 L 0 0 M 0 .202 L .504 .202 L .504 .282 L 0 .282 L 0 .202 Z "/>
</symbol>
<use xlink:href="#font_5_2" transform="matrix(12.8804,0,0,-12.8804,139.88591,20.466393)"/>
<path transform="matrix(0,.1,.1,0,-299,-154)" d="M 1801.34 3112.86 L 1994.547 3112.86 L 1994.547 3306.0672 L 1801.34 3306.0672 Z " fill="#ffffff"/>
<path transform="matrix(0,.1,.1,0,-299,-154)" stroke-width="9.23334" stroke-linecap="butt" stroke-miterlimit="10" stroke-linejoin="miter" fill="none" stroke="#000000" d="M 1801.34 3112.86 L 1994.547 3112.86 L 1994.547 3306.0672 L 1801.34 3306.0672 Z "/>
<symbol id="font_6_2">
<path d="M .686 .72200009 L .088 .72200009 L 0 .46400003 L .040999999 .45800004 C .09 .54700008 .099999997 .564 .127 .59800007 C .16700001 .65000006 .214 .675 .26800005 .675 L .28200004 .675 C .30500005 .675 .31500004 .67 .31500004 .65800008 C .31500004 .65300008 .31300003 .64400008 .31000004 .633 L .17400001 .123 C .16 .07 .15900001 .069000009 .15100001 .061000006 C .14 .051000004 .116 .047000003 .067 .047000003 L .044999999 .047000003 L .040000004 0 L .38600005 0 L .39200003 .047000003 L .35500003 .047000003 C .29000003 .047000003 .27600003 .052 .27600003 .074 C .27600003 .081 .28000004 .104 .28500004 .123 L .41800005 .619 C .43200005 .67 .43700005 .675 .46800003 .675 L .48200003 .675 C .52 .675 .549 .666 .56700006 .65000006 C .59000006 .628 .60400006 .58000007 .60400006 .522 C .60400006 .504 .60400006 .49300004 .602 .45200003 L .644 .44700004 L .686 .72200009 Z "/>
</symbol>
<use xlink:href="#font_6_2" transform="matrix(12.8805,0,0,-12.8805,17.72622,40.389009)"/>
<path transform="matrix(0,.1,.1,0,-299,-154)" d="M 1791.79 3642.82 L 2004.103 3642.82 L 2004.103 3888.9842 L 1791.79 3888.9842 Z " fill="#ffffff"/>
<path transform="matrix(0,.1,.1,0,-299,-154)" stroke-width="9.23334" stroke-linecap="butt" stroke-miterlimit="10" stroke-linejoin="miter" fill="none" stroke="#000000" d="M 1791.79 3642.82 L 2004.103 3642.82 L 2004.103 3888.9842 L 1791.79 3888.9842 Z "/>
<use xlink:href="#font_6_2" transform="matrix(12.8805,0,0,-12.8805,70.69222,41.793)"/>
<symbol id="font_5_1">
<path d="M .19100002 0 L .22500003 0 L .22500003 .08400001 C .22500003 .24800001 .23700002 .34600003 .27 .43600006 C .236 .485 .22500003 .52900007 .22500003 .62100008 C .25500003 .62100008 .268 .61800006 .29900003 .605 C .33900003 .587 .34600003 .58500006 .36200003 .58500006 C .393 .58500006 .416 .60800006 .416 .64000007 C .416 .66800007 .395 .69 .36600004 .69 C .351 .69 .34800003 .689 .298 .669 C .266 .657 .254 .65400007 .22500003 .653 C .22500003 .695 .23000002 .727 .24700001 .769 C .259 .801 .261 .81 .261 .82500007 C .261 .859 .24100003 .88100007 .208 .88100007 C .17500001 .88100007 .15500002 .859 .15500002 .82500007 C .15500002 .81 .158 .8 .16900002 .769 C .186 .726 .19100002 .697 .19100002 .653 C .16200002 .65400007 .15 .657 .118 .669 C .068 .689 .065 .69 .05 .69 C .021000002 .69 0 .669 0 .64000007 C 0 .60800006 .022999999 .58500006 .054 .58500006 C .07000001 .58500006 .07700001 .587 .11700001 .605 C .148 .61800006 .16100002 .62100008 .19100002 .62100008 C .19100002 .531 .18 .485 .14600002 .43600006 C .179 .34600003 .19100002 .24900002 .19100002 .08400001 L .19100002 0 Z "/>
</symbol>
<use xlink:href="#font_5_1" transform="matrix(9.55655,0,0,-9.55655,80.34749,38.141008)"/>
<path transform="matrix(0,.1,.1,0,-299,-154)" d="M 1791.79 4731.52 L 2004.103 4731.52 L 2004.103 4977.684 L 1791.79 4977.684 Z " fill="#ffffff"/>
<path transform="matrix(0,.1,.1,0,-299,-154)" stroke-width="9.23334" stroke-linecap="butt" stroke-miterlimit="10" stroke-linejoin="miter" fill="none" stroke="#000000" d="M 1791.79 4731.52 L 2004.103 4731.52 L 2004.103 4977.684 L 1791.79 4977.684 Z "/>
<use xlink:href="#font_6_2" transform="matrix(12.8805,0,0,-12.8805,179.5612,41.793)"/>
<use xlink:href="#font_5_1" transform="matrix(9.55655,0,0,-9.55655,189.21648,38.141008)"/>
<path transform="matrix(0,.1,.1,0,-299,-154)" d="M 1791.79 5314.75 L 2004.103 5314.75 L 2004.103 5560.91 L 1791.79 5560.91 Z " fill="#ffffff"/>
<path transform="matrix(0,.1,.1,0,-299,-154)" stroke-width="9.23334" stroke-linecap="butt" stroke-miterlimit="10" stroke-linejoin="miter" fill="none" stroke="#000000" d="M 1791.79 5314.75 L 2004.103 5314.75 L 2004.103 5560.91 L 1791.79 5560.91 Z "/>
<use xlink:href="#font_6_2" transform="matrix(12.8805,0,0,-12.8805,237.88222,41.793)"/>
<use xlink:href="#font_5_1" transform="matrix(9.55655,0,0,-9.55655,247.53829,38.141008)"/>
<path transform="matrix(0,.1,.1,0,-299,-154)" d="M 1801.34 5894.62 L 1994.547 5894.62 L 1994.547 6087.827 L 1801.34 6087.827 Z " fill="#ffffff"/>
<path transform="matrix(0,.1,.1,0,-299,-154)" stroke-width="9.23334" stroke-linecap="butt" stroke-miterlimit="10" stroke-linejoin="miter" fill="none" stroke="#000000" d="M 1801.34 5894.62 L 1994.547 5894.62 L 1994.547 6087.827 L 1801.34 6087.827 Z "/>
<symbol id="font_6_1">
<path d="M .632 .73 L .59400007 .73 L .54 .67800006 C .48800005 .72900006 .43100003 .75200006 .358 .75200006 C .223 .75200006 .11800001 .65400007 .11800001 .528 C .11800001 .48300005 .135 .439 .165 .40600003 C .185 .384 .21300002 .36700005 .26500003 .34500004 L .351 .30900003 C .40500004 .287 .41700004 .28100003 .42900003 .273 C .45800004 .25200004 .47300003 .223 .47300003 .186 C .47300003 .101 .402 .043 .29900003 .043 C .23400001 .043 .186 .063 .147 .10700001 C .11000001 .149 .094000007 .19800002 .094000007 .265 C .094000007 .269 .094000007 .282 .095000009 .29300005 L .055000005 .3 L 0 .015000001 L .035 .015000001 L .094000007 .078 C .15 .026 .21900001 0 .3 0 C .45600004 0 .569 .097 .569 .22900002 C .569 .32700003 .527 .37800003 .40800003 .425 L .323 .45900006 C .24400002 .49 .209 .527 .209 .578 C .209 .652 .27600003 .709 .365 .709 C .47100003 .709 .537 .628 .537 .49600006 C .537 .49300004 .537 .485 .536 .476 L .578 .46900005 L .632 .73 Z "/>
</symbol>
<use xlink:href="#font_6_1" transform="matrix(12.8805,0,0,-12.8805,295.688,40.596208)"/>
</g>
</g>
</svg>
