<?xml version="1.0" encoding="UTF-8" standalone="no"?>
<!DOCTYPE svg PUBLIC "-//W3C//DTD SVG 1.1//EN" "http://www.w3.org/Graphics/SVG/1.1/DTD/svg11.dtd">
<svg xmlns="http://www.w3.org/2000/svg" xmlns:xlink="http://www.w3.org/1999/xlink" version="1.1" width="296pt" height="107pt" viewBox="0 0 296 107">
<g enable-background="new">
<clipPath id="cp0">
<path transform="matrix(0,1,1,0,-299,-154)" d="M 0 0 L 709 0 L 709 1001 L 0 1001 Z "/>
</clipPath>
<g clip-path="url(#cp0)">
<path transform="matrix(0,.1,.1,0,-299,-154)" d="M 1821.71 3890.25 C 1808.96 3890.25 1798.63 3879.92 1798.63 3867.17 C 1798.63 3854.42 1808.96 3844.09 1821.71 3844.09 C 1834.46 3844.09 1844.8 3854.42 1844.8 3867.17 C 1844.8 3879.92 1834.46 3890.25 1821.71 3890.25 Z M 1821.71 3867.17 "/>
<path transform="matrix(0,.1,.1,0,-299,-154)" d="M 1821.71 4260.15 C 1808.96 4260.15 1798.63 4249.82 1798.63 4237.07 C 1798.63 4224.32 1808.96 4213.98 1821.71 4213.98 C 1834.46 4213.98 1844.8 4224.32 1844.8 4237.07 C 1844.8 4249.82 1834.46 4260.15 1821.71 4260.15 Z M 1821.71 4237.07 "/>
<path transform="matrix(0,.1,.1,0,-299,-154)" d="M 1821.71 5283.28 C 1808.96 5283.28 1798.63 5272.94 1798.63 5260.2 C 1798.63 5247.45 1808.96 5237.11 1821.71 5237.11 C 1834.46 5237.11 1844.8 5247.45 1844.8 5260.2 C 1844.8 5272.94 1834.46 5283.28 1821.71 5283.28 Z M 1821.71 5260.2 "/>
<path transform="matrix(0,.1,.1,0,-299,-154)" d="M 2150.1 3520.37 C 2137.35 3520.37 2127.02 3510.04 2127.02 3497.29 C 2127.02 3484.54 2137.35 3474.2 2150.1 3474.2 C 2162.85 3474.2 2173.18 3484.54 2173.18 3497.29 C 2173.18 3510.04 2162.85 3520.37 2150.1 3520.37 Z M 2150.1 3497.29 "/>
<clipPath id="cp1">
<path transform="matrix(0,.1,.1,0,-299,-154)" d="M 2150.1 3916.14 C 2123.05 3916.14 2101.13 3894.22 2101.13 3867.17 C 2101.13 3840.13 2123.05 3818.2 2150.1 3818.2 C 2177.15 3818.2 2199.07 3840.13 2199.07 3867.17 C 2199.07 3894.22 2177.15 3916.14 2150.1 3916.14 Z M 2150.1 3867.17 "/>
</clipPath>
<g clip-path="url(#cp1)">
<path transform="matrix(0,.1,.1,0,-299,-154)" stroke-width="9.23334" stroke-linecap="butt" stroke-miterlimit="10" stroke-linejoin="miter" fill="none" stroke="#000000" d="M 2101.13 3867.17 L 2199.07 3867.17 M 2150.1 3818.2 L 2150.1 3916.14 "/>
</g>
<path transform="matrix(0,.1,.1,0,-299,-154)" stroke-width="9.23334" stroke-linecap="butt" stroke-miterlimit="10" stroke-linejoin="miter" fill="none" stroke="#000000" d="M 2150.1 3916.14 C 2123.05 3916.14 2101.13 3894.22 2101.13 3867.17 C 2101.13 3840.13 2123.05 3818.2 2150.1 3818.2 C 2177.15 3818.2 2199.07 3840.13 2199.07 3867.17 C 2199.07 3894.22 2177.15 3916.14 2150.1 3916.14 Z M 2150.1 3867.17 "/>
<clipPath id="cp2">
<path transform="matrix(0,.1,.1,0,-299,-154)" d="M 2150.1 5309.16 C 2123.05 5309.16 2101.13 5287.24 2101.13 5260.2 C 2101.13 5233.15 2123.05 5211.22 2150.1 5211.22 C 2177.15 5211.22 2199.07 5233.15 2199.07 5260.2 C 2199.07 5287.24 2177.15 5309.16 2150.1 5309.16 Z M 2150.1 5260.2 "/>
</clipPath>
<g clip-path="url(#cp2)">
<path transform="matrix(0,.1,.1,0,-299,-154)" stroke-width="9.23334" stroke-linecap="butt" stroke-miterlimit="10" stroke-linejoin="miter" fill="none" stroke="#000000" d="M 2101.13 5260.2 L 2199.07 5260.2 M 2150.1 5211.22 L 2150.1 5309.16 "/>
</g>
<path transform="matrix(0,.1,.1,0,-299,-154)" stroke-width="9.23334" stroke-linecap="butt" stroke-miterlimit="10" stroke-linejoin="miter" fill="none" stroke="#000000" d="M 2150.1 5309.16 C 2123.05 5309.16 2101.13 5287.24 2101.13 5260.2 C 2101.13 5233.15 2123.05 5211.22 2150.1 5211.22 C 2177.15 5211.22 2199.07 5233.15 2199.07 5260.2 C 2199.07 5287.24 2177.15 5309.16 2150.1 5309.16 Z M 2150.1 5260.2 "/>
<path transform="matrix(0,.1,.1,0,-299,-154)" d="M 2150.1 5653.18 C 2137.35 5653.18 2127.02 5642.84 2127.02 5630.09 C 2127.02 5617.34 2137.35 5607.01 2150.1 5607.01 C 2162.85 5607.01 2173.18 5617.34 2173.18 5630.09 C 2173.18 5642.84 2162.85 5653.18 2150.1 5653.18 Z M 2150.1 5630.09 "/>
<clipPath id="cp3">
<path transform="matrix(0,.1,.1,0,-299,-154)" d="M 2478.5 3546.26 C 2451.45 3546.26 2429.53 3524.33 2429.53 3497.29 C 2429.53 3470.24 2451.45 3448.32 2478.5 3448.32 C 2505.55 3448.32 2527.47 3470.24 2527.47 3497.29 C 2527.47 3524.33 2505.55 3546.26 2478.5 3546.26 Z M 2478.5 3497.29 "/>
</clipPath>
<g clip-path="url(#cp3)">
<path transform="matrix(0,.1,.1,0,-299,-154)" stroke-width="9.23334" stroke-linecap="butt" stroke-miterlimit="10" stroke-linejoin="miter" fill="none" stroke="#000000" d="M 2429.53 3497.29 L 2527.47 3497.29 M 2478.5 3448.32 L 2478.5 3546.26 "/>
</g>
<path transform="matrix(0,.1,.1,0,-299,-154)" stroke-width="9.23334" stroke-linecap="butt" stroke-miterlimit="10" stroke-linejoin="miter" fill="none" stroke="#000000" d="M 2478.5 3546.26 C 2451.45 3546.26 2429.53 3524.33 2429.53 3497.29 C 2429.53 3470.24 2451.45 3448.32 2478.5 3448.32 C 2505.55 3448.32 2527.47 3470.24 2527.47 3497.29 C 2527.47 3524.33 2505.55 3546.26 2478.5 3546.26 Z M 2478.5 3497.29 "/>
<clipPath id="cp4">
<path transform="matrix(0,.1,.1,0,-299,-154)" d="M 2478.5 4286.04 C 2451.45 4286.04 2429.53 4264.11 2429.53 4237.07 C 2429.53 4210.02 2451.45 4188.1 2478.5 4188.1 C 2505.55 4188.1 2527.47 4210.02 2527.47 4237.07 C 2527.47 4264.11 2505.55 4286.04 2478.5 4286.04 Z M 2478.5 4237.07 "/>
</clipPath>
<g clip-path="url(#cp4)">
<path transform="matrix(0,.1,.1,0,-299,-154)" stroke-width="9.23334" stroke-linecap="butt" stroke-miterlimit="10" stroke-linejoin="miter" fill="none" stroke="#000000" d="M 2429.53 4237.07 L 2527.47 4237.07 M 2478.5 4188.1 L 2478.5 4286.04 "/>
</g>
<path transform="matrix(0,.1,.1,0,-299,-154)" stroke-width="9.23334" stroke-linecap="butt" stroke-miterlimit="10" stroke-linejoin="miter" fill="none" stroke="#000000" d="M 2478.5 4286.04 C 2451.45 4286.04 2429.53 4264.11 2429.53 4237.07 C 2429.53 4210.02 2451.45 4188.1 2478.5 4188.1 C 2505.55 4188.1 2527.47 4210.02 2527.47 4237.07 C 2527.47 4264.11 2505.55 4286.04 2478.5 4286.04 Z M 2478.5 4237.07 "/>
<clipPath id="cp5">
<path transform="matrix(0,.1,.1,0,-299,-154)" d="M 2478.5 5679.06 C 2451.45 5679.06 2429.53 5657.14 2429.53 5630.09 C 2429.53 5603.04 2451.45 5581.12 2478.5 5581.12 C 2505.55 5581.12 2527.47 5603.04 2527.47 5630.09 C 2527.47 5657.14 2505.55 5679.06 2478.5 5679.06 Z M 2478.5 5630.09 "/>
</clipPath>
<g clip-path="url(#cp5)">
<path transform="matrix(0,.1,.1,0,-299,-154)" stroke-width="9.23334" stroke-linecap="butt" stroke-miterlimit="10" stroke-linejoin="miter" fill="none" stroke="#000000" d="M 2429.53 5630.09 L 2527.47 5630.09 M 2478.5 5581.12 L 2478.5 5679.06 "/>
</g>
<path transform="matrix(0,.1,.1,0,-299,-154)" stroke-width="9.23334" stroke-linecap="butt" stroke-miterlimit="10" stroke-linejoin="miter" fill="none" stroke="#000000" d="M 2478.5 5679.06 C 2451.45 5679.06 2429.53 5657.14 2429.53 5630.09 C 2429.53 5603.04 2451.45 5581.12 2478.5 5581.12 C 2505.55 5581.12 2527.47 5603.04 2527.47 5630.09 C 2527.47 5657.14 2505.55 5679.06 2478.5 5679.06 Z M 2478.5 5630.09 "/>
<path transform="matrix(0,.1,.1,0,-299,-154)" stroke-width="9.23334" stroke-linecap="butt" stroke-miterlimit="10" stroke-linejoin="miter" fill="none" stroke="#000000" d="M 1821.71 3497.27 L 1821.71 3180.96 "/>
<path transform="matrix(0,.1,.1,0,-299,-154)" stroke-width="9.23334" stroke-linecap="butt" stroke-miterlimit="10" stroke-linejoin="miter" fill="none" stroke="#000000" d="M 1821.71 3844.08 L 1821.71 3497.27 "/>
<path transform="matrix(0,.1,.1,0,-299,-154)" stroke-width="9.23334" stroke-linecap="butt" stroke-miterlimit="10" stroke-linejoin="miter" fill="none" stroke="#000000" d="M 1844.79 3867.16 L 2101.14 3867.16 "/>
<path transform="matrix(0,.1,.1,0,-299,-154)" stroke-width="9.23334" stroke-linecap="butt" stroke-miterlimit="10" stroke-linejoin="miter" fill="none" stroke="#000000" d="M 1821.71 4213.97 L 1821.71 3890.25 "/>
<path transform="matrix(0,.1,.1,0,-299,-154)" stroke-width="9.23334" stroke-linecap="butt" stroke-miterlimit="10" stroke-linejoin="miter" fill="none" stroke="#000000" d="M 1844.79 4237.05 L 2429.53 4237.05 "/>
<path transform="matrix(0,.1,.1,0,-299,-154)" stroke-width="9.23334" stroke-linecap="butt" stroke-miterlimit="10" stroke-linejoin="miter" fill="none" stroke="#000000" d="M 1821.71 4553.36 L 1821.71 4260.14 "/>
<path transform="matrix(0,.1,.1,0,-299,-154)" stroke-width="9.23334" stroke-linecap="butt" stroke-miterlimit="10" stroke-linejoin="miter" fill="none" stroke="#000000" d="M 1821.71 5237.12 L 1821.71 4943.9 "/>
<path transform="matrix(0,.1,.1,0,-299,-154)" stroke-width="9.23334" stroke-linecap="butt" stroke-miterlimit="10" stroke-linejoin="miter" fill="none" stroke="#000000" d="M 1844.79 5260.2 L 2101.14 5260.2 "/>
<path transform="matrix(0,.1,.1,0,-299,-154)" stroke-width="9.23334" stroke-linecap="butt" stroke-miterlimit="10" stroke-linejoin="miter" fill="none" stroke="#000000" d="M 1821.71 5630.1 L 1821.71 5283.29 "/>
<path transform="matrix(0,.1,.1,0,-299,-154)" stroke-width="9.23334" stroke-linecap="butt" stroke-miterlimit="10" stroke-linejoin="miter" fill="none" stroke="#000000" d="M 1821.71 5946.41 L 1821.71 5630.1 "/>
<path transform="matrix(0,.1,.1,0,-299,-154)" stroke-width="9.23334" stroke-linecap="butt" stroke-miterlimit="10" stroke-linejoin="miter" fill="none" stroke="#000000" d="M 2150.11 3474.18 L 2150.11 3180.96 "/>
<path transform="matrix(0,.1,.1,0,-299,-154)" stroke-width="9.23334" stroke-linecap="butt" stroke-miterlimit="10" stroke-linejoin="miter" fill="none" stroke="#000000" d="M 2173.19 3497.27 L 2429.53 3497.27 "/>
<path transform="matrix(0,.1,.1,0,-299,-154)" stroke-width="9.23334" stroke-linecap="butt" stroke-miterlimit="10" stroke-linejoin="miter" fill="none" stroke="#000000" d="M 2150.11 3818.19 L 2150.11 3520.35 "/>
<path transform="matrix(0,.1,.1,0,-299,-154)" stroke-width="9.23334" stroke-linecap="butt" stroke-miterlimit="10" stroke-linejoin="miter" fill="none" stroke="#000000" d="M 2150.11 4237.05 L 2150.11 3916.13 "/>
<path transform="matrix(0,.1,.1,0,-299,-154)" stroke-width="9.23334" stroke-linecap="butt" stroke-miterlimit="10" stroke-linejoin="miter" fill="none" stroke="#000000" d="M 2150.11 4571.27 L 2150.11 4237.05 "/>
<path transform="matrix(0,.1,.1,0,-299,-154)" stroke-width="9.23334" stroke-linecap="butt" stroke-miterlimit="10" stroke-linejoin="miter" fill="none" stroke="#000000" d="M 2150.11 5211.23 L 2150.11 4926 "/>
<path transform="matrix(0,.1,.1,0,-299,-154)" stroke-width="9.23334" stroke-linecap="butt" stroke-miterlimit="10" stroke-linejoin="miter" fill="none" stroke="#000000" d="M 2150.11 5607.02 L 2150.11 5309.18 "/>
<path transform="matrix(0,.1,.1,0,-299,-154)" stroke-width="9.23334" stroke-linecap="butt" stroke-miterlimit="10" stroke-linejoin="miter" fill="none" stroke="#000000" d="M 2173.19 5630.1 L 2429.53 5630.1 "/>
<path transform="matrix(0,.1,.1,0,-299,-154)" stroke-width="9.23334" stroke-linecap="butt" stroke-miterlimit="10" stroke-linejoin="miter" fill="none" stroke="#000000" d="M 2150.11 5946.41 L 2150.11 5653.18 "/>
<path transform="matrix(0,.1,.1,0,-299,-154)" stroke-width="9.23334" stroke-linecap="butt" stroke-miterlimit="10" stroke-linejoin="miter" fill="none" stroke="#000000" d="M 2478.5 3448.3 L 2478.5 3180.96 "/>
<path transform="matrix(0,.1,.1,0,-299,-154)" stroke-width="9.23334" stroke-linecap="butt" stroke-miterlimit="10" stroke-linejoin="miter" fill="none" stroke="#000000" d="M 2478.5 3867.16 L 2478.5 3546.24 "/>
<path transform="matrix(0,.1,.1,0,-299,-154)" stroke-width="9.23334" stroke-linecap="butt" stroke-miterlimit="10" stroke-linejoin="miter" fill="none" stroke="#000000" d="M 2478.5 4188.09 L 2478.5 3867.16 "/>
<path transform="matrix(0,.1,.1,0,-299,-154)" stroke-width="9.23334" stroke-linecap="butt" stroke-miterlimit="10" stroke-linejoin="miter" fill="none" stroke="#000000" d="M 2478.5 4571.27 L 2478.5 4286.03 "/>
<path transform="matrix(0,.1,.1,0,-299,-154)" stroke-width="9.23334" stroke-linecap="butt" stroke-miterlimit="10" stroke-linejoin="miter" fill="none" stroke="#000000" d="M 2478.5 5260.2 L 2478.5 4926 "/>
<path transform="matrix(0,.1,.1,0,-299,-154)" stroke-width="9.23334" stroke-linecap="butt" stroke-miterlimit="10" stroke-linejoin="miter" fill="none" stroke="#000000" d="M 2478.5 5581.13 L 2478.5 5260.2 "/>
<path transform="matrix(0,.1,.1,0,-299,-154)" stroke-width="9.23334" stroke-linecap="butt" stroke-miterlimit="10" stroke-linejoin="miter" fill="none" stroke="#000000" d="M 2478.5 5946.41 L 2478.5 5679.07 "/>
<symbol id="font_6_1">
<path d="M .234 .17 L .24900002 .10300001 C .266 .028 .292 0 .34100003 0 C .37800003 0 .396 .012 .442 .068 C .46 .089 .463 .094000007 .48900003 .14 L .458 .157 C .448 .141 .44500003 .136 .43 .115 C .40100003 .076000008 .384 .061000006 .366 .061000006 C .343 .061000006 .333 .083000008 .315 .165 L .296 .26 L .34 .34100003 C .36400003 .38600005 .38500003 .408 .403 .408 C .411 .408 .416 .40400005 .42000003 .39500005 C .42900003 .375 .43600003 .37 .45400004 .37 C .485 .37 .504 .39100004 .504 .42400003 C .504 .45900006 .48000003 .485 .44700004 .485 C .42000003 .485 .39000003 .47100003 .36900003 .448 C .349 .426 .34800003 .426 .314 .36300005 L .285 .311 L .27400003 .366 C .257 .45200003 .23500002 .485 .194 .485 C .17200002 .485 .15 .472 .125 .444 C .109000008 .426 .095 .40600003 .05 .34100003 L .079 .32 C .13 .393 .14400001 .408 .16100002 .408 C .16800002 .408 .178 .40100003 .18200001 .393 C .19100002 .37700004 .19100002 .37700004 .211 .278 L .22300002 .22000002 L .178 .14 C .15 .089 .125 .061000006 .109000008 .061000006 C .102000009 .061000006 .096 .068 .094000007 .081 C .089 .108 .076000008 .120000008 .051 .120000008 C .021 .120000008 0 .096 0 .062000004 C 0 .025000003 .026 0 .066 0 C .114 0 .16100002 .04 .204 .116000007 L .234 .17 Z "/>
</symbol>
<use xlink:href="#font_6_1" transform="matrix(12.8805,0,0,-12.8805,.95293429,30.389206)"/>
<symbol id="font_7_2">
<path d="M .22200004 .70400008 C .18800003 .66300007 .09600001 .632 .0040000008 .63000008 L .0040000008 .587 L .092 .587 C .15 .587 .15400002 .583 .15400002 .52400007 L .15400002 .123 L .15400002 .094000007 C .15400002 .052 .14500001 .047000003 .065000008 .047000003 L 0 .047000003 L 0 0 L .39600004 0 L .39600004 .047000003 L .34100003 .047000003 C .28800003 .047000003 .26600004 .051000004 .25800003 .061000006 C .25100003 .068 .25100003 .068 .25100003 .123 L .25100003 .536 C .25100003 .58500006 .25300003 .633 .25800003 .70400008 L .22200004 .70400008 Z "/>
</symbol>
<use xlink:href="#font_7_2" transform="matrix(9.66036,0,0,-9.66036,8.784243,32.274126)"/>
<symbol id="font_7_7">
<path d="M 0 0 L .504 0 L .504 .08 L 0 .08 L 0 0 M 0 .202 L .504 .202 L .504 .282 L 0 .282 L 0 .202 Z "/>
</symbol>
<use xlink:href="#font_7_7" transform="matrix(12.8804,0,0,-12.8804,172.61812,62.101816)"/>
<use xlink:href="#font_6_1" transform="matrix(12.8805,0,0,-12.8805,.9531784,63.229036)"/>
<symbol id="font_7_3">
<path d="M .47 .216 L .42600004 .216 L .41600005 .165 C .40300004 .101 .395 .094000007 .33300004 .094000007 L .10900001 .094000007 C .17800002 .16600001 .20100002 .187 .26500003 .23700002 C .35600005 .307 .395 .342 .418 .372 C .45000003 .416 .46600006 .46100004 .46600006 .509 C .46600006 .62200006 .37100003 .70400008 .24100003 .70400008 C .11400001 .70400008 .016000003 .62200006 .016000003 .51600006 C .016000003 .453 .048000006 .41000004 .096000019 .41000004 C .13300002 .41000004 .158 .43500004 .158 .47100003 C .158 .49600003 .14400001 .51900008 .12200001 .528 C .08500001 .544 .083000008 .545 .083000008 .558 C .083000008 .573 .09300001 .596 .10700001 .61300006 C .13200002 .643 .17400001 .661 .22100002 .661 C .30300004 .661 .35300002 .61 .35300002 .526 C .35300002 .45200003 .31800003 .38500003 .23500002 .29700003 L .17600002 .23500002 C .14100002 .19800002 .11500001 .17 .098000008 .15100001 C .062000004 .109000008 .044000005 .086 0 .028 L 0 0 L .45100004 0 L .47 .216 Z "/>
</symbol>
<use xlink:href="#font_7_3" transform="matrix(9.66036,0,0,-9.66036,8.156564,65.11278)"/>
<use xlink:href="#font_6_1" transform="matrix(12.8805,0,0,-12.8805,.9531784,96.01228)"/>
<symbol id="font_7_4">
<path d="M .30400003 .38300003 C .31800003 .388 .32000003 .388 .32700003 .39100004 C .397 .42000003 .43700005 .476 .43700005 .547 C .43700005 .651 .35700003 .71900007 .23300001 .71900007 C .116000007 .71900007 .027000003 .65000006 .027000003 .559 C .027000003 .518 .055 .48900003 .093 .48900003 C .12799999 .48900003 .15200001 .513 .15200001 .549 C .15200001 .57 .144 .584 .121 .6 C .11100001 .607 .108 .612 .108 .61800006 C .108 .646 .167 .676 .22300002 .676 C .29500003 .676 .33300004 .63100007 .33300004 .546 C .33300004 .453 .29500003 .40400005 .22300002 .40400005 C .21400002 .40400005 .19800002 .40500004 .183 .40600003 C .17500001 .407 .167 .407 .16100002 .407 C .14000002 .407 .12900001 .398 .12900001 .38 C .12900001 .36300005 .14000002 .35500003 .16 .35500003 C .16300002 .35500003 .171 .35500003 .18400002 .356 C .222 .357 .22300002 .357 .231 .357 C .305 .357 .34500004 .30400003 .34500004 .20500002 C .34500004 .102000009 .29400004 .043 .20500002 .043 C .14200002 .043 .074 .07700001 .074 .108 C .074 .117000009 .076000008 .119 .09600001 .13 C .124000009 .147 .13499999 .164 .13499999 .18900001 C .13499999 .22500001 .108 .25200004 .071 .25200004 C .029 .25200004 0 .216 0 .164 C 0 .067 .08900001 0 .21700001 0 C .36100004 0 .45600004 .080000009 .45600004 .20300001 C .45600004 .297 .40700004 .35400004 .30400003 .38300003 Z "/>
</symbol>
<use xlink:href="#font_7_4" transform="matrix(9.66036,0,0,-9.66036,8.224186,98.04211)"/>
<path transform="matrix(0,.1,.1,0,-299,-154)" stroke-width="9.23334" stroke-linecap="butt" stroke-dasharray="57.7091,34.6255" stroke-miterlimit="10" stroke-linejoin="miter" fill="none" stroke="#ff0000" d="M 1753.39 3314.63 L 2607.34 3314.63 "/>
<symbol id="font_8_2">
<path d="M .06300001 0 L .06300001 .65200009 L 0 .65200009 L 0 0 L .06300001 0 Z "/>
</symbol>
<use xlink:href="#font_8_2" transform="matrix(12.742,0,0,-12.742,21.155167,8.946493)"/>
<use xlink:href="#font_8_2" transform="matrix(12.742,0,0,-12.742,21.155167,16.59258)"/>
<symbol id="font_9_1">
<path d="M .024000003 .58500006 C .050000006 .63600006 .09600001 .689 .11800001 .689 C .12900001 .689 .134 .679 .134 .66 C .134 .61300006 .094000007 .47700004 .094000007 .41700004 C .094000007 .284 .146 .23000002 .27600003 .23000002 C .278 .23000002 .24000001 .023000002 .24000001 .009000003 C .243 .001000002 .245 0 .257 0 C .27 0 .272 .001000002 .278 .0069999995 C .282 .012000009 .31800003 .15600002 .337 .23000002 C .38500003 .231 .4 .23500002 .48200003 .293 C .49600003 .30200003 .5450001 .351 .5680001 .39500005 C .62900009 .513 .63000008 .6750001 .73800006 .722 L .73800006 .72300007 C .73800006 .72800007 .7340001 .7440001 .7340001 .7440001 C .69400009 .74300006 .63900008 .739 .59800007 .70000007 C .54700008 .65200009 .56100007 .41700004 .46 .328 C .395 .272 .379 .27 .347 .27 C .347 .27 .46 .734 .48200003 .80700007 L .479 .80700007 C .469 .80700007 .38000003 .781 .38000003 .778 C .36 .66300007 .284 .268 .284 .27 C .20300001 .27 .18800001 .30200003 .18800001 .40800003 C .18800001 .48200003 .22600001 .58500006 .22600001 .67300006 C .22600001 .712 .214 .7440001 .17400001 .7440001 C .101 .7440001 .030000003 .688 0 .59900006 L .024000003 .58500006 Z "/>
</symbol>
<use xlink:href="#font_9_1" transform="matrix(12.465,0,0,-12.465,23.993906,15.219335)"/>
<symbol id="font_7_1">
<path d="M .24200002 .71900007 C .102000009 .71900007 0 .566 0 .357 C 0 .15100001 .099 0 .23400003 0 C .374 0 .472 .14600002 .472 .35400004 C .472 .46000005 .45000003 .54800006 .40800003 .61700007 C .36900003 .68 .305 .71900007 .24200002 .71900007 M .23500002 .676 C .268 .676 .3 .65400007 .32400004 .614 C .351 .568 .36 .509 .36 .37200005 C .36 .23200001 .35300002 .16600001 .33300004 .12200001 C .31000004 .073 .27400003 .043 .23600003 .043 C .20300001 .043 .171 .065 .14700002 .105000007 C .11900001 .15200001 .11100001 .215 .11100001 .37800003 C .11100001 .49400003 .11800001 .55300006 .13800001 .596 C .16100002 .647 .197 .676 .23500002 .676 Z "/>
</symbol>
<use xlink:href="#font_7_1" transform="matrix(9.66036,0,0,-9.66036,33.935277,14.42466)"/>
<symbol id="font_8_1">
<path d="M .24700003 .586 L 0 .024999977 L .052 0 L .311 .586 L .052 1.172 L 0 1.1470001 L .24700003 .586 Z "/>
</symbol>
<use xlink:href="#font_8_1" transform="matrix(12.742,0,0,-12.742,40.54753,16.082085)"/>
<path transform="matrix(0,.1,.1,0,-299,-154)" stroke-width="9.23334" stroke-linecap="butt" stroke-dasharray="57.7091,34.6255" stroke-miterlimit="10" stroke-linejoin="miter" fill="none" stroke="#ff0000" d="M 1753.39 3682.21 L 2607.34 3682.21 "/>
<use xlink:href="#font_8_2" transform="matrix(12.742,0,0,-12.742,57.913164,8.946493)"/>
<use xlink:href="#font_8_2" transform="matrix(12.742,0,0,-12.742,57.913164,16.59258)"/>
<use xlink:href="#font_9_1" transform="matrix(12.465,0,0,-12.465,60.751508,15.219335)"/>
<use xlink:href="#font_7_2" transform="matrix(9.66036,0,0,-9.66036,71.253177,14.279755)"/>
<use xlink:href="#font_8_1" transform="matrix(12.742,0,0,-12.742,77.30513,16.082085)"/>
<path transform="matrix(0,.1,.1,0,-299,-154)" stroke-width="9.23334" stroke-linecap="butt" stroke-dasharray="57.7091,34.6255" stroke-miterlimit="10" stroke-linejoin="miter" fill="none" stroke="#ff0000" d="M 1753.39 4052.11 L 2607.34 4052.11 "/>
<use xlink:href="#font_8_2" transform="matrix(12.742,0,0,-12.742,94.902179,8.946493)"/>
<use xlink:href="#font_8_2" transform="matrix(12.742,0,0,-12.742,94.902179,16.59258)"/>
<use xlink:href="#font_9_1" transform="matrix(12.465,0,0,-12.465,97.74091,15.219335)"/>
<use xlink:href="#font_7_3" transform="matrix(9.66036,0,0,-9.66036,107.61466,14.279755)"/>
<use xlink:href="#font_8_1" transform="matrix(12.742,0,0,-12.742,114.2957,16.082085)"/>
<path transform="matrix(0,.1,.1,0,-299,-154)" stroke-width="9.23334" stroke-linecap="butt" stroke-dasharray="57.7091,34.6255" stroke-miterlimit="10" stroke-linejoin="miter" fill="none" stroke="#ff0000" d="M 1753.39 4419.7 L 2607.34 4419.7 "/>
<use xlink:href="#font_8_2" transform="matrix(12.742,0,0,-12.742,131.66017,8.946493)"/>
<use xlink:href="#font_8_2" transform="matrix(12.742,0,0,-12.742,131.66017,16.59258)"/>
<use xlink:href="#font_9_1" transform="matrix(12.465,0,0,-12.465,134.49852,15.219335)"/>
<use xlink:href="#font_7_4" transform="matrix(9.66036,0,0,-9.66036,144.44107,14.42466)"/>
<use xlink:href="#font_8_1" transform="matrix(12.742,0,0,-12.742,151.05333,16.082085)"/>
<path transform="matrix(0,.1,.1,0,-299,-154)" stroke-width="9.23334" stroke-linecap="butt" stroke-dasharray="57.7091,34.6255" stroke-miterlimit="10" stroke-linejoin="miter" fill="none" stroke="#ff0000" d="M 1753.39 5077.57 L 2607.34 5077.57 "/>
<use xlink:href="#font_8_2" transform="matrix(12.742,0,0,-12.742,197.44618,8.946493)"/>
<use xlink:href="#font_8_2" transform="matrix(12.742,0,0,-12.742,197.44618,16.59258)"/>
<use xlink:href="#font_9_1" transform="matrix(12.465,0,0,-12.465,200.28453,15.219335)"/>
<use xlink:href="#font_7_1" transform="matrix(9.66036,0,0,-9.66036,210.22589,14.42466)"/>
<use xlink:href="#font_8_1" transform="matrix(12.742,0,0,-12.742,216.83931,16.082085)"/>
<path transform="matrix(0,.1,.1,0,-299,-154)" stroke-width="9.23334" stroke-linecap="butt" stroke-dasharray="57.7091,34.6255" stroke-miterlimit="10" stroke-linejoin="miter" fill="none" stroke="#ff0000" d="M 1753.39 5445.15 L 2607.34 5445.15 "/>
<use xlink:href="#font_8_2" transform="matrix(12.742,0,0,-12.742,234.20418,8.946493)"/>
<use xlink:href="#font_8_2" transform="matrix(12.742,0,0,-12.742,234.20418,16.59258)"/>
<use xlink:href="#font_9_1" transform="matrix(12.465,0,0,-12.465,237.0429,15.219335)"/>
<symbol id="font_7_5">
<path d="M .34000004 .70400008 L 0 .231 L 0 .17500001 L .28100003 .17500001 L .28100003 .123 L .28100003 .094000007 C .28100003 .052 .272 .047000003 .19100002 .047000003 L .18 .047000003 L .18 0 L .472 0 L .472 .047000003 L .46800003 .047000003 C .38700003 .047000003 .37800003 .052 .37800003 .094000007 L .37800003 .123 L .37800003 .17500001 L .499 .17500001 L .499 .231 L .37800003 .231 L .37800003 .504 C .37800003 .629 .37800003 .629 .38300003 .70400008 L .34000004 .70400008 M .28100003 .231 L .061 .231 L .28100003 .53400006 L .28100003 .231 Z "/>
</symbol>
<use xlink:href="#font_7_5" transform="matrix(9.66036,0,0,-9.66036,246.84978,14.279755)"/>
<use xlink:href="#font_8_1" transform="matrix(12.742,0,0,-12.742,253.59767,16.082085)"/>
<path transform="matrix(0,.1,.1,0,-299,-154)" stroke-width="9.23334" stroke-linecap="butt" stroke-dasharray="57.7091,34.6255" stroke-miterlimit="10" stroke-linejoin="miter" fill="none" stroke="#ff0000" d="M 1753.39 5812.74 L 2607.34 5812.74 "/>
<use xlink:href="#font_8_2" transform="matrix(12.742,0,0,-12.742,270.9622,8.946493)"/>
<use xlink:href="#font_8_2" transform="matrix(12.742,0,0,-12.742,270.9622,16.59258)"/>
<use xlink:href="#font_9_1" transform="matrix(12.465,0,0,-12.465,273.80168,15.219335)"/>
<symbol id="font_7_6">
<path d="M .119 .606 C .17300001 .593 .201 .589 .24000003 .589 C .325 .589 .38700003 .619 .42000003 .674 C .431 .693 .435 .702 .435 .71000006 C .435 .716 .43200005 .71900007 .42700006 .71900007 C .42400003 .71900007 .41900004 .718 .41400004 .71500006 C .365 .694 .338 .689 .28100003 .689 C .21700002 .689 .18 .694 .075 .71900007 C .071 .635 .062000008 .528 .048 .40400005 C .027000003 .38200004 .020000004 .36900003 .020000004 .35300005 C .020000004 .333 .033 .319 .052 .319 C .07700001 .319 .09300001 .34000004 .097 .38 C .132 .40500004 .165 .416 .205 .416 C .29400004 .416 .348 .347 .348 .23300001 C .348 .16600001 .33100004 .109000008 .301 .078 C .28100003 .057000005 .24000003 .043 .19900002 .043 C .13900002 .043 .07700001 .074 .07700001 .105000007 C .07700001 .112 .083000008 .120000008 .095 .127 C .126 .14600002 .135 .15900001 .135 .186 C .135 .22100002 .10800001 .24800001 .072000008 .24800001 C .032000007 .24800001 0 .21100001 0 .164 C 0 .11400001 .029 .064 .074 .033 C .10800001 .011 .149 0 .201 0 C .35800005 0 .45700003 .09200001 .45700003 .23900001 C .45700003 .375 .366 .46600003 .23100002 .46600003 C .18900001 .46600003 .157 .45900006 .102 .43600006 L .119 .606 Z "/>
</symbol>
<use xlink:href="#font_7_6" transform="matrix(9.66036,0,0,-9.66036,283.77207,14.42466)"/>
<use xlink:href="#font_8_1" transform="matrix(12.742,0,0,-12.742,290.35533,16.082085)"/>
</g>
</g>
</svg>
