<?xml version="1.0" encoding="UTF-8" standalone="no"?>
<!DOCTYPE svg PUBLIC "-//W3C//DTD SVG 1.1//EN" "http://www.w3.org/Graphics/SVG/1.1/DTD/svg11.dtd">
<svg xmlns="http://www.w3.org/2000/svg" xmlns:xlink="http://www.w3.org/1999/xlink" version="1.1" width="599pt" height="80pt" viewBox="0 0 599 80">
<g enable-background="new">
<clipPath id="cp0">
<path transform="matrix(0,1,1,0,-299,-154)" d="M 0 0 L 709 0 L 709 1001 L 0 1001 Z "/>
</clipPath>
<g clip-path="url(#cp0)">
<path transform="matrix(0,.1,.1,0,-299,-154)" d="M 1569.54 3249.92 C 1556.79 3249.92 1546.46 3239.58 1546.46 3226.84 C 1546.46 3214.09 1556.79 3203.75 1569.54 3203.75 C 1582.29 3203.75 1592.63 3214.09 1592.63 3226.84 C 1592.63 3239.58 1582.29 3249.92 1569.54 3249.92 Z M 1569.54 3226.84 "/>
<path transform="matrix(0,.1,.1,0,-299,-154)" d="M 1569.54 4358.21 C 1556.79 4358.21 1546.46 4347.87 1546.46 4335.12 C 1546.46 4322.38 1556.79 4312.04 1569.54 4312.04 C 1582.29 4312.04 1592.63 4322.38 1592.63 4335.12 C 1592.63 4347.87 1582.29 4358.21 1569.54 4358.21 Z M 1569.54 4335.12 "/>
<path transform="matrix(0,.1,.1,0,-299,-154)" d="M 1569.54 5727.04 C 1556.79 5727.04 1546.46 5716.7 1546.46 5703.96 C 1546.46 5691.21 1556.79 5680.87 1569.54 5680.87 C 1582.29 5680.87 1592.63 5691.21 1592.63 5703.96 C 1592.63 5716.7 1582.29 5727.04 1569.54 5727.04 Z M 1569.54 5703.96 "/>
<path transform="matrix(0,.1,.1,0,-299,-154)" d="M 1569.54 7459.75 C 1556.79 7459.75 1546.46 7449.41 1546.46 7436.66 C 1546.46 7423.91 1556.79 7413.58 1569.54 7413.58 C 1582.29 7413.58 1592.63 7423.91 1592.63 7436.66 C 1592.63 7449.41 1582.29 7459.75 1569.54 7459.75 Z M 1569.54 7436.66 "/>
<path transform="matrix(0,.1,.1,0,-299,-154)" d="M 1569.54 8148.54 C 1556.79 8148.54 1546.46 8138.21 1546.46 8125.46 C 1546.46 8112.71 1556.79 8102.37 1569.54 8102.37 C 1582.29 8102.37 1592.63 8112.71 1592.63 8125.46 C 1592.63 8138.21 1582.29 8148.54 1569.54 8148.54 Z M 1569.54 8125.46 "/>
<path transform="matrix(0,.1,.1,0,-299,-154)" d="M 1569.54 8466.15 C 1556.79 8466.15 1546.46 8455.82 1546.46 8443.07 C 1546.46 8430.32 1556.79 8419.99 1569.54 8419.99 C 1582.29 8419.99 1592.63 8430.32 1592.63 8443.07 C 1592.63 8455.82 1582.29 8466.15 1569.54 8466.15 Z M 1569.54 8443.07 "/>
<clipPath id="cp1">
<path transform="matrix(0,.1,.1,0,-299,-154)" d="M 1897.94 3291.24 C 1862.37 3291.24 1833.54 3262.4 1833.54 3226.84 C 1833.54 3191.27 1862.37 3162.43 1897.94 3162.43 C 1933.51 3162.43 1962.34 3191.27 1962.34 3226.84 C 1962.34 3262.4 1933.51 3291.24 1897.94 3291.24 Z M 1897.94 3226.84 "/>
</clipPath>
<g clip-path="url(#cp1)">
<path transform="matrix(0,.1,.1,0,-299,-154)" stroke-width="9.23334" stroke-linecap="butt" stroke-miterlimit="10" stroke-linejoin="miter" fill="none" stroke="#000000" d="M 1962.34 3291.24 L 1833.54 3162.43 M 1962.34 3162.43 L 1833.54 3291.24 M 1897.94 3162.43 L 1897.94 3291.24 "/>
</g>
<path transform="matrix(0,.1,.1,0,-299,-154)" d="M 1897.94 4086.84 C 1885.19 4086.84 1874.86 4076.5 1874.86 4063.76 C 1874.86 4051.01 1885.19 4040.67 1897.94 4040.67 C 1910.69 4040.67 1921.03 4051.01 1921.03 4063.76 C 1921.03 4076.5 1910.69 4086.84 1897.94 4086.84 Z M 1897.94 4063.76 "/>
<clipPath id="cp2">
<path transform="matrix(0,.1,.1,0,-299,-154)" d="M 1897.94 4384.09 C 1870.89 4384.09 1848.97 4362.17 1848.97 4335.12 C 1848.97 4308.08 1870.89 4286.15 1897.94 4286.15 C 1924.99 4286.15 1946.91 4308.08 1946.91 4335.12 C 1946.91 4362.17 1924.99 4384.09 1897.94 4384.09 Z M 1897.94 4335.12 "/>
</clipPath>
<g clip-path="url(#cp2)">
<path transform="matrix(0,.1,.1,0,-299,-154)" stroke-width="9.23334" stroke-linecap="butt" stroke-miterlimit="10" stroke-linejoin="miter" fill="none" stroke="#000000" d="M 1848.97 4335.12 L 1946.91 4335.12 M 1897.94 4286.15 L 1897.94 4384.09 "/>
</g>
<path transform="matrix(0,.1,.1,0,-299,-154)" stroke-width="9.23334" stroke-linecap="butt" stroke-miterlimit="10" stroke-linejoin="miter" fill="none" stroke="#000000" d="M 1897.94 4384.09 C 1870.89 4384.09 1848.97 4362.17 1848.97 4335.12 C 1848.97 4308.08 1870.89 4286.15 1897.94 4286.15 C 1924.99 4286.15 1946.91 4308.08 1946.91 4335.12 C 1946.91 4362.17 1924.99 4384.09 1897.94 4384.09 Z M 1897.94 4335.12 "/>
<path transform="matrix(0,.1,.1,0,-299,-154)" d="M 1897.94 4629.57 C 1885.19 4629.57 1874.86 4619.24 1874.86 4606.49 C 1874.86 4593.74 1885.19 4583.41 1897.94 4583.41 C 1910.69 4583.41 1921.03 4593.74 1921.03 4606.49 C 1921.03 4619.24 1910.69 4629.57 1897.94 4629.57 Z M 1897.94 4606.49 "/>
<clipPath id="cp3">
<path transform="matrix(0,.1,.1,0,-299,-154)" d="M 1897.94 5481.56 C 1870.89 5481.56 1848.97 5459.64 1848.97 5432.59 C 1848.97 5405.54 1870.89 5383.62 1897.94 5383.62 C 1924.99 5383.62 1946.91 5405.54 1946.91 5432.59 C 1946.91 5459.64 1924.99 5481.56 1897.94 5481.56 Z M 1897.94 5432.59 "/>
</clipPath>
<g clip-path="url(#cp3)">
<path transform="matrix(0,.1,.1,0,-299,-154)" stroke-width="9.23334" stroke-linecap="butt" stroke-miterlimit="10" stroke-linejoin="miter" fill="none" stroke="#000000" d="M 1848.97 5432.59 L 1946.91 5432.59 M 1897.94 5383.62 L 1897.94 5481.56 "/>
</g>
<path transform="matrix(0,.1,.1,0,-299,-154)" stroke-width="9.23334" stroke-linecap="butt" stroke-miterlimit="10" stroke-linejoin="miter" fill="none" stroke="#000000" d="M 1897.94 5481.56 C 1870.89 5481.56 1848.97 5459.64 1848.97 5432.59 C 1848.97 5405.54 1870.89 5383.62 1897.94 5383.62 C 1924.99 5383.62 1946.91 5405.54 1946.91 5432.59 C 1946.91 5459.64 1924.99 5481.56 1897.94 5481.56 Z M 1897.94 5432.59 "/>
<path transform="matrix(0,.1,.1,0,-299,-154)" d="M 1897.94 5727.04 C 1885.19 5727.04 1874.86 5716.7 1874.86 5703.96 C 1874.86 5691.21 1885.19 5680.87 1897.94 5680.87 C 1910.69 5680.87 1921.03 5691.21 1921.03 5703.96 C 1921.03 5716.7 1910.69 5727.04 1897.94 5727.04 Z M 1897.94 5703.96 "/>
<clipPath id="cp4">
<path transform="matrix(0,.1,.1,0,-299,-154)" d="M 1897.94 6024.3 C 1870.89 6024.3 1848.97 6002.38 1848.97 5975.33 C 1848.97 5948.29 1870.89 5926.36 1897.94 5926.36 C 1924.99 5926.36 1946.91 5948.29 1946.91 5975.33 C 1946.91 6002.38 1924.99 6024.3 1897.94 6024.3 Z M 1897.94 5975.33 "/>
</clipPath>
<g clip-path="url(#cp4)">
<path transform="matrix(0,.1,.1,0,-299,-154)" stroke-width="9.23334" stroke-linecap="butt" stroke-miterlimit="10" stroke-linejoin="miter" fill="none" stroke="#000000" d="M 1848.97 5975.33 L 1946.91 5975.33 M 1897.94 5926.36 L 1897.94 6024.3 "/>
</g>
<path transform="matrix(0,.1,.1,0,-299,-154)" stroke-width="9.23334" stroke-linecap="butt" stroke-miterlimit="10" stroke-linejoin="miter" fill="none" stroke="#000000" d="M 1897.94 6024.3 C 1870.89 6024.3 1848.97 6002.38 1848.97 5975.33 C 1848.97 5948.29 1870.89 5926.36 1897.94 5926.36 C 1924.99 5926.36 1946.91 5948.29 1946.91 5975.33 C 1946.91 6002.38 1924.99 6024.3 1897.94 6024.3 Z M 1897.94 5975.33 "/>
<clipPath id="cp5">
<path transform="matrix(0,.1,.1,0,-299,-154)" d="M 1897.94 6850.41 C 1870.89 6850.41 1848.97 6828.48 1848.97 6801.43 C 1848.97 6774.39 1870.89 6752.46 1897.94 6752.46 C 1924.99 6752.46 1946.91 6774.39 1946.91 6801.43 C 1946.91 6828.48 1924.99 6850.41 1897.94 6850.41 Z M 1897.94 6801.43 "/>
</clipPath>
<g clip-path="url(#cp5)">
<path transform="matrix(0,.1,.1,0,-299,-154)" stroke-width="9.23334" stroke-linecap="butt" stroke-miterlimit="10" stroke-linejoin="miter" fill="none" stroke="#000000" d="M 1848.97 6801.43 L 1946.91 6801.43 M 1897.94 6752.46 L 1897.94 6850.41 "/>
</g>
<path transform="matrix(0,.1,.1,0,-299,-154)" stroke-width="9.23334" stroke-linecap="butt" stroke-miterlimit="10" stroke-linejoin="miter" fill="none" stroke="#000000" d="M 1897.94 6850.41 C 1870.89 6850.41 1848.97 6828.48 1848.97 6801.43 C 1848.97 6774.39 1870.89 6752.46 1897.94 6752.46 C 1924.99 6752.46 1946.91 6774.39 1946.91 6801.43 C 1946.91 6828.48 1924.99 6850.41 1897.94 6850.41 Z M 1897.94 6801.43 "/>
<path transform="matrix(0,.1,.1,0,-299,-154)" d="M 1897.94 7142.13 C 1885.19 7142.13 1874.86 7131.8 1874.86 7119.05 C 1874.86 7106.3 1885.19 7095.96 1897.94 7095.96 C 1910.69 7095.96 1921.03 7106.3 1921.03 7119.05 C 1921.03 7131.8 1910.69 7142.13 1897.94 7142.13 Z M 1897.94 7119.05 "/>
<clipPath id="cp6">
<path transform="matrix(0,.1,.1,0,-299,-154)" d="M 1897.94 7485.64 C 1870.89 7485.64 1848.97 7463.72 1848.97 7436.67 C 1848.97 7409.63 1870.89 7387.7 1897.94 7387.7 C 1924.99 7387.7 1946.91 7409.63 1946.91 7436.67 C 1946.91 7463.72 1924.99 7485.64 1897.94 7485.64 Z M 1897.94 7436.67 "/>
</clipPath>
<g clip-path="url(#cp6)">
<path transform="matrix(0,.1,.1,0,-299,-154)" stroke-width="9.23334" stroke-linecap="butt" stroke-miterlimit="10" stroke-linejoin="miter" fill="none" stroke="#000000" d="M 1848.97 7436.67 L 1946.91 7436.67 M 1897.94 7387.7 L 1897.94 7485.64 "/>
</g>
<path transform="matrix(0,.1,.1,0,-299,-154)" stroke-width="9.23334" stroke-linecap="butt" stroke-miterlimit="10" stroke-linejoin="miter" fill="none" stroke="#000000" d="M 1897.94 7485.64 C 1870.89 7485.64 1848.97 7463.72 1848.97 7436.67 C 1848.97 7409.63 1870.89 7387.7 1897.94 7387.7 C 1924.99 7387.7 1946.91 7409.63 1946.91 7436.67 C 1946.91 7463.72 1924.99 7485.64 1897.94 7485.64 Z M 1897.94 7436.67 "/>
<path transform="matrix(0,.1,.1,0,-299,-154)" d="M 1897.94 7804.14 C 1885.19 7804.14 1874.86 7793.81 1874.86 7781.06 C 1874.86 7768.31 1885.19 7757.98 1897.94 7757.98 C 1910.69 7757.98 1921.03 7768.31 1921.03 7781.06 C 1921.03 7793.81 1910.69 7804.14 1897.94 7804.14 Z M 1897.94 7781.06 "/>
<clipPath id="cp7">
<path transform="matrix(0,.1,.1,0,-299,-154)" d="M 1897.94 8174.43 C 1870.89 8174.43 1848.97 8152.5 1848.97 8125.46 C 1848.97 8098.41 1870.89 8076.48 1897.94 8076.48 C 1924.99 8076.48 1946.91 8098.41 1946.91 8125.46 C 1946.91 8152.5 1924.99 8174.43 1897.94 8174.43 Z M 1897.94 8125.46 "/>
</clipPath>
<g clip-path="url(#cp7)">
<path transform="matrix(0,.1,.1,0,-299,-154)" stroke-width="9.23334" stroke-linecap="butt" stroke-miterlimit="10" stroke-linejoin="miter" fill="none" stroke="#000000" d="M 1848.97 8125.46 L 1946.91 8125.46 M 1897.94 8076.48 L 1897.94 8174.43 "/>
</g>
<path transform="matrix(0,.1,.1,0,-299,-154)" stroke-width="9.23334" stroke-linecap="butt" stroke-miterlimit="10" stroke-linejoin="miter" fill="none" stroke="#000000" d="M 1897.94 8174.43 C 1870.89 8174.43 1848.97 8152.5 1848.97 8125.46 C 1848.97 8098.41 1870.89 8076.48 1897.94 8076.48 C 1924.99 8076.48 1946.91 8098.41 1946.91 8125.46 C 1946.91 8152.5 1924.99 8174.43 1897.94 8174.43 Z M 1897.94 8125.46 "/>
<clipPath id="cp8">
<path transform="matrix(0,.1,.1,0,-299,-154)" d="M 1897.94 8809.67 C 1870.89 8809.67 1848.97 8787.74 1848.97 8760.7 C 1848.97 8733.65 1870.89 8711.72 1897.94 8711.72 C 1924.99 8711.72 1946.91 8733.65 1946.91 8760.7 C 1946.91 8787.74 1924.99 8809.67 1897.94 8809.67 Z M 1897.94 8760.7 "/>
</clipPath>
<g clip-path="url(#cp8)">
<path transform="matrix(0,.1,.1,0,-299,-154)" stroke-width="9.23334" stroke-linecap="butt" stroke-miterlimit="10" stroke-linejoin="miter" fill="none" stroke="#000000" d="M 1848.97 8760.7 L 1946.91 8760.7 M 1897.94 8711.72 L 1897.94 8809.67 "/>
</g>
<path transform="matrix(0,.1,.1,0,-299,-154)" stroke-width="9.23334" stroke-linecap="butt" stroke-miterlimit="10" stroke-linejoin="miter" fill="none" stroke="#000000" d="M 1897.94 8809.67 C 1870.89 8809.67 1848.97 8787.74 1848.97 8760.7 C 1848.97 8733.65 1870.89 8711.72 1897.94 8711.72 C 1924.99 8711.72 1946.91 8733.65 1946.91 8760.7 C 1946.91 8787.74 1924.99 8809.67 1897.94 8809.67 Z M 1897.94 8760.7 "/>
<clipPath id="cp9">
<path transform="matrix(0,.1,.1,0,-299,-154)" d="M 2226.33 3291.24 C 2190.76 3291.24 2161.93 3262.4 2161.93 3226.84 C 2161.93 3191.27 2190.76 3162.43 2226.33 3162.43 C 2261.9 3162.43 2290.73 3191.27 2290.73 3226.84 C 2290.73 3262.4 2261.9 3291.24 2226.33 3291.24 Z M 2226.33 3226.84 "/>
</clipPath>
<g clip-path="url(#cp9)">
<path transform="matrix(0,.1,.1,0,-299,-154)" stroke-width="9.23334" stroke-linecap="butt" stroke-miterlimit="10" stroke-linejoin="miter" fill="none" stroke="#000000" d="M 2290.73 3291.24 L 2161.93 3162.43 M 2290.73 3162.43 L 2161.93 3291.24 M 2226.33 3162.43 L 2226.33 3291.24 "/>
</g>
<clipPath id="cp10">
<path transform="matrix(0,.1,.1,0,-299,-154)" d="M 2226.33 4112.73 C 2199.28 4112.73 2177.36 4090.8 2177.36 4063.76 C 2177.36 4036.71 2199.28 4014.79 2226.33 4014.79 C 2253.38 4014.79 2275.3 4036.71 2275.3 4063.76 C 2275.3 4090.8 2253.38 4112.73 2226.33 4112.73 Z M 2226.33 4063.76 "/>
</clipPath>
<g clip-path="url(#cp10)">
<path transform="matrix(0,.1,.1,0,-299,-154)" stroke-width="9.23334" stroke-linecap="butt" stroke-miterlimit="10" stroke-linejoin="miter" fill="none" stroke="#000000" d="M 2177.36 4063.76 L 2275.3 4063.76 M 2226.33 4014.79 L 2226.33 4112.73 "/>
</g>
<path transform="matrix(0,.1,.1,0,-299,-154)" stroke-width="9.23334" stroke-linecap="butt" stroke-miterlimit="10" stroke-linejoin="miter" fill="none" stroke="#000000" d="M 2226.33 4112.73 C 2199.28 4112.73 2177.36 4090.8 2177.36 4063.76 C 2177.36 4036.71 2199.28 4014.79 2226.33 4014.79 C 2253.38 4014.79 2275.3 4036.71 2275.3 4063.76 C 2275.3 4090.8 2253.38 4112.73 2226.33 4112.73 Z M 2226.33 4063.76 "/>
<path transform="matrix(0,.1,.1,0,-299,-154)" d="M 2226.33 4358.21 C 2213.58 4358.21 2203.25 4347.87 2203.25 4335.12 C 2203.25 4322.38 2213.58 4312.04 2226.33 4312.04 C 2239.08 4312.04 2249.41 4322.38 2249.41 4335.12 C 2249.41 4347.87 2239.08 4358.21 2226.33 4358.21 Z M 2226.33 4335.12 "/>
<clipPath id="cp11">
<path transform="matrix(0,.1,.1,0,-299,-154)" d="M 2226.33 4655.46 C 2199.28 4655.46 2177.36 4633.54 2177.36 4606.49 C 2177.36 4579.44 2199.28 4557.52 2226.33 4557.52 C 2253.38 4557.52 2275.3 4579.44 2275.3 4606.49 C 2275.3 4633.54 2253.38 4655.46 2226.33 4655.46 Z M 2226.33 4606.49 "/>
</clipPath>
<g clip-path="url(#cp11)">
<path transform="matrix(0,.1,.1,0,-299,-154)" stroke-width="9.23334" stroke-linecap="butt" stroke-miterlimit="10" stroke-linejoin="miter" fill="none" stroke="#000000" d="M 2177.36 4606.49 L 2275.3 4606.49 M 2226.33 4557.52 L 2226.33 4655.46 "/>
</g>
<path transform="matrix(0,.1,.1,0,-299,-154)" stroke-width="9.23334" stroke-linecap="butt" stroke-miterlimit="10" stroke-linejoin="miter" fill="none" stroke="#000000" d="M 2226.33 4655.46 C 2199.28 4655.46 2177.36 4633.54 2177.36 4606.49 C 2177.36 4579.44 2199.28 4557.52 2226.33 4557.52 C 2253.38 4557.52 2275.3 4579.44 2275.3 4606.49 C 2275.3 4633.54 2253.38 4655.46 2226.33 4655.46 Z M 2226.33 4606.49 "/>
<path transform="matrix(0,.1,.1,0,-299,-154)" d="M 2226.33 5455.67 C 2213.58 5455.67 2203.25 5445.34 2203.25 5432.59 C 2203.25 5419.84 2213.58 5409.5 2226.33 5409.5 C 2239.08 5409.5 2249.41 5419.84 2249.41 5432.59 C 2249.41 5445.34 2239.08 5455.67 2226.33 5455.67 Z M 2226.33 5432.59 "/>
<clipPath id="cp12">
<path transform="matrix(0,.1,.1,0,-299,-154)" d="M 2226.33 5752.93 C 2199.28 5752.93 2177.36 5731 2177.36 5703.96 C 2177.36 5676.91 2199.28 5654.98 2226.33 5654.98 C 2253.38 5654.98 2275.3 5676.91 2275.3 5703.96 C 2275.3 5731 2253.38 5752.93 2226.33 5752.93 Z M 2226.33 5703.96 "/>
</clipPath>
<g clip-path="url(#cp12)">
<path transform="matrix(0,.1,.1,0,-299,-154)" stroke-width="9.23334" stroke-linecap="butt" stroke-miterlimit="10" stroke-linejoin="miter" fill="none" stroke="#000000" d="M 2177.36 5703.96 L 2275.3 5703.96 M 2226.33 5654.98 L 2226.33 5752.93 "/>
</g>
<path transform="matrix(0,.1,.1,0,-299,-154)" stroke-width="9.23334" stroke-linecap="butt" stroke-miterlimit="10" stroke-linejoin="miter" fill="none" stroke="#000000" d="M 2226.33 5752.93 C 2199.28 5752.93 2177.36 5731 2177.36 5703.96 C 2177.36 5676.91 2199.28 5654.98 2226.33 5654.98 C 2253.38 5654.98 2275.3 5676.91 2275.3 5703.96 C 2275.3 5731 2253.38 5752.93 2226.33 5752.93 Z M 2226.33 5703.96 "/>
<path transform="matrix(0,.1,.1,0,-299,-154)" d="M 2226.33 5998.42 C 2213.58 5998.42 2203.25 5988.08 2203.25 5975.33 C 2203.25 5962.59 2213.58 5952.25 2226.33 5952.25 C 2239.08 5952.25 2249.41 5962.59 2249.41 5975.33 C 2249.41 5988.08 2239.08 5998.42 2226.33 5998.42 Z M 2226.33 5975.33 "/>
<path transform="matrix(0,.1,.1,0,-299,-154)" d="M 2226.33 6824.52 C 2213.58 6824.52 2203.25 6814.18 2203.25 6801.43 C 2203.25 6788.68 2213.58 6778.35 2226.33 6778.35 C 2239.08 6778.35 2249.41 6788.68 2249.41 6801.43 C 2249.41 6814.18 2239.08 6824.52 2226.33 6824.52 Z M 2226.33 6801.43 "/>
<path transform="matrix(0,.1,.1,0,-299,-154)" d="M 2226.33 8783.78 C 2213.58 8783.78 2203.25 8773.45 2203.25 8760.7 C 2203.25 8747.95 2213.58 8737.61 2226.33 8737.61 C 2239.08 8737.61 2249.41 8747.95 2249.41 8760.7 C 2249.41 8773.45 2239.08 8783.78 2226.33 8783.78 Z M 2226.33 8760.7 "/>
<path transform="matrix(0,.1,.1,0,-299,-154)" stroke-width="9.23334" stroke-linecap="butt" stroke-miterlimit="10" stroke-linejoin="miter" fill="none" stroke="#000000" d="M 1569.55 3203.71 L 1569.55 2998.2 "/>
<path transform="matrix(0,.1,.1,0,-299,-154)" stroke-width="9.23334" stroke-linecap="butt" stroke-miterlimit="10" stroke-linejoin="miter" fill="none" stroke="#000000" d="M 1592.63 3226.8 L 2161.94 3226.8 "/>
<path transform="matrix(0,.1,.1,0,-299,-154)" stroke-width="9.23334" stroke-linecap="butt" stroke-miterlimit="10" stroke-linejoin="miter" fill="none" stroke="#000000" d="M 1569.55 3455.4 L 1569.55 3249.88 "/>
<path transform="matrix(0,.1,.1,0,-299,-154)" stroke-width="9.23334" stroke-linecap="butt" stroke-miterlimit="10" stroke-linejoin="miter" fill="none" stroke="#000000" d="M 1569.55 4063.72 L 1569.55 3845.94 "/>
<path transform="matrix(0,.1,.1,0,-299,-154)" stroke-width="9.23334" stroke-linecap="butt" stroke-miterlimit="10" stroke-linejoin="miter" fill="none" stroke="#000000" d="M 1569.55 4312.01 L 1569.55 4063.72 "/>
<path transform="matrix(0,.1,.1,0,-299,-154)" stroke-width="9.23334" stroke-linecap="butt" stroke-miterlimit="10" stroke-linejoin="miter" fill="none" stroke="#000000" d="M 1592.63 4335.1 L 1848.97 4335.1 "/>
<path transform="matrix(0,.1,.1,0,-299,-154)" stroke-width="9.23334" stroke-linecap="butt" stroke-miterlimit="10" stroke-linejoin="miter" fill="none" stroke="#000000" d="M 1569.55 4606.47 L 1569.55 4358.18 "/>
<path transform="matrix(0,.1,.1,0,-299,-154)" stroke-width="9.23334" stroke-linecap="butt" stroke-miterlimit="10" stroke-linejoin="miter" fill="none" stroke="#000000" d="M 1569.55 4824.26 L 1569.55 4606.47 "/>
<path transform="matrix(0,.1,.1,0,-299,-154)" stroke-width="9.23334" stroke-linecap="butt" stroke-miterlimit="10" stroke-linejoin="miter" fill="none" stroke="#000000" d="M 1569.55 5432.58 L 1569.55 5214.79 "/>
<path transform="matrix(0,.1,.1,0,-299,-154)" stroke-width="9.23334" stroke-linecap="butt" stroke-miterlimit="10" stroke-linejoin="miter" fill="none" stroke="#000000" d="M 1569.55 5680.87 L 1569.55 5432.58 "/>
<path transform="matrix(0,.1,.1,0,-299,-154)" stroke-width="9.23334" stroke-linecap="butt" stroke-miterlimit="10" stroke-linejoin="miter" fill="none" stroke="#000000" d="M 1592.63 5703.95 L 1874.86 5703.95 "/>
<path transform="matrix(0,.1,.1,0,-299,-154)" stroke-width="9.23334" stroke-linecap="butt" stroke-miterlimit="10" stroke-linejoin="miter" fill="none" stroke="#000000" d="M 1569.55 5975.33 L 1569.55 5727.04 "/>
<path transform="matrix(0,.1,.1,0,-299,-154)" stroke-width="9.23334" stroke-linecap="butt" stroke-miterlimit="10" stroke-linejoin="miter" fill="none" stroke="#000000" d="M 1569.55 6193.11 L 1569.55 5975.33 "/>
<path transform="matrix(0,.1,.1,0,-299,-154)" stroke-width="9.23334" stroke-linecap="butt" stroke-miterlimit="10" stroke-linejoin="miter" fill="none" stroke="#000000" d="M 1569.55 6801.43 L 1569.55 6583.65 "/>
<path transform="matrix(0,.1,.1,0,-299,-154)" stroke-width="9.23334" stroke-linecap="butt" stroke-miterlimit="10" stroke-linejoin="miter" fill="none" stroke="#000000" d="M 1569.55 7119.06 L 1569.55 6801.43 "/>
<path transform="matrix(0,.1,.1,0,-299,-154)" stroke-width="9.23334" stroke-linecap="butt" stroke-miterlimit="10" stroke-linejoin="miter" fill="none" stroke="#000000" d="M 1569.55 7413.6 L 1569.55 7119.06 "/>
<path transform="matrix(0,.1,.1,0,-299,-154)" stroke-width="9.23334" stroke-linecap="butt" stroke-miterlimit="10" stroke-linejoin="miter" fill="none" stroke="#000000" d="M 1592.63 7436.68 L 1848.97 7436.68 "/>
<path transform="matrix(0,.1,.1,0,-299,-154)" stroke-width="9.23334" stroke-linecap="butt" stroke-miterlimit="10" stroke-linejoin="miter" fill="none" stroke="#000000" d="M 1569.55 7781.08 L 1569.55 7459.77 "/>
<path transform="matrix(0,.1,.1,0,-299,-154)" stroke-width="9.23334" stroke-linecap="butt" stroke-miterlimit="10" stroke-linejoin="miter" fill="none" stroke="#000000" d="M 1569.55 8102.4 L 1569.55 7781.08 "/>
<path transform="matrix(0,.1,.1,0,-299,-154)" stroke-width="9.23334" stroke-linecap="butt" stroke-miterlimit="10" stroke-linejoin="miter" fill="none" stroke="#000000" d="M 1592.63 8125.48 L 1848.97 8125.48 "/>
<path transform="matrix(0,.1,.1,0,-299,-154)" stroke-width="9.23334" stroke-linecap="butt" stroke-miterlimit="10" stroke-linejoin="miter" fill="none" stroke="#000000" d="M 1569.55 8420.02 L 1569.55 8148.57 "/>
<path transform="matrix(0,.1,.1,0,-299,-154)" stroke-width="9.23334" stroke-linecap="butt" stroke-miterlimit="10" stroke-linejoin="miter" fill="none" stroke="#000000" d="M 1592.63 8443.11 L 2133.57 8443.11 "/>
<path transform="matrix(0,.1,.1,0,-299,-154)" stroke-width="9.23334" stroke-linecap="butt" stroke-miterlimit="10" stroke-linejoin="miter" fill="none" stroke="#000000" d="M 1569.55 8760.73 L 1569.55 8466.19 "/>
<path transform="matrix(0,.1,.1,0,-299,-154)" stroke-width="9.23334" stroke-linecap="butt" stroke-miterlimit="10" stroke-linejoin="miter" fill="none" stroke="#000000" d="M 1569.55 8978.51 L 1569.55 8760.73 "/>
<path transform="matrix(0,.1,.1,0,-299,-154)" stroke-width="9.23334" stroke-linecap="butt" stroke-miterlimit="10" stroke-linejoin="miter" fill="none" stroke="#000000" d="M 1897.95 3162.39 L 1897.95 2998.2 "/>
<path transform="matrix(0,.1,.1,0,-299,-154)" stroke-width="9.23334" stroke-linecap="butt" stroke-miterlimit="10" stroke-linejoin="miter" fill="none" stroke="#000000" d="M 1897.95 3226.8 L 2226.34 3226.8 "/>
<path transform="matrix(0,.1,.1,0,-299,-154)" stroke-width="9.23334" stroke-linecap="butt" stroke-miterlimit="10" stroke-linejoin="miter" fill="none" stroke="#000000" d="M 1897.95 3473.3 L 1897.95 3291.2 "/>
<path transform="matrix(0,.1,.1,0,-299,-154)" stroke-width="9.23334" stroke-linecap="butt" stroke-miterlimit="10" stroke-linejoin="miter" fill="none" stroke="#000000" d="M 1897.95 4040.64 L 1897.95 3828.03 "/>
<path transform="matrix(0,.1,.1,0,-299,-154)" stroke-width="9.23334" stroke-linecap="butt" stroke-miterlimit="10" stroke-linejoin="miter" fill="none" stroke="#000000" d="M 1921.03 4063.72 L 2177.37 4063.72 "/>
<path transform="matrix(0,.1,.1,0,-299,-154)" stroke-width="9.23334" stroke-linecap="butt" stroke-miterlimit="10" stroke-linejoin="miter" fill="none" stroke="#000000" d="M 1897.95 4286.13 L 1897.95 4086.8 "/>
<path transform="matrix(0,.1,.1,0,-299,-154)" stroke-width="9.23334" stroke-linecap="butt" stroke-miterlimit="10" stroke-linejoin="miter" fill="none" stroke="#000000" d="M 1897.95 4583.39 L 1897.95 4384.07 "/>
<path transform="matrix(0,.1,.1,0,-299,-154)" stroke-width="9.23334" stroke-linecap="butt" stroke-miterlimit="10" stroke-linejoin="miter" fill="none" stroke="#000000" d="M 1921.03 4606.47 L 2177.37 4606.47 "/>
<path transform="matrix(0,.1,.1,0,-299,-154)" stroke-width="9.23334" stroke-linecap="butt" stroke-miterlimit="10" stroke-linejoin="miter" fill="none" stroke="#000000" d="M 1897.95 4842.16 L 1897.95 4629.55 "/>
<path transform="matrix(0,.1,.1,0,-299,-154)" stroke-width="9.23334" stroke-linecap="butt" stroke-miterlimit="10" stroke-linejoin="miter" fill="none" stroke="#000000" d="M 1897.95 5383.61 L 1897.95 5196.89 "/>
<path transform="matrix(0,.1,.1,0,-299,-154)" stroke-width="9.23334" stroke-linecap="butt" stroke-miterlimit="10" stroke-linejoin="miter" fill="none" stroke="#000000" d="M 1897.95 5680.87 L 1897.95 5481.55 "/>
<path transform="matrix(0,.1,.1,0,-299,-154)" stroke-width="9.23334" stroke-linecap="butt" stroke-miterlimit="10" stroke-linejoin="miter" fill="none" stroke="#000000" d="M 1921.03 5703.95 L 2177.37 5703.95 "/>
<path transform="matrix(0,.1,.1,0,-299,-154)" stroke-width="9.23334" stroke-linecap="butt" stroke-miterlimit="10" stroke-linejoin="miter" fill="none" stroke="#000000" d="M 1897.95 5926.36 L 1897.95 5727.04 "/>
<path transform="matrix(0,.1,.1,0,-299,-154)" stroke-width="9.23334" stroke-linecap="butt" stroke-miterlimit="10" stroke-linejoin="miter" fill="none" stroke="#000000" d="M 1897.95 6211.02 L 1897.95 6024.3 "/>
<path transform="matrix(0,.1,.1,0,-299,-154)" stroke-width="9.23334" stroke-linecap="butt" stroke-miterlimit="10" stroke-linejoin="miter" fill="none" stroke="#000000" d="M 1897.95 6752.46 L 1897.95 6565.75 "/>
<path transform="matrix(0,.1,.1,0,-299,-154)" stroke-width="9.23334" stroke-linecap="butt" stroke-miterlimit="10" stroke-linejoin="miter" fill="none" stroke="#000000" d="M 1897.95 7095.97 L 1897.95 6850.41 "/>
<path transform="matrix(0,.1,.1,0,-299,-154)" stroke-width="9.23334" stroke-linecap="butt" stroke-miterlimit="10" stroke-linejoin="miter" fill="none" stroke="#000000" d="M 1921.03 7119.06 L 2133.57 7119.06 "/>
<path transform="matrix(0,.1,.1,0,-299,-154)" stroke-width="9.23334" stroke-linecap="butt" stroke-miterlimit="10" stroke-linejoin="miter" fill="none" stroke="#000000" d="M 1897.95 7387.71 L 1897.95 7142.14 "/>
<path transform="matrix(0,.1,.1,0,-299,-154)" stroke-width="9.23334" stroke-linecap="butt" stroke-miterlimit="10" stroke-linejoin="miter" fill="none" stroke="#000000" d="M 1897.95 7758 L 1897.95 7485.65 "/>
<path transform="matrix(0,.1,.1,0,-299,-154)" stroke-width="9.23334" stroke-linecap="butt" stroke-miterlimit="10" stroke-linejoin="miter" fill="none" stroke="#000000" d="M 1921.03 7781.08 L 2119.53 7781.08 "/>
<path transform="matrix(0,.1,.1,0,-299,-154)" stroke-width="9.23334" stroke-linecap="butt" stroke-miterlimit="10" stroke-linejoin="miter" fill="none" stroke="#000000" d="M 1897.95 8076.51 L 1897.95 7804.16 "/>
<path transform="matrix(0,.1,.1,0,-299,-154)" stroke-width="9.23334" stroke-linecap="butt" stroke-miterlimit="10" stroke-linejoin="miter" fill="none" stroke="#000000" d="M 1897.95 8443.11 L 1897.95 8174.45 "/>
<path transform="matrix(0,.1,.1,0,-299,-154)" stroke-width="9.23334" stroke-linecap="butt" stroke-miterlimit="10" stroke-linejoin="miter" fill="none" stroke="#000000" d="M 1897.95 8711.75 L 1897.95 8443.11 "/>
<path transform="matrix(0,.1,.1,0,-299,-154)" stroke-width="9.23334" stroke-linecap="butt" stroke-miterlimit="10" stroke-linejoin="miter" fill="none" stroke="#000000" d="M 1897.95 8978.51 L 1897.95 8809.7 "/>
<path transform="matrix(0,.1,.1,0,-299,-154)" stroke-width="9.23334" stroke-linecap="butt" stroke-miterlimit="10" stroke-linejoin="miter" fill="none" stroke="#000000" d="M 2226.34 3162.39 L 2226.34 2998.2 "/>
<path transform="matrix(0,.1,.1,0,-299,-154)" stroke-width="9.23334" stroke-linecap="butt" stroke-miterlimit="10" stroke-linejoin="miter" fill="none" stroke="#000000" d="M 2226.34 3473.3 L 2226.34 3291.2 "/>
<path transform="matrix(0,.1,.1,0,-299,-154)" stroke-width="9.23334" stroke-linecap="butt" stroke-miterlimit="10" stroke-linejoin="miter" fill="none" stroke="#000000" d="M 2226.34 4014.75 L 2226.34 3828.03 "/>
<path transform="matrix(0,.1,.1,0,-299,-154)" stroke-width="9.23334" stroke-linecap="butt" stroke-miterlimit="10" stroke-linejoin="miter" fill="none" stroke="#000000" d="M 2226.34 4312.01 L 2226.34 4112.7 "/>
<path transform="matrix(0,.1,.1,0,-299,-154)" stroke-width="9.23334" stroke-linecap="butt" stroke-miterlimit="10" stroke-linejoin="miter" fill="none" stroke="#000000" d="M 2203.26 4335.1 L 1946.91 4335.1 "/>
<path transform="matrix(0,.1,.1,0,-299,-154)" stroke-width="9.23334" stroke-linecap="butt" stroke-miterlimit="10" stroke-linejoin="miter" fill="none" stroke="#000000" d="M 2226.34 4557.5 L 2226.34 4358.18 "/>
<path transform="matrix(0,.1,.1,0,-299,-154)" stroke-width="9.23334" stroke-linecap="butt" stroke-miterlimit="10" stroke-linejoin="miter" fill="none" stroke="#000000" d="M 2226.34 4842.16 L 2226.34 4655.44 "/>
<path transform="matrix(0,.1,.1,0,-299,-154)" stroke-width="9.23334" stroke-linecap="butt" stroke-miterlimit="10" stroke-linejoin="miter" fill="none" stroke="#000000" d="M 2226.34 5409.5 L 2226.34 5196.89 "/>
<path transform="matrix(0,.1,.1,0,-299,-154)" stroke-width="9.23334" stroke-linecap="butt" stroke-miterlimit="10" stroke-linejoin="miter" fill="none" stroke="#000000" d="M 2203.26 5432.58 L 1946.91 5432.58 "/>
<path transform="matrix(0,.1,.1,0,-299,-154)" stroke-width="9.23334" stroke-linecap="butt" stroke-miterlimit="10" stroke-linejoin="miter" fill="none" stroke="#000000" d="M 2226.34 5654.98 L 2226.34 5455.66 "/>
<path transform="matrix(0,.1,.1,0,-299,-154)" stroke-width="9.23334" stroke-linecap="butt" stroke-miterlimit="10" stroke-linejoin="miter" fill="none" stroke="#000000" d="M 2226.34 5952.24 L 2226.34 5752.93 "/>
<path transform="matrix(0,.1,.1,0,-299,-154)" stroke-width="9.23334" stroke-linecap="butt" stroke-miterlimit="10" stroke-linejoin="miter" fill="none" stroke="#000000" d="M 2203.26 5975.33 L 1946.91 5975.33 "/>
<path transform="matrix(0,.1,.1,0,-299,-154)" stroke-width="9.23334" stroke-linecap="butt" stroke-miterlimit="10" stroke-linejoin="miter" fill="none" stroke="#000000" d="M 2226.34 6211.02 L 2226.34 5998.41 "/>
<path transform="matrix(0,.1,.1,0,-299,-154)" stroke-width="9.23334" stroke-linecap="butt" stroke-miterlimit="10" stroke-linejoin="miter" fill="none" stroke="#000000" d="M 2226.34 6778.35 L 2226.34 6565.75 "/>
<path transform="matrix(0,.1,.1,0,-299,-154)" stroke-width="9.23334" stroke-linecap="butt" stroke-miterlimit="10" stroke-linejoin="miter" fill="none" stroke="#000000" d="M 2203.26 6801.43 L 1946.91 6801.43 "/>
<path transform="matrix(0,.1,.1,0,-299,-154)" stroke-width="9.23334" stroke-linecap="butt" stroke-miterlimit="10" stroke-linejoin="miter" fill="none" stroke="#000000" d="M 2226.34 7019.22 L 2226.34 6824.52 "/>
<path transform="matrix(0,.1,.1,0,-299,-154)" stroke-width="9.23334" stroke-linecap="butt" stroke-miterlimit="10" stroke-linejoin="miter" fill="none" stroke="#000000" d="M 2226.34 7436.68 L 2226.34 7218.89 "/>
<path transform="matrix(0,.1,.1,0,-299,-154)" stroke-width="9.23334" stroke-linecap="butt" stroke-miterlimit="10" stroke-linejoin="miter" fill="none" stroke="#000000" d="M 2226.34 7654.47 L 2226.34 7436.68 "/>
<path transform="matrix(0,.1,.1,0,-299,-154)" stroke-width="9.23334" stroke-linecap="butt" stroke-miterlimit="10" stroke-linejoin="miter" fill="none" stroke="#000000" d="M 2226.34 8125.48 L 2226.34 7907.7 "/>
<path transform="matrix(0,.1,.1,0,-299,-154)" stroke-width="9.23334" stroke-linecap="butt" stroke-miterlimit="10" stroke-linejoin="miter" fill="none" stroke="#000000" d="M 2226.34 8343.27 L 2226.34 8125.48 "/>
<path transform="matrix(0,.1,.1,0,-299,-154)" stroke-width="9.23334" stroke-linecap="butt" stroke-miterlimit="10" stroke-linejoin="miter" fill="none" stroke="#000000" d="M 2226.34 8737.64 L 2226.34 8542.94 "/>
<path transform="matrix(0,.1,.1,0,-299,-154)" stroke-width="9.23334" stroke-linecap="butt" stroke-miterlimit="10" stroke-linejoin="miter" fill="none" stroke="#000000" d="M 2203.26 8760.73 L 1946.91 8760.73 "/>
<path transform="matrix(0,.1,.1,0,-299,-154)" stroke-width="9.23334" stroke-linecap="butt" stroke-miterlimit="10" stroke-linejoin="miter" fill="none" stroke="#000000" d="M 2226.34 8978.51 L 2226.34 8783.81 "/>
<symbol id="font_d_2">
<path d="M 0 0 L .504 0 L .504 .08 L 0 .08 L 0 0 M 0 .202 L .504 .202 L .504 .282 L 0 .282 L 0 .202 Z "/>
</symbol>
<use xlink:href="#font_d_2" transform="matrix(12.8804,0,0,-12.8804,62.824899,36.88639)"/>
<use xlink:href="#font_d_2" transform="matrix(12.8804,0,0,-12.8804,199.7075,36.88639)"/>
<use xlink:href="#font_d_2" transform="matrix(12.8804,0,0,-12.8804,336.59269,36.88639)"/>
<path transform="matrix(0,.1,.1,0,-299,-154)" d="M 2129.74 7019.22 L 2322.947 7019.22 L 2322.947 7218.892 L 2129.74 7218.892 Z " fill="#ffffff"/>
<path transform="matrix(0,.1,.1,0,-299,-154)" stroke-width="9.23334" stroke-linecap="butt" stroke-miterlimit="10" stroke-linejoin="miter" fill="none" stroke="#000000" d="M 2129.74 7019.22 L 2322.947 7019.22 L 2322.947 7218.892 L 2129.74 7218.892 Z "/>
<symbol id="font_e_1">
<path d="M .298 .17 L .21100001 .606 C .20600002 .629 .20300001 .649 .20300001 .658 C .20300001 .684 .214 .69 .263 .69 L .297 .69 L .30200003 .73700007 L .0069999995 .73700007 L 0 .69 L .028 .69 C .076000008 .69 .09 .672 .106000009 .592 L .223 0 L .26 0 L .55700007 .528 C .635 .66 .66 .683 .731 .69 L .736 .73700007 L .464 .73700007 L .45900003 .69 L .477 .69 C .53000006 .69 .552 .67800006 .552 .649 C .552 .632 .544 .611 .521 .57100006 L .298 .17 Z "/>
</symbol>
<use xlink:href="#font_e_1" transform="matrix(12.8805,0,0,-12.8805,408.0017,73.3562)"/>
<path transform="matrix(0,.1,.1,0,-299,-154)" d="M 2119.53 7654.47 L 2333.159 7654.47 L 2333.159 7907.6975 L 2119.53 7907.6975 Z " fill="#ffffff"/>
<path transform="matrix(0,.1,.1,0,-299,-154)" stroke-width="9.23334" stroke-linecap="butt" stroke-miterlimit="10" stroke-linejoin="miter" fill="none" stroke="#000000" d="M 2119.53 7654.47 L 2333.159 7654.47 L 2333.159 7907.6975 L 2119.53 7907.6975 Z "/>
<use xlink:href="#font_e_1" transform="matrix(12.8805,0,0,-12.8805,471.52467,74.76021)"/>
<symbol id="font_d_1">
<path d="M .19100002 0 L .22500003 0 L .22500003 .08400001 C .22500003 .24800001 .23700002 .34600003 .27 .43600006 C .236 .485 .22500003 .52900007 .22500003 .62100008 C .25500003 .62100008 .268 .61800006 .29900003 .605 C .33900003 .587 .34600003 .58500006 .36200003 .58500006 C .393 .58500006 .416 .60800006 .416 .64000007 C .416 .66800007 .395 .69 .36600004 .69 C .351 .69 .34800003 .689 .298 .669 C .266 .657 .254 .65400007 .22500003 .653 C .22500003 .695 .23000002 .727 .24700001 .769 C .259 .801 .261 .81 .261 .82500007 C .261 .859 .24100003 .88100007 .208 .88100007 C .17500001 .88100007 .15500002 .859 .15500002 .82500007 C .15500002 .81 .158 .8 .16900002 .769 C .186 .726 .19100002 .697 .19100002 .653 C .16200002 .65400007 .15 .657 .118 .669 C .068 .689 .065 .69 .05 .69 C .021000002 .69 0 .669 0 .64000007 C 0 .60800006 .022999999 .58500006 .054 .58500006 C .07000001 .58500006 .07700001 .587 .11700001 .605 C .148 .61800006 .16100002 .62100008 .19100002 .62100008 C .19100002 .531 .18 .485 .14600002 .43600006 C .179 .34600003 .19100002 .24900002 .19100002 .08400001 L .19100002 0 Z "/>
</symbol>
<use xlink:href="#font_d_1" transform="matrix(9.55655,0,0,-9.55655,482.21507,70.91542)"/>
<path transform="matrix(0,.1,.1,0,-299,-154)" d="M 2129.74 8343.27 L 2322.947 8343.27 L 2322.947 8542.945 L 2129.74 8542.945 Z " fill="#ffffff"/>
<path transform="matrix(0,.1,.1,0,-299,-154)" stroke-width="9.23334" stroke-linecap="butt" stroke-miterlimit="10" stroke-linejoin="miter" fill="none" stroke="#000000" d="M 2129.74 8343.27 L 2322.947 8343.27 L 2322.947 8542.945 L 2129.74 8542.945 Z "/>
<use xlink:href="#font_e_1" transform="matrix(12.8805,0,0,-12.8805,540.40469,73.3562)"/>
</g>
</g>
</svg>
