<?xml version="1.0" encoding="UTF-8" standalone="no"?>
<!DOCTYPE svg PUBLIC "-//W3C//DTD SVG 1.1//EN" "http://www.w3.org/Graphics/SVG/1.1/DTD/svg11.dtd">
<svg xmlns="http://www.w3.org/2000/svg" xmlns:xlink="http://www.w3.org/1999/xlink" version="1.1" width="215pt" height="54pt" viewBox="0 0 215 54">
<g enable-background="new">
<clipPath id="cp0">
<path transform="matrix(1,0,0,-1,-301,555)" d="M 0 0 L 1001 0 L 1001 709 L 0 709 Z "/>
</clipPath>
<g clip-path="url(#cp0)">
<path transform="matrix(.1,0,0,-.1,-301,555)" d="M 4012.25 5446.93 C 4012.25 5459.68 4001.91 5470.01 3989.16 5470.01 C 3976.41 5470.01 3966.08 5459.68 3966.08 5446.93 C 3966.08 5434.18 3976.41 5423.84 3989.16 5423.84 C 4001.91 5423.84 4012.25 5434.18 4012.25 5446.93 Z M 3989.16 5446.93 "/>
<path transform="matrix(.1,0,0,-.1,-301,555)" d="M 4635.04 5350.32 L 4892.649 5350.32 L 4892.649 5543.527 L 4635.04 5543.527 Z " fill="#ffffff"/>
<clipPath id="cp1">
<path transform="matrix(.1,0,0,-.1,-301,555)" d="M 4635.04 5350.32 L 4892.649 5350.32 L 4892.649 5543.527 L 4635.04 5543.527 Z "/>
</clipPath>
<g clip-path="url(#cp1)">
<path transform="matrix(.1,0,0,-.1,-301,555)" stroke-width="9.23334" stroke-linecap="butt" stroke-miterlimit="10" stroke-linejoin="miter" fill="none" stroke="#000000" d="M 4667.88 5429.14 C 4715.99 5486.48 4811.7 5486.48 4859.81 5429.14 "/>
<path transform="matrix(.1,0,0,-.1,-301,555)" stroke-width="9.23334" stroke-linecap="butt" stroke-miterlimit="10" stroke-linejoin="miter" fill="none" stroke="#000000" d="M 4763.85 5383.16 L 4837.22 5478.14 "/>
<path transform="matrix(.1,0,0,-.1,-301,555)" d="M 4850.85 5495.78 C 4848.61 5494.05 4838.04 5487.01 4829.95 5483.75 L 4844.48 5472.53 C 4845.59 5481.18 4849.74 5493.18 4850.85 5495.78 Z "/>
<path transform="matrix(.1,0,0,-.1,-301,555)" stroke-width="9.14048" stroke-linecap="butt" stroke-miterlimit="10" stroke-linejoin="miter" fill="none" stroke="#000000" d="M 4850.85 5495.78 C 4848.61 5494.05 4838.04 5487.01 4829.95 5483.75 L 4844.48 5472.53 C 4845.59 5481.18 4849.74 5493.18 4850.85 5495.78 Z "/>
</g>
<path transform="matrix(.1,0,0,-.1,-301,555)" stroke-width="9.23334" stroke-linecap="butt" stroke-miterlimit="10" stroke-linejoin="miter" fill="none" stroke="#000000" d="M 4635.04 5350.32 L 4892.649 5350.32 L 4892.649 5543.527 L 4635.04 5543.527 Z "/>
<path transform="matrix(.1,0,0,-.1,-301,555)" stroke-width="9.23334" stroke-linecap="butt" stroke-miterlimit="10" stroke-linejoin="miter" fill="none" stroke="#000000" d="M 3512.09 5446.93 L 3347.89 5446.93 "/>
<path transform="matrix(.1,0,0,-.1,-301,555)" stroke-width="9.23334" stroke-linecap="butt" stroke-miterlimit="10" stroke-linejoin="miter" fill="none" stroke="#000000" d="M 3966.08 5446.93 L 3722.98 5446.93 "/>
<path transform="matrix(.1,0,0,-.1,-301,555)" stroke-width="9.23334" stroke-linecap="butt" stroke-miterlimit="10" stroke-linejoin="miter" fill="none" stroke="#000000" d="M 3989.16 5423.84 L 3989.16 5211.69 "/>
<path transform="matrix(.1,0,0,-.1,-301,555)" stroke-width="9.23334" stroke-linecap="butt" stroke-miterlimit="10" stroke-linejoin="miter" fill="none" stroke="#000000" d="M 4255.34 5446.93 L 4012.25 5446.93 "/>
<path transform="matrix(.1,0,0,-.1,-301,555)" stroke-width="9.23334" stroke-linecap="butt" stroke-miterlimit="10" stroke-linejoin="miter" fill="none" stroke="#000000" d="M 4635.05 5446.93 L 4466.23 5446.93 "/>
<path transform="matrix(.1,0,0,-.1,-301,555)" stroke-width="9.23334" stroke-linecap="butt" stroke-miterlimit="10" stroke-linejoin="miter" fill="none" stroke="#000000" d="M 3617.54 5118.53 L 3347.89 5118.53 "/>
<path transform="matrix(.1,0,0,-.1,-301,555)" stroke-width="9.23334" stroke-linecap="butt" stroke-miterlimit="10" stroke-linejoin="miter" fill="none" stroke="#000000" d="M 3887.18 5118.53 L 3617.54 5118.53 "/>
<path transform="matrix(.1,0,0,-.1,-301,555)" stroke-width="9.23334" stroke-linecap="butt" stroke-miterlimit="10" stroke-linejoin="miter" fill="none" stroke="#000000" d="M 4360.79 5118.53 L 4091.14 5118.53 "/>
<path transform="matrix(.1,0,0,-.1,-301,555)" stroke-width="9.23334" stroke-linecap="butt" stroke-miterlimit="10" stroke-linejoin="miter" fill="none" stroke="#000000" d="M 4763.86 5118.53 L 4360.79 5118.53 "/>
<symbol id="font_2_2">
<path d="M 0 .85 L 0 0 L .058000007 0 L .058000007 .85 L 0 .85 Z "/>
</symbol>
<use xlink:href="#font_2_2" transform="matrix(12.742,0,0,-12.742,14.194619,15.585107)"/>
<symbol id="font_3_6">
<path d="M .24200002 .71900007 C .102000009 .71900007 0 .566 0 .357 C 0 .15100001 .099 0 .23400003 0 C .374 0 .472 .14600002 .472 .35400004 C .472 .46000005 .45000003 .54800006 .40800003 .61700007 C .36900003 .68 .305 .71900007 .24200002 .71900007 M .23500002 .676 C .268 .676 .3 .65400007 .32400004 .614 C .351 .568 .36 .509 .36 .37200005 C .36 .23200001 .35300002 .16600001 .33300004 .12200001 C .31000004 .073 .27400003 .043 .23600003 .043 C .20300001 .043 .171 .065 .14700002 .105000007 C .11900001 .15200001 .11100001 .215 .11100001 .37800003 C .11100001 .49400003 .11800001 .55300006 .13800001 .596 C .16100002 .647 .197 .676 .23500002 .676 Z "/>
</symbol>
<use xlink:href="#font_3_6" transform="matrix(12.8804,0,0,-12.8804,16.878899,14.087066)"/>
<symbol id="font_2_1">
<path d="M .192 .42700003 L 0 .025000006 L .052 0 L .256 .42700003 L .052 .8540001 L 0 .829 L .192 .42700003 Z "/>
</symbol>
<use xlink:href="#font_2_1" transform="matrix(12.742,0,0,-12.742,23.92012,15.610591)"/>
<path transform="matrix(.1,0,0,-.1,-301,555)" d="M 3512.09 5350.32 L 3722.9813 5350.32 L 3722.9813 5543.527 L 3512.09 5543.527 Z " fill="#ffffff"/>
<path transform="matrix(.1,0,0,-.1,-301,555)" stroke-width="9.23334" stroke-linecap="butt" stroke-miterlimit="10" stroke-linejoin="miter" fill="none" stroke="#000000" d="M 3512.09 5350.32 L 3722.9813 5350.32 L 3722.9813 5543.527 L 3512.09 5543.527 Z "/>
<symbol id="font_4_1">
<path d="M .611 .354 L .55 .123 C .535 .07 .535 .069000009 .527 .061000006 C .51600006 .051000004 .49200005 .047000003 .44300003 .047000003 L .439 .047000003 L .43400003 0 L .75100007 0 L .757 .047000003 L .731 .047000003 C .666 .047000003 .652 .052 .652 .074 C .652 .081 .656 .104 .661 .123 L .78900006 .59900006 C .804 .65400007 .804 .65400007 .81200006 .661 C .823 .671 .846 .675 .896 .675 L .90000006 .675 L .90500006 .72200009 L .587 .72200009 L .582 .675 L .60800006 .675 C .67300006 .675 .68700006 .67 .68700006 .648 C .68700006 .64000007 .684 .623 .67700007 .59900006 L .624 .40100003 L .302 .40100003 L .356 .59900006 C .37 .65400007 .37 .65400007 .379 .661 C .389 .671 .41300006 .675 .462 .675 L .46600003 .675 L .47100003 .72200009 L .15400002 .72200009 L .148 .675 L .17400001 .675 C .23900001 .675 .25300003 .67 .25300003 .648 C .25300003 .64000007 .24900002 .619 .24400002 .59900006 L .116000007 .123 C .102000009 .07 .101 .069000009 .09300001 .061000006 C .082 .051000004 .059000005 .047000003 .010000002 .047000003 L .0050000029 .047000003 L 0 0 L .31800003 0 L .323 .047000003 L .297 .047000003 C .23200001 .047000003 .21800001 .052 .21800001 .074 C .21800001 .082 .21800001 .082 .22800002 .123 L .29000003 .354 L .611 .354 Z "/>
</symbol>
<use xlink:href="#font_4_1" transform="matrix(12.8805,0,0,-12.8805,54.752546,14.901978)"/>
<path transform="matrix(.1,0,0,-.1,-301,555)" d="M 4255.34 5350.32 L 4466.231 5350.32 L 4466.231 5543.527 L 4255.34 5543.527 Z " fill="#ffffff"/>
<path transform="matrix(.1,0,0,-.1,-301,555)" stroke-width="9.23334" stroke-linecap="butt" stroke-miterlimit="10" stroke-linejoin="miter" fill="none" stroke="#000000" d="M 4255.34 5350.32 L 4466.231 5350.32 L 4466.231 5543.527 L 4255.34 5543.527 Z "/>
<use xlink:href="#font_4_1" transform="matrix(12.8805,0,0,-12.8805,129.07656,14.901978)"/>
<symbol id="font_5_2">
<path d="M .06300001 0 L .06300001 .65200009 L 0 .65200009 L 0 0 L .06300001 0 Z "/>
</symbol>
<use xlink:href="#font_5_2" transform="matrix(12.742,0,0,-12.742,.54417517,43.477655)"/>
<use xlink:href="#font_5_2" transform="matrix(12.742,0,0,-12.742,.54417517,51.12258)"/>
<symbol id="font_6_1">
<path d="M .024000003 .58500006 C .050000006 .63600006 .09600001 .689 .11800001 .689 C .12900001 .689 .134 .679 .134 .66 C .134 .61300006 .094000007 .47700004 .094000007 .41700004 C .094000007 .284 .146 .23000002 .27600003 .23000002 C .278 .23000002 .24000001 .023000002 .24000001 .009000003 C .243 .001000002 .245 0 .257 0 C .27 0 .272 .001000002 .278 .0069999995 C .282 .012000009 .31800003 .15600002 .337 .23000002 C .38500003 .231 .4 .23500002 .48200003 .293 C .49600003 .30200003 .5450001 .351 .5680001 .39500005 C .62900009 .513 .63000008 .6750001 .73800006 .722 L .73800006 .72300007 C .73800006 .72800007 .7340001 .7440001 .7340001 .7440001 C .69400009 .74300006 .63900008 .739 .59800007 .70000007 C .54700008 .65200009 .56100007 .41700004 .46 .328 C .395 .272 .379 .27 .347 .27 C .347 .27 .46 .734 .48200003 .80700007 L .479 .80700007 C .469 .80700007 .38000003 .781 .38000003 .778 C .36 .66300007 .284 .268 .284 .27 C .20300001 .27 .18800001 .30200003 .18800001 .40800003 C .18800001 .48200003 .22600001 .58500006 .22600001 .67300006 C .22600001 .712 .214 .7440001 .17400001 .7440001 C .101 .7440001 .030000003 .688 0 .59900006 L .024000003 .58500006 Z "/>
</symbol>
<use xlink:href="#font_6_1" transform="matrix(12.465,0,0,-12.465,3.3825174,49.750509)"/>
<symbol id="font_3_5">
<path d="M .18800001 .46600003 L 0 .455 L 0 .41200004 L .051000008 .41200004 C .08800001 .41200004 .094000007 .40500004 .094000007 .36200003 L .094000007 .123 L .094000007 .083000008 C .094000007 .043 .083000008 .036000004 .019 .036000004 L .012 .036000004 L .012 0 L .271 0 L .271 .036000004 L .264 .036000004 C .199 .036000004 .18800001 .043 .18800001 .083000008 L .18800001 .123 L .18800001 .46600003 M .141 .71500006 C .109000008 .71500006 .083000008 .689 .083000008 .657 C .083000008 .62600007 .109000008 .59900006 .14 .59900006 C .17300001 .59900006 .199 .625 .199 .657 C .199 .689 .17300001 .71500006 .141 .71500006 Z "/>
</symbol>
<symbol id="font_3_1">
<path d="M .17300001 .46600003 L 0 .455 L 0 .41200004 L .036 .41200004 C .073 .41200004 .079 .40500004 .079 .36200003 L .079 .123 L .079 .083000008 C .079 .043 .068 .036000004 .0040000008 .036000004 L 0 .036000004 L 0 0 L .253 0 L .253 .036000004 L .24900003 .036000004 C .18400002 .036000004 .17300001 .043 .17300001 .083000008 L .17300001 .123 L .17300001 .22700002 C .17300001 .27600003 .18000002 .321 .19100002 .344 C .21200001 .38900004 .257 .42000003 .3 .42000003 C .326 .42000003 .356 .40500004 .37100003 .38500003 C .386 .36400003 .393 .333 .393 .28500004 L .393 .123 L .393 .083000008 C .393 .043 .382 .036000004 .317 .036000004 L .313 .036000004 L .313 0 L .56600007 0 L .56600007 .036000004 L .56200006 .036000004 C .49800004 .036000004 .487 .043 .487 .083000008 L .487 .123 L .487 .28 C .487 .35200004 .48400004 .37 .46600003 .404 C .441 .45200003 .39000003 .48100005 .331 .48100005 C .267 .48100005 .21700002 .45100004 .17300001 .38500003 L .17300001 .46600003 Z "/>
</symbol>
<use xlink:href="#font_3_5" transform="matrix(9.66036,0,0,-9.66036,13.092038,48.91992)"/>
<use xlink:href="#font_3_1" transform="matrix(9.66036,0,0,-9.66036,16.221982,48.91992)"/>
<symbol id="font_5_1">
<path d="M .24700003 .586 L 0 .024999977 L .052 0 L .311 .586 L .052 1.172 L 0 1.1470001 L .24700003 .586 Z "/>
</symbol>
<use xlink:href="#font_5_1" transform="matrix(12.742,0,0,-12.742,23.511155,50.61326)"/>
<path transform="matrix(.1,0,0,-.1,-301,555)" d="M 3887.18 5021.93 L 4091.145 5021.93 L 4091.145 5215.141 L 3887.18 5215.141 Z " fill="#ffffff"/>
<path transform="matrix(.1,0,0,-.1,-301,555)" stroke-width="9.23334" stroke-linecap="butt" stroke-miterlimit="10" stroke-linejoin="miter" fill="none" stroke="#000000" d="M 3887.18 5021.93 L 4091.145 5021.93 L 4091.145 5215.141 L 3887.18 5215.141 Z "/>
<symbol id="font_4_2">
<path d="M .0069999995 .69 L .031999999 .69 C .09700001 .69 .11100001 .685 .11100001 .663 C .11100001 .65500006 .107 .634 .102000009 .614 L .020000004 .30900003 C .0040000008 .25100003 0 .22500001 0 .19100002 C 0 .067 .087000008 0 .25000004 0 C .30100004 0 .35100005 .008 .39000003 .023000002 C .45500005 .048 .49400003 .091000009 .52500006 .172 C .53900006 .207 .53900006 .207 .56600007 .30900003 L .62200006 .52 C .665 .675 .674 .686 .762 .69 L .767 .73700007 L .504 .73700007 L .49800004 .69 C .56200006 .69100007 .591 .67300006 .591 .635 C .591 .61300006 .59000006 .609 .568 .52 L .51000007 .305 C .481 .194 .46900005 .16100002 .44500006 .127 C .40600003 .071 .34800003 .043 .27100004 .043 C .16900003 .043 .11000001 .093 .11000001 .178 C .11000001 .20400001 .117000009 .25300003 .124000009 .28100003 L .21400002 .614 C .22800002 .66800007 .22800002 .66800007 .23700002 .676 C .24700001 .686 .27100004 .69 .32000003 .69 L .32400004 .69 L .33 .73700007 L .012000002 .73700007 L .0069999995 .69 Z "/>
</symbol>
<use xlink:href="#font_4_2" transform="matrix(12.8805,0,0,-12.8805,93.1179,47.8302)"/>
<use xlink:href="#font_5_2" transform="matrix(12.742,0,0,-12.742,182.43669,43.477167)"/>
<use xlink:href="#font_5_2" transform="matrix(12.742,0,0,-12.742,182.43669,51.122095)"/>
<use xlink:href="#font_6_1" transform="matrix(12.465,0,0,-12.465,185.2766,49.75002)"/>
<symbol id="font_3_2">
<path d="M .218 .49600006 C .09600001 .49600006 0 .38700003 0 .24700001 C 0 .11000001 .09600001 0 .21599999 0 C .336 0 .432 .11000001 .432 .24800001 C .432 .385 .336 .49600006 .218 .49600006 M .218 .453 C .28800003 .453 .32700003 .38 .32700003 .24800001 C .32700003 .115 .28800003 .043 .21599999 .043 C .144 .043 .10500001 .115 .10500001 .24700001 C .10500001 .38300003 .143 .453 .218 .453 Z "/>
</symbol>
<symbol id="font_3_4">
<path d="M .39100004 .008 L .573 .015000001 L .573 .058000003 L .548 .058000003 C .493 .058000003 .48500005 .067 .48500005 .13100001 L .48500005 .481 L .29700003 .47000004 L .29700003 .42700006 L .34800003 .42700006 C .38500003 .42700006 .39100004 .42000003 .39100004 .37700004 L .39100004 .254 C .39100004 .19700001 .38500003 .164 .37000004 .13100001 C .349 .087000008 .30900003 .061000006 .26000003 .061000006 C .229 .061000006 .20300001 .072000008 .19000001 .09200001 C .17700002 .111 .17500001 .12100001 .17500001 .17600002 L .17500001 .481 L 0 .47000004 L 0 .42700006 L .038000004 .42700006 C .075 .42700006 .081 .42000003 .081 .37700004 L .081 .16100002 C .081 .11000001 .08500001 .087000008 .10000001 .064 C .127 .023000002 .17500001 0 .23500002 0 C .30100004 0 .34700004 .027 .39100004 .091000009 L .39100004 .008 Z "/>
</symbol>
<symbol id="font_3_3">
<path d="M .176 .481 L .176 .679 L .135 .679 C .125 .549 .08100001 .48300005 0 .477 L 0 .43800003 L .082 .43800003 L .082 .18300002 C .082 .113000009 .08400001 .08800001 .094000007 .065 C .11000001 .023000002 .15 0 .208 0 C .24700001 0 .28100003 .012 .30400003 .034 C .337 .066 .356 .119 .356 .17400001 C .356 .18 .356 .187 .35500003 .19700001 L .31300003 .19700001 C .31 .10700001 .284 .061000006 .23500002 .061000006 C .212 .061000006 .192 .073 .185 .09 C .179 .104 .176 .12900001 .176 .165 L .176 .43800003 L .323 .43800003 L .323 .481 L .176 .481 Z "/>
</symbol>
<use xlink:href="#font_3_2" transform="matrix(9.66036,0,0,-9.66036,195.14067,48.95533)"/>
<use xlink:href="#font_3_4" transform="matrix(9.66036,0,0,-9.66036,199.84526,48.95533)"/>
<use xlink:href="#font_3_3" transform="matrix(9.66036,0,0,-9.66036,205.71875,48.95533)"/>
<use xlink:href="#font_5_1" transform="matrix(12.742,0,0,-12.742,210.94976,50.61277)"/>
</g>
</g>
</svg>
