<?xml version="1.0" encoding="UTF-8" standalone="no"?>
<!DOCTYPE svg PUBLIC "-//W3C//DTD SVG 1.1//EN" "http://www.w3.org/Graphics/SVG/1.1/DTD/svg11.dtd">
<svg xmlns="http://www.w3.org/2000/svg" xmlns:xlink="http://www.w3.org/1999/xlink" version="1.1" width="90pt" height="80pt" viewBox="0 0 90 80">
<g enable-background="new">
<clipPath id="cp0">
<path transform="matrix(1,0,0,-1,-299,555)" d="M 0 0 L 1001 0 L 1001 709 L 0 709 Z "/>
</clipPath>
<g clip-path="url(#cp0)">
<path transform="matrix(.1,0,0,-.1,-299,555)" d="M 3466.61 5520.46 C 3466.61 5533.21 3456.27 5543.54 3443.52 5543.54 C 3430.77 5543.54 3420.44 5533.21 3420.44 5520.46 C 3420.44 5507.71 3430.77 5497.38 3443.52 5497.38 C 3456.27 5497.38 3466.61 5507.71 3466.61 5520.46 Z M 3443.52 5520.46 "/>
<path transform="matrix(.1,0,0,-.1,-299,555)" d="M 3466.61 5192.06 C 3466.61 5204.81 3456.27 5215.14 3443.52 5215.14 C 3430.77 5215.14 3420.44 5204.81 3420.44 5192.06 C 3420.44 5179.31 3430.77 5168.98 3443.52 5168.98 C 3456.27 5168.98 3466.61 5179.31 3466.61 5192.06 Z M 3443.52 5192.06 "/>
<path transform="matrix(.1,0,0,-.1,-299,555)" stroke-width="9.23334" stroke-linecap="butt" stroke-miterlimit="10" stroke-linejoin="miter" fill="none" stroke="#000000" d="M 3420.44 5520.46 L 2998.23 5520.46 "/>
<path transform="matrix(.1,0,0,-.1,-299,555)" stroke-width="9.23334" stroke-linecap="butt" stroke-miterlimit="10" stroke-linejoin="miter" fill="none" stroke="#000000" d="M 3443.52 5497.37 L 3443.52 5215.14 "/>
<path transform="matrix(.1,0,0,-.1,-299,555)" stroke-width="9.23334" stroke-linecap="butt" stroke-miterlimit="10" stroke-linejoin="miter" fill="none" stroke="#000000" d="M 3888.8 5520.46 L 3466.61 5520.46 "/>
<path transform="matrix(.1,0,0,-.1,-299,555)" stroke-width="9.23334" stroke-linecap="butt" stroke-miterlimit="10" stroke-linejoin="miter" fill="none" stroke="#000000" d="M 3420.44 5192.06 L 2998.23 5192.06 "/>
<path transform="matrix(.1,0,0,-.1,-299,555)" stroke-width="9.23334" stroke-linecap="butt" stroke-miterlimit="10" stroke-linejoin="miter" fill="none" stroke="#000000" d="M 3443.52 5168.98 L 3443.52 4968.07 "/>
<path transform="matrix(.1,0,0,-.1,-299,555)" stroke-width="9.23334" stroke-linecap="butt" stroke-miterlimit="10" stroke-linejoin="miter" fill="none" stroke="#000000" d="M 3888.8 5192.06 L 3466.61 5192.06 "/>
<path transform="matrix(.1,0,0,-.1,-299,555)" stroke-width="9.23334" stroke-linecap="butt" stroke-miterlimit="10" stroke-linejoin="miter" fill="none" stroke="#000000" d="M 3162.43 4863.66 L 2998.23 4863.66 "/>
<path transform="matrix(.1,0,0,-.1,-299,555)" stroke-width="9.23334" stroke-linecap="butt" stroke-miterlimit="10" stroke-linejoin="miter" fill="none" stroke="#000000" d="M 3888.8 4863.66 L 3724.61 4863.66 "/>
<path transform="matrix(.1,0,0,-.1,-299,555)" d="M 3162.43 4759.25 L 3724.602 4759.25 L 3724.602 4968.074 L 3162.43 4968.074 Z " fill="#ffffff"/>
<path transform="matrix(.1,0,0,-.1,-299,555)" stroke-width="9.23334" stroke-linecap="butt" stroke-miterlimit="10" stroke-linejoin="miter" fill="none" stroke="#000000" d="M 3162.43 4759.25 L 3724.602 4759.25 L 3724.602 4968.074 L 3162.43 4968.074 Z "/>
<symbol id="font_1_3">
<path d="M .20400001 .48400004 L .012 .469 L .007999999 .43300004 L .032000007 .43300004 C .073 .43300004 .089 .42400003 .089 .402 C .089 .393 .086 .38000003 .080000009 .358 L .022000002 .163 C .0040000008 .1 0 .084 0 .062 C 0 .027 .030000003 0 .069 0 C .11200001 0 .15300001 .023000002 .19300002 .069000009 C .21100001 .089 .22700002 .111 .255 .154 L .22400002 .171 C .17400001 .094000007 .13000001 .050000006 .10300001 .050000006 C .093 .050000006 .086 .059 .086 .071 C .086 .081 .09 .099 .098 .127 L .20400001 .48400004 M .18600002 .72800007 C .15600002 .72800007 .13200002 .70400008 .13200002 .674 C .13200002 .64500007 .15600002 .62 .18500002 .62 C .21600002 .62 .24000003 .64400008 .24000003 .674 C .24000003 .70400008 .21600002 .72800007 .18600002 .72800007 Z "/>
</symbol>
<symbol id="font_1_2">
<path d="M .289 .365 L .358 .365 C .44200004 .365 .47400005 .34000004 .47400005 .27500005 C .47400005 .263 .47300003 .24200002 .47100003 .22100002 C .46500004 .14500001 .46500004 .14 .46500004 .12100001 C .46500004 .049000004 .508 0 .57100006 0 C .63500007 0 .675 .041 .71400007 .147 L .67800006 .162 C .65300008 .091000009 .63600006 .069000009 .60800006 .069000009 C .587 .069000009 .578 .08800001 .578 .13 L .57900008 .18100001 C .58000007 .194 .58000007 .20600002 .58000007 .21700001 C .58000007 .30400003 .55 .352 .47700004 .379 C .555 .388 .59400007 .397 .63000008 .41500003 C .69200006 .44700004 .73200008 .508 .73200008 .573 C .73200008 .632 .70100006 .681 .646 .709 C .60700008 .72900006 .558 .73700007 .47400005 .73700007 L .15400002 .73700007 L .148 .69 L .174 .69 C .23900002 .69 .25300003 .685 .25300003 .663 C .25300003 .65500006 .24900002 .634 .24400002 .614 L .116000007 .13800001 C .102000009 .085 .101 .08400001 .093 .076000008 C .082 .066 .059 .062000004 .01 .062000004 L .004999999 .062000004 L 0 .015000001 L .31800003 .015000001 L .323 .062000004 L .29700003 .062000004 C .23200003 .062000004 .218 .067 .218 .089 C .218 .097 .218 .097 .22800002 .13800001 L .289 .365 M .30100004 .412 L .36 .63 C .374 .681 .38400004 .69 .43100003 .69 L .48000003 .69 C .564 .69 .61200007 .65000006 .61200007 .58 C .61200007 .519 .58400008 .47100003 .53000006 .439 C .49300004 .417 .46300004 .412 .37900005 .412 L .30100004 .412 Z "/>
</symbol>
<use xlink:href="#font_1_3" transform="matrix(12.8805,0,0,-12.8805,22.900782,72.40433)"/>
<use xlink:href="#font_1_2" transform="matrix(12.8805,0,0,-12.8805,27.00968,72.417209)"/>
<symbol id="font_1_1">
<path d="M .234 .17 L .24900002 .10300001 C .266 .028 .292 0 .34100003 0 C .37800003 0 .396 .012 .442 .068 C .46 .089 .463 .094000007 .48900003 .14 L .458 .157 C .448 .141 .44500003 .136 .43 .115 C .40100003 .076000008 .384 .061000006 .366 .061000006 C .343 .061000006 .333 .083000008 .315 .165 L .296 .26 L .34 .34100003 C .36400003 .38600005 .38500003 .408 .403 .408 C .411 .408 .416 .40400005 .42000003 .39500005 C .42900003 .375 .43600003 .37 .45400004 .37 C .485 .37 .504 .39100004 .504 .42400003 C .504 .45900006 .48000003 .485 .44700004 .485 C .42000003 .485 .39000003 .47100003 .36900003 .448 C .349 .426 .34800003 .426 .314 .36300005 L .285 .311 L .27400003 .366 C .257 .45200003 .23500002 .485 .194 .485 C .17200002 .485 .15 .472 .125 .444 C .109000008 .426 .095 .40600003 .05 .34100003 L .079 .32 C .13 .393 .14400001 .408 .16100002 .408 C .16800002 .408 .178 .40100003 .18200001 .393 C .19100002 .37700004 .19100002 .37700004 .211 .278 L .22300002 .22000002 L .178 .14 C .15 .089 .125 .061000006 .109000008 .061000006 C .102000009 .061000006 .096 .068 .094000007 .081 C .089 .108 .076000008 .120000008 .051 .120000008 C .021 .120000008 0 .096 0 .062000004 C 0 .025000003 .026 0 .066 0 C .114 0 .16100002 .04 .204 .116000007 L .234 .17 Z "/>
</symbol>
<use xlink:href="#font_1_1" transform="matrix(9.66036,0,0,-9.66036,37.593626,74.446239)"/>
<symbol id="font_2_2">
<path d="M .24300002 .8590001 C .18300002 .8220001 .15100001 .79600009 .11700001 .75600007 C .041000006 .66600009 0 .55100008 0 .43 C 0 .316 .036000004 .209 .103000018 .120000008 C .141 .072 .17500001 .042000005 .24300002 0 L .24300002 .037 C .143 .125 .103000018 .238 .103000018 .43 C .103000018 .62200006 .143 .734 .24300002 .8220001 L .24300002 .8590001 Z "/>
</symbol>
<use xlink:href="#font_2_2" transform="matrix(12.8804,0,0,-12.8804,43.887037,73.80829)"/>
<symbol id="font_3_1">
<path d="M .48900006 .154 C .46300004 .10300001 .42300005 .051 .40100003 .051 C .38900004 .051 .38600005 .063 .38600005 .08100001 C .38600005 .09200001 .38700003 .105000007 .38900004 .11800001 L .45700003 .437 L .544 .437 L .584 .51400008 C .555 .507 .514 .503 .46700005 .503 L .18300002 .503 C .13200002 .503 .062000004 .47800002 .024000004 .41700004 L .040000004 .39900003 C .08 .43 .13200002 .437 .18500002 .437 C .142 .261 .113000009 .10400001 .057000009 .094000007 C .032 .09 0 .074 0 .036 C 0 .013 .031 0 .046 0 C .09900001 0 .136 .066 .15400002 .11100001 C .17700002 .169 .21200001 .294 .24200002 .437 L .367 .437 L .30200003 .135 C .29900003 .11400001 .29700003 .095000009 .29700003 .079 C .29700003 .028 .31300003 0 .349 0 C .42200003 0 .47800002 .056 .513 .14 L .48900006 .154 Z "/>
</symbol>
<symbol id="font_3_2">
<path d="M .42700003 .28100003 L .57800009 .50200006 L .505 .50200006 L .423 .34300003 C .423 .47700004 .386 .51400008 .278 .51400008 C .08500001 .51400008 0 .308 0 .163 C 0 .076000008 .038000004 0 .147 0 C .22100002 0 .28300003 .07300001 .32700003 .136 C .326 .126 .326 .116000007 .326 .106000009 C .326 .076000008 .33 .048 .342 .028 C .35300002 .01 .36600004 0 .38900004 0 C .41300003 0 .447 .007999999 .47300003 .028 C .492 .043 .531 .080000009 .55799999 .144 L .53400006 .158 C .508 .10700001 .46600006 .052 .44400005 .052 C .416 .052 .416 .10400001 .416 .128 C .416 .172 .421 .23 .42700003 .28100003 M .33200003 .213 C .28 .12900001 .22800002 .054000006 .162 .054000006 C .112 .054000006 .096 .10400001 .096 .16 C .096 .276 .158 .479 .279 .479 C .32700003 .479 .34100003 .41300003 .34100003 .338 C .34100003 .296 .337 .25100003 .33200003 .213 Z "/>
</symbol>
<use xlink:href="#font_3_1" transform="matrix(12.465,0,0,-12.465,48.14944,72.37358)"/>
<use xlink:href="#font_3_2" transform="matrix(12.465,0,0,-12.465,56.787675,72.37358)"/>
<symbol id="font_2_1">
<path d="M 0 0 C .060000007 .037 .09200001 .063 .126 .104 C .202 .193 .24300002 .30900003 .24300002 .43 C .24300002 .544 .207 .651 .14 .7390001 C .102 .78800007 .068 .8180001 0 .8590001 L 0 .8220001 C .10000001 .734 .14 .62200006 .14 .43 C .14 .23700002 .10000001 .125 0 .037 L 0 0 Z "/>
</symbol>
<use xlink:href="#font_2_1" transform="matrix(12.8804,0,0,-12.8804,65.25011,73.80829)"/>
</g>
</g>
</svg>
