<?xml version="1.0" encoding="UTF-8" standalone="no"?>
<!DOCTYPE svg PUBLIC "-//W3C//DTD SVG 1.1//EN" "http://www.w3.org/Graphics/SVG/1.1/DTD/svg11.dtd">
<svg xmlns="http://www.w3.org/2000/svg" xmlns:xlink="http://www.w3.org/1999/xlink" version="1.1" width="125pt" height="119pt" viewBox="0 0 125 119">
<g enable-background="new">
<clipPath id="cp0">
<path transform="matrix(1,0,0,-1,-300,551)" d="M 0 0 L 1001 0 L 1001 709 L 0 709 Z "/>
</clipPath>
<g clip-path="url(#cp0)">
<path transform="matrix(.1,0,0,-.1,-300,551)" d="M 3417.29 5503.13 L 3298.12 5503.13 C 3272.62 5503.13 3251.95 5482.46 3251.95 5456.96 L 3251.95 4378.49 C 3251.95 4353 3272.62 4332.33 3298.12 4332.33 L 3417.29 4332.33 C 3442.79 4332.33 3463.45 4353 3463.45 4378.49 L 3463.45 5456.96 C 3463.45 5482.46 3442.79 5503.13 3417.29 5503.13 Z M 3251.95 4332.33 " fill="#ccccff"/>
<path transform="matrix(.1,0,0,-.1,-300,551)" stroke-width="9.23334" stroke-linecap="butt" stroke-dasharray="34.6255,34.6255" stroke-miterlimit="10" stroke-linejoin="miter" fill="none" stroke="#000000" d="M 3417.29 5503.13 L 3298.12 5503.13 C 3272.62 5503.13 3251.95 5482.46 3251.95 5456.96 L 3251.95 4378.49 C 3251.95 4353 3272.62 4332.33 3298.12 4332.33 L 3417.29 4332.33 C 3442.79 4332.33 3463.45 4353 3463.45 4378.49 L 3463.45 5456.96 C 3463.45 5482.46 3442.79 5503.13 3417.29 5503.13 Z M 3251.95 4332.33 "/>
<path transform="matrix(.1,0,0,-.1,-300,551)" d="M 3960.04 5503.13 L 3569.49 5503.13 C 3544 5503.13 3523.32 5482.46 3523.32 5456.96 L 3523.32 4378.49 C 3523.32 4353 3544 4332.33 3569.49 4332.33 L 3960.04 4332.33 C 3985.53 4332.33 4006.2 4353 4006.2 4378.49 L 4006.2 5456.96 C 4006.2 5482.46 3985.53 5503.13 3960.04 5503.13 Z M 3523.32 4332.33 " fill="#ffe6cc"/>
<path transform="matrix(.1,0,0,-.1,-300,551)" stroke-width="9.23334" stroke-linecap="butt" stroke-dasharray="34.6255,34.6255" stroke-miterlimit="10" stroke-linejoin="miter" fill="none" stroke="#000000" d="M 3960.04 5503.13 L 3569.49 5503.13 C 3544 5503.13 3523.32 5482.46 3523.32 5456.96 L 3523.32 4378.49 C 3523.32 4353 3544 4332.33 3569.49 4332.33 L 3960.04 4332.33 C 3985.53 4332.33 4006.2 4353 4006.2 4378.49 L 4006.2 5456.96 C 4006.2 5482.46 3985.53 5503.13 3960.04 5503.13 Z M 3523.32 4332.33 "/>
<path transform="matrix(.1,0,0,-.1,-300,551)" d="M 3652.16 5423.26 C 3652.16 5436.01 3641.82 5446.34 3629.08 5446.34 C 3616.33 5446.34 3605.99 5436.01 3605.99 5423.26 C 3605.99 5410.51 3616.33 5400.18 3629.08 5400.18 C 3641.82 5400.18 3652.16 5410.51 3652.16 5423.26 Z M 3629.08 5423.26 "/>
<path transform="matrix(.1,0,0,-.1,-300,551)" d="M 3380.78 5094.87 C 3380.78 5107.62 3370.45 5117.96 3357.7 5117.96 C 3344.95 5117.96 3334.61 5107.62 3334.61 5094.87 C 3334.61 5082.13 3344.95 5071.79 3357.7 5071.79 C 3370.45 5071.79 3380.78 5082.13 3380.78 5094.87 Z M 3357.7 5094.87 "/>
<path transform="matrix(.1,0,0,-.1,-300,551)" d="M 3923.53 5094.87 C 3923.53 5107.62 3913.19 5117.96 3900.44 5117.96 C 3887.7 5117.96 3877.36 5107.62 3877.36 5094.87 C 3877.36 5082.13 3887.7 5071.79 3900.44 5071.79 C 3913.19 5071.79 3923.53 5082.13 3923.53 5094.87 Z M 3900.44 5094.87 "/>
<clipPath id="cp1">
<path transform="matrix(.1,0,0,-.1,-300,551)" d="M 3678.05 4766.47 C 3678.05 4793.52 3656.12 4815.45 3629.08 4815.45 C 3602.03 4815.45 3580.11 4793.52 3580.11 4766.47 C 3580.11 4739.43 3602.03 4717.5 3629.08 4717.5 C 3656.12 4717.5 3678.05 4739.43 3678.05 4766.47 Z M 3629.08 4766.47 "/>
</clipPath>
<g clip-path="url(#cp1)">
<path transform="matrix(.1,0,0,-.1,-300,551)" stroke-width="9.23334" stroke-linecap="butt" stroke-miterlimit="10" stroke-linejoin="miter" fill="none" stroke="#000000" d="M 3629.08 4815.45 L 3629.08 4717.5 M 3580.11 4766.47 L 3678.05 4766.47 "/>
</g>
<path transform="matrix(.1,0,0,-.1,-300,551)" stroke-width="9.23334" stroke-linecap="butt" stroke-miterlimit="10" stroke-linejoin="miter" fill="none" stroke="#000000" d="M 3678.05 4766.47 C 3678.05 4793.52 3656.12 4815.45 3629.08 4815.45 C 3602.03 4815.45 3580.11 4793.52 3580.11 4766.47 C 3580.11 4739.43 3602.03 4717.5 3629.08 4717.5 C 3656.12 4717.5 3678.05 4739.43 3678.05 4766.47 Z M 3629.08 4766.47 "/>
<clipPath id="cp2">
<path transform="matrix(.1,0,0,-.1,-300,551)" d="M 3949.41 4766.47 C 3949.41 4793.52 3927.49 4815.45 3900.44 4815.45 C 3873.4 4815.45 3851.47 4793.52 3851.47 4766.47 C 3851.47 4739.43 3873.4 4717.5 3900.44 4717.5 C 3927.49 4717.5 3949.41 4739.43 3949.41 4766.47 Z M 3900.44 4766.47 "/>
</clipPath>
<g clip-path="url(#cp2)">
<path transform="matrix(.1,0,0,-.1,-300,551)" stroke-width="9.23334" stroke-linecap="butt" stroke-miterlimit="10" stroke-linejoin="miter" fill="none" stroke="#000000" d="M 3900.44 4815.45 L 3900.44 4717.5 M 3851.47 4766.47 L 3949.41 4766.47 "/>
</g>
<path transform="matrix(.1,0,0,-.1,-300,551)" stroke-width="9.23334" stroke-linecap="butt" stroke-miterlimit="10" stroke-linejoin="miter" fill="none" stroke="#000000" d="M 3949.41 4766.47 C 3949.41 4793.52 3927.49 4815.45 3900.44 4815.45 C 3873.4 4815.45 3851.47 4793.52 3851.47 4766.47 C 3851.47 4739.43 3873.4 4717.5 3900.44 4717.5 C 3927.49 4717.5 3949.41 4739.43 3949.41 4766.47 Z M 3900.44 4766.47 "/>
<clipPath id="cp3">
<path transform="matrix(.1,0,0,-.1,-300,551)" d="M 3406.67 4438.09 C 3406.67 4465.13 3384.75 4487.05 3357.7 4487.05 C 3330.65 4487.05 3308.73 4465.13 3308.73 4438.09 C 3308.73 4411.04 3330.65 4389.11 3357.7 4389.11 C 3384.75 4389.11 3406.67 4411.04 3406.67 4438.09 Z M 3357.7 4438.09 "/>
</clipPath>
<g clip-path="url(#cp3)">
<path transform="matrix(.1,0,0,-.1,-300,551)" stroke-width="9.23334" stroke-linecap="butt" stroke-miterlimit="10" stroke-linejoin="miter" fill="none" stroke="#000000" d="M 3357.7 4487.05 L 3357.7 4389.11 M 3308.73 4438.09 L 3406.67 4438.09 "/>
</g>
<path transform="matrix(.1,0,0,-.1,-300,551)" stroke-width="9.23334" stroke-linecap="butt" stroke-miterlimit="10" stroke-linejoin="miter" fill="none" stroke="#000000" d="M 3406.67 4438.09 C 3406.67 4465.13 3384.75 4487.05 3357.7 4487.05 C 3330.65 4487.05 3308.73 4465.13 3308.73 4438.09 C 3308.73 4411.04 3330.65 4389.11 3357.7 4389.11 C 3384.75 4389.11 3406.67 4411.04 3406.67 4438.09 Z M 3357.7 4438.09 "/>
<path transform="matrix(.1,0,0,-.1,-300,551)" d="M 3923.53 4438.09 C 3923.53 4450.84 3913.19 4461.17 3900.44 4461.17 C 3887.7 4461.17 3877.36 4450.84 3877.36 4438.09 C 3877.36 4425.34 3887.7 4415 3900.44 4415 C 3913.19 4415 3923.53 4425.34 3923.53 4438.09 Z M 3900.44 4438.09 "/>
<path transform="matrix(.1,0,0,-.1,-300,551)" stroke-width="9.23334" stroke-linecap="butt" stroke-miterlimit="10" stroke-linejoin="miter" fill="none" stroke="#000000" d="M 3357.7 5423.27 L 3139.92 5423.27 "/>
<path transform="matrix(.1,0,0,-.1,-300,551)" stroke-width="9.23334" stroke-linecap="butt" stroke-miterlimit="10" stroke-linejoin="miter" fill="none" stroke="#000000" d="M 3605.99 5423.27 L 3357.7 5423.27 "/>
<path transform="matrix(.1,0,0,-.1,-300,551)" stroke-width="9.23334" stroke-linecap="butt" stroke-miterlimit="10" stroke-linejoin="miter" fill="none" stroke="#000000" d="M 3629.08 5400.18 L 3629.08 4815.45 "/>
<path transform="matrix(.1,0,0,-.1,-300,551)" stroke-width="9.23334" stroke-linecap="butt" stroke-miterlimit="10" stroke-linejoin="miter" fill="none" stroke="#000000" d="M 3900.45 5423.27 L 3652.16 5423.27 "/>
<path transform="matrix(.1,0,0,-.1,-300,551)" stroke-width="9.23334" stroke-linecap="butt" stroke-miterlimit="10" stroke-linejoin="miter" fill="none" stroke="#000000" d="M 4118.24 5423.27 L 3900.45 5423.27 "/>
<path transform="matrix(.1,0,0,-.1,-300,551)" stroke-width="9.23334" stroke-linecap="butt" stroke-miterlimit="10" stroke-linejoin="miter" fill="none" stroke="#000000" d="M 3334.62 5094.87 L 3139.92 5094.87 "/>
<path transform="matrix(.1,0,0,-.1,-300,551)" stroke-width="9.23334" stroke-linecap="butt" stroke-miterlimit="10" stroke-linejoin="miter" fill="none" stroke="#000000" d="M 3357.7 5071.79 L 3357.7 4487.05 "/>
<path transform="matrix(.1,0,0,-.1,-300,551)" stroke-width="9.23334" stroke-linecap="butt" stroke-miterlimit="10" stroke-linejoin="miter" fill="none" stroke="#000000" d="M 3629.08 5094.87 L 3380.79 5094.87 "/>
<path transform="matrix(.1,0,0,-.1,-300,551)" stroke-width="9.23334" stroke-linecap="butt" stroke-miterlimit="10" stroke-linejoin="miter" fill="none" stroke="#000000" d="M 3877.37 5094.87 L 3629.08 5094.87 "/>
<path transform="matrix(.1,0,0,-.1,-300,551)" stroke-width="9.23334" stroke-linecap="butt" stroke-miterlimit="10" stroke-linejoin="miter" fill="none" stroke="#000000" d="M 3900.45 5071.79 L 3900.45 4815.45 "/>
<path transform="matrix(.1,0,0,-.1,-300,551)" stroke-width="9.23334" stroke-linecap="butt" stroke-miterlimit="10" stroke-linejoin="miter" fill="none" stroke="#000000" d="M 4118.24 5094.87 L 3923.54 5094.87 "/>
<path transform="matrix(.1,0,0,-.1,-300,551)" stroke-width="9.23334" stroke-linecap="butt" stroke-miterlimit="10" stroke-linejoin="miter" fill="none" stroke="#000000" d="M 3357.7 4766.48 L 3139.92 4766.48 "/>
<path transform="matrix(.1,0,0,-.1,-300,551)" stroke-width="9.23334" stroke-linecap="butt" stroke-miterlimit="10" stroke-linejoin="miter" fill="none" stroke="#000000" d="M 3580.11 4766.48 L 3357.7 4766.48 "/>
<path transform="matrix(.1,0,0,-.1,-300,551)" stroke-width="9.23334" stroke-linecap="butt" stroke-miterlimit="10" stroke-linejoin="miter" fill="none" stroke="#000000" d="M 3851.48 4766.48 L 3678.05 4766.48 "/>
<path transform="matrix(.1,0,0,-.1,-300,551)" stroke-width="9.23334" stroke-linecap="butt" stroke-miterlimit="10" stroke-linejoin="miter" fill="none" stroke="#000000" d="M 4118.24 4766.48 L 3949.42 4766.48 "/>
<path transform="matrix(.1,0,0,-.1,-300,551)" stroke-width="9.23334" stroke-linecap="butt" stroke-miterlimit="10" stroke-linejoin="miter" fill="none" stroke="#000000" d="M 3308.73 4438.08 L 3139.92 4438.08 "/>
<path transform="matrix(.1,0,0,-.1,-300,551)" stroke-width="9.23334" stroke-linecap="butt" stroke-miterlimit="10" stroke-linejoin="miter" fill="none" stroke="#000000" d="M 3629.08 4438.08 L 3406.68 4438.08 "/>
<path transform="matrix(.1,0,0,-.1,-300,551)" stroke-width="9.23334" stroke-linecap="butt" stroke-miterlimit="10" stroke-linejoin="miter" fill="none" stroke="#000000" d="M 3877.37 4438.08 L 3629.08 4438.08 "/>
<path transform="matrix(.1,0,0,-.1,-300,551)" stroke-width="9.23334" stroke-linecap="butt" stroke-miterlimit="10" stroke-linejoin="miter" fill="none" stroke="#000000" d="M 3900.45 4461.16 L 3900.45 4717.5 "/>
<path transform="matrix(.1,0,0,-.1,-300,551)" stroke-width="9.23334" stroke-linecap="butt" stroke-miterlimit="10" stroke-linejoin="miter" fill="none" stroke="#000000" d="M 4118.24 4438.08 L 3923.54 4438.08 "/>
<symbol id="font_4_1">
<path d="M .39500005 .47000004 L .36800004 .38 C .36100004 .44200004 .31100003 .485 .246 .485 C .185 .485 .128 .453 .081 .393 C .030000002 .32700003 0 .24300002 0 .163 C 0 .065 .059000005 0 .148 0 C .21000001 0 .25000004 .025000003 .30000005 .097 C .29600004 .082 .29500003 .075 .29500003 .065 C .29500003 .026 .32000003 0 .35600005 0 C .40000005 0 .43800003 .024 .47300006 .073 C .49300004 .101 .51000007 .12900001 .522 .156 L .49100004 .17300001 C .45300005 .097 .41800005 .055000005 .39200003 .055000005 C .38100005 .055000005 .37100003 .066 .37100003 .080000009 C .37100003 .09 .37500004 .109000008 .38200004 .134 L .48200003 .47000004 L .39500005 .47000004 M .263 .43 C .31000004 .43 .33900003 .39600004 .33900003 .34100003 C .33900003 .28400005 .31900005 .20400001 .28800003 .141 C .25700004 .079 .22100002 .051000004 .171 .051000004 C .12100001 .051000004 .091000009 .08800001 .091000009 .149 C .091000009 .23700002 .13000001 .34100003 .18300002 .39500005 C .20500002 .41800005 .23300001 .43 .263 .43 Z "/>
</symbol>
<symbol id="font_4_2">
<path d="M .25800003 .75200006 L .066 .73700007 L .062000004 .70100006 L .08600001 .70100006 C .127 .70100006 .143 .69200006 .143 .669 C .143 .661 .14 .648 .134 .626 L .014000002 .22200002 C .004999999 .19100002 0 .163 0 .143 C 0 .056 .063999999 0 .163 0 C .241 0 .3 .024 .35500003 .07700001 C .42000003 .14 .45600004 .224 .45600004 .315 C .45600004 .41800005 .398 .485 .30900003 .485 C .25100003 .485 .208 .46000005 .15200001 .394 L .25800003 .75200006 M .27600003 .42400003 C .32700003 .42400003 .35700003 .385 .35700003 .32 C .35700003 .256 .337 .187 .303 .13 C .26500003 .067 .22300002 .038000004 .171 .038000004 C .117 .038000004 .08500001 .074 .08500001 .135 C .08500001 .19600001 .109 .27500005 .14400001 .333 C .18200001 .393 .22600001 .42400003 .27600003 .42400003 Z "/>
</symbol>
<symbol id="font_4_3">
<path d="M .33600004 .147 C .286 .082 .23300001 .048 .18500002 .048 C .12600002 .048 .092 .09200001 .092 .16700001 C .092 .238 .115 .31700004 .15400002 .37300004 C .18900001 .42300005 .22500001 .44700004 .26900003 .44700004 C .30100004 .44700004 .33300004 .431 .33300004 .41400004 C .33300004 .408 .328 .403 .31700004 .399 C .29000003 .38700003 .28000004 .375 .28000004 .351 C .28000004 .32200004 .30200003 .302 .33300004 .302 C .36900003 .302 .39600004 .334 .39600004 .37700004 C .39600004 .43700005 .33800004 .485 .26600004 .485 C .12600002 .485 0 .34100003 0 .18100001 C 0 .071 .068 0 .172 0 C .24700001 0 .312 .042000005 .365 .125 L .33600004 .147 Z "/>
</symbol>
<symbol id="font_4_5">
<path d="M .34500004 .13100001 C .286 .07000001 .24200002 .047000003 .19000001 .047000003 C .13000001 .047000003 .093 .087000008 .093 .15100001 C .093 .158 .094000007 .172 .095 .185 C .21200001 .21300002 .23200001 .21900001 .27700005 .23900001 C .35400004 .273 .39700005 .324 .39700005 .38200004 C .39700005 .44300003 .34800003 .485 .27800004 .485 C .132 .485 0 .33600004 0 .17300001 C 0 .065 .065000008 0 .17300001 0 C .25000004 0 .31500004 .034 .36900003 .104 L .34500004 .13100001 M .1 .224 C .123 .35900004 .184 .445 .25800003 .445 C .29100005 .445 .31300003 .422 .31300003 .388 C .31300003 .333 .27400003 .286 .202 .254 C .17300001 .24100001 .156 .23600002 .1 .224 Z "/>
</symbol>
<symbol id="font_4_4">
<path d="M .531 .17300001 C .47300003 .079 .44800005 .053000004 .41500003 .053000004 C .39900003 .053000004 .39000003 .063 .39000003 .080000009 C .39000003 .094000007 .39500005 .117000009 .40500004 .15200001 L .583 .75200006 L .38400004 .73700007 L .38000003 .70100006 L .41100005 .70100006 C .45200003 .70100006 .46800003 .69200006 .46800003 .67 C .46800003 .66 .46500004 .646 .45900003 .626 L .39300005 .403 C .38500003 .42700006 .37900005 .43700005 .36800004 .449 C .34700004 .47100003 .31300003 .485 .27800004 .485 C .134 .485 0 .33100004 0 .165 C 0 .067 .064 0 .157 0 C .22500001 0 .27500005 .029000001 .31900005 .093 C .31800003 .085 .31800003 .075 .31800003 .071 C .31800003 .025000003 .34200005 0 .38600005 0 C .44900004 0 .505 .049000004 .561 .155 L .531 .17300001 M .28100003 .44 C .33 .44 .36600004 .402 .36600004 .34900005 C .36600004 .296 .34100003 .20500002 .30900003 .14400001 C .27600003 .080000009 .23400001 .047000003 .186 .047000003 C .133 .047000003 .097 .09 .097 .155 C .097 .21200001 .11800001 .28500004 .15 .34100003 C .18800001 .407 .23200001 .44 .28100003 .44 Z "/>
</symbol>
<symbol id="font_4_6">
<path d="M .287 .657 C .31100003 .75200006 .316 .77000007 .33600004 .81700006 C .36 .87600007 .38700003 .90300008 .42400003 .90300008 C .43700005 .90300008 .448 .896 .448 .88600006 C .448 .882 .44700004 .8780001 .44100005 .86800006 C .43400003 .85700008 .43200005 .84900006 .43200005 .84000006 C .43200005 .81500008 .45500005 .7950001 .48400004 .7950001 C .51500007 .7950001 .53800007 .8180001 .53800007 .84800007 C .53800007 .90000006 .491 .9380001 .42700006 .9380001 C .36400003 .9380001 .30900003 .90300008 .27 .83800008 C .24100001 .79100009 .22500001 .7490001 .2 .657 L .113000009 .657 L .10000001 .61 L .18900001 .61 L .148 .43600003 C .113000009 .289 .062000004 .13800001 0 0 L .11000001 .017999992 C .13300002 .08 .19100002 .27100004 .21400002 .36300005 L .27600003 .61 L .402 .61 L .416 .657 L .287 .657 Z "/>
</symbol>
<use xlink:href="#font_4_1" transform="matrix(12.8805,0,0,-12.8805,1.1388875,11.82718)"/>
<use xlink:href="#font_4_1" transform="matrix(12.8805,0,0,-12.8805,117.44504,11.82718)"/>
<use xlink:href="#font_4_2" transform="matrix(12.8805,0,0,-12.8805,1.6354426,46.31427)"/>
<use xlink:href="#font_4_2" transform="matrix(12.8805,0,0,-12.8805,117.982189,46.31427)"/>
<use xlink:href="#font_4_3" transform="matrix(12.8805,0,0,-12.8805,2.7278853,77.50568)"/>
<use xlink:href="#font_4_5" transform="matrix(12.8805,0,0,-12.8805,117.76967,77.50568)"/>
<use xlink:href="#font_4_4" transform="matrix(12.8805,0,0,-12.8805,.27829606,111.993167)"/>
<use xlink:href="#font_4_6" transform="matrix(12.8805,0,0,-12.8805,117.663799,113.18307)"/>
</g>
</g>
</svg>
