<?xml version="1.0" encoding="UTF-8" standalone="no"?>
<!DOCTYPE svg PUBLIC "-//W3C//DTD SVG 1.1//EN" "http://www.w3.org/Graphics/SVG/1.1/DTD/svg11.dtd">
<svg xmlns="http://www.w3.org/2000/svg" xmlns:xlink="http://www.w3.org/1999/xlink" version="1.1" width="293pt" height="55pt" viewBox="0 0 293 55">
<g enable-background="new">
<clipPath id="cp0">
<path transform="matrix(1,0,0,-1,-207,795)" d="M 0 0 L 709 0 L 709 1001 L 0 1001 Z "/>
</clipPath>
<g clip-path="url(#cp0)">
<path transform="matrix(.1,0,0,-.1,-207,795)" d="M 2362.6 7839.31 C 2362.6 7852.06 2352.27 7862.39 2339.52 7862.39 C 2326.77 7862.39 2316.43 7852.06 2316.43 7839.31 C 2316.43 7826.56 2326.77 7816.23 2339.52 7816.23 C 2352.27 7816.23 2362.6 7826.56 2362.6 7839.31 Z M 2339.52 7839.31 "/>
<path transform="matrix(.1,0,0,-.1,-207,795)" d="M 3755.53 7839.31 C 3755.53 7852.06 3745.2 7862.39 3732.45 7862.39 C 3719.7 7862.39 3709.36 7852.06 3709.36 7839.31 C 3709.36 7826.56 3719.7 7816.23 3732.45 7816.23 C 3745.2 7816.23 3755.53 7826.56 3755.53 7839.31 Z M 3732.45 7839.31 "/>
<path transform="matrix(.1,0,0,-.1,-207,795)" d="M 4380.52 7839.31 C 4380.52 7852.06 4370.18 7862.39 4357.43 7862.39 C 4344.68 7862.39 4334.35 7852.06 4334.35 7839.31 C 4334.35 7826.56 4344.68 7816.23 4357.43 7816.23 C 4370.18 7816.23 4380.52 7826.56 4380.52 7839.31 Z M 4357.43 7839.31 "/>
<clipPath id="cp1">
<path transform="matrix(.1,0,0,-.1,-207,795)" d="M 3781.41 7510.92 C 3781.41 7537.97 3759.49 7559.89 3732.45 7559.89 C 3705.4 7559.89 3683.47 7537.97 3683.47 7510.92 C 3683.47 7483.88 3705.4 7461.95 3732.45 7461.95 C 3759.49 7461.95 3781.41 7483.88 3781.41 7510.92 Z M 3732.45 7510.92 "/>
</clipPath>
<g clip-path="url(#cp1)">
<path transform="matrix(.1,0,0,-.1,-207,795)" stroke-width="9.23334" stroke-linecap="butt" stroke-miterlimit="10" stroke-linejoin="miter" fill="none" stroke="#000000" d="M 3732.45 7559.89 L 3732.45 7461.95 M 3683.47 7510.92 L 3781.41 7510.92 "/>
</g>
<path transform="matrix(.1,0,0,-.1,-207,795)" stroke-width="9.23334" stroke-linecap="butt" stroke-miterlimit="10" stroke-linejoin="miter" fill="none" stroke="#000000" d="M 3781.41 7510.92 C 3781.41 7537.97 3759.49 7559.89 3732.45 7559.89 C 3705.4 7559.89 3683.47 7537.97 3683.47 7510.92 C 3683.47 7483.88 3705.4 7461.95 3732.45 7461.95 C 3759.49 7461.95 3781.41 7483.88 3781.41 7510.92 Z M 3732.45 7510.92 "/>
<clipPath id="cp2">
<path transform="matrix(.1,0,0,-.1,-207,795)" d="M 4406.4 7510.92 C 4406.4 7537.97 4384.48 7559.89 4357.43 7559.89 C 4330.38 7559.89 4308.46 7537.97 4308.46 7510.92 C 4308.46 7483.88 4330.38 7461.95 4357.43 7461.95 C 4384.48 7461.95 4406.4 7483.88 4406.4 7510.92 Z M 4357.43 7510.92 "/>
</clipPath>
<g clip-path="url(#cp2)">
<path transform="matrix(.1,0,0,-.1,-207,795)" stroke-width="9.23334" stroke-linecap="butt" stroke-miterlimit="10" stroke-linejoin="miter" fill="none" stroke="#000000" d="M 4357.43 7559.89 L 4357.43 7461.95 M 4308.46 7510.92 L 4406.4 7510.92 "/>
</g>
<path transform="matrix(.1,0,0,-.1,-207,795)" stroke-width="9.23334" stroke-linecap="butt" stroke-miterlimit="10" stroke-linejoin="miter" fill="none" stroke="#000000" d="M 4406.4 7510.92 C 4406.4 7537.97 4384.48 7559.89 4357.43 7559.89 C 4330.38 7559.89 4308.46 7537.97 4308.46 7510.92 C 4308.46 7483.88 4330.38 7461.95 4357.43 7461.95 C 4384.48 7461.95 4406.4 7483.88 4406.4 7510.92 Z M 4357.43 7510.92 "/>
<path transform="matrix(.1,0,0,-.1,-207,795)" stroke-width="9.23334" stroke-linecap="butt" stroke-miterlimit="10" stroke-linejoin="miter" fill="none" stroke="#000000" d="M 2316.42 7839.31 L 2075.46 7839.31 "/>
<path transform="matrix(.1,0,0,-.1,-207,795)" stroke-width="9.23334" stroke-linecap="butt" stroke-miterlimit="10" stroke-linejoin="miter" fill="none" stroke="#000000" d="M 2339.5 7816.23 L 2339.5 7603.69 "/>
<path transform="matrix(.1,0,0,-.1,-207,795)" stroke-width="9.23334" stroke-linecap="butt" stroke-miterlimit="10" stroke-linejoin="miter" fill="none" stroke="#000000" d="M 2603.54 7839.31 L 2362.58 7839.31 "/>
<path transform="matrix(.1,0,0,-.1,-207,795)" stroke-width="9.23334" stroke-linecap="butt" stroke-miterlimit="10" stroke-linejoin="miter" fill="none" stroke="#000000" d="M 3418.57 7839.31 L 3158.27 7839.31 "/>
<path transform="matrix(.1,0,0,-.1,-207,795)" stroke-width="9.23334" stroke-linecap="butt" stroke-miterlimit="10" stroke-linejoin="miter" fill="none" stroke="#000000" d="M 3709.37 7839.31 L 3418.57 7839.31 "/>
<path transform="matrix(.1,0,0,-.1,-207,795)" stroke-width="9.23334" stroke-linecap="butt" stroke-miterlimit="10" stroke-linejoin="miter" fill="none" stroke="#000000" d="M 3732.45 7816.23 L 3732.45 7559.89 "/>
<path transform="matrix(.1,0,0,-.1,-207,795)" stroke-width="9.23334" stroke-linecap="butt" stroke-miterlimit="10" stroke-linejoin="miter" fill="none" stroke="#000000" d="M 4044.95 7839.31 L 3755.53 7839.31 "/>
<path transform="matrix(.1,0,0,-.1,-207,795)" stroke-width="9.23334" stroke-linecap="butt" stroke-miterlimit="10" stroke-linejoin="miter" fill="none" stroke="#000000" d="M 4334.36 7839.31 L 4044.95 7839.31 "/>
<path transform="matrix(.1,0,0,-.1,-207,795)" stroke-width="9.23334" stroke-linecap="butt" stroke-miterlimit="10" stroke-linejoin="miter" fill="none" stroke="#000000" d="M 4357.45 7816.23 L 4357.45 7559.89 "/>
<path transform="matrix(.1,0,0,-.1,-207,795)" stroke-width="9.23334" stroke-linecap="butt" stroke-miterlimit="10" stroke-linejoin="miter" fill="none" stroke="#000000" d="M 4575.23 7839.31 L 4380.53 7839.31 "/>
<path transform="matrix(.1,0,0,-.1,-207,795)" stroke-width="9.23334" stroke-linecap="butt" stroke-miterlimit="10" stroke-linejoin="miter" fill="none" stroke="#000000" d="M 4994.29 7839.31 L 4830.09 7839.31 "/>
<path transform="matrix(.1,0,0,-.1,-207,795)" stroke-width="9.23334" stroke-linecap="butt" stroke-miterlimit="10" stroke-linejoin="miter" fill="none" stroke="#000000" d="M 2239.66 7510.92 L 2075.46 7510.92 "/>
<path transform="matrix(.1,0,0,-.1,-207,795)" stroke-width="9.23334" stroke-linecap="butt" stroke-miterlimit="10" stroke-linejoin="miter" fill="none" stroke="#000000" d="M 2621.44 7510.92 L 2439.34 7510.92 "/>
<path transform="matrix(.1,0,0,-.1,-207,795)" stroke-width="9.23334" stroke-linecap="butt" stroke-miterlimit="10" stroke-linejoin="miter" fill="none" stroke="#000000" d="M 3322.47 7510.92 L 3158.27 7510.92 "/>
<path transform="matrix(.1,0,0,-.1,-207,795)" stroke-width="9.23334" stroke-linecap="butt" stroke-miterlimit="10" stroke-linejoin="miter" fill="none" stroke="#000000" d="M 3683.48 7510.92 L 3514.66 7510.92 "/>
<path transform="matrix(.1,0,0,-.1,-207,795)" stroke-width="9.23334" stroke-linecap="butt" stroke-miterlimit="10" stroke-linejoin="miter" fill="none" stroke="#000000" d="M 3950.23 7510.92 L 3781.42 7510.92 "/>
<path transform="matrix(.1,0,0,-.1,-207,795)" stroke-width="9.23334" stroke-linecap="butt" stroke-miterlimit="10" stroke-linejoin="miter" fill="none" stroke="#000000" d="M 4308.48 7510.92 L 4139.66 7510.92 "/>
<path transform="matrix(.1,0,0,-.1,-207,795)" stroke-width="9.23334" stroke-linecap="butt" stroke-miterlimit="10" stroke-linejoin="miter" fill="none" stroke="#000000" d="M 4603.52 7510.92 L 4406.42 7510.92 "/>
<path transform="matrix(.1,0,0,-.1,-207,795)" stroke-width="9.23334" stroke-linecap="butt" stroke-miterlimit="10" stroke-linejoin="miter" fill="none" stroke="#000000" d="M 4994.29 7510.92 L 4801.8 7510.92 "/>
<symbol id="font_3_1">
<path d="M 0 0 L .504 0 L .504 .08 L 0 .08 L 0 0 M 0 .202 L .504 .202 L .504 .282 L 0 .282 L 0 .202 Z "/>
</symbol>
<use xlink:href="#font_3_1" transform="matrix(12.8804,0,0,-12.8804,69.634899,28.579369)"/>
<path transform="matrix(.1,0,0,-.1,-207,795)" d="M 4575.23 7736.32 L 4830.085 7736.32 L 4830.085 7942.312 L 4575.23 7942.312 Z " fill="#ffffff"/>
<path transform="matrix(.1,0,0,-.1,-207,795)" stroke-width="9.23334" stroke-linecap="butt" stroke-miterlimit="10" stroke-linejoin="miter" fill="none" stroke="#000000" d="M 4575.23 7736.32 L 4830.085 7736.32 L 4830.085 7942.312 L 4575.23 7942.312 Z "/>
<symbol id="font_4_4">
<path d="M .28 .31800003 L .298 .31800003 C .48400004 .31800003 .51900008 .323 .587 .35900004 C .657 .397 .69600006 .462 .69600006 .541 C .69600006 .60300007 .67 .65300008 .62200006 .68600007 C .58500006 .711 .532 .72200009 .449 .72200009 L .15400002 .72200009 L .148 .675 L .174 .675 C .23900002 .675 .25300003 .67 .25300003 .648 C .25300003 .64000007 .24900002 .619 .24400002 .59900006 L .116000007 .123 C .102000009 .069000009 .101 .069000009 .093 .061000006 C .082 .051000004 .059 .047000003 .009999998 .047000003 L .004999999 .047000003 L 0 0 L .31800003 0 L .323 .047000003 L .297 .047000003 C .23200003 .047000003 .218 .052 .218 .074 C .218 .082 .218 .082 .22800002 .123 L .28 .31800003 M .293 .365 L .363 .62700006 C .373 .665 .386 .675 .42700003 .675 L .439 .675 C .544 .675 .584 .64100006 .584 .55200007 C .584 .503 .568 .45600004 .541 .42200003 C .51500007 .39000003 .479 .372 .42400003 .367 C .41 .365 .41 .365 .312 .365 L .293 .365 Z "/>
</symbol>
<use xlink:href="#font_4_4" transform="matrix(12.8805,0,0,-12.8805,254.98995,14.575989)"/>
<symbol id="font_5_1">
<path d="M .42700003 .28100003 L .57800009 .50200006 L .505 .50200006 L .423 .34300003 C .423 .47700004 .386 .51400008 .278 .51400008 C .08500001 .51400008 0 .308 0 .163 C 0 .076000008 .038000004 0 .147 0 C .22100002 0 .28300003 .07300001 .32700003 .136 C .326 .126 .326 .116000007 .326 .106000009 C .326 .076000008 .33 .048 .342 .028 C .35300002 .01 .36600004 0 .38900004 0 C .41300003 0 .447 .007999999 .47300003 .028 C .492 .043 .531 .080000009 .55799999 .144 L .53400006 .158 C .508 .10700001 .46600006 .052 .44400005 .052 C .416 .052 .416 .10400001 .416 .128 C .416 .172 .421 .23 .42700003 .28100003 M .33200003 .213 C .28 .12900001 .22800002 .054000006 .162 .054000006 C .112 .054000006 .096 .10400001 .096 .16 C .096 .276 .158 .479 .279 .479 C .32700003 .479 .34100003 .41300003 .34100003 .338 C .34100003 .296 .337 .25100003 .33200003 .213 Z "/>
</symbol>
<use xlink:href="#font_5_1" transform="matrix(9.34872,0,0,-9.34872,264.9892,16.765505)"/>
<path transform="matrix(.1,0,0,-.1,-207,795)" d="M 2239.66 7414.31 L 2439.332 7414.31 L 2439.332 7607.517 L 2239.66 7607.517 Z " fill="#ffffff"/>
<path transform="matrix(.1,0,0,-.1,-207,795)" stroke-width="9.23334" stroke-linecap="butt" stroke-miterlimit="10" stroke-linejoin="miter" fill="none" stroke="#000000" d="M 2239.66 7414.31 L 2439.332 7414.31 L 2439.332 7607.517 L 2239.66 7607.517 Z "/>
<symbol id="font_4_5">
<path d="M .298 .17 L .21100001 .606 C .20600002 .629 .20300001 .649 .20300001 .658 C .20300001 .684 .214 .69 .263 .69 L .297 .69 L .30200003 .73700007 L .0069999995 .73700007 L 0 .69 L .028 .69 C .076000008 .69 .09 .672 .106000009 .592 L .223 0 L .26 0 L .55700007 .528 C .635 .66 .66 .683 .731 .69 L .736 .73700007 L .464 .73700007 L .45900003 .69 L .477 .69 C .53000006 .69 .552 .67800006 .552 .649 C .552 .632 .544 .611 .521 .57100006 L .298 .17 Z "/>
</symbol>
<use xlink:href="#font_4_5" transform="matrix(12.8805,0,0,-12.8805,22.047698,48.63022)"/>
<path transform="matrix(.1,0,0,-.1,-207,795)" d="M 3321.96 7414.31 L 3515.171 7414.31 L 3515.171 7607.517 L 3321.96 7607.517 Z " fill="#ffffff"/>
<path transform="matrix(.1,0,0,-.1,-207,795)" stroke-width="9.23334" stroke-linecap="butt" stroke-miterlimit="10" stroke-linejoin="miter" fill="none" stroke="#000000" d="M 3321.96 7414.31 L 3515.171 7414.31 L 3515.171 7607.517 L 3321.96 7607.517 Z "/>
<symbol id="font_4_3">
<path d="M .577 .672 C .529 .72900006 .47800002 .75200006 .40200005 .75200006 C .29200004 .75200006 .192 .70000007 .112 .6 C .038 .51000007 0 .40600003 0 .29500003 C 0 .117000009 .116 0 .29400004 0 C .38200004 0 .45700003 .031000002 .514 .09 C .545 .12200001 .568 .15900001 .594 .22000002 L .55300006 .238 C .528 .185 .514 .16100002 .49600003 .14 C .44600005 .078 .38600005 .049000004 .31100003 .049000004 C .249 .049000004 .201 .069000009 .171 .108 C .141 .14500001 .125 .19800002 .125 .255 C .125 .36900003 .165 .50100007 .228 .598 C .27400003 .669 .34100003 .709 .41000004 .709 C .47600005 .709 .523 .675 .55 .60800006 C .566 .57100006 .573 .527 .57600006 .45000006 L .617 .45000006 L .67300006 .73 L .637 .73 L .577 .672 Z "/>
</symbol>
<use xlink:href="#font_4_3" transform="matrix(12.8805,0,0,-12.8805,130.51723,48.709199)"/>
<path transform="matrix(.1,0,0,-.1,-207,795)" d="M 3948.34 7414.31 L 4141.547 7414.31 L 4141.547 7607.517 L 3948.34 7607.517 Z " fill="#ffffff"/>
<path transform="matrix(.1,0,0,-.1,-207,795)" stroke-width="9.23334" stroke-linecap="butt" stroke-miterlimit="10" stroke-linejoin="miter" fill="none" stroke="#000000" d="M 3948.34 7414.31 L 4141.547 7414.31 L 4141.547 7607.517 L 3948.34 7607.517 Z "/>
<symbol id="font_4_2">
<path d="M .154 .72200009 L .148 .675 L .17400001 .675 C .23900001 .675 .25300003 .67 .25300003 .648 C .25300003 .64000007 .24900002 .619 .24400002 .59900006 L .116000007 .123 C .102000009 .069000009 .101 .069000009 .093 .061000006 C .083000008 .052 .058000003 .047000003 .02 .047000003 L .005000001 .047000003 L 0 0 L .363 0 C .43600003 0 .497 .009000001 .53700008 .027 C .614 .060000004 .6610001 .128 .6610001 .20600002 C .6610001 .28500004 .6100001 .33900003 .504 .37100003 C .55300006 .38000003 .58300009 .39000003 .61600008 .41000004 C .669 .44200004 .69900009 .49500004 .69900009 .555 C .69900009 .61300006 .669 .66300007 .61800006 .69100007 C .577 .71400007 .53300008 .72200009 .455 .72200009 L .154 .72200009 M .3 .39400003 L .358 .60700008 C .374 .66800007 .382 .675 .433 .675 L .462 .675 C .544 .675 .58000007 .643 .58000007 .57000008 C .58000007 .514 .55600008 .46 .517 .43 C .485 .40500004 .442 .39400003 .38300003 .39400003 L .3 .39400003 M .288 .347 L .351 .347 C .39900003 .347 .44500003 .34100003 .467 .33200003 C .513 .31300003 .53900006 .27400003 .53900006 .22500001 C .53900006 .17300001 .51500007 .120000008 .477 .087000008 C .447 .061000006 .398 .047000003 .338 .047000003 L .288 .047000003 C .23400001 .047000003 .21800001 .053000004 .21800001 .074 C .21800001 .082 .22000002 .094000007 .224 .109000008 L .288 .347 Z "/>
</symbol>
<use xlink:href="#font_4_2" transform="matrix(12.8805,0,0,-12.8805,192.37873,48.502016)"/>
<path transform="matrix(.1,0,0,-.1,-207,795)" d="M 4603.52 7414.31 L 4801.809 7414.31 L 4801.809 7607.517 L 4603.52 7607.517 Z " fill="#ffffff"/>
<path transform="matrix(.1,0,0,-.1,-207,795)" stroke-width="9.23334" stroke-linecap="butt" stroke-miterlimit="10" stroke-linejoin="miter" fill="none" stroke="#000000" d="M 4603.52 7414.31 L 4801.809 7414.31 L 4801.809 7607.517 L 4603.52 7607.517 Z "/>
<symbol id="font_4_1">
<path d="M .52400007 .73700007 L .48300005 .73700007 L .153 .16800002 C .1 .080000009 .059 .047000003 .004999995 .047000003 L 0 0 L .269 0 L .275 .047000003 L .25100003 .047000003 C .199 .047000003 .18200001 .057000005 .18200001 .087000008 C .18200001 .102000009 .18800001 .12200001 .20000002 .142 L .255 .238 L .51000007 .238 L .53300008 .115 C .535 .10300001 .537 .09 .537 .083000008 C .537 .054 .522 .047000003 .46500004 .047000003 L .449 .047000003 L .444 0 L .74500009 0 L .75000008 .047000003 L .725 .047000003 C .67 .047000003 .65900006 .056 .64900007 .108 L .52400007 .73700007 M .50200006 .28500004 L .282 .28500004 L .445 .572 L .50200006 .28500004 Z "/>
</symbol>
<use xlink:href="#font_4_1" transform="matrix(12.8805,0,0,-12.8805,257.8798,48.62097)"/>
</g>
</g>
</svg>
