<?xml version="1.0" encoding="UTF-8" standalone="no"?>
<!DOCTYPE svg PUBLIC "-//W3C//DTD SVG 1.1//EN" "http://www.w3.org/Graphics/SVG/1.1/DTD/svg11.dtd">
<svg xmlns="http://www.w3.org/2000/svg" xmlns:xlink="http://www.w3.org/1999/xlink" version="1.1" width="303pt" height="111pt" viewBox="0 0 303 111">
<g enable-background="new">
<clipPath id="cp0">
<path transform="matrix(1,0,0,-1,-202,795)" d="M 0 0 L 709 0 L 709 1001 L 0 1001 Z "/>
</clipPath>
<g clip-path="url(#cp0)">
<path transform="matrix(.1,0,0,-.1,-202,795)" d="M 3140.74 7667.06 C 3140.74 7679.81 3130.4 7690.15 3117.65 7690.15 C 3104.91 7690.15 3094.57 7679.81 3094.57 7667.06 C 3094.57 7654.32 3104.91 7643.98 3117.65 7643.98 C 3130.4 7643.98 3140.74 7654.32 3140.74 7667.06 Z M 3117.65 7667.06 "/>
<path transform="matrix(.1,0,0,-.1,-202,795)" d="M 4157.92 7667.06 C 4157.92 7679.81 4147.59 7690.15 4134.84 7690.15 C 4122.09 7690.15 4111.75 7679.81 4111.75 7667.06 C 4111.75 7654.32 4122.09 7643.98 4134.84 7643.98 C 4147.59 7643.98 4157.92 7654.32 4157.92 7667.06 Z M 4134.84 7667.06 "/>
<path transform="matrix(.1,0,0,-.1,-202,795)" d="M 4639.74 7667.06 C 4639.74 7679.81 4629.41 7690.15 4616.66 7690.15 C 4603.91 7690.15 4593.57 7679.81 4593.57 7667.06 C 4593.57 7654.32 4603.91 7643.98 4616.66 7643.98 C 4629.41 7643.98 4639.74 7654.32 4639.74 7667.06 Z M 4616.66 7667.06 "/>
<path transform="matrix(.1,0,0,-.1,-202,795)" d="M 2658.92 7338.66 C 2658.92 7351.41 2648.58 7361.75 2635.84 7361.75 C 2623.09 7361.75 2612.75 7351.41 2612.75 7338.66 C 2612.75 7325.91 2623.09 7315.58 2635.84 7315.58 C 2648.58 7315.58 2658.92 7325.91 2658.92 7338.66 Z M 2635.84 7338.66 "/>
<clipPath id="cp1">
<path transform="matrix(.1,0,0,-.1,-202,795)" d="M 3166.63 7338.66 C 3166.63 7365.71 3144.7 7387.64 3117.65 7387.64 C 3090.61 7387.64 3068.68 7365.71 3068.68 7338.66 C 3068.68 7311.62 3090.61 7289.7 3117.65 7289.7 C 3144.7 7289.7 3166.63 7311.62 3166.63 7338.66 Z M 3117.65 7338.66 "/>
</clipPath>
<g clip-path="url(#cp1)">
<path transform="matrix(.1,0,0,-.1,-202,795)" stroke-width="9.23334" stroke-linecap="butt" stroke-miterlimit="10" stroke-linejoin="miter" fill="none" stroke="#000000" d="M 3117.65 7387.64 L 3117.65 7289.7 M 3068.68 7338.66 L 3166.63 7338.66 "/>
</g>
<path transform="matrix(.1,0,0,-.1,-202,795)" stroke-width="9.23334" stroke-linecap="butt" stroke-miterlimit="10" stroke-linejoin="miter" fill="none" stroke="#000000" d="M 3166.63 7338.66 C 3166.63 7365.71 3144.7 7387.64 3117.65 7387.64 C 3090.61 7387.64 3068.68 7365.71 3068.68 7338.66 C 3068.68 7311.62 3090.61 7289.7 3117.65 7289.7 C 3144.7 7289.7 3166.63 7311.62 3166.63 7338.66 Z M 3117.65 7338.66 "/>
<path transform="matrix(.1,0,0,-.1,-202,795)" d="M 3649.33 7338.66 C 3649.33 7351.41 3638.99 7361.75 3626.25 7361.75 C 3613.5 7361.75 3603.16 7351.41 3603.16 7338.66 C 3603.16 7325.91 3613.5 7315.58 3626.25 7315.58 C 3638.99 7315.58 3649.33 7325.91 3649.33 7338.66 Z M 3626.25 7338.66 "/>
<clipPath id="cp2">
<path transform="matrix(.1,0,0,-.1,-202,795)" d="M 4183.81 7338.66 C 4183.81 7365.71 4161.88 7387.64 4134.84 7387.64 C 4107.79 7387.64 4085.87 7365.71 4085.87 7338.66 C 4085.87 7311.62 4107.79 7289.7 4134.84 7289.7 C 4161.88 7289.7 4183.81 7311.62 4183.81 7338.66 Z M 4134.84 7338.66 "/>
</clipPath>
<g clip-path="url(#cp2)">
<path transform="matrix(.1,0,0,-.1,-202,795)" stroke-width="9.23334" stroke-linecap="butt" stroke-miterlimit="10" stroke-linejoin="miter" fill="none" stroke="#000000" d="M 4134.84 7387.64 L 4134.84 7289.7 M 4085.87 7338.66 L 4183.81 7338.66 "/>
</g>
<path transform="matrix(.1,0,0,-.1,-202,795)" stroke-width="9.23334" stroke-linecap="butt" stroke-miterlimit="10" stroke-linejoin="miter" fill="none" stroke="#000000" d="M 4183.81 7338.66 C 4183.81 7365.71 4161.88 7387.64 4134.84 7387.64 C 4107.79 7387.64 4085.87 7365.71 4085.87 7338.66 C 4085.87 7311.62 4107.79 7289.7 4134.84 7289.7 C 4161.88 7289.7 4183.81 7311.62 4183.81 7338.66 Z M 4134.84 7338.66 "/>
<path transform="matrix(.1,0,0,-.1,-202,795)" stroke-width="9.23334" stroke-linecap="butt" stroke-miterlimit="10" stroke-linejoin="miter" fill="none" stroke="#000000" d="M 2635.82 7667.07 L 2207.59 7667.07 "/>
<path transform="matrix(.1,0,0,-.1,-202,795)" stroke-width="9.23334" stroke-linecap="butt" stroke-miterlimit="10" stroke-linejoin="miter" fill="none" stroke="#000000" d="M 3094.56 7667.07 L 2635.82 7667.07 "/>
<path transform="matrix(.1,0,0,-.1,-202,795)" stroke-width="9.23334" stroke-linecap="butt" stroke-miterlimit="10" stroke-linejoin="miter" fill="none" stroke="#000000" d="M 3117.65 7643.98 L 3117.65 7387.64 "/>
<path transform="matrix(.1,0,0,-.1,-202,795)" stroke-width="9.23334" stroke-linecap="butt" stroke-miterlimit="10" stroke-linejoin="miter" fill="none" stroke="#000000" d="M 3626.25 7667.07 L 3140.73 7667.07 "/>
<path transform="matrix(.1,0,0,-.1,-202,795)" stroke-width="9.23334" stroke-linecap="butt" stroke-miterlimit="10" stroke-linejoin="miter" fill="none" stroke="#000000" d="M 4111.76 7667.07 L 3626.25 7667.07 "/>
<path transform="matrix(.1,0,0,-.1,-202,795)" stroke-width="9.23334" stroke-linecap="butt" stroke-miterlimit="10" stroke-linejoin="miter" fill="none" stroke="#000000" d="M 4134.84 7643.98 L 4134.84 7387.64 "/>
<path transform="matrix(.1,0,0,-.1,-202,795)" stroke-width="9.23334" stroke-linecap="butt" stroke-miterlimit="10" stroke-linejoin="miter" fill="none" stroke="#000000" d="M 4593.58 7667.07 L 4157.93 7667.07 "/>
<path transform="matrix(.1,0,0,-.1,-202,795)" stroke-width="9.23334" stroke-linecap="butt" stroke-miterlimit="10" stroke-linejoin="miter" fill="none" stroke="#000000" d="M 4616.66 7643.98 L 4616.66 7103.05 "/>
<path transform="matrix(.1,0,0,-.1,-202,795)" stroke-width="9.23334" stroke-linecap="butt" stroke-miterlimit="10" stroke-linejoin="miter" fill="none" stroke="#000000" d="M 5044.9 7667.07 L 4639.75 7667.07 "/>
<path transform="matrix(.1,0,0,-.1,-202,795)" stroke-width="9.23334" stroke-linecap="butt" stroke-miterlimit="10" stroke-linejoin="miter" fill="none" stroke="#000000" d="M 2612.74 7338.67 L 2207.59 7338.67 "/>
<path transform="matrix(.1,0,0,-.1,-202,795)" stroke-width="9.23334" stroke-linecap="butt" stroke-miterlimit="10" stroke-linejoin="miter" fill="none" stroke="#000000" d="M 2635.82 7315.59 L 2635.82 7103.05 "/>
<path transform="matrix(.1,0,0,-.1,-202,795)" stroke-width="9.23334" stroke-linecap="butt" stroke-miterlimit="10" stroke-linejoin="miter" fill="none" stroke="#000000" d="M 3068.68 7338.67 L 2658.91 7338.67 "/>
<path transform="matrix(.1,0,0,-.1,-202,795)" stroke-width="9.23334" stroke-linecap="butt" stroke-miterlimit="10" stroke-linejoin="miter" fill="none" stroke="#000000" d="M 3603.16 7338.67 L 3166.62 7338.67 "/>
<path transform="matrix(.1,0,0,-.1,-202,795)" stroke-width="9.23334" stroke-linecap="butt" stroke-miterlimit="10" stroke-linejoin="miter" fill="none" stroke="#000000" d="M 3626.25 7315.59 L 3626.25 7117.09 "/>
<path transform="matrix(.1,0,0,-.1,-202,795)" stroke-width="9.23334" stroke-linecap="butt" stroke-miterlimit="10" stroke-linejoin="miter" fill="none" stroke="#000000" d="M 4085.87 7338.67 L 3649.33 7338.67 "/>
<path transform="matrix(.1,0,0,-.1,-202,795)" stroke-width="9.23334" stroke-linecap="butt" stroke-miterlimit="10" stroke-linejoin="miter" fill="none" stroke="#000000" d="M 4616.66 7338.67 L 4183.82 7338.67 "/>
<path transform="matrix(.1,0,0,-.1,-202,795)" stroke-width="9.23334" stroke-linecap="butt" stroke-miterlimit="10" stroke-linejoin="miter" fill="none" stroke="#000000" d="M 5044.9 7338.67 L 4616.66 7338.67 "/>
<path transform="matrix(.1,0,0,-.1,-202,795)" stroke-width="9.23334" stroke-linecap="butt" stroke-miterlimit="10" stroke-linejoin="miter" fill="none" stroke="#000000" d="M 2535.99 7010.28 L 2207.59 7010.28 "/>
<path transform="matrix(.1,0,0,-.1,-202,795)" stroke-width="9.23334" stroke-linecap="butt" stroke-miterlimit="10" stroke-linejoin="miter" fill="none" stroke="#000000" d="M 3117.65 7010.28 L 2735.66 7010.28 "/>
<path transform="matrix(.1,0,0,-.1,-202,795)" stroke-width="9.23334" stroke-linecap="butt" stroke-miterlimit="10" stroke-linejoin="miter" fill="none" stroke="#000000" d="M 3499.63 7010.28 L 3117.65 7010.28 "/>
<path transform="matrix(.1,0,0,-.1,-202,795)" stroke-width="9.23334" stroke-linecap="butt" stroke-miterlimit="10" stroke-linejoin="miter" fill="none" stroke="#000000" d="M 4134.84 7010.28 L 3752.86 7010.28 "/>
<path transform="matrix(.1,0,0,-.1,-202,795)" stroke-width="9.23334" stroke-linecap="butt" stroke-miterlimit="10" stroke-linejoin="miter" fill="none" stroke="#000000" d="M 4516.83 7010.28 L 4134.84 7010.28 "/>
<path transform="matrix(.1,0,0,-.1,-202,795)" stroke-width="9.23334" stroke-linecap="butt" stroke-miterlimit="10" stroke-linejoin="miter" fill="none" stroke="#000000" d="M 5044.9 7010.28 L 4716.5 7010.28 "/>
<symbol id="font_3_1">
<path d="M .234 .17 L .24900002 .10300001 C .266 .028 .292 0 .34100003 0 C .37800003 0 .396 .012 .442 .068 C .46 .089 .463 .094000007 .48900003 .14 L .458 .157 C .448 .141 .44500003 .136 .43 .115 C .40100003 .076000008 .384 .061000006 .366 .061000006 C .343 .061000006 .333 .083000008 .315 .165 L .296 .26 L .34 .34100003 C .36400003 .38600005 .38500003 .408 .403 .408 C .411 .408 .416 .40400005 .42000003 .39500005 C .42900003 .375 .43600003 .37 .45400004 .37 C .485 .37 .504 .39100004 .504 .42400003 C .504 .45900006 .48000003 .485 .44700004 .485 C .42000003 .485 .39000003 .47100003 .36900003 .448 C .349 .426 .34800003 .426 .314 .36300005 L .285 .311 L .27400003 .366 C .257 .45200003 .23500002 .485 .194 .485 C .17200002 .485 .15 .472 .125 .444 C .109000008 .426 .095 .40600003 .05 .34100003 L .079 .32 C .13 .393 .14400001 .408 .16100002 .408 C .16800002 .408 .178 .40100003 .18200001 .393 C .19100002 .37700004 .19100002 .37700004 .211 .278 L .22300002 .22000002 L .178 .14 C .15 .089 .125 .061000006 .109000008 .061000006 C .102000009 .061000006 .096 .068 .094000007 .081 C .089 .108 .076000008 .120000008 .051 .120000008 C .021 .120000008 0 .096 0 .062000004 C 0 .025000003 .026 0 .066 0 C .114 0 .16100002 .04 .204 .116000007 L .234 .17 Z "/>
</symbol>
<use xlink:href="#font_3_1" transform="matrix(12.8805,0,0,-12.8805,.6159439,30.513215)"/>
<symbol id="font_4_3">
<path d="M .22200004 .70400008 C .18800003 .66300007 .09600001 .632 .0040000008 .63000008 L .0040000008 .587 L .092 .587 C .15 .587 .15400002 .583 .15400002 .52400007 L .15400002 .123 L .15400002 .094000007 C .15400002 .052 .14500001 .047000003 .065000008 .047000003 L 0 .047000003 L 0 0 L .39600004 0 L .39600004 .047000003 L .34100003 .047000003 C .28800003 .047000003 .26600004 .051000004 .25800003 .061000006 C .25100003 .068 .25100003 .068 .25100003 .123 L .25100003 .536 C .25100003 .58500006 .25300003 .633 .25800003 .70400008 L .22200004 .70400008 Z "/>
</symbol>
<use xlink:href="#font_4_3" transform="matrix(9.66036,0,0,-9.66036,8.446871,32.396974)"/>
<use xlink:href="#font_3_1" transform="matrix(12.8805,0,0,-12.8805,.6159439,63.3519)"/>
<symbol id="font_4_4">
<path d="M .47 .216 L .42600004 .216 L .41600005 .165 C .40300004 .101 .395 .094000007 .33300004 .094000007 L .10900001 .094000007 C .17800002 .16600001 .20100002 .187 .26500003 .23700002 C .35600005 .307 .395 .342 .418 .372 C .45000003 .416 .46600006 .46100004 .46600006 .509 C .46600006 .62200006 .37100003 .70400008 .24100003 .70400008 C .11400001 .70400008 .016000003 .62200006 .016000003 .51600006 C .016000003 .453 .048000006 .41000004 .096000019 .41000004 C .13300002 .41000004 .158 .43500004 .158 .47100003 C .158 .49600003 .14400001 .51900008 .12200001 .528 C .08500001 .544 .083000008 .545 .083000008 .558 C .083000008 .573 .09300001 .596 .10700001 .61300006 C .13200002 .643 .17400001 .661 .22100002 .661 C .30300004 .661 .35300002 .61 .35300002 .526 C .35300002 .45200003 .31800003 .38500003 .23500002 .29700003 L .17600002 .23500002 C .14100002 .19800002 .11500001 .17 .098000008 .15100001 C .062000004 .109000008 .044000005 .086 0 .028 L 0 0 L .45100004 0 L .47 .216 Z "/>
</symbol>
<use xlink:href="#font_4_4" transform="matrix(9.66036,0,0,-9.66036,7.818948,65.23602)"/>
<use xlink:href="#font_3_1" transform="matrix(12.8805,0,0,-12.8805,.6159439,96.1362)"/>
<symbol id="font_4_5">
<path d="M .30400003 .38300003 C .31800003 .388 .32000003 .388 .32700003 .39100004 C .397 .42000003 .43700005 .476 .43700005 .547 C .43700005 .651 .35700003 .71900007 .23300001 .71900007 C .116000007 .71900007 .027000003 .65000006 .027000003 .559 C .027000003 .518 .055 .48900003 .093 .48900003 C .12799999 .48900003 .15200001 .513 .15200001 .549 C .15200001 .57 .144 .584 .121 .6 C .11100001 .607 .108 .612 .108 .61800006 C .108 .646 .167 .676 .22300002 .676 C .29500003 .676 .33300004 .63100007 .33300004 .546 C .33300004 .453 .29500003 .40400005 .22300002 .40400005 C .21400002 .40400005 .19800002 .40500004 .183 .40600003 C .17500001 .407 .167 .407 .16100002 .407 C .14000002 .407 .12900001 .398 .12900001 .38 C .12900001 .36300005 .14000002 .35500003 .16 .35500003 C .16300002 .35500003 .171 .35500003 .18400002 .356 C .222 .357 .22300002 .357 .231 .357 C .305 .357 .34500004 .30400003 .34500004 .20500002 C .34500004 .102000009 .29400004 .043 .20500002 .043 C .14200002 .043 .074 .07700001 .074 .108 C .074 .117000009 .076000008 .119 .09600001 .13 C .124000009 .147 .13499999 .164 .13499999 .18900001 C .13499999 .22500001 .108 .25200004 .071 .25200004 C .029 .25200004 0 .216 0 .164 C 0 .067 .08900001 0 .21700001 0 C .36100004 0 .45600004 .080000009 .45600004 .20300001 C .45600004 .297 .40700004 .35400004 .30400003 .38300003 Z "/>
</symbol>
<use xlink:href="#font_4_5" transform="matrix(9.66036,0,0,-9.66036,7.88657,98.16486)"/>
<path transform="matrix(.1,0,0,-.1,-202,795)" d="M 2535.99 6913.67 L 2735.666 6913.67 L 2735.666 7106.877 L 2535.99 7106.877 Z " fill="#ffffff"/>
<path transform="matrix(.1,0,0,-.1,-202,795)" stroke-width="9.23334" stroke-linecap="butt" stroke-miterlimit="10" stroke-linejoin="miter" fill="none" stroke="#000000" d="M 2535.99 6913.67 L 2735.666 6913.67 L 2735.666 7106.877 L 2535.99 7106.877 Z "/>
<symbol id="font_3_2">
<path d="M .298 .17 L .21100001 .606 C .20600002 .629 .20300001 .649 .20300001 .658 C .20300001 .684 .214 .69 .263 .69 L .297 .69 L .30200003 .73700007 L .0069999995 .73700007 L 0 .69 L .028 .69 C .076000008 .69 .09 .672 .106000009 .592 L .223 0 L .26 0 L .55700007 .528 C .635 .66 .66 .683 .731 .69 L .736 .73700007 L .464 .73700007 L .45900003 .69 L .477 .69 C .53000006 .69 .552 .67800006 .552 .649 C .552 .632 .544 .611 .521 .57100006 L .298 .17 Z "/>
</symbol>
<use xlink:href="#font_3_2" transform="matrix(12.8805,0,0,-12.8805,56.68071,98.69418)"/>
<path transform="matrix(.1,0,0,-.1,-202,795)" d="M 3499.63 6903.46 L 3752.857 6903.46 L 3752.857 7117.089 L 3499.63 7117.089 Z " fill="#ffffff"/>
<path transform="matrix(.1,0,0,-.1,-202,795)" stroke-width="9.23334" stroke-linecap="butt" stroke-miterlimit="10" stroke-linejoin="miter" fill="none" stroke="#000000" d="M 3499.63 6903.46 L 3752.857 6903.46 L 3752.857 7117.089 L 3499.63 7117.089 Z "/>
<use xlink:href="#font_3_2" transform="matrix(12.8805,0,0,-12.8805,153.04369,100.098239)"/>
<symbol id="font_4_1">
<path d="M .19100002 0 L .22500003 0 L .22500003 .08400001 C .22500003 .24800001 .23700002 .34600003 .27 .43600006 C .236 .485 .22500003 .52900007 .22500003 .62100008 C .25500003 .62100008 .268 .61800006 .29900003 .605 C .33900003 .587 .34600003 .58500006 .36200003 .58500006 C .393 .58500006 .416 .60800006 .416 .64000007 C .416 .66800007 .395 .69 .36600004 .69 C .351 .69 .34800003 .689 .298 .669 C .266 .657 .254 .65400007 .22500003 .653 C .22500003 .695 .23000002 .727 .24700001 .769 C .259 .801 .261 .81 .261 .82500007 C .261 .859 .24100003 .88100007 .208 .88100007 C .17500001 .88100007 .15500002 .859 .15500002 .82500007 C .15500002 .81 .158 .8 .16900002 .769 C .186 .726 .19100002 .697 .19100002 .653 C .16200002 .65400007 .15 .657 .118 .669 C .068 .689 .065 .69 .05 .69 C .021000002 .69 0 .669 0 .64000007 C 0 .60800006 .022999999 .58500006 .054 .58500006 C .07000001 .58500006 .07700001 .587 .11700001 .605 C .148 .61800006 .16100002 .62100008 .19100002 .62100008 C .19100002 .531 .18 .485 .14600002 .43600006 C .179 .34600003 .19100002 .24900002 .19100002 .08400001 L .19100002 0 Z "/>
</symbol>
<use xlink:href="#font_4_1" transform="matrix(9.55655,0,0,-9.55655,163.73366,96.254199)"/>
<path transform="matrix(.1,0,0,-.1,-202,795)" d="M 4516.83 6913.67 L 4716.502 6913.67 L 4716.502 7106.877 L 4516.83 7106.877 Z " fill="#ffffff"/>
<path transform="matrix(.1,0,0,-.1,-202,795)" stroke-width="9.23334" stroke-linecap="butt" stroke-miterlimit="10" stroke-linejoin="miter" fill="none" stroke="#000000" d="M 4516.83 6913.67 L 4716.502 6913.67 L 4716.502 7106.877 L 4516.83 7106.877 Z "/>
<use xlink:href="#font_3_2" transform="matrix(12.8805,0,0,-12.8805,254.7617,98.69418)"/>
<path transform="matrix(.1,0,0,-.1,-202,795)" stroke-width="9.23334" stroke-linecap="butt" stroke-dasharray="57.7091,34.6255" stroke-miterlimit="10" stroke-linejoin="miter" fill="none" stroke="#ff0000" d="M 2371.79 7735.39 L 2371.79 6823.6 "/>
<symbol id="font_5_2">
<path d="M .06300001 0 L .06300001 .65200009 L 0 .65200009 L 0 0 L .06300001 0 Z "/>
</symbol>
<use xlink:href="#font_5_2" transform="matrix(12.742,0,0,-12.742,23.87117,9.0695099)"/>
<use xlink:href="#font_5_2" transform="matrix(12.742,0,0,-12.742,23.87117,16.714407)"/>
<symbol id="font_6_1">
<path d="M .024000003 .58500006 C .050000006 .63600006 .09600001 .689 .11800001 .689 C .12900001 .689 .134 .679 .134 .66 C .134 .61300006 .094000007 .47700004 .094000007 .41700004 C .094000007 .284 .146 .23000002 .27600003 .23000002 C .278 .23000002 .24000001 .023000002 .24000001 .009000003 C .243 .001000002 .245 0 .257 0 C .27 0 .272 .001000002 .278 .0069999995 C .282 .012000009 .31800003 .15600002 .337 .23000002 C .38500003 .231 .4 .23500002 .48200003 .293 C .49600003 .30200003 .5450001 .351 .5680001 .39500005 C .62900009 .513 .63000008 .6750001 .73800006 .722 L .73800006 .72300007 C .73800006 .72800007 .7340001 .7440001 .7340001 .7440001 C .69400009 .74300006 .63900008 .739 .59800007 .70000007 C .54700008 .65200009 .56100007 .41700004 .46 .328 C .395 .272 .379 .27 .347 .27 C .347 .27 .46 .734 .48200003 .80700007 L .479 .80700007 C .469 .80700007 .38000003 .781 .38000003 .778 C .36 .66300007 .284 .268 .284 .27 C .20300001 .27 .18800001 .30200003 .18800001 .40800003 C .18800001 .48200003 .22600001 .58500006 .22600001 .67300006 C .22600001 .712 .214 .7440001 .17400001 .7440001 C .101 .7440001 .030000003 .688 0 .59900006 L .024000003 .58500006 Z "/>
</symbol>
<use xlink:href="#font_6_1" transform="matrix(12.465,0,0,-12.465,26.709513,15.341176)"/>
<symbol id="font_4_2">
<path d="M .24200002 .71900007 C .102000009 .71900007 0 .566 0 .357 C 0 .15100001 .099 0 .23400003 0 C .374 0 .472 .14600002 .472 .35400004 C .472 .46000005 .45000003 .54800006 .40800003 .61700007 C .36900003 .68 .305 .71900007 .24200002 .71900007 M .23500002 .676 C .268 .676 .3 .65400007 .32400004 .614 C .351 .568 .36 .509 .36 .37200005 C .36 .23200001 .35300002 .16600001 .33300004 .12200001 C .31000004 .073 .27400003 .043 .23600003 .043 C .20300001 .043 .171 .065 .14700002 .105000007 C .11900001 .15200001 .11100001 .215 .11100001 .37800003 C .11100001 .49400003 .11800001 .55300006 .13800001 .596 C .16100002 .647 .197 .676 .23500002 .676 Z "/>
</symbol>
<use xlink:href="#font_4_2" transform="matrix(9.66036,0,0,-9.66036,36.650899,14.546516)"/>
<symbol id="font_5_1">
<path d="M .24700003 .586 L 0 .024999977 L .052 0 L .311 .586 L .052 1.172 L 0 1.1470001 L .24700003 .586 Z "/>
</symbol>
<use xlink:href="#font_5_1" transform="matrix(12.742,0,0,-12.742,43.264329,16.203957)"/>
<path transform="matrix(.1,0,0,-.1,-202,795)" stroke-width="9.23334" stroke-linecap="butt" stroke-dasharray="57.7091,34.6255" stroke-miterlimit="10" stroke-linejoin="miter" fill="none" stroke="#ff0000" d="M 2902.17 7735.39 L 2902.17 6823.6 "/>
<use xlink:href="#font_5_2" transform="matrix(12.742,0,0,-12.742,76.90816,9.0695099)"/>
<use xlink:href="#font_5_2" transform="matrix(12.742,0,0,-12.742,76.90816,16.714407)"/>
<use xlink:href="#font_6_1" transform="matrix(12.465,0,0,-12.465,79.7465,15.341176)"/>
<use xlink:href="#font_4_3" transform="matrix(9.66036,0,0,-9.66036,90.24817,14.401611)"/>
<use xlink:href="#font_5_1" transform="matrix(12.742,0,0,-12.742,96.301288,16.203957)"/>
<path transform="matrix(.1,0,0,-.1,-202,795)" stroke-width="9.23334" stroke-linecap="butt" stroke-dasharray="57.7091,34.6255" stroke-miterlimit="10" stroke-linejoin="miter" fill="none" stroke="#ff0000" d="M 3333.13 7735.39 L 3333.13 6823.6 "/>
<use xlink:href="#font_5_2" transform="matrix(12.742,0,0,-12.742,120.00316,9.068472)"/>
<use xlink:href="#font_5_2" transform="matrix(12.742,0,0,-12.742,120.00316,16.71459)"/>
<use xlink:href="#font_6_1" transform="matrix(12.465,0,0,-12.465,122.8415,15.341359)"/>
<use xlink:href="#font_4_4" transform="matrix(9.66036,0,0,-9.66036,132.71645,14.401794)"/>
<use xlink:href="#font_5_1" transform="matrix(12.742,0,0,-12.742,139.39632,16.20414)"/>
<path transform="matrix(.1,0,0,-.1,-202,795)" stroke-width="9.23334" stroke-linecap="butt" stroke-dasharray="57.7091,34.6255" stroke-miterlimit="10" stroke-linejoin="miter" fill="none" stroke="#ff0000" d="M 3919.37 7735.39 L 3919.37 6823.6 "/>
<use xlink:href="#font_5_2" transform="matrix(12.742,0,0,-12.742,178.62618,9.068472)"/>
<use xlink:href="#font_5_2" transform="matrix(12.742,0,0,-12.742,178.62618,16.71459)"/>
<use xlink:href="#font_6_1" transform="matrix(12.465,0,0,-12.465,181.46453,15.341359)"/>
<use xlink:href="#font_4_5" transform="matrix(9.66036,0,0,-9.66036,191.40589,14.5467)"/>
<use xlink:href="#font_5_1" transform="matrix(12.742,0,0,-12.742,198.0193,16.20414)"/>
<path transform="matrix(.1,0,0,-.1,-202,795)" stroke-width="9.23334" stroke-linecap="butt" stroke-dasharray="57.7091,34.6255" stroke-miterlimit="10" stroke-linejoin="miter" fill="none" stroke="#ff0000" d="M 4350.32 7735.39 L 4350.32 6823.6 "/>
<use xlink:href="#font_5_2" transform="matrix(12.742,0,0,-12.742,221.72118,9.068472)"/>
<use xlink:href="#font_5_2" transform="matrix(12.742,0,0,-12.742,221.72118,16.71459)"/>
<use xlink:href="#font_6_1" transform="matrix(12.465,0,0,-12.465,224.55953,15.341359)"/>
<symbol id="font_4_6">
<path d="M .34000004 .70400008 L 0 .231 L 0 .17500001 L .28100003 .17500001 L .28100003 .123 L .28100003 .094000007 C .28100003 .052 .272 .047000003 .19100002 .047000003 L .18 .047000003 L .18 0 L .472 0 L .472 .047000003 L .46800003 .047000003 C .38700003 .047000003 .37800003 .052 .37800003 .094000007 L .37800003 .123 L .37800003 .17500001 L .499 .17500001 L .499 .231 L .37800003 .231 L .37800003 .504 C .37800003 .629 .37800003 .629 .38300003 .70400008 L .34000004 .70400008 M .28100003 .231 L .061 .231 L .28100003 .53400006 L .28100003 .231 Z "/>
</symbol>
<use xlink:href="#font_4_6" transform="matrix(9.66036,0,0,-9.66036,234.36684,14.401794)"/>
<use xlink:href="#font_5_1" transform="matrix(12.742,0,0,-12.742,241.11434,16.20414)"/>
<path transform="matrix(.1,0,0,-.1,-202,795)" stroke-width="9.23334" stroke-linecap="butt" stroke-dasharray="57.7091,34.6255" stroke-miterlimit="10" stroke-linejoin="miter" fill="none" stroke="#ff0000" d="M 4880.7 7735.39 L 4880.7 6823.6 "/>
<use xlink:href="#font_5_2" transform="matrix(12.742,0,0,-12.742,274.75819,9.068472)"/>
<use xlink:href="#font_5_2" transform="matrix(12.742,0,0,-12.742,274.75819,16.71459)"/>
<use xlink:href="#font_6_1" transform="matrix(12.465,0,0,-12.465,277.5965,15.341359)"/>
<symbol id="font_4_7">
<path d="M .119 .606 C .17300001 .593 .201 .589 .24000003 .589 C .325 .589 .38700003 .619 .42000003 .674 C .431 .693 .435 .702 .435 .71000006 C .435 .716 .43200005 .71900007 .42700006 .71900007 C .42400003 .71900007 .41900004 .718 .41400004 .71500006 C .365 .694 .338 .689 .28100003 .689 C .21700002 .689 .18 .694 .075 .71900007 C .071 .635 .062000008 .528 .048 .40400005 C .027000003 .38200004 .020000004 .36900003 .020000004 .35300005 C .020000004 .333 .033 .319 .052 .319 C .07700001 .319 .09300001 .34000004 .097 .38 C .132 .40500004 .165 .416 .205 .416 C .29400004 .416 .348 .347 .348 .23300001 C .348 .16600001 .33100004 .109000008 .301 .078 C .28100003 .057000005 .24000003 .043 .19900002 .043 C .13900002 .043 .07700001 .074 .07700001 .105000007 C .07700001 .112 .083000008 .120000008 .095 .127 C .126 .14600002 .135 .15900001 .135 .186 C .135 .22100002 .10800001 .24800001 .072000008 .24800001 C .032000007 .24800001 0 .21100001 0 .164 C 0 .11400001 .029 .064 .074 .033 C .10800001 .011 .149 0 .201 0 C .35800005 0 .45700003 .09200001 .45700003 .23900001 C .45700003 .375 .366 .46600003 .23100002 .46600003 C .18900001 .46600003 .157 .45900006 .102 .43600006 L .119 .606 Z "/>
</symbol>
<use xlink:href="#font_4_7" transform="matrix(9.66036,0,0,-9.66036,287.56806,14.5467)"/>
<use xlink:href="#font_5_1" transform="matrix(12.742,0,0,-12.742,294.15135,16.20414)"/>
</g>
</g>
</svg>
