<?xml version="1.0" encoding="UTF-8" standalone="no"?>
<!DOCTYPE svg PUBLIC "-//W3C//DTD SVG 1.1//EN" "http://www.w3.org/Graphics/SVG/1.1/DTD/svg11.dtd">
<svg xmlns="http://www.w3.org/2000/svg" xmlns:xlink="http://www.w3.org/1999/xlink" version="1.1" width="578pt" height="99pt" viewBox="0 0 578 99">
<g enable-background="new">
<clipPath id="cp0">
<path transform="matrix(0,1,1,0,-299,-160)" d="M 0 0 L 709 0 L 709 1001 L 0 1001 Z "/>
</clipPath>
<g clip-path="url(#cp0)">
<path transform="matrix(0,.1,.1,0,-299,-160)" d="M 2241.54 5850.64 L 2241.54 4982.65 C 2241.54 4957.15 2262.2 4936.48 2287.7 4936.48 L 2523.32 4936.48 C 2548.82 4936.48 2569.48 4957.15 2569.48 4982.65 L 2569.48 5850.64 C 2569.48 5876.14 2548.82 5896.81 2523.32 5896.81 L 2287.7 5896.81 C 2262.2 5896.81 2241.54 5876.14 2241.54 5850.64 Z M 2569.48 4936.48 " fill="#ccccff"/>
<path transform="matrix(0,.1,.1,0,-299,-160)" stroke-width="9.23334" stroke-linecap="butt" stroke-dasharray="34.6255,34.6255" stroke-miterlimit="10" stroke-linejoin="miter" fill="none" stroke="#000000" d="M 2241.54 5850.64 L 2241.54 4982.65 C 2241.54 4957.15 2262.2 4936.48 2287.7 4936.48 L 2523.32 4936.48 C 2548.82 4936.48 2569.48 4957.15 2569.48 4982.65 L 2569.48 5850.64 C 2569.48 5876.14 2548.82 5896.81 2523.32 5896.81 L 2287.7 5896.81 C 2262.2 5896.81 2241.54 5876.14 2241.54 5850.64 Z M 2569.48 4936.48 "/>
<path transform="matrix(0,.1,.1,0,-299,-160)" d="M 2241.54 7542.74 L 2241.54 6746.51 C 2241.54 6721.01 2262.2 6700.34 2287.7 6700.34 L 2523.32 6700.34 C 2548.82 6700.34 2569.48 6721.01 2569.48 6746.51 L 2569.48 7542.74 C 2569.48 7568.23 2548.82 7588.91 2523.32 7588.91 L 2287.7 7588.91 C 2262.2 7588.91 2241.54 7568.23 2241.54 7542.74 Z M 2569.48 6700.34 " fill="#ccccff"/>
<path transform="matrix(0,.1,.1,0,-299,-160)" stroke-width="9.23334" stroke-linecap="butt" stroke-dasharray="34.6255,34.6255" stroke-miterlimit="10" stroke-linejoin="miter" fill="none" stroke="#000000" d="M 2241.54 7542.74 L 2241.54 6746.51 C 2241.54 6721.01 2262.2 6700.34 2287.7 6700.34 L 2523.32 6700.34 C 2548.82 6700.34 2569.48 6721.01 2569.48 6746.51 L 2569.48 7542.74 C 2569.48 7568.23 2548.82 7588.91 2523.32 7588.91 L 2287.7 7588.91 C 2262.2 7588.91 2241.54 7568.23 2241.54 7542.74 Z M 2569.48 6700.34 "/>
<path transform="matrix(0,.1,.1,0,-299,-160)" d="M 1748.71 3238.24 C 1735.97 3238.24 1725.63 3227.91 1725.63 3215.16 C 1725.63 3202.41 1735.97 3192.07 1748.71 3192.07 C 1761.46 3192.07 1771.8 3202.41 1771.8 3215.16 C 1771.8 3227.91 1761.46 3238.24 1748.71 3238.24 Z M 1748.71 3215.16 "/>
<path transform="matrix(0,.1,.1,0,-299,-160)" d="M 1748.71 5439.73 C 1735.97 5439.73 1725.63 5429.4 1725.63 5416.65 C 1725.63 5403.9 1735.97 5393.57 1748.71 5393.57 C 1761.46 5393.57 1771.8 5403.9 1771.8 5416.65 C 1771.8 5429.4 1761.46 5439.73 1748.71 5439.73 Z M 1748.71 5416.65 "/>
<path transform="matrix(0,.1,.1,0,-299,-160)" d="M 1748.71 7194.47 C 1735.97 7194.47 1725.63 7184.14 1725.63 7171.39 C 1725.63 7158.64 1735.97 7148.3 1748.71 7148.3 C 1761.46 7148.3 1771.8 7158.64 1771.8 7171.39 C 1771.8 7184.14 1761.46 7194.47 1748.71 7194.47 Z M 1748.71 7171.39 "/>
<path transform="matrix(0,.1,.1,0,-299,-160)" d="M 1748.71 7723.71 C 1735.97 7723.71 1725.63 7713.38 1725.63 7700.63 C 1725.63 7687.88 1735.97 7677.54 1748.71 7677.54 C 1761.46 7677.54 1771.8 7687.88 1771.8 7700.63 C 1771.8 7713.38 1761.46 7723.71 1748.71 7723.71 Z M 1748.71 7700.63 "/>
<path transform="matrix(0,.1,.1,0,-299,-160)" d="M 1748.71 8250.19 C 1735.97 8250.19 1725.63 8239.85 1725.63 8227.11 C 1725.63 8214.36 1735.97 8204.02 1748.71 8204.02 C 1761.46 8204.02 1771.8 8214.36 1771.8 8227.11 C 1771.8 8239.85 1761.46 8250.19 1748.71 8250.19 Z M 1748.71 8227.11 "/>
<path transform="matrix(0,.1,.1,0,-299,-160)" d="M 2077.11 3238.24 C 2064.37 3238.24 2054.03 3227.91 2054.03 3215.16 C 2054.03 3202.41 2064.37 3192.07 2077.11 3192.07 C 2089.86 3192.07 2100.2 3202.41 2100.2 3215.16 C 2100.2 3227.91 2089.86 3238.24 2077.11 3238.24 Z M 2077.11 3215.16 "/>
<path transform="matrix(0,.1,.1,0,-299,-160)" d="M 2077.11 4321.36 C 2064.37 4321.36 2054.03 4311.02 2054.03 4298.27 C 2054.03 4285.52 2064.37 4275.19 2077.11 4275.19 C 2089.86 4275.19 2100.2 4285.52 2100.2 4298.27 C 2100.2 4311.02 2089.86 4321.36 2077.11 4321.36 Z M 2077.11 4298.27 "/>
<path transform="matrix(0,.1,.1,0,-299,-160)" d="M 2077.11 4847.83 C 2064.37 4847.83 2054.03 4837.5 2054.03 4824.75 C 2054.03 4812 2064.37 4801.66 2077.11 4801.66 C 2089.86 4801.66 2100.2 4812 2100.2 4824.75 C 2100.2 4837.5 2089.86 4847.83 2077.11 4847.83 Z M 2077.11 4824.75 "/>
<clipPath id="cp1">
<path transform="matrix(0,.1,.1,0,-299,-160)" d="M 2077.11 5465.62 C 2050.07 5465.62 2028.14 5443.7 2028.14 5416.65 C 2028.14 5389.6 2050.07 5367.68 2077.11 5367.68 C 2104.16 5367.68 2126.09 5389.6 2126.09 5416.65 C 2126.09 5443.7 2104.16 5465.62 2077.11 5465.62 Z M 2077.11 5416.65 "/>
</clipPath>
<g clip-path="url(#cp1)">
<path transform="matrix(0,.1,.1,0,-299,-160)" stroke-width="9.23334" stroke-linecap="butt" stroke-miterlimit="10" stroke-linejoin="miter" fill="none" stroke="#000000" d="M 2028.14 5416.65 L 2126.09 5416.65 M 2077.11 5367.68 L 2077.11 5465.62 "/>
</g>
<path transform="matrix(0,.1,.1,0,-299,-160)" stroke-width="9.23334" stroke-linecap="butt" stroke-miterlimit="10" stroke-linejoin="miter" fill="none" stroke="#000000" d="M 2077.11 5465.62 C 2050.07 5465.62 2028.14 5443.7 2028.14 5416.65 C 2028.14 5389.6 2050.07 5367.68 2077.11 5367.68 C 2104.16 5367.68 2126.09 5389.6 2126.09 5416.65 C 2126.09 5443.7 2104.16 5465.62 2077.11 5465.62 Z M 2077.11 5416.65 "/>
<path transform="matrix(0,.1,.1,0,-299,-160)" d="M 2077.11 6031.64 C 2064.37 6031.64 2054.03 6021.31 2054.03 6008.56 C 2054.03 5995.81 2064.37 5985.48 2077.11 5985.48 C 2089.86 5985.48 2100.2 5995.81 2100.2 6008.56 C 2100.2 6021.31 2089.86 6031.64 2077.11 6031.64 Z M 2077.11 6008.56 "/>
<path transform="matrix(0,.1,.1,0,-299,-160)" d="M 2077.11 6611.67 C 2064.37 6611.67 2054.03 6601.33 2054.03 6588.58 C 2054.03 6575.84 2064.37 6565.5 2077.11 6565.5 C 2089.86 6565.5 2100.2 6575.84 2100.2 6588.58 C 2100.2 6601.33 2089.86 6611.67 2077.11 6611.67 Z M 2077.11 6588.58 "/>
<clipPath id="cp2">
<path transform="matrix(0,.1,.1,0,-299,-160)" d="M 2077.11 7220.36 C 2050.07 7220.36 2028.14 7198.43 2028.14 7171.39 C 2028.14 7144.34 2050.07 7122.42 2077.11 7122.42 C 2104.16 7122.42 2126.09 7144.34 2126.09 7171.39 C 2126.09 7198.43 2104.16 7220.36 2077.11 7220.36 Z M 2077.11 7171.39 "/>
</clipPath>
<g clip-path="url(#cp2)">
<path transform="matrix(0,.1,.1,0,-299,-160)" stroke-width="9.23334" stroke-linecap="butt" stroke-miterlimit="10" stroke-linejoin="miter" fill="none" stroke="#000000" d="M 2028.14 7171.39 L 2126.09 7171.39 M 2077.11 7122.42 L 2077.11 7220.36 "/>
</g>
<path transform="matrix(0,.1,.1,0,-299,-160)" stroke-width="9.23334" stroke-linecap="butt" stroke-miterlimit="10" stroke-linejoin="miter" fill="none" stroke="#000000" d="M 2077.11 7220.36 C 2050.07 7220.36 2028.14 7198.43 2028.14 7171.39 C 2028.14 7144.34 2050.07 7122.42 2077.11 7122.42 C 2104.16 7122.42 2126.09 7144.34 2126.09 7171.39 C 2126.09 7198.43 2104.16 7220.36 2077.11 7220.36 Z M 2077.11 7171.39 "/>
<clipPath id="cp3">
<path transform="matrix(0,.1,.1,0,-299,-160)" d="M 2405.5 4347.24 C 2378.46 4347.24 2356.53 4325.32 2356.53 4298.27 C 2356.53 4271.22 2378.46 4249.3 2405.5 4249.3 C 2432.55 4249.3 2454.47 4271.22 2454.47 4298.27 C 2454.47 4325.32 2432.55 4347.24 2405.5 4347.24 Z M 2405.5 4298.27 "/>
</clipPath>
<g clip-path="url(#cp3)">
<path transform="matrix(0,.1,.1,0,-299,-160)" stroke-width="9.23334" stroke-linecap="butt" stroke-miterlimit="10" stroke-linejoin="miter" fill="none" stroke="#000000" d="M 2356.53 4298.27 L 2454.47 4298.27 M 2405.5 4249.3 L 2405.5 4347.24 "/>
</g>
<path transform="matrix(0,.1,.1,0,-299,-160)" stroke-width="9.23334" stroke-linecap="butt" stroke-miterlimit="10" stroke-linejoin="miter" fill="none" stroke="#000000" d="M 2405.5 4347.24 C 2378.46 4347.24 2356.53 4325.32 2356.53 4298.27 C 2356.53 4271.22 2378.46 4249.3 2405.5 4249.3 C 2432.55 4249.3 2454.47 4271.22 2454.47 4298.27 C 2454.47 4325.32 2432.55 4347.24 2405.5 4347.24 Z M 2405.5 4298.27 "/>
<clipPath id="cp4">
<path transform="matrix(0,.1,.1,0,-299,-160)" d="M 2405.5 4873.72 C 2378.46 4873.72 2356.53 4851.79 2356.53 4824.75 C 2356.53 4797.7 2378.46 4775.78 2405.5 4775.78 C 2432.55 4775.78 2454.47 4797.7 2454.47 4824.75 C 2454.47 4851.79 2432.55 4873.72 2405.5 4873.72 Z M 2405.5 4824.75 "/>
</clipPath>
<g clip-path="url(#cp4)">
<path transform="matrix(0,.1,.1,0,-299,-160)" stroke-width="9.23334" stroke-linecap="butt" stroke-miterlimit="10" stroke-linejoin="miter" fill="none" stroke="#000000" d="M 2356.53 4824.75 L 2454.47 4824.75 M 2405.5 4775.78 L 2405.5 4873.72 "/>
</g>
<path transform="matrix(0,.1,.1,0,-299,-160)" stroke-width="9.23334" stroke-linecap="butt" stroke-miterlimit="10" stroke-linejoin="miter" fill="none" stroke="#000000" d="M 2405.5 4873.72 C 2378.46 4873.72 2356.53 4851.79 2356.53 4824.75 C 2356.53 4797.7 2378.46 4775.78 2405.5 4775.78 C 2432.55 4775.78 2454.47 4797.7 2454.47 4824.75 C 2454.47 4851.79 2432.55 4873.72 2405.5 4873.72 Z M 2405.5 4824.75 "/>
<clipPath id="cp5">
<path transform="matrix(0,.1,.1,0,-299,-160)" d="M 2405.5 6057.53 C 2378.46 6057.53 2356.53 6035.61 2356.53 6008.56 C 2356.53 5981.51 2378.46 5959.59 2405.5 5959.59 C 2432.55 5959.59 2454.47 5981.51 2454.47 6008.56 C 2454.47 6035.61 2432.55 6057.53 2405.5 6057.53 Z M 2405.5 6008.56 "/>
</clipPath>
<g clip-path="url(#cp5)">
<path transform="matrix(0,.1,.1,0,-299,-160)" stroke-width="9.23334" stroke-linecap="butt" stroke-miterlimit="10" stroke-linejoin="miter" fill="none" stroke="#000000" d="M 2356.53 6008.56 L 2454.47 6008.56 M 2405.5 5959.59 L 2405.5 6057.53 "/>
</g>
<path transform="matrix(0,.1,.1,0,-299,-160)" stroke-width="9.23334" stroke-linecap="butt" stroke-miterlimit="10" stroke-linejoin="miter" fill="none" stroke="#000000" d="M 2405.5 6057.53 C 2378.46 6057.53 2356.53 6035.61 2356.53 6008.56 C 2356.53 5981.51 2378.46 5959.59 2405.5 5959.59 C 2432.55 5959.59 2454.47 5981.51 2454.47 6008.56 C 2454.47 6035.61 2432.55 6057.53 2405.5 6057.53 Z M 2405.5 6008.56 "/>
<clipPath id="cp6">
<path transform="matrix(0,.1,.1,0,-299,-160)" d="M 2405.5 6637.55 C 2378.46 6637.55 2356.53 6615.63 2356.53 6588.58 C 2356.53 6561.54 2378.46 6539.61 2405.5 6539.61 C 2432.55 6539.61 2454.47 6561.54 2454.47 6588.58 C 2454.47 6615.63 2432.55 6637.55 2405.5 6637.55 Z M 2405.5 6588.58 "/>
</clipPath>
<g clip-path="url(#cp6)">
<path transform="matrix(0,.1,.1,0,-299,-160)" stroke-width="9.23334" stroke-linecap="butt" stroke-miterlimit="10" stroke-linejoin="miter" fill="none" stroke="#000000" d="M 2356.53 6588.58 L 2454.47 6588.58 M 2405.5 6539.61 L 2405.5 6637.55 "/>
</g>
<path transform="matrix(0,.1,.1,0,-299,-160)" stroke-width="9.23334" stroke-linecap="butt" stroke-miterlimit="10" stroke-linejoin="miter" fill="none" stroke="#000000" d="M 2405.5 6637.55 C 2378.46 6637.55 2356.53 6615.63 2356.53 6588.58 C 2356.53 6561.54 2378.46 6539.61 2405.5 6539.61 C 2432.55 6539.61 2454.47 6561.54 2454.47 6588.58 C 2454.47 6615.63 2432.55 6637.55 2405.5 6637.55 Z M 2405.5 6588.58 "/>
<clipPath id="cp7">
<path transform="matrix(0,.1,.1,0,-299,-160)" d="M 2405.5 7749.59 C 2378.46 7749.59 2356.53 7727.67 2356.53 7700.63 C 2356.53 7673.58 2378.46 7651.65 2405.5 7651.65 C 2432.55 7651.65 2454.47 7673.58 2454.47 7700.63 C 2454.47 7727.67 2432.55 7749.59 2405.5 7749.59 Z M 2405.5 7700.63 "/>
</clipPath>
<g clip-path="url(#cp7)">
<path transform="matrix(0,.1,.1,0,-299,-160)" stroke-width="9.23334" stroke-linecap="butt" stroke-miterlimit="10" stroke-linejoin="miter" fill="none" stroke="#000000" d="M 2356.53 7700.63 L 2454.47 7700.63 M 2405.5 7651.65 L 2405.5 7749.59 "/>
</g>
<path transform="matrix(0,.1,.1,0,-299,-160)" stroke-width="9.23334" stroke-linecap="butt" stroke-miterlimit="10" stroke-linejoin="miter" fill="none" stroke="#000000" d="M 2405.5 7749.59 C 2378.46 7749.59 2356.53 7727.67 2356.53 7700.63 C 2356.53 7673.58 2378.46 7651.65 2405.5 7651.65 C 2432.55 7651.65 2454.47 7673.58 2454.47 7700.63 C 2454.47 7727.67 2432.55 7749.59 2405.5 7749.59 Z M 2405.5 7700.63 "/>
<clipPath id="cp8">
<path transform="matrix(0,.1,.1,0,-299,-160)" d="M 2405.5 8276.07 C 2378.46 8276.07 2356.53 8254.15 2356.53 8227.1 C 2356.53 8200.05 2378.46 8178.13 2405.5 8178.13 C 2432.55 8178.13 2454.47 8200.05 2454.47 8227.1 C 2454.47 8254.15 2432.55 8276.07 2405.5 8276.07 Z M 2405.5 8227.1 "/>
</clipPath>
<g clip-path="url(#cp8)">
<path transform="matrix(0,.1,.1,0,-299,-160)" stroke-width="9.23334" stroke-linecap="butt" stroke-miterlimit="10" stroke-linejoin="miter" fill="none" stroke="#000000" d="M 2356.53 8227.1 L 2454.47 8227.1 M 2405.5 8178.13 L 2405.5 8276.07 "/>
</g>
<path transform="matrix(0,.1,.1,0,-299,-160)" stroke-width="9.23334" stroke-linecap="butt" stroke-miterlimit="10" stroke-linejoin="miter" fill="none" stroke="#000000" d="M 2405.5 8276.07 C 2378.46 8276.07 2356.53 8254.15 2356.53 8227.1 C 2356.53 8200.05 2378.46 8178.13 2405.5 8178.13 C 2432.55 8178.13 2454.47 8200.05 2454.47 8227.1 C 2454.47 8254.15 2432.55 8276.07 2405.5 8276.07 Z M 2405.5 8227.1 "/>
<path transform="matrix(0,.1,.1,0,-299,-160)" stroke-width="9.23334" stroke-linecap="butt" stroke-miterlimit="10" stroke-linejoin="miter" fill="none" stroke="#000000" d="M 1748.71 3192.04 L 1748.71 2998.2 "/>
<path transform="matrix(0,.1,.1,0,-299,-160)" stroke-width="9.23334" stroke-linecap="butt" stroke-miterlimit="10" stroke-linejoin="miter" fill="none" stroke="#000000" d="M 1771.8 3215.13 L 2054.03 3215.13 "/>
<path transform="matrix(0,.1,.1,0,-299,-160)" stroke-width="9.23334" stroke-linecap="butt" stroke-miterlimit="10" stroke-linejoin="miter" fill="none" stroke="#000000" d="M 1748.71 3432.05 L 1748.71 3238.21 "/>
<path transform="matrix(0,.1,.1,0,-299,-160)" stroke-width="9.23334" stroke-linecap="butt" stroke-miterlimit="10" stroke-linejoin="miter" fill="none" stroke="#000000" d="M 1748.71 4033.63 L 1748.71 3822.59 "/>
<path transform="matrix(0,.1,.1,0,-299,-160)" stroke-width="9.23334" stroke-linecap="butt" stroke-miterlimit="10" stroke-linejoin="miter" fill="none" stroke="#000000" d="M 1748.71 4298.25 L 1748.71 4033.63 "/>
<path transform="matrix(0,.1,.1,0,-299,-160)" stroke-width="9.23334" stroke-linecap="butt" stroke-miterlimit="10" stroke-linejoin="miter" fill="none" stroke="#000000" d="M 1748.71 4561.49 L 1748.71 4298.25 "/>
<path transform="matrix(0,.1,.1,0,-299,-160)" stroke-width="9.23334" stroke-linecap="butt" stroke-miterlimit="10" stroke-linejoin="miter" fill="none" stroke="#000000" d="M 1748.71 4824.73 L 1748.71 4561.49 "/>
<path transform="matrix(0,.1,.1,0,-299,-160)" stroke-width="9.23334" stroke-linecap="butt" stroke-miterlimit="10" stroke-linejoin="miter" fill="none" stroke="#000000" d="M 1748.71 5120.69 L 1748.71 4824.73 "/>
<path transform="matrix(0,.1,.1,0,-299,-160)" stroke-width="9.23334" stroke-linecap="butt" stroke-miterlimit="10" stroke-linejoin="miter" fill="none" stroke="#000000" d="M 1748.71 5393.56 L 1748.71 5120.69 "/>
<path transform="matrix(0,.1,.1,0,-299,-160)" stroke-width="9.23334" stroke-linecap="butt" stroke-miterlimit="10" stroke-linejoin="miter" fill="none" stroke="#000000" d="M 1771.8 5416.65 L 2028.14 5416.65 "/>
<path transform="matrix(0,.1,.1,0,-299,-160)" stroke-width="9.23334" stroke-linecap="butt" stroke-miterlimit="10" stroke-linejoin="miter" fill="none" stroke="#000000" d="M 1748.71 5712.6 L 1748.71 5439.73 "/>
<path transform="matrix(0,.1,.1,0,-299,-160)" stroke-width="9.23334" stroke-linecap="butt" stroke-miterlimit="10" stroke-linejoin="miter" fill="none" stroke="#000000" d="M 1748.71 6008.56 L 1748.71 5712.6 "/>
<path transform="matrix(0,.1,.1,0,-299,-160)" stroke-width="9.23334" stroke-linecap="butt" stroke-miterlimit="10" stroke-linejoin="miter" fill="none" stroke="#000000" d="M 1748.71 6298.58 L 1748.71 6008.56 "/>
<path transform="matrix(0,.1,.1,0,-299,-160)" stroke-width="9.23334" stroke-linecap="butt" stroke-miterlimit="10" stroke-linejoin="miter" fill="none" stroke="#000000" d="M 1748.71 6588.59 L 1748.71 6298.58 "/>
<path transform="matrix(0,.1,.1,0,-299,-160)" stroke-width="9.23334" stroke-linecap="butt" stroke-miterlimit="10" stroke-linejoin="miter" fill="none" stroke="#000000" d="M 1748.71 6880 L 1748.71 6588.59 "/>
<path transform="matrix(0,.1,.1,0,-299,-160)" stroke-width="9.23334" stroke-linecap="butt" stroke-miterlimit="10" stroke-linejoin="miter" fill="none" stroke="#000000" d="M 1748.71 7148.32 L 1748.71 6880 "/>
<path transform="matrix(0,.1,.1,0,-299,-160)" stroke-width="9.23334" stroke-linecap="butt" stroke-miterlimit="10" stroke-linejoin="miter" fill="none" stroke="#000000" d="M 1771.8 7171.4 L 2028.14 7171.4 "/>
<path transform="matrix(0,.1,.1,0,-299,-160)" stroke-width="9.23334" stroke-linecap="butt" stroke-miterlimit="10" stroke-linejoin="miter" fill="none" stroke="#000000" d="M 1748.71 7436.03 L 1748.71 7194.48 "/>
<path transform="matrix(0,.1,.1,0,-299,-160)" stroke-width="9.23334" stroke-linecap="butt" stroke-miterlimit="10" stroke-linejoin="miter" fill="none" stroke="#000000" d="M 1748.71 7677.57 L 1748.71 7436.03 "/>
<path transform="matrix(0,.1,.1,0,-299,-160)" stroke-width="9.23334" stroke-linecap="butt" stroke-miterlimit="10" stroke-linejoin="miter" fill="none" stroke="#000000" d="M 1771.8 7700.65 L 2356.54 7700.65 "/>
<path transform="matrix(0,.1,.1,0,-299,-160)" stroke-width="9.23334" stroke-linecap="butt" stroke-miterlimit="10" stroke-linejoin="miter" fill="none" stroke="#000000" d="M 1748.71 7963.89 L 1748.71 7723.74 "/>
<path transform="matrix(0,.1,.1,0,-299,-160)" stroke-width="9.23334" stroke-linecap="butt" stroke-miterlimit="10" stroke-linejoin="miter" fill="none" stroke="#000000" d="M 1748.71 8204.05 L 1748.71 7963.89 "/>
<path transform="matrix(0,.1,.1,0,-299,-160)" stroke-width="9.23334" stroke-linecap="butt" stroke-miterlimit="10" stroke-linejoin="miter" fill="none" stroke="#000000" d="M 1771.8 8227.14 L 2356.54 8227.14 "/>
<path transform="matrix(0,.1,.1,0,-299,-160)" stroke-width="9.23334" stroke-linecap="butt" stroke-miterlimit="10" stroke-linejoin="miter" fill="none" stroke="#000000" d="M 1748.71 8395.66 L 1748.71 8250.22 "/>
<path transform="matrix(0,.1,.1,0,-299,-160)" stroke-width="9.23334" stroke-linecap="butt" stroke-miterlimit="10" stroke-linejoin="miter" fill="none" stroke="#000000" d="M 1748.71 8765.46 L 1748.71 8650.52 "/>
<path transform="matrix(0,.1,.1,0,-299,-160)" stroke-width="9.23334" stroke-linecap="butt" stroke-miterlimit="10" stroke-linejoin="miter" fill="none" stroke="#000000" d="M 2077.11 3192.04 L 2077.11 2998.2 "/>
<path transform="matrix(0,.1,.1,0,-299,-160)" stroke-width="9.23334" stroke-linecap="butt" stroke-miterlimit="10" stroke-linejoin="miter" fill="none" stroke="#000000" d="M 2100.2 3215.13 L 2312.36 3215.13 "/>
<path transform="matrix(0,.1,.1,0,-299,-160)" stroke-width="9.23334" stroke-linecap="butt" stroke-miterlimit="10" stroke-linejoin="miter" fill="none" stroke="#000000" d="M 2077.11 3449.96 L 2077.11 3238.21 "/>
<path transform="matrix(0,.1,.1,0,-299,-160)" stroke-width="9.23334" stroke-linecap="butt" stroke-miterlimit="10" stroke-linejoin="miter" fill="none" stroke="#000000" d="M 2077.11 4033.63 L 2077.11 3804.68 "/>
<path transform="matrix(0,.1,.1,0,-299,-160)" stroke-width="9.23334" stroke-linecap="butt" stroke-miterlimit="10" stroke-linejoin="miter" fill="none" stroke="#000000" d="M 2077.11 4275.17 L 2077.11 4033.63 "/>
<path transform="matrix(0,.1,.1,0,-299,-160)" stroke-width="9.23334" stroke-linecap="butt" stroke-miterlimit="10" stroke-linejoin="miter" fill="none" stroke="#000000" d="M 2100.2 4298.25 L 2356.54 4298.25 "/>
<path transform="matrix(0,.1,.1,0,-299,-160)" stroke-width="9.23334" stroke-linecap="butt" stroke-miterlimit="10" stroke-linejoin="miter" fill="none" stroke="#000000" d="M 2077.11 4561.49 L 2077.11 4321.34 "/>
<path transform="matrix(0,.1,.1,0,-299,-160)" stroke-width="9.23334" stroke-linecap="butt" stroke-miterlimit="10" stroke-linejoin="miter" fill="none" stroke="#000000" d="M 2077.11 4801.65 L 2077.11 4561.49 "/>
<path transform="matrix(0,.1,.1,0,-299,-160)" stroke-width="9.23334" stroke-linecap="butt" stroke-miterlimit="10" stroke-linejoin="miter" fill="none" stroke="#000000" d="M 2100.2 4824.73 L 2356.54 4824.73 "/>
<path transform="matrix(0,.1,.1,0,-299,-160)" stroke-width="9.23334" stroke-linecap="butt" stroke-miterlimit="10" stroke-linejoin="miter" fill="none" stroke="#000000" d="M 2077.11 4993.26 L 2077.11 4847.82 "/>
<path transform="matrix(0,.1,.1,0,-299,-160)" stroke-width="9.23334" stroke-linecap="butt" stroke-miterlimit="10" stroke-linejoin="miter" fill="none" stroke="#000000" d="M 2077.11 5367.68 L 2077.11 5248.12 "/>
<path transform="matrix(0,.1,.1,0,-299,-160)" stroke-width="9.23334" stroke-linecap="butt" stroke-miterlimit="10" stroke-linejoin="miter" fill="none" stroke="#000000" d="M 2077.11 5585.18 L 2077.11 5465.62 "/>
<path transform="matrix(0,.1,.1,0,-299,-160)" stroke-width="9.23334" stroke-linecap="butt" stroke-miterlimit="10" stroke-linejoin="miter" fill="none" stroke="#000000" d="M 2077.11 5985.48 L 2077.11 5840.03 "/>
<path transform="matrix(0,.1,.1,0,-299,-160)" stroke-width="9.23334" stroke-linecap="butt" stroke-miterlimit="10" stroke-linejoin="miter" fill="none" stroke="#000000" d="M 2100.2 6008.56 L 2356.54 6008.56 "/>
<path transform="matrix(0,.1,.1,0,-299,-160)" stroke-width="9.23334" stroke-linecap="butt" stroke-miterlimit="10" stroke-linejoin="miter" fill="none" stroke="#000000" d="M 2077.11 6298.58 L 2077.11 6031.64 "/>
<path transform="matrix(0,.1,.1,0,-299,-160)" stroke-width="9.23334" stroke-linecap="butt" stroke-miterlimit="10" stroke-linejoin="miter" fill="none" stroke="#000000" d="M 2077.11 6565.51 L 2077.11 6298.58 "/>
<path transform="matrix(0,.1,.1,0,-299,-160)" stroke-width="9.23334" stroke-linecap="butt" stroke-miterlimit="10" stroke-linejoin="miter" fill="none" stroke="#000000" d="M 2100.2 6588.59 L 2356.54 6588.59 "/>
<path transform="matrix(0,.1,.1,0,-299,-160)" stroke-width="9.23334" stroke-linecap="butt" stroke-miterlimit="10" stroke-linejoin="miter" fill="none" stroke="#000000" d="M 2077.11 6880 L 2077.11 6611.68 "/>
<path transform="matrix(0,.1,.1,0,-299,-160)" stroke-width="9.23334" stroke-linecap="butt" stroke-miterlimit="10" stroke-linejoin="miter" fill="none" stroke="#000000" d="M 2077.11 7122.43 L 2077.11 6880 "/>
<path transform="matrix(0,.1,.1,0,-299,-160)" stroke-width="9.23334" stroke-linecap="butt" stroke-miterlimit="10" stroke-linejoin="miter" fill="none" stroke="#000000" d="M 2077.11 7436.03 L 2077.11 7220.37 "/>
<path transform="matrix(0,.1,.1,0,-299,-160)" stroke-width="9.23334" stroke-linecap="butt" stroke-miterlimit="10" stroke-linejoin="miter" fill="none" stroke="#000000" d="M 2077.11 7700.65 L 2077.11 7436.03 "/>
<path transform="matrix(0,.1,.1,0,-299,-160)" stroke-width="9.23334" stroke-linecap="butt" stroke-miterlimit="10" stroke-linejoin="miter" fill="none" stroke="#000000" d="M 2077.11 7963.89 L 2077.11 7700.65 "/>
<path transform="matrix(0,.1,.1,0,-299,-160)" stroke-width="9.23334" stroke-linecap="butt" stroke-miterlimit="10" stroke-linejoin="miter" fill="none" stroke="#000000" d="M 2077.11 8227.14 L 2077.11 7963.89 "/>
<path transform="matrix(0,.1,.1,0,-299,-160)" stroke-width="9.23334" stroke-linecap="butt" stroke-miterlimit="10" stroke-linejoin="miter" fill="none" stroke="#000000" d="M 2077.11 8523.09 L 2077.11 8227.14 "/>
<path transform="matrix(0,.1,.1,0,-299,-160)" stroke-width="9.23334" stroke-linecap="butt" stroke-miterlimit="10" stroke-linejoin="miter" fill="none" stroke="#000000" d="M 2077.11 8765.46 L 2077.11 8523.09 "/>
<path transform="matrix(0,.1,.1,0,-299,-160)" stroke-width="9.23334" stroke-linecap="butt" stroke-miterlimit="10" stroke-linejoin="miter" fill="none" stroke="#000000" d="M 2405.51 3113.14 L 2405.51 2998.2 "/>
<path transform="matrix(0,.1,.1,0,-299,-160)" stroke-width="9.23334" stroke-linecap="butt" stroke-miterlimit="10" stroke-linejoin="miter" fill="none" stroke="#000000" d="M 2405.51 3449.96 L 2405.51 3317.11 "/>
<path transform="matrix(0,.1,.1,0,-299,-160)" stroke-width="9.23334" stroke-linecap="butt" stroke-miterlimit="10" stroke-linejoin="miter" fill="none" stroke="#000000" d="M 2405.51 3937.53 L 2405.51 3804.68 "/>
<path transform="matrix(0,.1,.1,0,-299,-160)" stroke-width="9.23334" stroke-linecap="butt" stroke-miterlimit="10" stroke-linejoin="miter" fill="none" stroke="#000000" d="M 2405.51 4249.28 L 2405.51 4129.72 "/>
<path transform="matrix(0,.1,.1,0,-299,-160)" stroke-width="9.23334" stroke-linecap="butt" stroke-miterlimit="10" stroke-linejoin="miter" fill="none" stroke="#000000" d="M 2405.51 4466.78 L 2405.51 4347.22 "/>
<path transform="matrix(0,.1,.1,0,-299,-160)" stroke-width="9.23334" stroke-linecap="butt" stroke-miterlimit="10" stroke-linejoin="miter" fill="none" stroke="#000000" d="M 2405.51 4775.76 L 2405.51 4656.21 "/>
<path transform="matrix(0,.1,.1,0,-299,-160)" stroke-width="9.23334" stroke-linecap="butt" stroke-miterlimit="10" stroke-linejoin="miter" fill="none" stroke="#000000" d="M 2405.51 5021.55 L 2405.51 4873.71 "/>
<path transform="matrix(0,.1,.1,0,-299,-160)" stroke-width="9.23334" stroke-linecap="butt" stroke-miterlimit="10" stroke-linejoin="miter" fill="none" stroke="#000000" d="M 2405.51 5416.65 L 2405.51 5219.84 "/>
<path transform="matrix(0,.1,.1,0,-299,-160)" stroke-width="9.23334" stroke-linecap="butt" stroke-miterlimit="10" stroke-linejoin="miter" fill="none" stroke="#000000" d="M 2405.51 5586.68 L 2405.51 5416.65 "/>
<path transform="matrix(0,.1,.1,0,-299,-160)" stroke-width="9.23334" stroke-linecap="butt" stroke-miterlimit="10" stroke-linejoin="miter" fill="none" stroke="#000000" d="M 2405.51 5959.59 L 2405.51 5838.52 "/>
<path transform="matrix(0,.1,.1,0,-299,-160)" stroke-width="9.23334" stroke-linecap="butt" stroke-miterlimit="10" stroke-linejoin="miter" fill="none" stroke="#000000" d="M 2405.51 6177.09 L 2405.51 6057.53 "/>
<path transform="matrix(0,.1,.1,0,-299,-160)" stroke-width="9.23334" stroke-linecap="butt" stroke-miterlimit="10" stroke-linejoin="miter" fill="none" stroke="#000000" d="M 2405.51 6539.63 L 2405.51 6420.07 "/>
<path transform="matrix(0,.1,.1,0,-299,-160)" stroke-width="9.23334" stroke-linecap="butt" stroke-miterlimit="10" stroke-linejoin="miter" fill="none" stroke="#000000" d="M 2405.51 6757.13 L 2405.51 6637.57 "/>
<path transform="matrix(0,.1,.1,0,-299,-160)" stroke-width="9.23334" stroke-linecap="butt" stroke-miterlimit="10" stroke-linejoin="miter" fill="none" stroke="#000000" d="M 2405.51 7171.4 L 2405.51 7002.87 "/>
<path transform="matrix(0,.1,.1,0,-299,-160)" stroke-width="9.23334" stroke-linecap="butt" stroke-miterlimit="10" stroke-linejoin="miter" fill="none" stroke="#000000" d="M 2405.51 7339.93 L 2405.51 7171.4 "/>
<path transform="matrix(0,.1,.1,0,-299,-160)" stroke-width="9.23334" stroke-linecap="butt" stroke-miterlimit="10" stroke-linejoin="miter" fill="none" stroke="#000000" d="M 2405.51 7651.68 L 2405.51 7532.13 "/>
<path transform="matrix(0,.1,.1,0,-299,-160)" stroke-width="9.23334" stroke-linecap="butt" stroke-miterlimit="10" stroke-linejoin="miter" fill="none" stroke="#000000" d="M 2405.51 7869.18 L 2405.51 7749.63 "/>
<path transform="matrix(0,.1,.1,0,-299,-160)" stroke-width="9.23334" stroke-linecap="butt" stroke-miterlimit="10" stroke-linejoin="miter" fill="none" stroke="#000000" d="M 2405.51 8178.16 L 2405.51 8058.61 "/>
<path transform="matrix(0,.1,.1,0,-299,-160)" stroke-width="9.23334" stroke-linecap="butt" stroke-miterlimit="10" stroke-linejoin="miter" fill="none" stroke="#000000" d="M 2405.51 8423.95 L 2405.51 8276.11 "/>
<path transform="matrix(0,.1,.1,0,-299,-160)" stroke-width="9.23334" stroke-linecap="butt" stroke-miterlimit="10" stroke-linejoin="miter" fill="none" stroke="#000000" d="M 2405.51 8765.46 L 2405.51 8622.23 "/>
<symbol id="font_9_2">
<path d="M 0 0 L .504 0 L .504 .08 L 0 .08 L 0 0 M 0 .202 L .504 .202 L .504 .282 L 0 .282 L 0 .202 Z "/>
</symbol>
<use xlink:href="#font_9_2" transform="matrix(12.8804,0,0,-12.8804,60.4889,48.80239)"/>
<path transform="matrix(0,.1,.1,0,-299,-160)" d="M 1645.72 8395.66 L 1851.7119 8395.66 L 1851.7119 8650.516 L 1645.72 8650.516 Z " fill="#ffffff"/>
<path transform="matrix(0,.1,.1,0,-299,-160)" stroke-width="9.23334" stroke-linecap="butt" stroke-miterlimit="10" stroke-linejoin="miter" fill="none" stroke="#000000" d="M 1645.72 8395.66 L 1851.7119 8395.66 L 1851.7119 8650.516 L 1645.72 8650.516 Z "/>
<symbol id="font_a_4">
<path d="M .28 .31800003 L .298 .31800003 C .48400004 .31800003 .51900008 .323 .587 .35900004 C .657 .397 .69600006 .462 .69600006 .541 C .69600006 .60300007 .67 .65300008 .62200006 .68600007 C .58500006 .711 .532 .72200009 .449 .72200009 L .15400002 .72200009 L .148 .675 L .174 .675 C .23900002 .675 .25300003 .67 .25300003 .648 C .25300003 .64000007 .24900002 .619 .24400002 .59900006 L .116000007 .123 C .102000009 .069000009 .101 .069000009 .093 .061000006 C .082 .051000004 .059 .047000003 .009999998 .047000003 L .004999999 .047000003 L 0 0 L .31800003 0 L .323 .047000003 L .297 .047000003 C .23200003 .047000003 .218 .052 .218 .074 C .218 .082 .218 .082 .22800002 .123 L .28 .31800003 M .293 .365 L .363 .62700006 C .373 .665 .386 .675 .42700003 .675 L .439 .675 C .544 .675 .584 .64100006 .584 .55200007 C .584 .503 .568 .45600004 .541 .42200003 C .51500007 .39000003 .479 .372 .42400003 .367 C .41 .365 .41 .365 .312 .365 L .293 .365 Z "/>
</symbol>
<use xlink:href="#font_a_4" transform="matrix(12.8805,0,0,-12.8805,545.0319,18.378998)"/>
<symbol id="font_b_1">
<path d="M .42700003 .28100003 L .57800009 .50200006 L .505 .50200006 L .423 .34300003 C .423 .47700004 .386 .51400008 .278 .51400008 C .08500001 .51400008 0 .308 0 .163 C 0 .076000008 .038000004 0 .147 0 C .22100002 0 .28300003 .07300001 .32700003 .136 C .326 .126 .326 .116000007 .326 .106000009 C .326 .076000008 .33 .048 .342 .028 C .35300002 .01 .36600004 0 .38900004 0 C .41300003 0 .447 .007999999 .47300003 .028 C .492 .043 .531 .080000009 .55799999 .144 L .53400006 .158 C .508 .10700001 .46600006 .052 .44400005 .052 C .416 .052 .416 .10400001 .416 .128 C .416 .172 .421 .23 .42700003 .28100003 M .33200003 .213 C .28 .12900001 .22800002 .054000006 .162 .054000006 C .112 .054000006 .096 .10400001 .096 .16 C .096 .276 .158 .479 .279 .479 C .32700003 .479 .34100003 .41300003 .34100003 .338 C .34100003 .296 .337 .25100003 .33200003 .213 Z "/>
</symbol>
<use xlink:href="#font_b_1" transform="matrix(9.34872,0,0,-9.34872,555.0311,20.568133)"/>
<path transform="matrix(0,.1,.1,0,-299,-160)" d="M 1974.12 4993.26 L 2180.112 4993.26 L 2180.112 5248.1149 L 1974.12 5248.1149 Z " fill="#ffffff"/>
<path transform="matrix(0,.1,.1,0,-299,-160)" stroke-width="9.23334" stroke-linecap="butt" stroke-miterlimit="10" stroke-linejoin="miter" fill="none" stroke="#000000" d="M 1974.12 4993.26 L 2180.112 4993.26 L 2180.112 5248.1149 L 1974.12 5248.1149 Z "/>
<use xlink:href="#font_a_4" transform="matrix(12.8805,0,0,-12.8805,204.79595,51.218004)"/>
<use xlink:href="#font_b_1" transform="matrix(9.34872,0,0,-9.34872,214.79517,53.40714)"/>
<path transform="matrix(0,.1,.1,0,-299,-160)" d="M 1950.49 5585.18 L 2203.736 5585.18 L 2203.736 5840.035 L 1950.49 5840.035 Z " fill="#ffffff"/>
<path transform="matrix(0,.1,.1,0,-299,-160)" stroke-width="9.23334" stroke-linecap="butt" stroke-miterlimit="10" stroke-linejoin="miter" fill="none" stroke="#000000" d="M 1950.49 5585.18 L 2203.736 5585.18 L 2203.736 5840.035 L 1950.49 5840.035 Z "/>
<use xlink:href="#font_a_4" transform="matrix(12.8805,0,0,-12.8805,263.98695,52.979997)"/>
<symbol id="font_9_1">
<path d="M .19100002 0 L .22500003 0 L .22500003 .08400001 C .22500003 .24800001 .23700002 .34600003 .27 .43600006 C .236 .485 .22500003 .52900007 .22500003 .62100008 C .25500003 .62100008 .268 .61800006 .29900003 .605 C .33900003 .587 .34600003 .58500006 .36200003 .58500006 C .393 .58500006 .416 .60800006 .416 .64000007 C .416 .66800007 .395 .69 .36600004 .69 C .351 .69 .34800003 .689 .298 .669 C .266 .657 .254 .65400007 .22500003 .653 C .22500003 .695 .23000002 .727 .24700001 .769 C .259 .801 .261 .81 .261 .82500007 C .261 .859 .24100003 .88100007 .208 .88100007 C .17500001 .88100007 .15500002 .859 .15500002 .82500007 C .15500002 .81 .158 .8 .16900002 .769 C .186 .726 .19100002 .697 .19100002 .653 C .16200002 .65400007 .15 .657 .118 .669 C .068 .689 .065 .69 .05 .69 C .021000002 .69 0 .669 0 .64000007 C 0 .60800006 .022999999 .58500006 .054 .58500006 C .07000001 .58500006 .07700001 .587 .11700001 .605 C .148 .61800006 .16100002 .62100008 .19100002 .62100008 C .19100002 .531 .18 .485 .14600002 .43600006 C .179 .34600003 .19100002 .24900002 .19100002 .08400001 L .19100002 0 Z "/>
</symbol>
<use xlink:href="#font_9_1" transform="matrix(9.55655,0,0,-9.55655,274.38914,48.010835)"/>
<use xlink:href="#font_b_1" transform="matrix(9.34872,0,0,-9.34872,273.98616,55.769536)"/>
<path transform="matrix(0,.1,.1,0,-299,-160)" d="M 2308.91 3113.14 L 2502.117 3113.14 L 2502.117 3317.109 L 2308.91 3317.109 Z " fill="#ffffff"/>
<path transform="matrix(0,.1,.1,0,-299,-160)" stroke-width="9.23334" stroke-linecap="butt" stroke-miterlimit="10" stroke-linejoin="miter" fill="none" stroke="#000000" d="M 2308.91 3113.14 L 2502.117 3113.14 L 2502.117 3317.109 L 2308.91 3317.109 Z "/>
<symbol id="font_a_5">
<path d="M .0069999995 .69 L .031999999 .69 C .09700001 .69 .11100001 .685 .11100001 .663 C .11100001 .65500006 .107 .634 .102000009 .614 L .020000004 .30900003 C .0040000008 .25100003 0 .22500001 0 .19100002 C 0 .067 .087000008 0 .25000004 0 C .30100004 0 .35100005 .008 .39000003 .023000002 C .45500005 .048 .49400003 .091000009 .52500006 .172 C .53900006 .207 .53900006 .207 .56600007 .30900003 L .62200006 .52 C .665 .675 .674 .686 .762 .69 L .767 .73700007 L .504 .73700007 L .49800004 .69 C .56200006 .69100007 .591 .67300006 .591 .635 C .591 .61300006 .59000006 .609 .568 .52 L .51000007 .305 C .481 .194 .46900005 .16100002 .44500006 .127 C .40600003 .071 .34800003 .043 .27100004 .043 C .16900003 .043 .11000001 .093 .11000001 .178 C .11000001 .20400001 .117000009 .25300003 .124000009 .28100003 L .21400002 .614 C .22800002 .66800007 .22800002 .66800007 .23700002 .676 C .24700001 .686 .27100004 .69 .32000003 .69 L .32400004 .69 L .33 .73700007 L .012000002 .73700007 L .0069999995 .69 Z "/>
</symbol>
<use xlink:href="#font_a_5" transform="matrix(12.8805,0,0,-12.8805,17.717877,85.235218)"/>
<path transform="matrix(0,.1,.1,0,-299,-160)" d="M 2308.91 3937.02 L 2502.117 3937.02 L 2502.117 4130.227 L 2308.91 4130.227 Z " fill="#ffffff"/>
<path transform="matrix(0,.1,.1,0,-299,-160)" stroke-width="9.23334" stroke-linecap="butt" stroke-miterlimit="10" stroke-linejoin="miter" fill="none" stroke="#000000" d="M 2308.91 3937.02 L 2502.117 3937.02 L 2502.117 4130.227 L 2308.91 4130.227 Z "/>
<symbol id="font_a_3">
<path d="M .577 .672 C .529 .72900006 .47800002 .75200006 .40200005 .75200006 C .29200004 .75200006 .192 .70000007 .112 .6 C .038 .51000007 0 .40600003 0 .29500003 C 0 .117000009 .116 0 .29400004 0 C .38200004 0 .45700003 .031000002 .514 .09 C .545 .12200001 .568 .15900001 .594 .22000002 L .55300006 .238 C .528 .185 .514 .16100002 .49600003 .14 C .44600005 .078 .38600005 .049000004 .31100003 .049000004 C .249 .049000004 .201 .069000009 .171 .108 C .141 .14500001 .125 .19800002 .125 .255 C .125 .36900003 .165 .50100007 .228 .598 C .27400003 .669 .34100003 .709 .41000004 .709 C .47600005 .709 .523 .675 .55 .60800006 C .566 .57100006 .573 .527 .57600006 .45000006 L .617 .45000006 L .67300006 .73 L .637 .73 L .577 .672 Z "/>
</symbol>
<use xlink:href="#font_a_3" transform="matrix(12.8805,0,0,-12.8805,100.02621,85.3522)"/>
<path transform="matrix(0,.1,.1,0,-299,-160)" d="M 2308.91 4464.89 L 2502.117 4464.89 L 2502.117 4658.097 L 2308.91 4658.097 Z " fill="#ffffff"/>
<path transform="matrix(0,.1,.1,0,-299,-160)" stroke-width="9.23334" stroke-linecap="butt" stroke-miterlimit="10" stroke-linejoin="miter" fill="none" stroke="#000000" d="M 2308.91 4464.89 L 2502.117 4464.89 L 2502.117 4658.097 L 2308.91 4658.097 Z "/>
<symbol id="font_a_2">
<path d="M .154 .72200009 L .148 .675 L .17400001 .675 C .23900001 .675 .25300003 .67 .25300003 .648 C .25300003 .64000007 .24900002 .619 .24400002 .59900006 L .116000007 .123 C .102000009 .069000009 .101 .069000009 .093 .061000006 C .083000008 .052 .058000003 .047000003 .02 .047000003 L .005000001 .047000003 L 0 0 L .363 0 C .43600003 0 .497 .009000001 .53700008 .027 C .614 .060000004 .6610001 .128 .6610001 .20600002 C .6610001 .28500004 .6100001 .33900003 .504 .37100003 C .55300006 .38000003 .58300009 .39000003 .61600008 .41000004 C .669 .44200004 .69900009 .49500004 .69900009 .555 C .69900009 .61300006 .669 .66300007 .61800006 .69100007 C .577 .71400007 .53300008 .72200009 .455 .72200009 L .154 .72200009 M .3 .39400003 L .358 .60700008 C .374 .66800007 .382 .675 .433 .675 L .462 .675 C .544 .675 .58000007 .643 .58000007 .57000008 C .58000007 .514 .55600008 .46 .517 .43 C .485 .40500004 .442 .39400003 .38300003 .39400003 L .3 .39400003 M .288 .347 L .351 .347 C .39900003 .347 .44500003 .34100003 .467 .33200003 C .513 .31300003 .53900006 .27400003 .53900006 .22500001 C .53900006 .17300001 .51500007 .120000008 .477 .087000008 C .447 .061000006 .398 .047000003 .338 .047000003 L .288 .047000003 C .23400001 .047000003 .21800001 .053000004 .21800001 .074 C .21800001 .082 .22000002 .094000007 .224 .109000008 L .288 .347 Z "/>
</symbol>
<use xlink:href="#font_a_2" transform="matrix(12.8805,0,0,-12.8805,152.03672,85.145008)"/>
<path transform="matrix(0,.1,.1,0,-299,-160)" d="M 2308.91 5021.55 L 2502.117 5021.55 L 2502.117 5219.839 L 2308.91 5219.839 Z " fill="#ffffff"/>
<path transform="matrix(0,.1,.1,0,-299,-160)" stroke-width="9.23334" stroke-linecap="butt" stroke-miterlimit="10" stroke-linejoin="miter" fill="none" stroke="#000000" d="M 2308.91 5021.55 L 2502.117 5021.55 L 2502.117 5219.839 L 2308.91 5219.839 Z "/>
<symbol id="font_a_1">
<path d="M .52400007 .73700007 L .48300005 .73700007 L .153 .16800002 C .1 .080000009 .059 .047000003 .004999995 .047000003 L 0 0 L .269 0 L .275 .047000003 L .25100003 .047000003 C .199 .047000003 .18200001 .057000005 .18200001 .087000008 C .18200001 .102000009 .18800001 .12200001 .20000002 .142 L .255 .238 L .51000007 .238 L .53300008 .115 C .535 .10300001 .537 .09 .537 .083000008 C .537 .054 .522 .047000003 .46500004 .047000003 L .449 .047000003 L .444 0 L .74500009 0 L .75000008 .047000003 L .725 .047000003 C .67 .047000003 .65900006 .056 .64900007 .108 L .52400007 .73700007 M .50200006 .28500004 L .282 .28500004 L .445 .572 L .50200006 .28500004 Z "/>
</symbol>
<use xlink:href="#font_a_1" transform="matrix(12.8805,0,0,-12.8805,207.6858,85.263)"/>
<path transform="matrix(0,.1,.1,0,-299,-160)" d="M 2299.36 5586.68 L 2511.6693 5586.68 L 2511.6693 5838.52 L 2299.36 5838.52 Z " fill="#ffffff"/>
<path transform="matrix(0,.1,.1,0,-299,-160)" stroke-width="9.23334" stroke-linecap="butt" stroke-miterlimit="10" stroke-linejoin="miter" fill="none" stroke="#000000" d="M 2299.36 5586.68 L 2511.6693 5586.68 L 2511.6693 5838.52 L 2299.36 5838.52 Z "/>
<use xlink:href="#font_a_1" transform="matrix(12.8805,0,0,-12.8805,264.1978,86.548999)"/>
<use xlink:href="#font_9_1" transform="matrix(9.55655,0,0,-9.55655,275.3007,82.898578)"/>
<path transform="matrix(0,.1,.1,0,-299,-160)" d="M 2299.36 6177.09 L 2511.6693 6177.09 L 2511.6693 6420.067 L 2299.36 6420.067 Z " fill="#ffffff"/>
<path transform="matrix(0,.1,.1,0,-299,-160)" stroke-width="9.23334" stroke-linecap="butt" stroke-miterlimit="10" stroke-linejoin="miter" fill="none" stroke="#000000" d="M 2299.36 6177.09 L 2511.6693 6177.09 L 2511.6693 6420.067 L 2299.36 6420.067 Z "/>
<use xlink:href="#font_a_2" transform="matrix(12.8805,0,0,-12.8805,323.06373,86.548999)"/>
<use xlink:href="#font_9_1" transform="matrix(9.55655,0,0,-9.55655,333.45384,82.898578)"/>
<path transform="matrix(0,.1,.1,0,-299,-160)" d="M 2298.32 6757.13 L 2512.707 6757.13 L 2512.707 7002.876 L 2298.32 7002.876 Z " fill="#ffffff"/>
<path transform="matrix(0,.1,.1,0,-299,-160)" stroke-width="9.23334" stroke-linecap="butt" stroke-miterlimit="10" stroke-linejoin="miter" fill="none" stroke="#000000" d="M 2298.32 6757.13 L 2512.707 6757.13 L 2512.707 7002.876 L 2298.32 7002.876 Z "/>
<use xlink:href="#font_a_3" transform="matrix(12.8805,0,0,-12.8805,381.9822,86.639209)"/>
<use xlink:href="#font_9_1" transform="matrix(9.55655,0,0,-9.55655,391.73478,82.79442)"/>
<path transform="matrix(0,.1,.1,0,-299,-160)" d="M 2308.91 7339.42 L 2502.117 7339.42 L 2502.117 7532.631 L 2308.91 7532.631 Z " fill="#ffffff"/>
<path transform="matrix(0,.1,.1,0,-299,-160)" stroke-width="9.23334" stroke-linecap="butt" stroke-miterlimit="10" stroke-linejoin="miter" fill="none" stroke="#000000" d="M 2308.91 7339.42 L 2502.117 7339.42 L 2502.117 7532.631 L 2308.91 7532.631 Z "/>
<use xlink:href="#font_a_3" transform="matrix(12.8805,0,0,-12.8805,440.2612,85.3522)"/>
<path transform="matrix(0,.1,.1,0,-299,-160)" d="M 2308.91 7867.29 L 2502.117 7867.29 L 2502.117 8060.501 L 2308.91 8060.501 Z " fill="#ffffff"/>
<path transform="matrix(0,.1,.1,0,-299,-160)" stroke-width="9.23334" stroke-linecap="butt" stroke-miterlimit="10" stroke-linejoin="miter" fill="none" stroke="#000000" d="M 2308.91 7867.29 L 2502.117 7867.29 L 2502.117 8060.501 L 2308.91 8060.501 Z "/>
<use xlink:href="#font_a_2" transform="matrix(12.8805,0,0,-12.8805,492.27174,85.145008)"/>
<path transform="matrix(0,.1,.1,0,-299,-160)" d="M 2308.91 8423.95 L 2502.117 8423.95 L 2502.117 8622.239 L 2308.91 8622.239 Z " fill="#ffffff"/>
<path transform="matrix(0,.1,.1,0,-299,-160)" stroke-width="9.23334" stroke-linecap="butt" stroke-miterlimit="10" stroke-linejoin="miter" fill="none" stroke="#000000" d="M 2308.91 8423.95 L 2502.117 8423.95 L 2502.117 8622.239 L 2308.91 8622.239 Z "/>
<use xlink:href="#font_a_1" transform="matrix(12.8805,0,0,-12.8805,547.9208,85.263)"/>
<path transform="matrix(0,.1,.1,0,-299,-160)" stroke-width="9.23334" stroke-linecap="butt" stroke-dasharray="57.7091,34.6255" stroke-miterlimit="10" stroke-linejoin="miter" fill="none" stroke="#ff0000" d="M 1600.48 5307.9 L 2592.57 5307.9 "/>
<path transform="matrix(0,.1,.1,0,-299,-160)" stroke-width="9.23334" stroke-linecap="butt" stroke-dasharray="57.7091,34.6255" stroke-miterlimit="10" stroke-linejoin="miter" fill="none" stroke="#ff0000" d="M 1600.48 5525.4 L 2592.57 5525.4 "/>
<path transform="matrix(0,.1,.1,0,-299,-160)" stroke-width="9.23334" stroke-linecap="butt" stroke-dasharray="57.7091,34.6255" stroke-miterlimit="10" stroke-linejoin="miter" fill="none" stroke="#ff0000" d="M 1600.48 7062.65 L 2592.57 7062.65 "/>
<path transform="matrix(0,.1,.1,0,-299,-160)" stroke-width="9.23334" stroke-linecap="butt" stroke-dasharray="57.7091,34.6255" stroke-miterlimit="10" stroke-linejoin="miter" fill="none" stroke="#ff0000" d="M 1600.48 7280.15 L 2592.57 7280.15 "/>
</g>
</g>
</svg>
