<?xml version="1.0" encoding="UTF-8" standalone="no"?>
<!DOCTYPE svg PUBLIC "-//W3C//DTD SVG 1.1//EN" "http://www.w3.org/Graphics/SVG/1.1/DTD/svg11.dtd">
<svg xmlns="http://www.w3.org/2000/svg" xmlns:xlink="http://www.w3.org/1999/xlink" version="1.1" width="239pt" height="56pt" viewBox="0 0 239 56">
<g enable-background="new">
<clipPath id="cp0">
<path transform="matrix(1,0,0,-1,-234,796)" d="M 0 0 L 709 0 L 709 1001 L 0 1001 Z "/>
</clipPath>
<g clip-path="url(#cp0)">
<path transform="matrix(.1,0,0,-.1,-234,796)" d="M 2811.98 7850.19 C 2811.98 7862.94 2801.64 7873.27 2788.89 7873.27 C 2776.15 7873.27 2765.81 7862.94 2765.81 7850.19 C 2765.81 7837.44 2776.15 7827.11 2788.89 7827.11 C 2801.64 7827.11 2811.98 7837.44 2811.98 7850.19 Z M 2788.89 7850.19 "/>
<path transform="matrix(.1,0,0,-.1,-234,796)" d="M 4558.92 7850.19 C 4558.92 7862.94 4548.59 7873.27 4535.84 7873.27 C 4523.09 7873.27 4512.76 7862.94 4512.76 7850.19 C 4512.76 7837.44 4523.09 7827.11 4535.84 7827.11 C 4548.59 7827.11 4558.92 7837.44 4558.92 7850.19 Z M 4535.84 7850.19 "/>
<path transform="matrix(.1,0,0,-.1,-234,796)" d="M 3721.57 7501.77 C 3721.57 7514.52 3711.24 7524.85 3698.49 7524.85 C 3685.74 7524.85 3675.41 7514.52 3675.41 7501.77 C 3675.41 7489.02 3685.74 7478.69 3698.49 7478.69 C 3711.24 7478.69 3721.57 7489.02 3721.57 7501.77 Z M 3698.49 7501.77 "/>
<path transform="matrix(.1,0,0,-.1,-234,796)" d="M 4558.92 7501.77 C 4558.92 7514.52 4548.59 7524.85 4535.84 7524.85 C 4523.09 7524.85 4512.76 7514.52 4512.76 7501.77 C 4512.76 7489.02 4523.09 7478.69 4535.84 7478.69 C 4548.59 7478.69 4558.92 7489.02 4558.92 7501.77 Z M 4535.84 7501.77 "/>
<path transform="matrix(.1,0,0,-.1,-234,796)" stroke-width="9.23334" stroke-linecap="butt" stroke-miterlimit="10" stroke-linejoin="miter" fill="none" stroke="#000000" d="M 2765.81 7850.2 L 2529.36 7850.2 "/>
<path transform="matrix(.1,0,0,-.1,-234,796)" stroke-width="9.23334" stroke-linecap="butt" stroke-miterlimit="10" stroke-linejoin="miter" fill="none" stroke="#000000" d="M 2788.89 7827.12 L 2788.89 7593.89 "/>
<path transform="matrix(.1,0,0,-.1,-234,796)" stroke-width="9.23334" stroke-linecap="butt" stroke-miterlimit="10" stroke-linejoin="miter" fill="none" stroke="#000000" d="M 3048.43 7850.2 L 2811.98 7850.2 "/>
<path transform="matrix(.1,0,0,-.1,-234,796)" stroke-width="9.23334" stroke-linecap="butt" stroke-miterlimit="10" stroke-linejoin="miter" fill="none" stroke="#000000" d="M 3603.16 7850.2 L 3438.96 7850.2 "/>
<path transform="matrix(.1,0,0,-.1,-234,796)" stroke-width="9.23334" stroke-linecap="butt" stroke-miterlimit="10" stroke-linejoin="miter" fill="none" stroke="#000000" d="M 3958.03 7850.2 L 3793.83 7850.2 "/>
<path transform="matrix(.1,0,0,-.1,-234,796)" stroke-width="9.23334" stroke-linecap="butt" stroke-miterlimit="10" stroke-linejoin="miter" fill="none" stroke="#000000" d="M 4512.77 7850.2 L 4348.57 7850.2 "/>
<path transform="matrix(.1,0,0,-.1,-234,796)" stroke-width="9.23334" stroke-linecap="butt" stroke-miterlimit="10" stroke-linejoin="miter" fill="none" stroke="#000000" d="M 4535.85 7827.12 L 4535.85 7524.86 "/>
<path transform="matrix(.1,0,0,-.1,-234,796)" stroke-width="9.23334" stroke-linecap="butt" stroke-miterlimit="10" stroke-linejoin="miter" fill="none" stroke="#000000" d="M 4723.13 7850.2 L 4558.93 7850.2 "/>
<path transform="matrix(.1,0,0,-.1,-234,796)" stroke-width="9.23334" stroke-linecap="butt" stroke-miterlimit="10" stroke-linejoin="miter" fill="none" stroke="#000000" d="M 2693.56 7501.77 L 2529.36 7501.77 "/>
<path transform="matrix(.1,0,0,-.1,-234,796)" stroke-width="9.23334" stroke-linecap="butt" stroke-miterlimit="10" stroke-linejoin="miter" fill="none" stroke="#000000" d="M 3066.33 7501.77 L 2884.23 7501.77 "/>
<path transform="matrix(.1,0,0,-.1,-234,796)" stroke-width="9.23334" stroke-linecap="butt" stroke-miterlimit="10" stroke-linejoin="miter" fill="none" stroke="#000000" d="M 3675.41 7501.77 L 3421.06 7501.77 "/>
<path transform="matrix(.1,0,0,-.1,-234,796)" stroke-width="9.23334" stroke-linecap="butt" stroke-miterlimit="10" stroke-linejoin="miter" fill="none" stroke="#000000" d="M 3698.5 7524.86 L 3698.5 7758.08 "/>
<path transform="matrix(.1,0,0,-.1,-234,796)" stroke-width="9.23334" stroke-linecap="butt" stroke-miterlimit="10" stroke-linejoin="miter" fill="none" stroke="#000000" d="M 3975.93 7501.77 L 3721.58 7501.77 "/>
<path transform="matrix(.1,0,0,-.1,-234,796)" stroke-width="9.23334" stroke-linecap="butt" stroke-miterlimit="10" stroke-linejoin="miter" fill="none" stroke="#000000" d="M 4512.77 7501.77 L 4330.66 7501.77 "/>
<path transform="matrix(.1,0,0,-.1,-234,796)" stroke-width="9.23334" stroke-linecap="butt" stroke-miterlimit="10" stroke-linejoin="miter" fill="none" stroke="#000000" d="M 4723.13 7501.77 L 4558.93 7501.77 "/>
<symbol id="font_1_2">
<path d="M .234 .17 L .24900002 .10300001 C .266 .028 .292 0 .34100003 0 C .37800003 0 .396 .012 .442 .068 C .46 .089 .463 .094000007 .48900003 .14 L .458 .157 C .448 .141 .44500003 .136 .43 .115 C .40100003 .076000008 .384 .061000006 .366 .061000006 C .343 .061000006 .333 .083000008 .315 .165 L .296 .26 L .34 .34100003 C .36400003 .38600005 .38500003 .408 .403 .408 C .411 .408 .416 .40400005 .42000003 .39500005 C .42900003 .375 .43600003 .37 .45400004 .37 C .485 .37 .504 .39100004 .504 .42400003 C .504 .45900006 .48000003 .485 .44700004 .485 C .42000003 .485 .39000003 .47100003 .36900003 .448 C .349 .426 .34800003 .426 .314 .36300005 L .285 .311 L .27400003 .366 C .257 .45200003 .23500002 .485 .194 .485 C .17200002 .485 .15 .472 .125 .444 C .109000008 .426 .095 .40600003 .05 .34100003 L .079 .32 C .13 .393 .14400001 .408 .16100002 .408 C .16800002 .408 .178 .40100003 .18200001 .393 C .19100002 .37700004 .19100002 .37700004 .211 .278 L .22300002 .22000002 L .178 .14 C .15 .089 .125 .061000006 .109000008 .061000006 C .102000009 .061000006 .096 .068 .094000007 .081 C .089 .108 .076000008 .120000008 .051 .120000008 C .021 .120000008 0 .096 0 .062000004 C 0 .025000003 .026 0 .066 0 C .114 0 .16100002 .04 .204 .116000007 L .234 .17 Z "/>
</symbol>
<use xlink:href="#font_1_2" transform="matrix(12.8805,0,0,-12.8805,.79094699,13.199189)"/>
<symbol id="font_2_1">
<path d="M .22200004 .70400008 C .18800003 .66300007 .09600001 .632 .0040000008 .63000008 L .0040000008 .587 L .092 .587 C .15 .587 .15400002 .583 .15400002 .52400007 L .15400002 .123 L .15400002 .094000007 C .15400002 .052 .14500001 .047000003 .065000008 .047000003 L 0 .047000003 L 0 0 L .39600004 0 L .39600004 .047000003 L .34100003 .047000003 C .28800003 .047000003 .26600004 .051000004 .25800003 .061000006 C .25100003 .068 .25100003 .068 .25100003 .123 L .25100003 .536 C .25100003 .58500006 .25300003 .633 .25800003 .70400008 L .22200004 .70400008 Z "/>
</symbol>
<use xlink:href="#font_2_1" transform="matrix(9.66036,0,0,-9.66036,8.622271,15.083313)"/>
<symbol id="font_2_3">
<path d="M 0 0 L .504 0 L .504 .08 L 0 .08 L 0 0 M 0 .202 L .504 .202 L .504 .282 L 0 .282 L 0 .202 Z "/>
</symbol>
<use xlink:href="#font_2_3" transform="matrix(12.8804,0,0,-12.8804,87.12333,29.493432)"/>
<path transform="matrix(.1,0,0,-.1,-234,796)" d="M 3601.89 7753.59 L 3795.097 7753.59 L 3795.097 7946.801 L 3601.89 7946.801 Z " fill="#ffffff"/>
<path transform="matrix(.1,0,0,-.1,-234,796)" stroke-width="9.23334" stroke-linecap="butt" stroke-miterlimit="10" stroke-linejoin="miter" fill="none" stroke="#000000" d="M 3601.89 7753.59 L 3795.097 7753.59 L 3795.097 7946.801 L 3601.89 7946.801 Z "/>
<symbol id="font_1_1">
<path d="M .69200006 .72200009 L .18900001 .72200009 L .108 .483 L .149 .47200004 C .15200001 .47700004 .15600002 .48400004 .16000001 .492 C .21900001 .592 .22900002 .606 .266 .633 C .30400003 .66200008 .36 .675 .44300003 .675 L .539 .675 L .005999999 .038000004 L 0 0 L .554 0 L .636 .256 L .594 .268 C .551 .18300002 .532 .15400002 .49800004 .120000008 C .44600005 .068 .38500003 .047000003 .28700004 .047000003 L .15200001 .047000003 L .686 .683 L .69200006 .72200009 Z "/>
</symbol>
<use xlink:href="#font_1_1" transform="matrix(12.8805,0,0,-12.8805,131.165,15.575989)"/>
<use xlink:href="#font_2_3" transform="matrix(12.8804,0,0,-12.8804,178.083,29.493859)"/>
<use xlink:href="#font_1_2" transform="matrix(12.8805,0,0,-12.8805,.79102328,48.04135)"/>
<symbol id="font_2_2">
<path d="M .47 .216 L .42600004 .216 L .41600005 .165 C .40300004 .101 .395 .094000007 .33300004 .094000007 L .10900001 .094000007 C .17800002 .16600001 .20100002 .187 .26500003 .23700002 C .35600005 .307 .395 .342 .418 .372 C .45000003 .416 .46600006 .46100004 .46600006 .509 C .46600006 .62200006 .37100003 .70400008 .24100003 .70400008 C .11400001 .70400008 .016000003 .62200006 .016000003 .51600006 C .016000003 .453 .048000006 .41000004 .096000019 .41000004 C .13300002 .41000004 .158 .43500004 .158 .47100003 C .158 .49600003 .14400001 .51900008 .12200001 .528 C .08500001 .544 .083000008 .545 .083000008 .558 C .083000008 .573 .09300001 .596 .10700001 .61300006 C .13200002 .643 .17400001 .661 .22100002 .661 C .30300004 .661 .35300002 .61 .35300002 .526 C .35300002 .45200003 .31800003 .38500003 .23500002 .29700003 L .17600002 .23500002 C .14100002 .19800002 .11500001 .17 .098000008 .15100001 C .062000004 .109000008 .044000005 .086 0 .028 L 0 0 L .45100004 0 L .47 .216 Z "/>
</symbol>
<use xlink:href="#font_2_2" transform="matrix(9.66036,0,0,-9.66036,7.994424,49.926637)"/>
<path transform="matrix(.1,0,0,-.1,-234,796)" d="M 2692.29 7405.17 L 2885.497 7405.17 L 2885.497 7598.377 L 2692.29 7598.377 Z " fill="#ffffff"/>
<path transform="matrix(.1,0,0,-.1,-234,796)" stroke-width="9.23334" stroke-linecap="butt" stroke-miterlimit="10" stroke-linejoin="miter" fill="none" stroke="#000000" d="M 2692.29 7405.17 L 2885.497 7405.17 L 2885.497 7598.377 L 2692.29 7598.377 Z "/>
<use xlink:href="#font_1_1" transform="matrix(12.8805,0,0,-12.8805,40.206,50.41803)"/>
</g>
</g>
</svg>
