<?xml version="1.0" encoding="UTF-8" standalone="no"?>
<!DOCTYPE svg PUBLIC "-//W3C//DTD SVG 1.1//EN" "http://www.w3.org/Graphics/SVG/1.1/DTD/svg11.dtd">
<svg xmlns="http://www.w3.org/2000/svg" xmlns:xlink="http://www.w3.org/1999/xlink" version="1.1" width="319pt" height="119pt" viewBox="0 0 319 119">
<g enable-background="new">
<clipPath id="cp0">
<path transform="matrix(1,0,0,-1,-301,555)" d="M 0 0 L 1001 0 L 1001 709 L 0 709 Z "/>
</clipPath>
<g clip-path="url(#cp0)">
<path transform="matrix(.1,0,0,-.1,-301,555)" d="M 4063.9 5194.77 C 4063.9 5207.52 4053.57 5217.85 4040.82 5217.85 C 4028.07 5217.85 4017.73 5207.52 4017.73 5194.77 C 4017.73 5182.02 4028.07 5171.69 4040.82 5171.69 C 4053.57 5171.69 4063.9 5182.02 4063.9 5194.77 Z M 4040.82 5194.77 "/>
<path transform="matrix(.1,0,0,-.1,-301,555)" d="M 4852.04 5194.77 C 4852.04 5207.52 4841.7 5217.85 4828.96 5217.85 C 4816.21 5217.85 4805.87 5207.52 4805.87 5194.77 C 4805.87 5182.02 4816.21 5171.69 4828.96 5171.69 C 4841.7 5171.69 4852.04 5182.02 4852.04 5194.77 Z M 4828.96 5194.77 "/>
<path transform="matrix(.1,0,0,-.1,-301,555)" d="M 5488.29 5098.16 L 5745.903 5098.16 L 5745.903 5291.371 L 5488.29 5291.371 Z " fill="#ffffff"/>
<clipPath id="cp1">
<path transform="matrix(.1,0,0,-.1,-301,555)" d="M 5488.29 5098.16 L 5745.903 5098.16 L 5745.903 5291.371 L 5488.29 5291.371 Z "/>
</clipPath>
<g clip-path="url(#cp1)">
<path transform="matrix(.1,0,0,-.1,-301,555)" stroke-width="9.23334" stroke-linecap="butt" stroke-miterlimit="10" stroke-linejoin="miter" fill="none" stroke="#000000" d="M 5521.13 5176.98 C 5569.24 5234.32 5664.95 5234.32 5713.05 5176.98 "/>
<path transform="matrix(.1,0,0,-.1,-301,555)" stroke-width="9.23334" stroke-linecap="butt" stroke-miterlimit="10" stroke-linejoin="miter" fill="none" stroke="#000000" d="M 5617.09 5131.01 L 5690.46 5225.98 "/>
<path transform="matrix(.1,0,0,-.1,-301,555)" d="M 5704.09 5243.62 C 5701.85 5241.89 5691.29 5234.85 5683.2 5231.59 L 5697.73 5220.37 C 5698.84 5229.02 5702.98 5241.02 5704.09 5243.62 Z "/>
<path transform="matrix(.1,0,0,-.1,-301,555)" stroke-width="9.14048" stroke-linecap="butt" stroke-miterlimit="10" stroke-linejoin="miter" fill="none" stroke="#000000" d="M 5704.09 5243.62 C 5701.85 5241.89 5691.29 5234.85 5683.2 5231.59 L 5697.73 5220.37 C 5698.84 5229.02 5702.98 5241.02 5704.09 5243.62 Z "/>
</g>
<path transform="matrix(.1,0,0,-.1,-301,555)" stroke-width="9.23334" stroke-linecap="butt" stroke-miterlimit="10" stroke-linejoin="miter" fill="none" stroke="#000000" d="M 5488.29 5098.16 L 5745.903 5098.16 L 5745.903 5291.371 L 5488.29 5291.371 Z "/>
<path transform="matrix(.1,0,0,-.1,-301,555)" d="M 4063.9 4866.37 C 4063.9 4879.12 4053.57 4889.45 4040.82 4889.45 C 4028.07 4889.45 4017.73 4879.12 4017.73 4866.37 C 4017.73 4853.62 4028.07 4843.29 4040.82 4843.29 C 4053.57 4843.29 4063.9 4853.62 4063.9 4866.37 Z M 4040.82 4866.37 "/>
<path transform="matrix(.1,0,0,-.1,-301,555)" d="M 4852.04 4866.37 C 4852.04 4879.12 4841.7 4889.45 4828.95 4889.45 C 4816.21 4889.45 4805.87 4879.12 4805.87 4866.37 C 4805.87 4853.62 4816.21 4843.29 4828.95 4843.29 C 4841.7 4843.29 4852.04 4853.62 4852.04 4866.37 Z M 4828.95 4866.37 "/>
<path transform="matrix(.1,0,0,-.1,-301,555)" d="M 5488.29 4769.77 L 5745.903 4769.77 L 5745.903 4962.981 L 5488.29 4962.981 Z " fill="#ffffff"/>
<clipPath id="cp2">
<path transform="matrix(.1,0,0,-.1,-301,555)" d="M 5488.29 4769.77 L 5745.903 4769.77 L 5745.903 4962.981 L 5488.29 4962.981 Z "/>
</clipPath>
<g clip-path="url(#cp2)">
<path transform="matrix(.1,0,0,-.1,-301,555)" stroke-width="9.23334" stroke-linecap="butt" stroke-miterlimit="10" stroke-linejoin="miter" fill="none" stroke="#000000" d="M 5521.13 4848.58 C 5569.24 4905.92 5664.95 4905.92 5713.05 4848.58 "/>
<path transform="matrix(.1,0,0,-.1,-301,555)" stroke-width="9.23334" stroke-linecap="butt" stroke-miterlimit="10" stroke-linejoin="miter" fill="none" stroke="#000000" d="M 5617.09 4802.61 L 5690.46 4897.58 "/>
<path transform="matrix(.1,0,0,-.1,-301,555)" d="M 5704.09 4915.22 C 5701.85 4913.49 5691.29 4906.45 5683.2 4903.2 L 5697.73 4891.97 C 5698.84 4900.62 5702.98 4912.62 5704.09 4915.22 Z "/>
<path transform="matrix(.1,0,0,-.1,-301,555)" stroke-width="9.14048" stroke-linecap="butt" stroke-miterlimit="10" stroke-linejoin="miter" fill="none" stroke="#000000" d="M 5704.09 4915.22 C 5701.85 4913.49 5691.29 4906.45 5683.2 4903.2 L 5697.73 4891.97 C 5698.84 4900.62 5702.98 4912.62 5704.09 4915.22 Z "/>
</g>
<path transform="matrix(.1,0,0,-.1,-301,555)" stroke-width="9.23334" stroke-linecap="butt" stroke-miterlimit="10" stroke-linejoin="miter" fill="none" stroke="#000000" d="M 5488.29 4769.77 L 5745.903 4769.77 L 5745.903 4962.981 L 5488.29 4962.981 Z "/>
<clipPath id="cp3">
<path transform="matrix(.1,0,0,-.1,-301,555)" d="M 4089.79 4537.98 C 4089.79 4565.03 4067.86 4586.95 4040.82 4586.95 C 4013.77 4586.95 3991.85 4565.03 3991.85 4537.98 C 3991.85 4510.94 4013.77 4489.01 4040.82 4489.01 C 4067.86 4489.01 4089.79 4510.94 4089.79 4537.98 Z M 4040.82 4537.98 "/>
</clipPath>
<g clip-path="url(#cp3)">
<path transform="matrix(.1,0,0,-.1,-301,555)" stroke-width="9.23334" stroke-linecap="butt" stroke-miterlimit="10" stroke-linejoin="miter" fill="none" stroke="#000000" d="M 4040.82 4586.95 L 4040.82 4489.01 M 3991.85 4537.98 L 4089.79 4537.98 "/>
</g>
<path transform="matrix(.1,0,0,-.1,-301,555)" stroke-width="9.23334" stroke-linecap="butt" stroke-miterlimit="10" stroke-linejoin="miter" fill="none" stroke="#000000" d="M 4089.79 4537.98 C 4089.79 4565.03 4067.86 4586.95 4040.82 4586.95 C 4013.77 4586.95 3991.85 4565.03 3991.85 4537.98 C 3991.85 4510.94 4013.77 4489.01 4040.82 4489.01 C 4067.86 4489.01 4089.79 4510.94 4089.79 4537.98 Z M 4040.82 4537.98 "/>
<clipPath id="cp4">
<path transform="matrix(.1,0,0,-.1,-301,555)" d="M 4877.93 4537.98 C 4877.93 4565.03 4856 4586.95 4828.95 4586.95 C 4801.91 4586.95 4779.98 4565.03 4779.98 4537.98 C 4779.98 4510.94 4801.91 4489.01 4828.95 4489.01 C 4856 4489.01 4877.93 4510.94 4877.93 4537.98 Z M 4828.95 4537.98 "/>
</clipPath>
<g clip-path="url(#cp4)">
<path transform="matrix(.1,0,0,-.1,-301,555)" stroke-width="9.23334" stroke-linecap="butt" stroke-miterlimit="10" stroke-linejoin="miter" fill="none" stroke="#000000" d="M 4828.95 4586.95 L 4828.95 4489.01 M 4779.98 4537.98 L 4877.93 4537.98 "/>
</g>
<path transform="matrix(.1,0,0,-.1,-301,555)" stroke-width="9.23334" stroke-linecap="butt" stroke-miterlimit="10" stroke-linejoin="miter" fill="none" stroke="#000000" d="M 4877.93 4537.98 C 4877.93 4565.03 4856 4586.95 4828.95 4586.95 C 4801.91 4586.95 4779.98 4565.03 4779.98 4537.98 C 4779.98 4510.94 4801.91 4489.01 4828.95 4489.01 C 4856 4489.01 4877.93 4510.94 4877.93 4537.98 Z M 4828.95 4537.98 "/>
<path transform="matrix(.1,0,0,-.1,-301,555)" stroke-width="9.23334" stroke-linecap="butt" stroke-miterlimit="10" stroke-linejoin="miter" fill="none" stroke="#000000" d="M 3541.29 5194.77 L 3252.66 5194.77 "/>
<path transform="matrix(.1,0,0,-.1,-301,555)" stroke-width="9.23334" stroke-linecap="butt" stroke-miterlimit="10" stroke-linejoin="miter" fill="none" stroke="#000000" d="M 4017.73 5194.77 L 3752.18 5194.77 "/>
<path transform="matrix(.1,0,0,-.1,-301,555)" stroke-width="9.23334" stroke-linecap="butt" stroke-miterlimit="10" stroke-linejoin="miter" fill="none" stroke="#000000" d="M 4040.81 5171.69 L 4040.81 4889.46 "/>
<path transform="matrix(.1,0,0,-.1,-301,555)" stroke-width="9.23334" stroke-linecap="butt" stroke-miterlimit="10" stroke-linejoin="miter" fill="none" stroke="#000000" d="M 4434.89 5194.77 L 4063.89 5194.77 "/>
<path transform="matrix(.1,0,0,-.1,-301,555)" stroke-width="9.23334" stroke-linecap="butt" stroke-miterlimit="10" stroke-linejoin="miter" fill="none" stroke="#000000" d="M 4805.88 5194.77 L 4434.89 5194.77 "/>
<path transform="matrix(.1,0,0,-.1,-301,555)" stroke-width="9.23334" stroke-linecap="butt" stroke-miterlimit="10" stroke-linejoin="miter" fill="none" stroke="#000000" d="M 4828.96 5171.69 L 4828.96 4889.46 "/>
<path transform="matrix(.1,0,0,-.1,-301,555)" stroke-width="9.23334" stroke-linecap="butt" stroke-miterlimit="10" stroke-linejoin="miter" fill="none" stroke="#000000" d="M 5117.59 5194.77 L 4852.05 5194.77 "/>
<path transform="matrix(.1,0,0,-.1,-301,555)" stroke-width="9.23334" stroke-linecap="butt" stroke-miterlimit="10" stroke-linejoin="miter" fill="none" stroke="#000000" d="M 5488.31 5194.77 L 5328.48 5194.77 "/>
<path transform="matrix(.1,0,0,-.1,-301,555)" stroke-width="9.23334" stroke-linecap="butt" stroke-miterlimit="10" stroke-linejoin="miter" fill="none" stroke="#000000" d="M 3541.29 4866.38 L 3252.66 4866.38 "/>
<path transform="matrix(.1,0,0,-.1,-301,555)" stroke-width="9.23334" stroke-linecap="butt" stroke-miterlimit="10" stroke-linejoin="miter" fill="none" stroke="#000000" d="M 4017.73 4866.38 L 3752.18 4866.38 "/>
<path transform="matrix(.1,0,0,-.1,-301,555)" stroke-width="9.23334" stroke-linecap="butt" stroke-miterlimit="10" stroke-linejoin="miter" fill="none" stroke="#000000" d="M 4040.81 4843.29 L 4040.81 4586.95 "/>
<path transform="matrix(.1,0,0,-.1,-301,555)" stroke-width="9.23334" stroke-linecap="butt" stroke-miterlimit="10" stroke-linejoin="miter" fill="none" stroke="#000000" d="M 4434.89 4866.38 L 4063.89 4866.38 "/>
<path transform="matrix(.1,0,0,-.1,-301,555)" stroke-width="9.23334" stroke-linecap="butt" stroke-miterlimit="10" stroke-linejoin="miter" fill="none" stroke="#000000" d="M 4805.88 4866.38 L 4434.89 4866.38 "/>
<path transform="matrix(.1,0,0,-.1,-301,555)" stroke-width="9.23334" stroke-linecap="butt" stroke-miterlimit="10" stroke-linejoin="miter" fill="none" stroke="#000000" d="M 4828.96 4843.29 L 4828.96 4586.95 "/>
<path transform="matrix(.1,0,0,-.1,-301,555)" stroke-width="9.23334" stroke-linecap="butt" stroke-miterlimit="10" stroke-linejoin="miter" fill="none" stroke="#000000" d="M 5117.59 4866.38 L 4852.05 4866.38 "/>
<path transform="matrix(.1,0,0,-.1,-301,555)" stroke-width="9.23334" stroke-linecap="butt" stroke-miterlimit="10" stroke-linejoin="miter" fill="none" stroke="#000000" d="M 5488.31 4866.38 L 5328.48 4866.38 "/>
<path transform="matrix(.1,0,0,-.1,-301,555)" stroke-width="9.23334" stroke-linecap="butt" stroke-miterlimit="10" stroke-linejoin="miter" fill="none" stroke="#000000" d="M 3646.74 4537.98 L 3252.66 4537.98 "/>
<path transform="matrix(.1,0,0,-.1,-301,555)" stroke-width="9.23334" stroke-linecap="butt" stroke-miterlimit="10" stroke-linejoin="miter" fill="none" stroke="#000000" d="M 3991.84 4537.98 L 3646.74 4537.98 "/>
<path transform="matrix(.1,0,0,-.1,-301,555)" stroke-width="9.23334" stroke-linecap="butt" stroke-miterlimit="10" stroke-linejoin="miter" fill="none" stroke="#000000" d="M 4341.63 4537.98 L 4089.78 4537.98 "/>
<path transform="matrix(.1,0,0,-.1,-301,555)" stroke-width="9.23334" stroke-linecap="butt" stroke-miterlimit="10" stroke-linejoin="miter" fill="none" stroke="#000000" d="M 4779.99 4537.98 L 4528.14 4537.98 "/>
<path transform="matrix(.1,0,0,-.1,-301,555)" stroke-width="9.23334" stroke-linecap="butt" stroke-miterlimit="10" stroke-linejoin="miter" fill="none" stroke="#000000" d="M 5223.04 4537.98 L 4877.93 4537.98 "/>
<path transform="matrix(.1,0,0,-.1,-301,555)" stroke-width="9.23334" stroke-linecap="butt" stroke-miterlimit="10" stroke-linejoin="miter" fill="none" stroke="#000000" d="M 5617.11 4537.98 L 5223.04 4537.98 "/>
<symbol id="font_5_2">
<path d="M 0 .85 L 0 0 L .058000007 0 L .058000007 .85 L 0 .85 Z "/>
</symbol>
<use xlink:href="#font_5_2" transform="matrix(12.742,0,0,-12.742,4.671609,40.80111)"/>
<symbol id="font_6_2">
<path d="M .24200002 .71900007 C .102000009 .71900007 0 .566 0 .357 C 0 .15100001 .099 0 .23400003 0 C .374 0 .472 .14600002 .472 .35400004 C .472 .46000005 .45000003 .54800006 .40800003 .61700007 C .36900003 .68 .305 .71900007 .24200002 .71900007 M .23500002 .676 C .268 .676 .3 .65400007 .32400004 .614 C .351 .568 .36 .509 .36 .37200005 C .36 .23200001 .35300002 .16600001 .33300004 .12200001 C .31000004 .073 .27400003 .043 .23600003 .043 C .20300001 .043 .171 .065 .14700002 .105000007 C .11900001 .15200001 .11100001 .215 .11100001 .37800003 C .11100001 .49400003 .11800001 .55300006 .13800001 .596 C .16100002 .647 .197 .676 .23500002 .676 Z "/>
</symbol>
<use xlink:href="#font_6_2" transform="matrix(12.8804,0,0,-12.8804,7.3570477,39.30307)"/>
<symbol id="font_5_1">
<path d="M .192 .42700003 L 0 .025000006 L .052 0 L .256 .42700003 L .052 .8540001 L 0 .829 L .192 .42700003 Z "/>
</symbol>
<use xlink:href="#font_5_1" transform="matrix(12.742,0,0,-12.742,14.397507,40.826597)"/>
<path transform="matrix(.1,0,0,-.1,-301,555)" d="M 3541.29 5098.17 L 3752.185 5098.17 L 3752.185 5291.377 L 3541.29 5291.377 Z " fill="#ffffff"/>
<path transform="matrix(.1,0,0,-.1,-301,555)" stroke-width="9.23334" stroke-linecap="butt" stroke-miterlimit="10" stroke-linejoin="miter" fill="none" stroke="#000000" d="M 3541.29 5098.17 L 3752.185 5098.17 L 3752.185 5291.377 L 3541.29 5291.377 Z "/>
<symbol id="font_7_1">
<path d="M .611 .354 L .55 .123 C .535 .07 .535 .069000009 .527 .061000006 C .51600006 .051000004 .49200005 .047000003 .44300003 .047000003 L .439 .047000003 L .43400003 0 L .75100007 0 L .757 .047000003 L .731 .047000003 C .666 .047000003 .652 .052 .652 .074 C .652 .081 .656 .104 .661 .123 L .78900006 .59900006 C .804 .65400007 .804 .65400007 .81200006 .661 C .823 .671 .846 .675 .896 .675 L .90000006 .675 L .90500006 .72200009 L .587 .72200009 L .582 .675 L .60800006 .675 C .67300006 .675 .68700006 .67 .68700006 .648 C .68700006 .64000007 .684 .623 .67700007 .59900006 L .624 .40100003 L .302 .40100003 L .356 .59900006 C .37 .65400007 .37 .65400007 .379 .661 C .389 .671 .41300006 .675 .462 .675 L .46600003 .675 L .47100003 .72200009 L .15400002 .72200009 L .148 .675 L .17400001 .675 C .23900001 .675 .25300003 .67 .25300003 .648 C .25300003 .64000007 .24900002 .619 .24400002 .59900006 L .116000007 .123 C .102000009 .07 .101 .069000009 .09300001 .061000006 C .082 .051000004 .059000005 .047000003 .010000002 .047000003 L .0050000029 .047000003 L 0 0 L .31800003 0 L .323 .047000003 L .297 .047000003 C .23200001 .047000003 .21800001 .052 .21800001 .074 C .21800001 .082 .21800001 .082 .22800002 .123 L .29000003 .354 L .611 .354 Z "/>
</symbol>
<use xlink:href="#font_7_1" transform="matrix(12.8805,0,0,-12.8805,57.672529,40.11798)"/>
<path transform="matrix(.1,0,0,-.1,-301,555)" d="M 5117.59 5098.17 L 5328.481 5098.17 L 5328.481 5291.377 L 5117.59 5291.377 Z " fill="#ffffff"/>
<path transform="matrix(.1,0,0,-.1,-301,555)" stroke-width="9.23334" stroke-linecap="butt" stroke-miterlimit="10" stroke-linejoin="miter" fill="none" stroke="#000000" d="M 5117.59 5098.17 L 5328.481 5098.17 L 5328.481 5291.377 L 5117.59 5291.377 Z "/>
<use xlink:href="#font_7_1" transform="matrix(12.8805,0,0,-12.8805,215.30156,40.11798)"/>
<use xlink:href="#font_5_2" transform="matrix(12.742,0,0,-12.742,4.6716396,73.6401)"/>
<use xlink:href="#font_6_2" transform="matrix(12.8804,0,0,-12.8804,7.357078,72.14322)"/>
<use xlink:href="#font_5_1" transform="matrix(12.742,0,0,-12.742,14.397537,73.66558)"/>
<path transform="matrix(.1,0,0,-.1,-301,555)" d="M 3541.29 4769.77 L 3752.185 4769.77 L 3752.185 4962.977 L 3541.29 4962.977 Z " fill="#ffffff"/>
<path transform="matrix(.1,0,0,-.1,-301,555)" stroke-width="9.23334" stroke-linecap="butt" stroke-miterlimit="10" stroke-linejoin="miter" fill="none" stroke="#000000" d="M 3541.29 4769.77 L 3752.185 4769.77 L 3752.185 4962.977 L 3541.29 4962.977 Z "/>
<use xlink:href="#font_7_1" transform="matrix(12.8805,0,0,-12.8805,57.672529,72.957)"/>
<path transform="matrix(.1,0,0,-.1,-301,555)" d="M 5117.59 4769.77 L 5328.481 4769.77 L 5328.481 4962.977 L 5117.59 4962.977 Z " fill="#ffffff"/>
<path transform="matrix(.1,0,0,-.1,-301,555)" stroke-width="9.23334" stroke-linecap="butt" stroke-miterlimit="10" stroke-linejoin="miter" fill="none" stroke="#000000" d="M 5117.59 4769.77 L 5328.481 4769.77 L 5328.481 4962.977 L 5117.59 4962.977 Z "/>
<use xlink:href="#font_7_1" transform="matrix(12.8805,0,0,-12.8805,215.30156,72.957)"/>
<symbol id="font_8_2">
<path d="M .06300001 0 L .06300001 .65200009 L 0 .65200009 L 0 0 L .06300001 0 Z "/>
</symbol>
<use xlink:href="#font_8_2" transform="matrix(12.742,0,0,-12.742,.54420569,101.53271)"/>
<use xlink:href="#font_8_2" transform="matrix(12.742,0,0,-12.742,.54420569,109.177639)"/>
<symbol id="font_9_2">
<path d="M .024000003 .58500006 C .050000006 .63600006 .09600001 .689 .11800001 .689 C .12900001 .689 .134 .679 .134 .66 C .134 .61300006 .094000007 .47700004 .094000007 .41700004 C .094000007 .284 .146 .23000002 .27600003 .23000002 C .278 .23000002 .24000001 .023000002 .24000001 .009000003 C .243 .001000002 .245 0 .257 0 C .27 0 .272 .001000002 .278 .0069999995 C .282 .012000009 .31800003 .15600002 .337 .23000002 C .38500003 .231 .4 .23500002 .48200003 .293 C .49600003 .30200003 .5450001 .351 .5680001 .39500005 C .62900009 .513 .63000008 .6750001 .73800006 .722 L .73800006 .72300007 C .73800006 .72800007 .7340001 .7440001 .7340001 .7440001 C .69400009 .74300006 .63900008 .739 .59800007 .70000007 C .54700008 .65200009 .56100007 .41700004 .46 .328 C .395 .272 .379 .27 .347 .27 C .347 .27 .46 .734 .48200003 .80700007 L .479 .80700007 C .469 .80700007 .38000003 .781 .38000003 .778 C .36 .66300007 .284 .268 .284 .27 C .20300001 .27 .18800001 .30200003 .18800001 .40800003 C .18800001 .48200003 .22600001 .58500006 .22600001 .67300006 C .22600001 .712 .214 .7440001 .17400001 .7440001 C .101 .7440001 .030000003 .688 0 .59900006 L .024000003 .58500006 Z "/>
</symbol>
<use xlink:href="#font_9_2" transform="matrix(12.465,0,0,-12.465,3.3825479,107.804409)"/>
<symbol id="font_8_1">
<path d="M .24700003 .586 L 0 .024999977 L .052 0 L .311 .586 L .052 1.172 L 0 1.1470001 L .24700003 .586 Z "/>
</symbol>
<use xlink:href="#font_8_1" transform="matrix(12.742,0,0,-12.742,13.98851,108.66831)"/>
<path transform="matrix(.1,0,0,-.1,-301,555)" d="M 4338.29 4441.38 L 4531.497 4441.38 L 4531.497 4634.587 L 4338.29 4634.587 Z " fill="#ffffff"/>
<path transform="matrix(.1,0,0,-.1,-301,555)" stroke-width="9.23334" stroke-linecap="butt" stroke-miterlimit="10" stroke-linejoin="miter" fill="none" stroke="#000000" d="M 4338.29 4441.38 L 4531.497 4441.38 L 4531.497 4634.587 L 4338.29 4634.587 Z "/>
<symbol id="font_7_4">
<path d="M .632 .73 L .59400007 .73 L .54 .67800006 C .48800005 .72900006 .43100003 .75200006 .358 .75200006 C .223 .75200006 .11800001 .65400007 .11800001 .528 C .11800001 .48300005 .135 .439 .165 .40600003 C .185 .384 .21300002 .36700005 .26500003 .34500004 L .351 .30900003 C .40500004 .287 .41700004 .28100003 .42900003 .273 C .45800004 .25200004 .47300003 .223 .47300003 .186 C .47300003 .101 .402 .043 .29900003 .043 C .23400001 .043 .186 .063 .147 .10700001 C .11000001 .149 .094000007 .19800002 .094000007 .265 C .094000007 .269 .094000007 .282 .095000009 .29300005 L .055000005 .3 L 0 .015000001 L .035 .015000001 L .094000007 .078 C .15 .026 .21900001 0 .3 0 C .45600004 0 .569 .097 .569 .22900002 C .569 .32700003 .527 .37800003 .40800003 .425 L .323 .45900006 C .24400002 .49 .209 .527 .209 .578 C .209 .652 .27600003 .709 .365 .709 C .47100003 .709 .537 .628 .537 .49600006 C .537 .49300004 .537 .485 .536 .476 L .578 .46900005 L .632 .73 Z "/>
</symbol>
<symbol id="font_7_3">
<path d="M .289 .365 L .358 .365 C .44200004 .365 .47400005 .34000004 .47400005 .27500005 C .47400005 .263 .47300003 .24200002 .47100003 .22100002 C .46500004 .14500001 .46500004 .14 .46500004 .12100001 C .46500004 .049000004 .508 0 .57100006 0 C .63500007 0 .675 .041 .71400007 .147 L .67800006 .162 C .65300008 .091000009 .63600006 .069000009 .60800006 .069000009 C .587 .069000009 .578 .08800001 .578 .13 L .57900008 .18100001 C .58000007 .194 .58000007 .20600002 .58000007 .21700001 C .58000007 .30400003 .55 .352 .47700004 .379 C .555 .388 .59400007 .397 .63000008 .41500003 C .69200006 .44700004 .73200008 .508 .73200008 .573 C .73200008 .632 .70100006 .681 .646 .709 C .60700008 .72900006 .558 .73700007 .47400005 .73700007 L .15400002 .73700007 L .148 .69 L .174 .69 C .23900002 .69 .25300003 .685 .25300003 .663 C .25300003 .65500006 .24900002 .634 .24400002 .614 L .116000007 .13800001 C .102000009 .085 .101 .08400001 .093 .076000008 C .082 .066 .059 .062000004 .01 .062000004 L .004999999 .062000004 L 0 .015000001 L .31800003 .015000001 L .323 .062000004 L .29700003 .062000004 C .23200003 .062000004 .218 .067 .218 .089 C .218 .097 .218 .097 .22800002 .13800001 L .289 .365 M .30100004 .412 L .36 .63 C .374 .681 .38400004 .69 .43100003 .69 L .48000003 .69 C .564 .69 .61200007 .65000006 .61200007 .58 C .61200007 .519 .58400008 .47100003 .53000006 .439 C .49300004 .417 .46300004 .412 .37900005 .412 L .30100004 .412 Z "/>
</symbol>
<use xlink:href="#font_7_4" transform="matrix(12.8805,0,0,-12.8805,138.057,106.003208)"/>
<use xlink:href="#font_7_3" transform="matrix(12.8805,0,0,-12.8805,265.79087,104.98132)"/>
<symbol id="font_7_2">
<path d="M .386 .16600001 C .359 .104 .333 .076000008 .3 .076000008 C .286 .076000008 .261 .082 .23300001 .09200001 C .17200002 .113000009 .16 .116000007 .132 .116000007 C .119 .116000007 .107 .11400001 .083000008 .10700001 C .106000009 .136 .125 .15 .204 .19600001 C .28100003 .24000001 .322 .272 .37100003 .328 C .418 .38100005 .45000003 .43600006 .45000003 .462 C .45000003 .47500003 .44 .485 .426 .485 C .41500003 .485 .407 .477 .402 .46000005 C .396 .439 .39000003 .43400003 .37600003 .43400003 C .359 .43400003 .33400003 .44200004 .30400003 .45700003 C .259 .47900004 .24200002 .485 .22 .485 C .156 .485 .103 .44 .055 .34600003 L .088 .329 C .119 .384 .14500001 .40900005 .17000002 .40900005 C .18 .40900005 .204 .403 .23000002 .39500005 C .285 .37600006 .292 .375 .322 .375 C .336 .375 .34800003 .37700004 .373 .38300003 C .34800003 .357 .337 .347 .299 .323 C .15200001 .23200001 .12900001 .21400002 .072 .15200001 C .026 .101 0 .054 0 .024 C 0 .009000001 .009 0 .024 0 C .043 0 .054 .017 .054 .046000005 C .054 .062000004 .055 .063 .063 .063 C .075 .063 .075 .063 .14000002 .032 C .188 .01 .224 0 .259 0 C .327 0 .39000003 .060000004 .421 .15400002 L .386 .16600001 Z "/>
</symbol>
<use xlink:href="#font_7_2" transform="matrix(9.66036,0,0,-9.66036,276.47749,107.01154)"/>
<symbol id="font_6_8">
<path d="M .24300002 .8590001 C .18300002 .8220001 .15100001 .79600009 .11700001 .75600007 C .041000006 .66600009 0 .55100008 0 .43 C 0 .316 .036000004 .209 .103000018 .120000008 C .141 .072 .17500001 .042000005 .24300002 0 L .24300002 .037 C .143 .125 .103000018 .238 .103000018 .43 C .103000018 .62200006 .143 .734 .24300002 .8220001 L .24300002 .8590001 Z "/>
</symbol>
<use xlink:href="#font_6_8" transform="matrix(12.8804,0,0,-12.8804,282.52168,106.372409)"/>
<symbol id="font_9_1">
<path d="M .467 .37700004 C .47900004 .43500004 .48800005 .49700005 .48800005 .55300006 C .48800005 .66400006 .45200003 .75500008 .32700003 .75500008 C .088 .75500008 0 .39800004 0 .198 C 0 .08400001 .040000004 0 .163 0 C .34600003 0 .42400003 .185 .467 .37700004 M .37600003 .40700004 L .126 .40700004 C .14400001 .49200005 .199 .72200009 .319 .72200009 C .38200004 .72200009 .4 .66 .4 .58800008 C .4 .52300009 .38500003 .44900004 .37600003 .40700004 M .368 .37100003 C .34300003 .25300003 .287 .030000002 .169 .030000002 C .107999999 .030000002 .09 .089 .09 .163 C .09 .23200001 .106000009 .31400005 .118 .37100003 L .368 .37100003 Z "/>
</symbol>
<use xlink:href="#font_9_1" transform="matrix(12.465,0,0,-12.465,286.74595,104.950168)"/>
<symbol id="font_6_1">
<path d="M 0 0 C .060000007 .037 .09200001 .063 .126 .104 C .202 .193 .24300002 .30900003 .24300002 .43 C .24300002 .544 .207 .651 .14 .7390001 C .102 .78800007 .068 .8180001 0 .8590001 L 0 .8220001 C .10000001 .734 .14 .62200006 .14 .43 C .14 .23700002 .10000001 .125 0 .037 L 0 0 Z "/>
</symbol>
<use xlink:href="#font_6_1" transform="matrix(12.8804,0,0,-12.8804,294.3828,106.372409)"/>
<use xlink:href="#font_8_2" transform="matrix(12.742,0,0,-12.742,301.0516,101.53301)"/>
<use xlink:href="#font_8_2" transform="matrix(12.742,0,0,-12.742,301.0516,109.17794)"/>
<use xlink:href="#font_9_2" transform="matrix(12.465,0,0,-12.465,303.88993,107.80471)"/>
<use xlink:href="#font_8_1" transform="matrix(12.742,0,0,-12.742,314.49595,108.66862)"/>
<path transform="matrix(.1,0,0,-.1,-301,555)" stroke-width="9.23334" stroke-linecap="butt" stroke-dasharray="57.7091,34.6255" stroke-miterlimit="10" stroke-linejoin="miter" fill="none" stroke="#ff0000" d="M 3872.01 5336.62 L 3872.01 4363.79 "/>
<use xlink:href="#font_8_2" transform="matrix(12.742,0,0,-12.742,74.892169,8.946463)"/>
<use xlink:href="#font_8_2" transform="matrix(12.742,0,0,-12.742,74.892169,16.59258)"/>
<use xlink:href="#font_9_2" transform="matrix(12.465,0,0,-12.465,77.73051,15.21935)"/>
<symbol id="font_6_3">
<path d="M .22200004 .70400008 C .18800003 .66300007 .09600001 .632 .0040000008 .63000008 L .0040000008 .587 L .092 .587 C .15 .587 .15400002 .583 .15400002 .52400007 L .15400002 .123 L .15400002 .094000007 C .15400002 .052 .14500001 .047000003 .065000008 .047000003 L 0 .047000003 L 0 0 L .39600004 0 L .39600004 .047000003 L .34100003 .047000003 C .28800003 .047000003 .26600004 .051000004 .25800003 .061000006 C .25100003 .068 .25100003 .068 .25100003 .123 L .25100003 .536 C .25100003 .58500006 .25300003 .633 .25800003 .70400008 L .22200004 .70400008 Z "/>
</symbol>
<use xlink:href="#font_6_3" transform="matrix(9.66036,0,0,-9.66036,88.23337,14.279785)"/>
<use xlink:href="#font_8_1" transform="matrix(12.742,0,0,-12.742,94.285327,16.081704)"/>
<path transform="matrix(.1,0,0,-.1,-301,555)" stroke-width="9.23334" stroke-linecap="butt" stroke-dasharray="57.7091,34.6255" stroke-miterlimit="10" stroke-linejoin="miter" fill="none" stroke="#ff0000" d="M 4215.71 5336.62 L 4215.71 4363.79 "/>
<use xlink:href="#font_8_2" transform="matrix(12.742,0,0,-12.742,109.261157,8.946463)"/>
<use xlink:href="#font_8_2" transform="matrix(12.742,0,0,-12.742,109.261157,16.59258)"/>
<use xlink:href="#font_9_2" transform="matrix(12.465,0,0,-12.465,112.099498,15.21935)"/>
<symbol id="font_6_4">
<path d="M .47 .216 L .42600004 .216 L .41600005 .165 C .40300004 .101 .395 .094000007 .33300004 .094000007 L .10900001 .094000007 C .17800002 .16600001 .20100002 .187 .26500003 .23700002 C .35600005 .307 .395 .342 .418 .372 C .45000003 .416 .46600006 .46100004 .46600006 .509 C .46600006 .62200006 .37100003 .70400008 .24100003 .70400008 C .11400001 .70400008 .016000003 .62200006 .016000003 .51600006 C .016000003 .453 .048000006 .41000004 .096000019 .41000004 C .13300002 .41000004 .158 .43500004 .158 .47100003 C .158 .49600003 .14400001 .51900008 .12200001 .528 C .08500001 .544 .083000008 .545 .083000008 .558 C .083000008 .573 .09300001 .596 .10700001 .61300006 C .13200002 .643 .17400001 .661 .22100002 .661 C .30300004 .661 .35300002 .61 .35300002 .526 C .35300002 .45200003 .31800003 .38500003 .23500002 .29700003 L .17600002 .23500002 C .14100002 .19800002 .11500001 .17 .098000008 .15100001 C .062000004 .109000008 .044000005 .086 0 .028 L 0 0 L .45100004 0 L .47 .216 Z "/>
</symbol>
<use xlink:href="#font_6_4" transform="matrix(9.66036,0,0,-9.66036,121.97324,14.279785)"/>
<use xlink:href="#font_8_1" transform="matrix(12.742,0,0,-12.742,128.65428,16.081704)"/>
<path transform="matrix(.1,0,0,-.1,-301,555)" stroke-width="9.23334" stroke-linecap="butt" stroke-dasharray="57.7091,34.6255" stroke-miterlimit="10" stroke-linejoin="miter" fill="none" stroke="#ff0000" d="M 4654.07 5336.62 L 4654.07 4363.79 "/>
<use xlink:href="#font_8_2" transform="matrix(12.742,0,0,-12.742,153.09618,8.946463)"/>
<use xlink:href="#font_8_2" transform="matrix(12.742,0,0,-12.742,153.09618,16.59258)"/>
<use xlink:href="#font_9_2" transform="matrix(12.465,0,0,-12.465,155.93569,15.21935)"/>
<symbol id="font_6_5">
<path d="M .30400003 .38300003 C .31800003 .388 .32000003 .388 .32700003 .39100004 C .397 .42000003 .43700005 .476 .43700005 .547 C .43700005 .651 .35700003 .71900007 .23300001 .71900007 C .116000007 .71900007 .027000003 .65000006 .027000003 .559 C .027000003 .518 .055 .48900003 .093 .48900003 C .12799999 .48900003 .15200001 .513 .15200001 .549 C .15200001 .57 .144 .584 .121 .6 C .11100001 .607 .108 .612 .108 .61800006 C .108 .646 .167 .676 .22300002 .676 C .29500003 .676 .33300004 .63100007 .33300004 .546 C .33300004 .453 .29500003 .40400005 .22300002 .40400005 C .21400002 .40400005 .19800002 .40500004 .183 .40600003 C .17500001 .407 .167 .407 .16100002 .407 C .14000002 .407 .12900001 .398 .12900001 .38 C .12900001 .36300005 .14000002 .35500003 .16 .35500003 C .16300002 .35500003 .171 .35500003 .18400002 .356 C .222 .357 .22300002 .357 .231 .357 C .305 .357 .34500004 .30400003 .34500004 .20500002 C .34500004 .102000009 .29400004 .043 .20500002 .043 C .14200002 .043 .074 .07700001 .074 .108 C .074 .117000009 .076000008 .119 .09600001 .13 C .124000009 .147 .13499999 .164 .13499999 .18900001 C .13499999 .22500001 .108 .25200004 .071 .25200004 C .029 .25200004 0 .216 0 .164 C 0 .067 .08900001 0 .21700001 0 C .36100004 0 .45600004 .080000009 .45600004 .20300001 C .45600004 .297 .40700004 .35400004 .30400003 .38300003 Z "/>
</symbol>
<use xlink:href="#font_6_5" transform="matrix(9.66036,0,0,-9.66036,165.87705,14.42469)"/>
<use xlink:href="#font_8_1" transform="matrix(12.742,0,0,-12.742,172.4893,16.081704)"/>
<path transform="matrix(.1,0,0,-.1,-301,555)" stroke-width="9.23334" stroke-linecap="butt" stroke-dasharray="57.7091,34.6255" stroke-miterlimit="10" stroke-linejoin="miter" fill="none" stroke="#ff0000" d="M 4997.76 5336.62 L 4997.76 4363.79 "/>
<use xlink:href="#font_8_2" transform="matrix(12.742,0,0,-12.742,187.46517,8.946463)"/>
<use xlink:href="#font_8_2" transform="matrix(12.742,0,0,-12.742,187.46517,16.59258)"/>
<use xlink:href="#font_9_2" transform="matrix(12.465,0,0,-12.465,190.30467,15.21935)"/>
<symbol id="font_6_6">
<path d="M .34000004 .70400008 L 0 .231 L 0 .17500001 L .28100003 .17500001 L .28100003 .123 L .28100003 .094000007 C .28100003 .052 .272 .047000003 .19100002 .047000003 L .18 .047000003 L .18 0 L .472 0 L .472 .047000003 L .46800003 .047000003 C .38700003 .047000003 .37800003 .052 .37800003 .094000007 L .37800003 .123 L .37800003 .17500001 L .499 .17500001 L .499 .231 L .37800003 .231 L .37800003 .504 C .37800003 .629 .37800003 .629 .38300003 .70400008 L .34000004 .70400008 M .28100003 .231 L .061 .231 L .28100003 .53400006 L .28100003 .231 Z "/>
</symbol>
<use xlink:href="#font_6_6" transform="matrix(9.66036,0,0,-9.66036,200.1108,14.279785)"/>
<use xlink:href="#font_8_1" transform="matrix(12.742,0,0,-12.742,206.85829,16.081704)"/>
<path transform="matrix(.1,0,0,-.1,-301,555)" stroke-width="9.23334" stroke-linecap="butt" stroke-dasharray="57.7091,34.6255" stroke-miterlimit="10" stroke-linejoin="miter" fill="none" stroke="#ff0000" d="M 5408.39 5336.62 L 5408.39 4363.79 "/>
<use xlink:href="#font_8_2" transform="matrix(12.742,0,0,-12.742,228.52816,8.946463)"/>
<use xlink:href="#font_8_2" transform="matrix(12.742,0,0,-12.742,228.52816,16.59258)"/>
<use xlink:href="#font_9_2" transform="matrix(12.465,0,0,-12.465,231.3665,15.21935)"/>
<symbol id="font_6_7">
<path d="M .119 .606 C .17300001 .593 .201 .589 .24000003 .589 C .325 .589 .38700003 .619 .42000003 .674 C .431 .693 .435 .702 .435 .71000006 C .435 .716 .43200005 .71900007 .42700006 .71900007 C .42400003 .71900007 .41900004 .718 .41400004 .71500006 C .365 .694 .338 .689 .28100003 .689 C .21700002 .689 .18 .694 .075 .71900007 C .071 .635 .062000008 .528 .048 .40400005 C .027000003 .38200004 .020000004 .36900003 .020000004 .35300005 C .020000004 .333 .033 .319 .052 .319 C .07700001 .319 .09300001 .34000004 .097 .38 C .132 .40500004 .165 .416 .205 .416 C .29400004 .416 .348 .347 .348 .23300001 C .348 .16600001 .33100004 .109000008 .301 .078 C .28100003 .057000005 .24000003 .043 .19900002 .043 C .13900002 .043 .07700001 .074 .07700001 .105000007 C .07700001 .112 .083000008 .120000008 .095 .127 C .126 .14600002 .135 .15900001 .135 .186 C .135 .22100002 .10800001 .24800001 .072000008 .24800001 C .032000007 .24800001 0 .21100001 0 .164 C 0 .11400001 .029 .064 .074 .033 C .10800001 .011 .149 0 .201 0 C .35800005 0 .45700003 .09200001 .45700003 .23900001 C .45700003 .375 .366 .46600003 .23100002 .46600003 C .18900001 .46600003 .157 .45900006 .102 .43600006 L .119 .606 Z "/>
</symbol>
<use xlink:href="#font_6_7" transform="matrix(9.66036,0,0,-9.66036,241.33689,14.42469)"/>
<use xlink:href="#font_8_1" transform="matrix(12.742,0,0,-12.742,247.92134,16.081704)"/>
</g>
</g>
</svg>
