<?xml version="1.0" encoding="UTF-8" standalone="no"?>
<!DOCTYPE svg PUBLIC "-//W3C//DTD SVG 1.1//EN" "http://www.w3.org/Graphics/SVG/1.1/DTD/svg11.dtd">
<svg xmlns="http://www.w3.org/2000/svg" xmlns:xlink="http://www.w3.org/1999/xlink" version="1.1" width="309pt" height="58pt" viewBox="0 0 309 58">
<g enable-background="new">
<clipPath id="cp0">
<path transform="matrix(1,0,0,-1,-199,795)" d="M 0 0 L 709 0 L 709 1001 L 0 1001 Z "/>
</clipPath>
<g clip-path="url(#cp0)">
<path transform="matrix(.1,0,0,-.1,-199,795)" d="M 2309.04 7815.69 C 2309.04 7828.44 2298.71 7838.77 2285.96 7838.77 C 2273.21 7838.77 2262.88 7828.44 2262.88 7815.69 C 2262.88 7802.94 2273.21 7792.61 2285.96 7792.61 C 2298.71 7792.61 2309.04 7802.94 2309.04 7815.69 Z M 2285.96 7815.69 "/>
<path transform="matrix(.1,0,0,-.1,-199,795)" d="M 3791.41 7815.69 C 3791.41 7828.44 3781.07 7838.77 3768.32 7838.77 C 3755.57 7838.77 3745.24 7828.44 3745.24 7815.69 C 3745.24 7802.94 3755.57 7792.61 3768.32 7792.61 C 3781.07 7792.61 3791.41 7802.94 3791.41 7815.69 Z M 3768.32 7815.69 "/>
<path transform="matrix(.1,0,0,-.1,-199,795)" d="M 4469.95 7815.69 C 4469.95 7828.44 4459.62 7838.77 4446.87 7838.77 C 4434.12 7838.77 4423.79 7828.44 4423.79 7815.69 C 4423.79 7802.94 4434.12 7792.61 4446.87 7792.61 C 4459.62 7792.61 4469.95 7802.94 4469.95 7815.69 Z M 4446.87 7815.69 "/>
<clipPath id="cp1">
<path transform="matrix(.1,0,0,-.1,-199,795)" d="M 3817.29 7487.29 C 3817.29 7514.34 3795.37 7536.26 3768.32 7536.26 C 3741.28 7536.26 3719.35 7514.34 3719.35 7487.29 C 3719.35 7460.24 3741.28 7438.32 3768.32 7438.32 C 3795.37 7438.32 3817.29 7460.24 3817.29 7487.29 Z M 3768.32 7487.29 "/>
</clipPath>
<g clip-path="url(#cp1)">
<path transform="matrix(.1,0,0,-.1,-199,795)" stroke-width="9.23334" stroke-linecap="butt" stroke-miterlimit="10" stroke-linejoin="miter" fill="none" stroke="#000000" d="M 3768.32 7536.26 L 3768.32 7438.32 M 3719.35 7487.29 L 3817.29 7487.29 "/>
</g>
<path transform="matrix(.1,0,0,-.1,-199,795)" stroke-width="9.23334" stroke-linecap="butt" stroke-miterlimit="10" stroke-linejoin="miter" fill="none" stroke="#000000" d="M 3817.29 7487.29 C 3817.29 7514.34 3795.37 7536.26 3768.32 7536.26 C 3741.28 7536.26 3719.35 7514.34 3719.35 7487.29 C 3719.35 7460.24 3741.28 7438.32 3768.32 7438.32 C 3795.37 7438.32 3817.29 7460.24 3817.29 7487.29 Z M 3768.32 7487.29 "/>
<clipPath id="cp2">
<path transform="matrix(.1,0,0,-.1,-199,795)" d="M 4495.84 7487.29 C 4495.84 7514.34 4473.91 7536.26 4446.87 7536.26 C 4419.82 7536.26 4397.89 7514.34 4397.89 7487.29 C 4397.89 7460.24 4419.82 7438.32 4446.87 7438.32 C 4473.91 7438.32 4495.84 7460.24 4495.84 7487.29 Z M 4446.87 7487.29 "/>
</clipPath>
<g clip-path="url(#cp2)">
<path transform="matrix(.1,0,0,-.1,-199,795)" stroke-width="9.23334" stroke-linecap="butt" stroke-miterlimit="10" stroke-linejoin="miter" fill="none" stroke="#000000" d="M 4446.87 7536.26 L 4446.87 7438.32 M 4397.89 7487.29 L 4495.84 7487.29 "/>
</g>
<path transform="matrix(.1,0,0,-.1,-199,795)" stroke-width="9.23334" stroke-linecap="butt" stroke-miterlimit="10" stroke-linejoin="miter" fill="none" stroke="#000000" d="M 4495.84 7487.29 C 4495.84 7514.34 4473.91 7536.26 4446.87 7536.26 C 4419.82 7536.26 4397.89 7514.34 4397.89 7487.29 C 4397.89 7460.24 4419.82 7438.32 4446.87 7438.32 C 4473.91 7438.32 4495.84 7460.24 4495.84 7487.29 Z M 4446.87 7487.29 "/>
<path transform="matrix(.1,0,0,-.1,-199,795)" stroke-width="9.23334" stroke-linecap="butt" stroke-miterlimit="10" stroke-linejoin="miter" fill="none" stroke="#000000" d="M 2262.86 7815.69 L 1995.13 7815.69 "/>
<path transform="matrix(.1,0,0,-.1,-199,795)" stroke-width="9.23334" stroke-linecap="butt" stroke-miterlimit="10" stroke-linejoin="miter" fill="none" stroke="#000000" d="M 2285.95 7792.6 L 2285.95 7594.1 "/>
<path transform="matrix(.1,0,0,-.1,-199,795)" stroke-width="9.23334" stroke-linecap="butt" stroke-miterlimit="10" stroke-linejoin="miter" fill="none" stroke="#000000" d="M 2576.76 7815.69 L 2309.03 7815.69 "/>
<path transform="matrix(.1,0,0,-.1,-199,795)" stroke-width="9.23334" stroke-linecap="butt" stroke-miterlimit="10" stroke-linejoin="miter" fill="none" stroke="#000000" d="M 3295.69 7815.69 L 3131.49 7815.69 "/>
<path transform="matrix(.1,0,0,-.1,-199,795)" stroke-width="9.23334" stroke-linecap="butt" stroke-miterlimit="10" stroke-linejoin="miter" fill="none" stroke="#000000" d="M 3745.25 7815.69 L 3550.55 7815.69 "/>
<path transform="matrix(.1,0,0,-.1,-199,795)" stroke-width="9.23334" stroke-linecap="butt" stroke-miterlimit="10" stroke-linejoin="miter" fill="none" stroke="#000000" d="M 3768.33 7792.6 L 3768.33 7536.26 "/>
<path transform="matrix(.1,0,0,-.1,-199,795)" stroke-width="9.23334" stroke-linecap="butt" stroke-miterlimit="10" stroke-linejoin="miter" fill="none" stroke="#000000" d="M 4107.61 7815.69 L 3791.42 7815.69 "/>
<path transform="matrix(.1,0,0,-.1,-199,795)" stroke-width="9.23334" stroke-linecap="butt" stroke-miterlimit="10" stroke-linejoin="miter" fill="none" stroke="#000000" d="M 4423.8 7815.69 L 4107.61 7815.69 "/>
<path transform="matrix(.1,0,0,-.1,-199,795)" stroke-width="9.23334" stroke-linecap="butt" stroke-miterlimit="10" stroke-linejoin="miter" fill="none" stroke="#000000" d="M 4446.88 7792.6 L 4446.88 7536.26 "/>
<path transform="matrix(.1,0,0,-.1,-199,795)" stroke-width="9.23334" stroke-linecap="butt" stroke-miterlimit="10" stroke-linejoin="miter" fill="none" stroke="#000000" d="M 4787.54 7815.69 L 4469.97 7815.69 "/>
<path transform="matrix(.1,0,0,-.1,-199,795)" stroke-width="9.23334" stroke-linecap="butt" stroke-miterlimit="10" stroke-linejoin="miter" fill="none" stroke="#000000" d="M 2159.33 7487.29 L 1995.13 7487.29 "/>
<path transform="matrix(.1,0,0,-.1,-199,795)" stroke-width="9.23334" stroke-linecap="butt" stroke-miterlimit="10" stroke-linejoin="miter" fill="none" stroke="#000000" d="M 2594.66 7487.29 L 2412.56 7487.29 "/>
<path transform="matrix(.1,0,0,-.1,-199,795)" stroke-width="9.23334" stroke-linecap="butt" stroke-miterlimit="10" stroke-linejoin="miter" fill="none" stroke="#000000" d="M 3297.2 7487.29 L 3131.49 7487.29 "/>
<path transform="matrix(.1,0,0,-.1,-199,795)" stroke-width="9.23334" stroke-linecap="butt" stroke-miterlimit="10" stroke-linejoin="miter" fill="none" stroke="#000000" d="M 3719.36 7487.29 L 3549.04 7487.29 "/>
<path transform="matrix(.1,0,0,-.1,-199,795)" stroke-width="9.23334" stroke-linecap="butt" stroke-miterlimit="10" stroke-linejoin="miter" fill="none" stroke="#000000" d="M 3986.12 7487.29 L 3817.3 7487.29 "/>
<path transform="matrix(.1,0,0,-.1,-199,795)" stroke-width="9.23334" stroke-linecap="butt" stroke-miterlimit="10" stroke-linejoin="miter" fill="none" stroke="#000000" d="M 4397.91 7487.29 L 4229.1 7487.29 "/>
<path transform="matrix(.1,0,0,-.1,-199,795)" stroke-width="9.23334" stroke-linecap="butt" stroke-miterlimit="10" stroke-linejoin="miter" fill="none" stroke="#000000" d="M 4664.67 7487.29 L 4495.86 7487.29 "/>
<path transform="matrix(.1,0,0,-.1,-199,795)" stroke-width="9.23334" stroke-linecap="butt" stroke-miterlimit="10" stroke-linejoin="miter" fill="none" stroke="#000000" d="M 5074.62 7487.29 L 4910.42 7487.29 "/>
<symbol id="font_3_2">
<path d="M 0 0 L .504 0 L .504 .08 L 0 .08 L 0 0 M 0 .202 L .504 .202 L .504 .282 L 0 .282 L 0 .202 Z "/>
</symbol>
<use xlink:href="#font_3_2" transform="matrix(12.8804,0,0,-12.8804,74.95789,30.943383)"/>
<path transform="matrix(.1,0,0,-.1,-199,795)" d="M 3295.69 7689.06 L 3550.545 7689.06 L 3550.545 7942.306 L 3295.69 7942.306 Z " fill="#ffffff"/>
<path transform="matrix(.1,0,0,-.1,-199,795)" stroke-width="9.23334" stroke-linecap="butt" stroke-miterlimit="10" stroke-linejoin="miter" fill="none" stroke="#000000" d="M 3295.69 7689.06 L 3550.545 7689.06 L 3550.545 7942.306 L 3295.69 7942.306 Z "/>
<symbol id="font_4_4">
<path d="M .28 .31800003 L .298 .31800003 C .48400004 .31800003 .51900008 .323 .587 .35900004 C .657 .397 .69600006 .462 .69600006 .541 C .69600006 .60300007 .67 .65300008 .62200006 .68600007 C .58500006 .711 .532 .72200009 .449 .72200009 L .15400002 .72200009 L .148 .675 L .174 .675 C .23900002 .675 .25300003 .67 .25300003 .648 C .25300003 .64000007 .24900002 .619 .24400002 .59900006 L .116000007 .123 C .102000009 .069000009 .101 .069000009 .093 .061000006 C .082 .051000004 .059 .047000003 .009999998 .047000003 L .004999999 .047000003 L 0 0 L .31800003 0 L .323 .047000003 L .297 .047000003 C .23200003 .047000003 .218 .052 .218 .074 C .218 .082 .218 .082 .22800002 .123 L .28 .31800003 M .293 .365 L .363 .62700006 C .373 .665 .386 .675 .42700003 .675 L .439 .675 C .544 .675 .584 .64100006 .584 .55200007 C .584 .503 .568 .45600004 .541 .42200003 C .51500007 .39000003 .479 .372 .42400003 .367 C .41 .365 .41 .365 .312 .365 L .293 .365 Z "/>
</symbol>
<use xlink:href="#font_4_4" transform="matrix(12.8805,0,0,-12.8805,135.03795,18.700989)"/>
<symbol id="font_3_1">
<path d="M .19100002 0 L .22500003 0 L .22500003 .08400001 C .22500003 .24800001 .23700002 .34600003 .27 .43600006 C .236 .485 .22500003 .52900007 .22500003 .62100008 C .25500003 .62100008 .268 .61800006 .29900003 .605 C .33900003 .587 .34600003 .58500006 .36200003 .58500006 C .393 .58500006 .416 .60800006 .416 .64000007 C .416 .66800007 .395 .69 .36600004 .69 C .351 .69 .34800003 .689 .298 .669 C .266 .657 .254 .65400007 .22500003 .653 C .22500003 .695 .23000002 .727 .24700001 .769 C .259 .801 .261 .81 .261 .82500007 C .261 .859 .24100003 .88100007 .208 .88100007 C .17500001 .88100007 .15500002 .859 .15500002 .82500007 C .15500002 .81 .158 .8 .16900002 .769 C .186 .726 .19100002 .697 .19100002 .653 C .16200002 .65400007 .15 .657 .118 .669 C .068 .689 .065 .69 .05 .69 C .021000002 .69 0 .669 0 .64000007 C 0 .60800006 .022999999 .58500006 .054 .58500006 C .07000001 .58500006 .07700001 .587 .11700001 .605 C .148 .61800006 .16100002 .62100008 .19100002 .62100008 C .19100002 .531 .18 .485 .14600002 .43600006 C .179 .34600003 .19100002 .24900002 .19100002 .08400001 L .19100002 0 Z "/>
</symbol>
<use xlink:href="#font_3_1" transform="matrix(9.55655,0,0,-9.55655,145.43975,13.732223)"/>
<symbol id="font_5_1">
<path d="M .42700003 .28100003 L .57800009 .50200006 L .505 .50200006 L .423 .34300003 C .423 .47700004 .386 .51400008 .278 .51400008 C .08500001 .51400008 0 .308 0 .163 C 0 .076000008 .038000004 0 .147 0 C .22100002 0 .28300003 .07300001 .32700003 .136 C .326 .126 .326 .116000007 .326 .106000009 C .326 .076000008 .33 .048 .342 .028 C .35300002 .01 .36600004 0 .38900004 0 C .41300003 0 .447 .007999999 .47300003 .028 C .492 .043 .531 .080000009 .55799999 .144 L .53400006 .158 C .508 .10700001 .46600006 .052 .44400005 .052 C .416 .052 .416 .10400001 .416 .128 C .416 .172 .421 .23 .42700003 .28100003 M .33200003 .213 C .28 .12900001 .22800002 .054000006 .162 .054000006 C .112 .054000006 .096 .10400001 .096 .16 C .096 .276 .158 .479 .279 .479 C .32700003 .479 .34100003 .41300003 .34100003 .338 C .34100003 .296 .337 .25100003 .33200003 .213 Z "/>
</symbol>
<use xlink:href="#font_5_1" transform="matrix(9.34872,0,0,-9.34872,145.0368,21.490542)"/>
<path transform="matrix(.1,0,0,-.1,-199,795)" d="M 2159.33 7380.48 L 2412.5572 7380.48 L 2412.5572 7594.105 L 2159.33 7594.105 Z " fill="#ffffff"/>
<path transform="matrix(.1,0,0,-.1,-199,795)" stroke-width="9.23334" stroke-linecap="butt" stroke-miterlimit="10" stroke-linejoin="miter" fill="none" stroke="#000000" d="M 2159.33 7380.48 L 2412.5572 7380.48 L 2412.5572 7594.105 L 2159.33 7594.105 Z "/>
<symbol id="font_4_5">
<path d="M .298 .17 L .21100001 .606 C .20600002 .629 .20300001 .649 .20300001 .658 C .20300001 .684 .214 .69 .263 .69 L .297 .69 L .30200003 .73700007 L .0069999995 .73700007 L 0 .69 L .028 .69 C .076000008 .69 .09 .672 .106000009 .592 L .223 0 L .26 0 L .55700007 .528 C .635 .66 .66 .683 .731 .69 L .736 .73700007 L .464 .73700007 L .45900003 .69 L .477 .69 C .53000006 .69 .552 .67800006 .552 .649 C .552 .632 .544 .611 .521 .57100006 L .298 .17 Z "/>
</symbol>
<use xlink:href="#font_4_5" transform="matrix(12.8805,0,0,-12.8805,22.014693,52.397188)"/>
<use xlink:href="#font_3_1" transform="matrix(9.55655,0,0,-9.55655,32.70508,48.551988)"/>
<path transform="matrix(.1,0,0,-.1,-199,795)" d="M 3297.2 7381.13 L 3549.04 7381.13 L 3549.04 7593.443 L 3297.2 7593.443 Z " fill="#ffffff"/>
<path transform="matrix(.1,0,0,-.1,-199,795)" stroke-width="9.23334" stroke-linecap="butt" stroke-miterlimit="10" stroke-linejoin="miter" fill="none" stroke="#000000" d="M 3297.2 7381.13 L 3549.04 7381.13 L 3549.04 7593.443 L 3297.2 7593.443 Z "/>
<symbol id="font_4_1">
<path d="M .52400007 .73700007 L .48300005 .73700007 L .153 .16800002 C .1 .080000009 .059 .047000003 .004999995 .047000003 L 0 0 L .269 0 L .275 .047000003 L .25100003 .047000003 C .199 .047000003 .18200001 .057000005 .18200001 .087000008 C .18200001 .102000009 .18800001 .12200001 .20000002 .142 L .255 .238 L .51000007 .238 L .53300008 .115 C .535 .10300001 .537 .09 .537 .083000008 C .537 .054 .522 .047000003 .46500004 .047000003 L .449 .047000003 L .444 0 L .74500009 0 L .75000008 .047000003 L .725 .047000003 C .67 .047000003 .65900006 .056 .64900007 .108 L .52400007 .73700007 M .50200006 .28500004 L .282 .28500004 L .445 .572 L .50200006 .28500004 Z "/>
</symbol>
<use xlink:href="#font_4_1" transform="matrix(12.8805,0,0,-12.8805,135.2498,52.27002)"/>
<use xlink:href="#font_3_1" transform="matrix(9.55655,0,0,-9.55655,146.35228,48.618028)"/>
<path transform="matrix(.1,0,0,-.1,-199,795)" d="M 3986.12 7381.13 L 4229.1 7381.13 L 4229.1 7593.443 L 3986.12 7593.443 Z " fill="#ffffff"/>
<path transform="matrix(.1,0,0,-.1,-199,795)" stroke-width="9.23334" stroke-linecap="butt" stroke-miterlimit="10" stroke-linejoin="miter" fill="none" stroke="#000000" d="M 3986.12 7381.13 L 4229.1 7381.13 L 4229.1 7593.443 L 3986.12 7593.443 Z "/>
<symbol id="font_4_2">
<path d="M .154 .72200009 L .148 .675 L .17400001 .675 C .23900001 .675 .25300003 .67 .25300003 .648 C .25300003 .64000007 .24900002 .619 .24400002 .59900006 L .116000007 .123 C .102000009 .069000009 .101 .069000009 .093 .061000006 C .083000008 .052 .058000003 .047000003 .02 .047000003 L .005000001 .047000003 L 0 0 L .363 0 C .43600003 0 .497 .009000001 .53700008 .027 C .614 .060000004 .6610001 .128 .6610001 .20600002 C .6610001 .28500004 .6100001 .33900003 .504 .37100003 C .55300006 .38000003 .58300009 .39000003 .61600008 .41000004 C .669 .44200004 .69900009 .49500004 .69900009 .555 C .69900009 .61300006 .669 .66300007 .61800006 .69100007 C .577 .71400007 .53300008 .72200009 .455 .72200009 L .154 .72200009 M .3 .39400003 L .358 .60700008 C .374 .66800007 .382 .675 .433 .675 L .462 .675 C .544 .675 .58000007 .643 .58000007 .57000008 C .58000007 .514 .55600008 .46 .517 .43 C .485 .40500004 .442 .39400003 .38300003 .39400003 L .3 .39400003 M .288 .347 L .351 .347 C .39900003 .347 .44500003 .34100003 .467 .33200003 C .513 .31300003 .53900006 .27400003 .53900006 .22500001 C .53900006 .17300001 .51500007 .120000008 .477 .087000008 C .447 .061000006 .398 .047000003 .338 .047000003 L .288 .047000003 C .23400001 .047000003 .21800001 .053000004 .21800001 .074 C .21800001 .082 .22000002 .094000007 .224 .109000008 L .288 .347 Z "/>
</symbol>
<use xlink:href="#font_4_2" transform="matrix(12.8805,0,0,-12.8805,203.9667,52.27002)"/>
<use xlink:href="#font_3_1" transform="matrix(9.55655,0,0,-9.55655,214.3572,48.618028)"/>
<path transform="matrix(.1,0,0,-.1,-199,795)" d="M 4664.67 7380.09 L 4910.42 7380.09 L 4910.42 7594.481 L 4664.67 7594.481 Z " fill="#ffffff"/>
<path transform="matrix(.1,0,0,-.1,-199,795)" stroke-width="9.23334" stroke-linecap="butt" stroke-miterlimit="10" stroke-linejoin="miter" fill="none" stroke="#000000" d="M 4664.67 7380.09 L 4910.42 7380.09 L 4910.42 7594.481 L 4664.67 7594.481 Z "/>
<symbol id="font_4_3">
<path d="M .577 .672 C .529 .72900006 .47800002 .75200006 .40200005 .75200006 C .29200004 .75200006 .192 .70000007 .112 .6 C .038 .51000007 0 .40600003 0 .29500003 C 0 .117000009 .116 0 .29400004 0 C .38200004 0 .45700003 .031000002 .514 .09 C .545 .12200001 .568 .15900001 .594 .22000002 L .55300006 .238 C .528 .185 .514 .16100002 .49600003 .14 C .44600005 .078 .38600005 .049000004 .31100003 .049000004 C .249 .049000004 .201 .069000009 .171 .108 C .141 .14500001 .125 .19800002 .125 .255 C .125 .36900003 .165 .50100007 .228 .598 C .27400003 .669 .34100003 .709 .41000004 .709 C .47600005 .709 .523 .675 .55 .60800006 C .566 .57100006 .573 .527 .57600006 .45000006 L .617 .45000006 L .67300006 .73 L .637 .73 L .577 .672 Z "/>
</symbol>
<use xlink:href="#font_4_3" transform="matrix(12.8805,0,0,-12.8805,272.73625,52.359224)"/>
<use xlink:href="#font_3_1" transform="matrix(9.55655,0,0,-9.55655,282.48878,48.514024)"/>
</g>
</g>
</svg>
