<?xml version="1.0" encoding="UTF-8" standalone="no"?>
<!DOCTYPE svg PUBLIC "-//W3C//DTD SVG 1.1//EN" "http://www.w3.org/Graphics/SVG/1.1/DTD/svg11.dtd">
<svg xmlns="http://www.w3.org/2000/svg" xmlns:xlink="http://www.w3.org/1999/xlink" version="1.1" width="279pt" height="70pt" viewBox="0 0 279 70">
<g enable-background="new">
<clipPath id="cp0">
<path transform="matrix(0,1,1,0,-361,-165)" d="M 0 0 L 709 0 L 709 1001 L 0 1001 Z "/>
</clipPath>
<g clip-path="url(#cp0)">
<path transform="matrix(0,.1,.1,0,-361,-165)" d="M 1817.52 4277.8 C 1804.77 4277.8 1794.43 4267.46 1794.43 4254.71 C 1794.43 4241.96 1804.77 4231.63 1817.52 4231.63 C 1830.27 4231.63 1840.6 4241.96 1840.6 4254.71 C 1840.6 4267.46 1830.27 4277.8 1817.52 4277.8 Z M 1817.52 4254.71 "/>
<path transform="matrix(0,.1,.1,0,-361,-165)" d="M 1817.52 4968.21 C 1804.77 4968.21 1794.43 4957.88 1794.43 4945.13 C 1794.43 4932.38 1804.77 4922.05 1817.52 4922.05 C 1830.27 4922.05 1840.6 4932.38 1840.6 4945.13 C 1840.6 4957.88 1830.27 4968.21 1817.52 4968.21 Z M 1817.52 4945.13 "/>
<clipPath id="cp1">
<path transform="matrix(0,.1,.1,0,-361,-165)" d="M 2145.92 4303.68 C 2118.87 4303.68 2096.95 4281.76 2096.95 4254.71 C 2096.95 4227.66 2118.87 4205.74 2145.92 4205.74 C 2172.96 4205.74 2194.89 4227.66 2194.89 4254.71 C 2194.89 4281.76 2172.96 4303.68 2145.92 4303.68 Z M 2145.92 4254.71 "/>
</clipPath>
<g clip-path="url(#cp1)">
<path transform="matrix(0,.1,.1,0,-361,-165)" stroke-width="9.23334" stroke-linecap="butt" stroke-miterlimit="10" stroke-linejoin="miter" fill="none" stroke="#000000" d="M 2096.95 4254.71 L 2194.89 4254.71 M 2145.92 4205.74 L 2145.92 4303.68 "/>
</g>
<path transform="matrix(0,.1,.1,0,-361,-165)" stroke-width="9.23334" stroke-linecap="butt" stroke-miterlimit="10" stroke-linejoin="miter" fill="none" stroke="#000000" d="M 2145.92 4303.68 C 2118.87 4303.68 2096.95 4281.76 2096.95 4254.71 C 2096.95 4227.66 2118.87 4205.74 2145.92 4205.74 C 2172.96 4205.74 2194.89 4227.66 2194.89 4254.71 C 2194.89 4281.76 2172.96 4303.68 2145.92 4303.68 Z M 2145.92 4254.71 "/>
<clipPath id="cp2">
<path transform="matrix(0,.1,.1,0,-361,-165)" d="M 2145.92 4994.1 C 2118.87 4994.1 2096.95 4972.18 2096.95 4945.13 C 2096.95 4918.08 2118.87 4896.16 2145.92 4896.16 C 2172.96 4896.16 2194.89 4918.08 2194.89 4945.13 C 2194.89 4972.18 2172.96 4994.1 2145.92 4994.1 Z M 2145.92 4945.13 "/>
</clipPath>
<g clip-path="url(#cp2)">
<path transform="matrix(0,.1,.1,0,-361,-165)" stroke-width="9.23334" stroke-linecap="butt" stroke-miterlimit="10" stroke-linejoin="miter" fill="none" stroke="#000000" d="M 2096.95 4945.13 L 2194.89 4945.13 M 2145.92 4896.16 L 2145.92 4994.1 "/>
</g>
<path transform="matrix(0,.1,.1,0,-361,-165)" stroke-width="9.23334" stroke-linecap="butt" stroke-miterlimit="10" stroke-linejoin="miter" fill="none" stroke="#000000" d="M 2145.92 4994.1 C 2118.87 4994.1 2096.95 4972.18 2096.95 4945.13 C 2096.95 4918.08 2118.87 4896.16 2145.92 4896.16 C 2172.96 4896.16 2194.89 4918.08 2194.89 4945.13 C 2194.89 4972.18 2172.96 4994.1 2145.92 4994.1 Z M 2145.92 4945.13 "/>
<path transform="matrix(0,.1,.1,0,-361,-165)" stroke-width="9.23334" stroke-linecap="butt" stroke-miterlimit="10" stroke-linejoin="miter" fill="none" stroke="#000000" d="M 1817.52 3909.49 L 1817.52 3617.87 "/>
<path transform="matrix(0,.1,.1,0,-361,-165)" stroke-width="9.23334" stroke-linecap="butt" stroke-miterlimit="10" stroke-linejoin="miter" fill="none" stroke="#000000" d="M 1817.52 4231.63 L 1817.52 3909.49 "/>
<path transform="matrix(0,.1,.1,0,-361,-165)" stroke-width="9.23334" stroke-linecap="butt" stroke-miterlimit="10" stroke-linejoin="miter" fill="none" stroke="#000000" d="M 1840.6 4254.71 L 2096.95 4254.71 "/>
<path transform="matrix(0,.1,.1,0,-361,-165)" stroke-width="9.23334" stroke-linecap="butt" stroke-miterlimit="10" stroke-linejoin="miter" fill="none" stroke="#000000" d="M 1817.52 4599.92 L 1817.52 4277.79 "/>
<path transform="matrix(0,.1,.1,0,-361,-165)" stroke-width="9.23334" stroke-linecap="butt" stroke-miterlimit="10" stroke-linejoin="miter" fill="none" stroke="#000000" d="M 1817.52 4922.05 L 1817.52 4599.92 "/>
<path transform="matrix(0,.1,.1,0,-361,-165)" stroke-width="9.23334" stroke-linecap="butt" stroke-miterlimit="10" stroke-linejoin="miter" fill="none" stroke="#000000" d="M 1840.6 4945.14 L 2096.95 4945.14 "/>
<path transform="matrix(0,.1,.1,0,-361,-165)" stroke-width="9.23334" stroke-linecap="butt" stroke-miterlimit="10" stroke-linejoin="miter" fill="none" stroke="#000000" d="M 1817.52 5162.92 L 1817.52 4968.22 "/>
<path transform="matrix(0,.1,.1,0,-361,-165)" stroke-width="9.23334" stroke-linecap="butt" stroke-miterlimit="10" stroke-linejoin="miter" fill="none" stroke="#000000" d="M 2145.91 3782.07 L 2145.91 3617.87 "/>
<path transform="matrix(0,.1,.1,0,-361,-165)" stroke-width="9.23334" stroke-linecap="butt" stroke-miterlimit="10" stroke-linejoin="miter" fill="none" stroke="#000000" d="M 2145.91 4205.74 L 2145.91 4036.92 "/>
<path transform="matrix(0,.1,.1,0,-361,-165)" stroke-width="9.23334" stroke-linecap="butt" stroke-miterlimit="10" stroke-linejoin="miter" fill="none" stroke="#000000" d="M 2145.91 4472.49 L 2145.91 4303.68 "/>
<path transform="matrix(0,.1,.1,0,-361,-165)" stroke-width="9.23334" stroke-linecap="butt" stroke-miterlimit="10" stroke-linejoin="miter" fill="none" stroke="#000000" d="M 2145.91 4896.16 L 2145.91 4727.35 "/>
<path transform="matrix(0,.1,.1,0,-361,-165)" stroke-width="9.23334" stroke-linecap="butt" stroke-miterlimit="10" stroke-linejoin="miter" fill="none" stroke="#000000" d="M 2145.91 5162.92 L 2145.91 4994.11 "/>
<path transform="matrix(0,.1,.1,0,-361,-165)" d="M 2042.92 3782.07 L 2248.912 3782.07 L 2248.912 4036.925 L 2042.92 4036.925 Z " fill="#ffffff"/>
<path transform="matrix(0,.1,.1,0,-361,-165)" stroke-width="9.23334" stroke-linecap="butt" stroke-miterlimit="10" stroke-linejoin="miter" fill="none" stroke="#000000" d="M 2042.92 3782.07 L 2248.912 3782.07 L 2248.912 4036.925 L 2042.92 4036.925 Z "/>
<symbol id="font_3_2">
<path d="M .28 .31800003 L .298 .31800003 C .48400004 .31800003 .51900008 .323 .587 .35900004 C .657 .397 .69600006 .462 .69600006 .541 C .69600006 .60300007 .67 .65300008 .62200006 .68600007 C .58500006 .711 .532 .72200009 .449 .72200009 L .15400002 .72200009 L .148 .675 L .174 .675 C .23900002 .675 .25300003 .67 .25300003 .648 C .25300003 .64000007 .24900002 .619 .24400002 .59900006 L .116000007 .123 C .102000009 .069000009 .101 .069000009 .093 .061000006 C .082 .051000004 .059 .047000003 .009999998 .047000003 L .004999999 .047000003 L 0 0 L .31800003 0 L .323 .047000003 L .297 .047000003 C .23200003 .047000003 .218 .052 .218 .074 C .218 .082 .218 .082 .22800002 .123 L .28 .31800003 M .293 .365 L .363 .62700006 C .373 .665 .386 .675 .42700003 .675 L .439 .675 C .544 .675 .584 .64100006 .584 .55200007 C .584 .503 .568 .45600004 .541 .42200003 C .51500007 .39000003 .479 .372 .42400003 .367 C .41 .365 .41 .365 .312 .365 L .293 .365 Z "/>
</symbol>
<use xlink:href="#font_3_2" transform="matrix(12.8805,0,0,-12.8805,21.676934,53.097)"/>
<symbol id="font_4_1">
<path d="M .42700003 .28100003 L .57800009 .50200006 L .505 .50200006 L .423 .34300003 C .423 .47700004 .386 .51400008 .278 .51400008 C .08500001 .51400008 0 .308 0 .163 C 0 .076000008 .038000004 0 .147 0 C .22100002 0 .28300003 .07300001 .32700003 .136 C .326 .126 .326 .116000007 .326 .106000009 C .326 .076000008 .33 .048 .342 .028 C .35300002 .01 .36600004 0 .38900004 0 C .41300003 0 .447 .007999999 .47300003 .028 C .492 .043 .531 .080000009 .55799999 .144 L .53400006 .158 C .508 .10700001 .46600006 .052 .44400005 .052 C .416 .052 .416 .10400001 .416 .128 C .416 .172 .421 .23 .42700003 .28100003 M .33200003 .213 C .28 .12900001 .22800002 .054000006 .162 .054000006 C .112 .054000006 .096 .10400001 .096 .16 C .096 .276 .158 .479 .279 .479 C .32700003 .479 .34100003 .41300003 .34100003 .338 C .34100003 .296 .337 .25100003 .33200003 .213 Z "/>
</symbol>
<use xlink:href="#font_4_1" transform="matrix(9.34872,0,0,-9.34872,31.67617,55.28771)"/>
<path transform="matrix(0,.1,.1,0,-361,-165)" d="M 2019.29 4472.49 L 2272.5362 4472.49 L 2272.5362 4727.345 L 2019.29 4727.345 Z " fill="#ffffff"/>
<path transform="matrix(0,.1,.1,0,-361,-165)" stroke-width="9.23334" stroke-linecap="butt" stroke-miterlimit="10" stroke-linejoin="miter" fill="none" stroke="#000000" d="M 2019.29 4472.49 L 2272.5362 4472.49 L 2272.5362 4727.345 L 2019.29 4727.345 Z "/>
<use xlink:href="#font_3_2" transform="matrix(12.8805,0,0,-12.8805,90.71795,54.860994)"/>
<symbol id="font_5_1">
<path d="M .19100002 0 L .22500003 0 L .22500003 .08400001 C .22500003 .24800001 .23700002 .34600003 .27 .43600006 C .236 .485 .22500003 .52900007 .22500003 .62100008 C .25500003 .62100008 .268 .61800006 .29900003 .605 C .33900003 .587 .34600003 .58500006 .36200003 .58500006 C .393 .58500006 .416 .60800006 .416 .64000007 C .416 .66800007 .395 .69 .36600004 .69 C .351 .69 .34800003 .689 .298 .669 C .266 .657 .254 .65400007 .22500003 .653 C .22500003 .695 .23000002 .727 .24700001 .769 C .259 .801 .261 .81 .261 .82500007 C .261 .859 .24100003 .88100007 .208 .88100007 C .17500001 .88100007 .15500002 .859 .15500002 .82500007 C .15500002 .81 .158 .8 .16900002 .769 C .186 .726 .19100002 .697 .19100002 .653 C .16200002 .65400007 .15 .657 .118 .669 C .068 .689 .065 .69 .05 .69 C .021000002 .69 0 .669 0 .64000007 C 0 .60800006 .022999999 .58500006 .054 .58500006 C .07000001 .58500006 .07700001 .587 .11700001 .605 C .148 .61800006 .16100002 .62100008 .19100002 .62100008 C .19100002 .531 .18 .485 .14600002 .43600006 C .179 .34600003 .19100002 .24900002 .19100002 .08400001 L .19100002 0 Z "/>
</symbol>
<use xlink:href="#font_5_1" transform="matrix(9.55655,0,0,-9.55655,101.119739,49.892213)"/>
<use xlink:href="#font_4_1" transform="matrix(9.34872,0,0,-9.34872,100.717189,57.650518)"/>
<symbol id="font_6_1">
<path d="M .5500001 0 L .5500001 .058 L 0 .058 L 0 0 L .5500001 0 M .5500001 .22 L .5500001 .27800004 L 0 .27800004 L 0 .22 L .5500001 .22 Z "/>
</symbol>
<use xlink:href="#font_6_1" transform="matrix(12.742,0,0,-12.742,163.03668,36.526727)"/>
<symbol id="font_7_4">
<path d="M 0 0 L .09900001 0 L .09900001 1.5300001 C .09900001 1.7300001 .10900003 1.7500001 .24900002 1.7570001 L .24900002 1.7990002 L 0 1.7990002 L 0 0 Z "/>
</symbol>
<symbol id="font_7_5">
<path d="M .09900001 .602 L 0 .602 L 0 0 L .09900001 0 L .09900001 .602 Z "/>
</symbol>
<symbol id="font_7_6">
<path d="M 0 0 L .24900002 0 L .24900002 .041999937 C .10900003 .049000026 .09900001 .069000009 .09900001 .26900006 L .09900001 1.799 L 0 1.799 L 0 0 Z "/>
</symbol>
<use xlink:href="#font_7_4" transform="matrix(12.742,0,0,-12.742,177.26395,23.294253)"/>
<use xlink:href="#font_7_5" transform="matrix(12.742,0,0,-12.742,177.26395,30.952467)"/>
<use xlink:href="#font_7_5" transform="matrix(12.742,0,0,-12.742,177.26395,38.59738)"/>
<use xlink:href="#font_7_5" transform="matrix(12.742,0,0,-12.742,177.26395,46.242296)"/>
<use xlink:href="#font_7_6" transform="matrix(12.742,0,0,-12.742,177.26395,69.089298)"/>
<symbol id="font_5_3">
<path d="M .22200004 .70400008 C .18800003 .66300007 .09600001 .632 .0040000008 .63000008 L .0040000008 .587 L .092 .587 C .15 .587 .15400002 .583 .15400002 .52400007 L .15400002 .123 L .15400002 .094000007 C .15400002 .052 .14500001 .047000003 .065000008 .047000003 L 0 .047000003 L 0 0 L .39600004 0 L .39600004 .047000003 L .34100003 .047000003 C .28800003 .047000003 .26600004 .051000004 .25800003 .061000006 C .25100003 .068 .25100003 .068 .25100003 .123 L .25100003 .536 C .25100003 .58500006 .25300003 .633 .25800003 .70400008 L .22200004 .70400008 Z "/>
</symbol>
<symbol id="font_5_2">
<path d="M .24200002 .71900007 C .102000009 .71900007 0 .566 0 .357 C 0 .15100001 .099 0 .23400003 0 C .374 0 .472 .14600002 .472 .35400004 C .472 .46000005 .45000003 .54800006 .40800003 .61700007 C .36900003 .68 .305 .71900007 .24200002 .71900007 M .23500002 .676 C .268 .676 .3 .65400007 .32400004 .614 C .351 .568 .36 .509 .36 .37200005 C .36 .23200001 .35300002 .16600001 .33300004 .12200001 C .31000004 .073 .27400003 .043 .23600003 .043 C .20300001 .043 .171 .065 .14700002 .105000007 C .11900001 .15200001 .11100001 .215 .11100001 .37800003 C .11100001 .49400003 .11800001 .55300006 .13800001 .596 C .16100002 .647 .197 .676 .23500002 .676 Z "/>
</symbol>
<use xlink:href="#font_5_3" transform="matrix(12.8804,0,0,-12.8804,183.27449,12.80072)"/>
<use xlink:href="#font_5_2" transform="matrix(12.8804,0,0,-12.8804,201.22975,12.993926)"/>
<use xlink:href="#font_5_2" transform="matrix(12.8804,0,0,-12.8804,228.71639,12.993926)"/>
<use xlink:href="#font_5_2" transform="matrix(12.8804,0,0,-12.8804,261.54844,12.993926)"/>
<use xlink:href="#font_5_2" transform="matrix(12.8804,0,0,-12.8804,182.52742,29.729432)"/>
<use xlink:href="#font_5_3" transform="matrix(12.8804,0,0,-12.8804,201.97682,29.536225)"/>
<use xlink:href="#font_5_2" transform="matrix(12.8804,0,0,-12.8804,228.71639,29.729432)"/>
<use xlink:href="#font_5_2" transform="matrix(12.8804,0,0,-12.8804,261.54844,29.729432)"/>
<use xlink:href="#font_5_2" transform="matrix(12.8804,0,0,-12.8804,182.52742,46.67003)"/>
<use xlink:href="#font_5_2" transform="matrix(12.8804,0,0,-12.8804,201.22975,46.67003)"/>
<symbol id="font_3_1">
<path d="M .34500004 .13100001 C .286 .07000001 .24200002 .047000003 .19000001 .047000003 C .13000001 .047000003 .093 .087000008 .093 .15100001 C .093 .158 .094000007 .172 .095 .185 C .21200001 .21300002 .23200001 .21900001 .27700005 .23900001 C .35400004 .273 .39700005 .324 .39700005 .38200004 C .39700005 .44300003 .34800003 .485 .27800004 .485 C .132 .485 0 .33600004 0 .17300001 C 0 .065 .065000008 0 .17300001 0 C .25000004 0 .31500004 .034 .36900003 .104 L .34500004 .13100001 M .1 .224 C .123 .35900004 .184 .445 .25800003 .445 C .29100005 .445 .31300003 .422 .31300003 .388 C .31300003 .333 .27400003 .286 .202 .254 C .17300001 .24100001 .156 .23600002 .1 .224 Z "/>
</symbol>
<use xlink:href="#font_3_1" transform="matrix(12.8805,0,0,-12.8805,220.00878,46.67003)"/>
<symbol id="font_6_2">
<path d="M .5500001 0 L .5500001 .058 L 0 .058 L 0 0 L .5500001 0 Z "/>
</symbol>
<use xlink:href="#font_6_2" transform="matrix(9.55655,0,0,-9.55655,226.89446,39.03129)"/>
<symbol id="font_3_3">
<path d="M .20400001 .48400004 L .012 .469 L .007999999 .43300004 L .032000007 .43300004 C .073 .43300004 .089 .42400003 .089 .402 C .089 .393 .086 .38000003 .080000009 .358 L .022000002 .163 C .0040000008 .1 0 .084 0 .062 C 0 .027 .030000003 0 .069 0 C .11200001 0 .15300001 .023000002 .19300002 .069000009 C .21100001 .089 .22700002 .111 .255 .154 L .22400002 .171 C .17400001 .094000007 .13000001 .050000006 .10300001 .050000006 C .093 .050000006 .086 .059 .086 .071 C .086 .081 .09 .099 .098 .127 L .20400001 .48400004 M .18600002 .72800007 C .15600002 .72800007 .13200002 .70400008 .13200002 .674 C .13200002 .64500007 .15600002 .62 .18500002 .62 C .21600002 .62 .24000003 .64400008 .24000003 .674 C .24000003 .70400008 .21600002 .72800007 .18600002 .72800007 Z "/>
</symbol>
<use xlink:href="#font_3_3" transform="matrix(9.66036,0,0,-9.66036,233.7391,41.584344)"/>
<use xlink:href="#font_4_1" transform="matrix(9.34872,0,0,-9.34872,237.72083,41.561285)"/>
<use xlink:href="#font_5_2" transform="matrix(12.8804,0,0,-12.8804,261.5486,46.67003)"/>
<use xlink:href="#font_5_2" transform="matrix(12.8804,0,0,-12.8804,182.52748,63.609834)"/>
<use xlink:href="#font_5_2" transform="matrix(12.8804,0,0,-12.8804,201.22982,63.609834)"/>
<use xlink:href="#font_5_2" transform="matrix(12.8804,0,0,-12.8804,228.71645,63.609834)"/>
<use xlink:href="#font_3_1" transform="matrix(12.8805,0,0,-12.8805,256.278,63.609834)"/>
<use xlink:href="#font_3_3" transform="matrix(9.66036,0,0,-9.66036,263.13255,58.524927)"/>
<use xlink:href="#font_4_1" transform="matrix(9.34872,0,0,-9.34872,267.11427,58.501867)"/>
<symbol id="font_7_1">
<path d="M .24900002 1.799 L 0 1.799 L 0 1.7570001 C .14000002 1.75 .15 1.73 .15 1.53 L .15 0 L .24900002 0 L .24900002 1.799 Z "/>
</symbol>
<symbol id="font_7_2">
<path d="M .09900001 .602 L 0 .602 L 0 0 L .09900001 0 L .09900001 .602 Z "/>
</symbol>
<symbol id="font_7_3">
<path d="M .24900002 1.7990002 L .15 1.7990002 L .15 .26900006 C .15 .069000009 .14000002 .049000026 0 .042000057 L 0 0 L .24900002 0 L .24900002 1.7990002 Z "/>
</symbol>
<use xlink:href="#font_7_1" transform="matrix(12.742,0,0,-12.742,275.06925,23.30684)"/>
<use xlink:href="#font_7_2" transform="matrix(12.742,0,0,-12.742,276.98054,30.952315)"/>
<use xlink:href="#font_7_2" transform="matrix(12.742,0,0,-12.742,276.98054,38.59723)"/>
<use xlink:href="#font_7_2" transform="matrix(12.742,0,0,-12.742,276.98054,46.24214)"/>
<use xlink:href="#font_7_3" transform="matrix(12.742,0,0,-12.742,275.06925,69.07678)"/>
</g>
</g>
</svg>
