<?xml version="1.0" encoding="UTF-8" standalone="no"?>
<!DOCTYPE svg PUBLIC "-//W3C//DTD SVG 1.1//EN" "http://www.w3.org/Graphics/SVG/1.1/DTD/svg11.dtd">
<svg xmlns="http://www.w3.org/2000/svg" xmlns:xlink="http://www.w3.org/1999/xlink" version="1.1" width="277pt" height="87pt" viewBox="0 0 277 87">
<g enable-background="new">
<clipPath id="cp0">
<path transform="matrix(1,0,0,-1,-301,555)" d="M 0 0 L 1001 0 L 1001 709 L 0 709 Z "/>
</clipPath>
<g clip-path="url(#cp0)">
<path transform="matrix(.1,0,0,-.1,-301,555)" d="M 3868.63 5446.93 C 3868.63 5459.68 3858.29 5470.01 3845.54 5470.01 C 3832.79 5470.01 3822.46 5459.68 3822.46 5446.93 C 3822.46 5434.18 3832.79 5423.84 3845.54 5423.84 C 3858.29 5423.84 3868.63 5434.18 3868.63 5446.93 Z M 3845.54 5446.93 "/>
<path transform="matrix(.1,0,0,-.1,-301,555)" d="M 4490.7 5446.93 C 4490.7 5459.68 4480.37 5470.01 4467.62 5470.01 C 4454.87 5470.01 4444.54 5459.68 4444.54 5446.93 C 4444.54 5434.18 4454.87 5423.84 4467.62 5423.84 C 4480.37 5423.84 4490.7 5434.18 4490.7 5446.93 Z M 4467.62 5446.93 "/>
<path transform="matrix(.1,0,0,-.1,-301,555)" d="M 5065.11 5350.32 L 5322.7229 5350.32 L 5322.7229 5543.527 L 5065.11 5543.527 Z " fill="#ffffff"/>
<clipPath id="cp1">
<path transform="matrix(.1,0,0,-.1,-301,555)" d="M 5065.11 5350.32 L 5322.7229 5350.32 L 5322.7229 5543.527 L 5065.11 5543.527 Z "/>
</clipPath>
<g clip-path="url(#cp1)">
<path transform="matrix(.1,0,0,-.1,-301,555)" stroke-width="9.23334" stroke-linecap="butt" stroke-miterlimit="10" stroke-linejoin="miter" fill="none" stroke="#000000" d="M 5097.95 5429.14 C 5146.06 5486.48 5241.77 5486.48 5289.88 5429.14 "/>
<path transform="matrix(.1,0,0,-.1,-301,555)" stroke-width="9.23334" stroke-linecap="butt" stroke-miterlimit="10" stroke-linejoin="miter" fill="none" stroke="#000000" d="M 5193.91 5383.16 L 5267.29 5478.14 "/>
<path transform="matrix(.1,0,0,-.1,-301,555)" d="M 5280.91 5495.78 C 5278.68 5494.05 5268.11 5487.01 5260.02 5483.75 L 5274.55 5472.53 C 5275.66 5481.18 5279.81 5493.18 5280.91 5495.78 Z "/>
<path transform="matrix(.1,0,0,-.1,-301,555)" stroke-width="9.14048" stroke-linecap="butt" stroke-miterlimit="10" stroke-linejoin="miter" fill="none" stroke="#000000" d="M 5280.91 5495.78 C 5278.68 5494.05 5268.11 5487.01 5260.02 5483.75 L 5274.55 5472.53 C 5275.66 5481.18 5279.81 5493.18 5280.91 5495.78 Z "/>
</g>
<path transform="matrix(.1,0,0,-.1,-301,555)" stroke-width="9.23334" stroke-linecap="butt" stroke-miterlimit="10" stroke-linejoin="miter" fill="none" stroke="#000000" d="M 5065.11 5350.32 L 5322.7229 5350.32 L 5322.7229 5543.527 L 5065.11 5543.527 Z "/>
<path transform="matrix(.1,0,0,-.1,-301,555)" d="M 3868.63 5118.54 C 3868.63 5131.29 3858.29 5141.63 3845.54 5141.63 C 3832.79 5141.63 3822.46 5131.29 3822.46 5118.54 C 3822.46 5105.79 3832.79 5095.46 3845.54 5095.46 C 3858.29 5095.46 3868.63 5105.79 3868.63 5118.54 Z M 3845.54 5118.54 "/>
<path transform="matrix(.1,0,0,-.1,-301,555)" d="M 4490.7 5118.54 C 4490.7 5131.29 4480.37 5141.63 4467.62 5141.63 C 4454.87 5141.63 4444.54 5131.29 4444.54 5118.54 C 4444.54 5105.79 4454.87 5095.46 4467.62 5095.46 C 4480.37 5095.46 4490.7 5105.79 4490.7 5118.54 Z M 4467.62 5118.54 "/>
<path transform="matrix(.1,0,0,-.1,-301,555)" d="M 5065.11 5021.94 L 5322.7229 5021.94 L 5322.7229 5215.147 L 5065.11 5215.147 Z " fill="#ffffff"/>
<clipPath id="cp2">
<path transform="matrix(.1,0,0,-.1,-301,555)" d="M 5065.11 5021.94 L 5322.7229 5021.94 L 5322.7229 5215.147 L 5065.11 5215.147 Z "/>
</clipPath>
<g clip-path="url(#cp2)">
<path transform="matrix(.1,0,0,-.1,-301,555)" stroke-width="9.23334" stroke-linecap="butt" stroke-miterlimit="10" stroke-linejoin="miter" fill="none" stroke="#000000" d="M 5097.95 5100.75 C 5146.06 5158.09 5241.77 5158.09 5289.88 5100.75 "/>
<path transform="matrix(.1,0,0,-.1,-301,555)" stroke-width="9.23334" stroke-linecap="butt" stroke-miterlimit="10" stroke-linejoin="miter" fill="none" stroke="#000000" d="M 5193.91 5054.78 L 5267.29 5149.75 "/>
<path transform="matrix(.1,0,0,-.1,-301,555)" d="M 5280.91 5167.39 C 5278.68 5165.66 5268.11 5158.62 5260.02 5155.36 L 5274.55 5144.14 C 5275.66 5152.79 5279.81 5164.79 5280.91 5167.39 Z "/>
<path transform="matrix(.1,0,0,-.1,-301,555)" stroke-width="9.14048" stroke-linecap="butt" stroke-miterlimit="10" stroke-linejoin="miter" fill="none" stroke="#000000" d="M 5280.91 5167.39 C 5278.68 5165.66 5268.11 5158.62 5260.02 5155.36 L 5274.55 5144.14 C 5275.66 5152.79 5279.81 5164.79 5280.91 5167.39 Z "/>
</g>
<path transform="matrix(.1,0,0,-.1,-301,555)" stroke-width="9.23334" stroke-linecap="butt" stroke-miterlimit="10" stroke-linejoin="miter" fill="none" stroke="#000000" d="M 5065.11 5021.94 L 5322.7229 5021.94 L 5322.7229 5215.147 L 5065.11 5215.147 Z "/>
<clipPath id="cp3">
<path transform="matrix(.1,0,0,-.1,-301,555)" d="M 3894.51 4790.14 C 3894.51 4817.19 3872.59 4839.11 3845.54 4839.11 C 3818.5 4839.11 3796.57 4817.19 3796.57 4790.14 C 3796.57 4763.09 3818.5 4741.17 3845.54 4741.17 C 3872.59 4741.17 3894.51 4763.09 3894.51 4790.14 Z M 3845.54 4790.14 "/>
</clipPath>
<g clip-path="url(#cp3)">
<path transform="matrix(.1,0,0,-.1,-301,555)" stroke-width="9.23334" stroke-linecap="butt" stroke-miterlimit="10" stroke-linejoin="miter" fill="none" stroke="#000000" d="M 3845.54 4839.11 L 3845.54 4741.17 M 3796.57 4790.14 L 3894.51 4790.14 "/>
</g>
<path transform="matrix(.1,0,0,-.1,-301,555)" stroke-width="9.23334" stroke-linecap="butt" stroke-miterlimit="10" stroke-linejoin="miter" fill="none" stroke="#000000" d="M 3894.51 4790.14 C 3894.51 4817.19 3872.59 4839.11 3845.54 4839.11 C 3818.5 4839.11 3796.57 4817.19 3796.57 4790.14 C 3796.57 4763.09 3818.5 4741.17 3845.54 4741.17 C 3872.59 4741.17 3894.51 4763.09 3894.51 4790.14 Z M 3845.54 4790.14 "/>
<clipPath id="cp4">
<path transform="matrix(.1,0,0,-.1,-301,555)" d="M 4516.59 4790.14 C 4516.59 4817.19 4494.66 4839.11 4467.62 4839.11 C 4440.57 4839.11 4418.65 4817.19 4418.65 4790.14 C 4418.65 4763.09 4440.57 4741.17 4467.62 4741.17 C 4494.66 4741.17 4516.59 4763.09 4516.59 4790.14 Z M 4467.62 4790.14 "/>
</clipPath>
<g clip-path="url(#cp4)">
<path transform="matrix(.1,0,0,-.1,-301,555)" stroke-width="9.23334" stroke-linecap="butt" stroke-miterlimit="10" stroke-linejoin="miter" fill="none" stroke="#000000" d="M 4467.62 4839.11 L 4467.62 4741.17 M 4418.65 4790.14 L 4516.59 4790.14 "/>
</g>
<path transform="matrix(.1,0,0,-.1,-301,555)" stroke-width="9.23334" stroke-linecap="butt" stroke-miterlimit="10" stroke-linejoin="miter" fill="none" stroke="#000000" d="M 4516.59 4790.14 C 4516.59 4817.19 4494.66 4839.11 4467.62 4839.11 C 4440.57 4839.11 4418.65 4817.19 4418.65 4790.14 C 4418.65 4763.09 4440.57 4741.17 4467.62 4741.17 C 4494.66 4741.17 4516.59 4763.09 4516.59 4790.14 Z M 4467.62 4790.14 "/>
<path transform="matrix(.1,0,0,-.1,-301,555)" stroke-width="9.23334" stroke-linecap="butt" stroke-miterlimit="10" stroke-linejoin="miter" fill="none" stroke="#000000" d="M 3416.86 5446.93 L 3252.66 5446.93 "/>
<path transform="matrix(.1,0,0,-.1,-301,555)" stroke-width="9.23334" stroke-linecap="butt" stroke-miterlimit="10" stroke-linejoin="miter" fill="none" stroke="#000000" d="M 3822.45 5446.93 L 3627.75 5446.93 "/>
<path transform="matrix(.1,0,0,-.1,-301,555)" stroke-width="9.23334" stroke-linecap="butt" stroke-miterlimit="10" stroke-linejoin="miter" fill="none" stroke="#000000" d="M 3845.53 5423.85 L 3845.53 5141.62 "/>
<path transform="matrix(.1,0,0,-.1,-301,555)" stroke-width="9.23334" stroke-linecap="butt" stroke-miterlimit="10" stroke-linejoin="miter" fill="none" stroke="#000000" d="M 4156.58 5446.93 L 3868.62 5446.93 "/>
<path transform="matrix(.1,0,0,-.1,-301,555)" stroke-width="9.23334" stroke-linecap="butt" stroke-miterlimit="10" stroke-linejoin="miter" fill="none" stroke="#000000" d="M 4444.54 5446.93 L 4156.58 5446.93 "/>
<path transform="matrix(.1,0,0,-.1,-301,555)" stroke-width="9.23334" stroke-linecap="butt" stroke-miterlimit="10" stroke-linejoin="miter" fill="none" stroke="#000000" d="M 4467.62 5423.85 L 4467.62 5141.62 "/>
<path transform="matrix(.1,0,0,-.1,-301,555)" stroke-width="9.23334" stroke-linecap="butt" stroke-miterlimit="10" stroke-linejoin="miter" fill="none" stroke="#000000" d="M 4685.41 5446.93 L 4490.7 5446.93 "/>
<path transform="matrix(.1,0,0,-.1,-301,555)" stroke-width="9.23334" stroke-linecap="butt" stroke-miterlimit="10" stroke-linejoin="miter" fill="none" stroke="#000000" d="M 5065.11 5446.93 L 4896.3 5446.93 "/>
<path transform="matrix(.1,0,0,-.1,-301,555)" stroke-width="9.23334" stroke-linecap="butt" stroke-miterlimit="10" stroke-linejoin="miter" fill="none" stroke="#000000" d="M 3416.86 5118.54 L 3252.66 5118.54 "/>
<path transform="matrix(.1,0,0,-.1,-301,555)" stroke-width="9.23334" stroke-linecap="butt" stroke-miterlimit="10" stroke-linejoin="miter" fill="none" stroke="#000000" d="M 3822.45 5118.54 L 3627.75 5118.54 "/>
<path transform="matrix(.1,0,0,-.1,-301,555)" stroke-width="9.23334" stroke-linecap="butt" stroke-miterlimit="10" stroke-linejoin="miter" fill="none" stroke="#000000" d="M 3845.53 5095.45 L 3845.53 4839.11 "/>
<path transform="matrix(.1,0,0,-.1,-301,555)" stroke-width="9.23334" stroke-linecap="butt" stroke-miterlimit="10" stroke-linejoin="miter" fill="none" stroke="#000000" d="M 4156.58 5118.54 L 3868.62 5118.54 "/>
<path transform="matrix(.1,0,0,-.1,-301,555)" stroke-width="9.23334" stroke-linecap="butt" stroke-miterlimit="10" stroke-linejoin="miter" fill="none" stroke="#000000" d="M 4444.54 5118.54 L 4156.58 5118.54 "/>
<path transform="matrix(.1,0,0,-.1,-301,555)" stroke-width="9.23334" stroke-linecap="butt" stroke-miterlimit="10" stroke-linejoin="miter" fill="none" stroke="#000000" d="M 4467.62 5095.45 L 4467.62 4839.11 "/>
<path transform="matrix(.1,0,0,-.1,-301,555)" stroke-width="9.23334" stroke-linecap="butt" stroke-miterlimit="10" stroke-linejoin="miter" fill="none" stroke="#000000" d="M 4685.41 5118.54 L 4490.7 5118.54 "/>
<path transform="matrix(.1,0,0,-.1,-301,555)" stroke-width="9.23334" stroke-linecap="butt" stroke-miterlimit="10" stroke-linejoin="miter" fill="none" stroke="#000000" d="M 5065.11 5118.54 L 4896.3 5118.54 "/>
<path transform="matrix(.1,0,0,-.1,-301,555)" stroke-width="9.23334" stroke-linecap="butt" stroke-miterlimit="10" stroke-linejoin="miter" fill="none" stroke="#000000" d="M 3522.3 4790.14 L 3252.66 4790.14 "/>
<path transform="matrix(.1,0,0,-.1,-301,555)" stroke-width="9.23334" stroke-linecap="butt" stroke-miterlimit="10" stroke-linejoin="miter" fill="none" stroke="#000000" d="M 3796.56 4790.14 L 3522.3 4790.14 "/>
<path transform="matrix(.1,0,0,-.1,-301,555)" stroke-width="9.23334" stroke-linecap="butt" stroke-miterlimit="10" stroke-linejoin="miter" fill="none" stroke="#000000" d="M 4063.32 4790.14 L 3894.5 4790.14 "/>
<path transform="matrix(.1,0,0,-.1,-301,555)" stroke-width="9.23334" stroke-linecap="butt" stroke-miterlimit="10" stroke-linejoin="miter" fill="none" stroke="#000000" d="M 4418.65 4790.14 L 4249.84 4790.14 "/>
<path transform="matrix(.1,0,0,-.1,-301,555)" stroke-width="9.23334" stroke-linecap="butt" stroke-miterlimit="10" stroke-linejoin="miter" fill="none" stroke="#000000" d="M 4790.85 4790.14 L 4516.59 4790.14 "/>
<path transform="matrix(.1,0,0,-.1,-301,555)" stroke-width="9.23334" stroke-linecap="butt" stroke-miterlimit="10" stroke-linejoin="miter" fill="none" stroke="#000000" d="M 5193.92 4790.14 L 4790.85 4790.14 "/>
<symbol id="font_5_2">
<path d="M 0 .85 L 0 0 L .058000007 0 L .058000007 .85 L 0 .85 Z "/>
</symbol>
<use xlink:href="#font_5_2" transform="matrix(12.742,0,0,-12.742,4.6706326,15.585107)"/>
<symbol id="font_6_2">
<path d="M .24200002 .71900007 C .102000009 .71900007 0 .566 0 .357 C 0 .15100001 .099 0 .23400003 0 C .374 0 .472 .14600002 .472 .35400004 C .472 .46000005 .45000003 .54800006 .40800003 .61700007 C .36900003 .68 .305 .71900007 .24200002 .71900007 M .23500002 .676 C .268 .676 .3 .65400007 .32400004 .614 C .351 .568 .36 .509 .36 .37200005 C .36 .23200001 .35300002 .16600001 .33300004 .12200001 C .31000004 .073 .27400003 .043 .23600003 .043 C .20300001 .043 .171 .065 .14700002 .105000007 C .11900001 .15200001 .11100001 .215 .11100001 .37800003 C .11100001 .49400003 .11800001 .55300006 .13800001 .596 C .16100002 .647 .197 .676 .23500002 .676 Z "/>
</symbol>
<use xlink:href="#font_6_2" transform="matrix(12.8804,0,0,-12.8804,7.356071,14.087066)"/>
<symbol id="font_5_1">
<path d="M .192 .42700003 L 0 .025000006 L .052 0 L .256 .42700003 L .052 .8540001 L 0 .829 L .192 .42700003 Z "/>
</symbol>
<use xlink:href="#font_5_1" transform="matrix(12.742,0,0,-12.742,14.39653,15.610591)"/>
<path transform="matrix(.1,0,0,-.1,-301,555)" d="M 3416.86 5350.33 L 3627.7513 5350.33 L 3627.7513 5543.537 L 3416.86 5543.537 Z " fill="#ffffff"/>
<path transform="matrix(.1,0,0,-.1,-301,555)" stroke-width="9.23334" stroke-linecap="butt" stroke-miterlimit="10" stroke-linejoin="miter" fill="none" stroke="#000000" d="M 3416.86 5350.33 L 3627.7513 5350.33 L 3627.7513 5543.537 L 3416.86 5543.537 Z "/>
<symbol id="font_7_1">
<path d="M .611 .354 L .55 .123 C .535 .07 .535 .069000009 .527 .061000006 C .51600006 .051000004 .49200005 .047000003 .44300003 .047000003 L .439 .047000003 L .43400003 0 L .75100007 0 L .757 .047000003 L .731 .047000003 C .666 .047000003 .652 .052 .652 .074 C .652 .081 .656 .104 .661 .123 L .78900006 .59900006 C .804 .65400007 .804 .65400007 .81200006 .661 C .823 .671 .846 .675 .896 .675 L .90000006 .675 L .90500006 .72200009 L .587 .72200009 L .582 .675 L .60800006 .675 C .67300006 .675 .68700006 .67 .68700006 .648 C .68700006 .64000007 .684 .623 .67700007 .59900006 L .624 .40100003 L .302 .40100003 L .356 .59900006 C .37 .65400007 .37 .65400007 .379 .661 C .389 .671 .41300006 .675 .462 .675 L .46600003 .675 L .47100003 .72200009 L .15400002 .72200009 L .148 .675 L .17400001 .675 C .23900001 .675 .25300003 .67 .25300003 .648 C .25300003 .64000007 .24900002 .619 .24400002 .59900006 L .116000007 .123 C .102000009 .07 .101 .069000009 .09300001 .061000006 C .082 .051000004 .059000005 .047000003 .010000002 .047000003 L .0050000029 .047000003 L 0 0 L .31800003 0 L .323 .047000003 L .297 .047000003 C .23200001 .047000003 .21800001 .052 .21800001 .074 C .21800001 .082 .21800001 .082 .22800002 .123 L .29000003 .354 L .611 .354 Z "/>
</symbol>
<use xlink:href="#font_7_1" transform="matrix(12.8805,0,0,-12.8805,45.229536,14.901978)"/>
<path transform="matrix(.1,0,0,-.1,-301,555)" d="M 4685.41 5350.33 L 4896.3015 5350.33 L 4896.3015 5543.537 L 4685.41 5543.537 Z " fill="#ffffff"/>
<path transform="matrix(.1,0,0,-.1,-301,555)" stroke-width="9.23334" stroke-linecap="butt" stroke-miterlimit="10" stroke-linejoin="miter" fill="none" stroke="#000000" d="M 4685.41 5350.33 L 4896.3015 5350.33 L 4896.3015 5543.537 L 4685.41 5543.537 Z "/>
<use xlink:href="#font_7_1" transform="matrix(12.8805,0,0,-12.8805,172.08254,14.901978)"/>
<use xlink:href="#font_5_2" transform="matrix(12.742,0,0,-12.742,4.670602,48.424097)"/>
<use xlink:href="#font_6_2" transform="matrix(12.8804,0,0,-12.8804,7.3560407,46.927217)"/>
<use xlink:href="#font_5_1" transform="matrix(12.742,0,0,-12.742,14.3965,48.44958)"/>
<path transform="matrix(.1,0,0,-.1,-301,555)" d="M 3416.86 5021.93 L 3627.7513 5021.93 L 3627.7513 5215.137 L 3416.86 5215.137 Z " fill="#ffffff"/>
<path transform="matrix(.1,0,0,-.1,-301,555)" stroke-width="9.23334" stroke-linecap="butt" stroke-miterlimit="10" stroke-linejoin="miter" fill="none" stroke="#000000" d="M 3416.86 5021.93 L 3627.7513 5021.93 L 3627.7513 5215.137 L 3416.86 5215.137 Z "/>
<use xlink:href="#font_7_1" transform="matrix(12.8805,0,0,-12.8805,45.229536,47.740999)"/>
<path transform="matrix(.1,0,0,-.1,-301,555)" d="M 4685.41 5021.93 L 4896.3015 5021.93 L 4896.3015 5215.137 L 4685.41 5215.137 Z " fill="#ffffff"/>
<path transform="matrix(.1,0,0,-.1,-301,555)" stroke-width="9.23334" stroke-linecap="butt" stroke-miterlimit="10" stroke-linejoin="miter" fill="none" stroke="#000000" d="M 4685.41 5021.93 L 4896.3015 5021.93 L 4896.3015 5215.137 L 4685.41 5215.137 Z "/>
<use xlink:href="#font_7_1" transform="matrix(12.8805,0,0,-12.8805,172.08254,47.740999)"/>
<symbol id="font_8_2">
<path d="M .06300001 0 L .06300001 .65200009 L 0 .65200009 L 0 0 L .06300001 0 Z "/>
</symbol>
<use xlink:href="#font_8_2" transform="matrix(12.742,0,0,-12.742,.54316809,76.3167)"/>
<use xlink:href="#font_8_2" transform="matrix(12.742,0,0,-12.742,.54316809,83.96279)"/>
<symbol id="font_9_2">
<path d="M .024000003 .58500006 C .050000006 .63600006 .09600001 .689 .11800001 .689 C .12900001 .689 .134 .679 .134 .66 C .134 .61300006 .094000007 .47700004 .094000007 .41700004 C .094000007 .284 .146 .23000002 .27600003 .23000002 C .278 .23000002 .24000001 .023000002 .24000001 .009000003 C .243 .001000002 .245 0 .257 0 C .27 0 .272 .001000002 .278 .0069999995 C .282 .012000009 .31800003 .15600002 .337 .23000002 C .38500003 .231 .4 .23500002 .48200003 .293 C .49600003 .30200003 .5450001 .351 .5680001 .39500005 C .62900009 .513 .63000008 .6750001 .73800006 .722 L .73800006 .72300007 C .73800006 .72800007 .7340001 .7440001 .7340001 .7440001 C .69400009 .74300006 .63900008 .739 .59800007 .70000007 C .54700008 .65200009 .56100007 .41700004 .46 .328 C .395 .272 .379 .27 .347 .27 C .347 .27 .46 .734 .48200003 .80700007 L .479 .80700007 C .469 .80700007 .38000003 .781 .38000003 .778 C .36 .66300007 .284 .268 .284 .27 C .20300001 .27 .18800001 .30200003 .18800001 .40800003 C .18800001 .48200003 .22600001 .58500006 .22600001 .67300006 C .22600001 .712 .214 .7440001 .17400001 .7440001 C .101 .7440001 .030000003 .688 0 .59900006 L .024000003 .58500006 Z "/>
</symbol>
<use xlink:href="#font_9_2" transform="matrix(12.465,0,0,-12.465,3.3815103,82.58956)"/>
<symbol id="font_8_1">
<path d="M .24700003 .586 L 0 .024999977 L .052 0 L .311 .586 L .052 1.172 L 0 1.1470001 L .24700003 .586 Z "/>
</symbol>
<use xlink:href="#font_8_1" transform="matrix(12.742,0,0,-12.742,13.988663,83.45237)"/>
<path transform="matrix(.1,0,0,-.1,-301,555)" d="M 4059.97 4693.53 L 4253.177 4693.53 L 4253.177 4886.7409 L 4059.97 4886.7409 Z " fill="#ffffff"/>
<path transform="matrix(.1,0,0,-.1,-301,555)" stroke-width="9.23334" stroke-linecap="butt" stroke-miterlimit="10" stroke-linejoin="miter" fill="none" stroke="#000000" d="M 4059.97 4693.53 L 4253.177 4693.53 L 4253.177 4886.7409 L 4059.97 4886.7409 Z "/>
<symbol id="font_7_4">
<path d="M .632 .73 L .59400007 .73 L .54 .67800006 C .48800005 .72900006 .43100003 .75200006 .358 .75200006 C .223 .75200006 .11800001 .65400007 .11800001 .528 C .11800001 .48300005 .135 .439 .165 .40600003 C .185 .384 .21300002 .36700005 .26500003 .34500004 L .351 .30900003 C .40500004 .287 .41700004 .28100003 .42900003 .273 C .45800004 .25200004 .47300003 .223 .47300003 .186 C .47300003 .101 .402 .043 .29900003 .043 C .23400001 .043 .186 .063 .147 .10700001 C .11000001 .149 .094000007 .19800002 .094000007 .265 C .094000007 .269 .094000007 .282 .095000009 .29300005 L .055000005 .3 L 0 .015000001 L .035 .015000001 L .094000007 .078 C .15 .026 .21900001 0 .3 0 C .45600004 0 .569 .097 .569 .22900002 C .569 .32700003 .527 .37800003 .40800003 .425 L .323 .45900006 C .24400002 .49 .209 .527 .209 .578 C .209 .652 .27600003 .709 .365 .709 C .47100003 .709 .537 .628 .537 .49600006 C .537 .49300004 .537 .485 .536 .476 L .578 .46900005 L .632 .73 Z "/>
</symbol>
<symbol id="font_7_3">
<path d="M .289 .365 L .358 .365 C .44200004 .365 .47400005 .34000004 .47400005 .27500005 C .47400005 .263 .47300003 .24200002 .47100003 .22100002 C .46500004 .14500001 .46500004 .14 .46500004 .12100001 C .46500004 .049000004 .508 0 .57100006 0 C .63500007 0 .675 .041 .71400007 .147 L .67800006 .162 C .65300008 .091000009 .63600006 .069000009 .60800006 .069000009 C .587 .069000009 .578 .08800001 .578 .13 L .57900008 .18100001 C .58000007 .194 .58000007 .20600002 .58000007 .21700001 C .58000007 .30400003 .55 .352 .47700004 .379 C .555 .388 .59400007 .397 .63000008 .41500003 C .69200006 .44700004 .73200008 .508 .73200008 .573 C .73200008 .632 .70100006 .681 .646 .709 C .60700008 .72900006 .558 .73700007 .47400005 .73700007 L .15400002 .73700007 L .148 .69 L .174 .69 C .23900002 .69 .25300003 .685 .25300003 .663 C .25300003 .65500006 .24900002 .634 .24400002 .614 L .116000007 .13800001 C .102000009 .085 .101 .08400001 .093 .076000008 C .082 .066 .059 .062000004 .01 .062000004 L .004999999 .062000004 L 0 .015000001 L .31800003 .015000001 L .323 .062000004 L .29700003 .062000004 C .23200003 .062000004 .218 .067 .218 .089 C .218 .097 .218 .097 .22800002 .13800001 L .289 .365 M .30100004 .412 L .36 .63 C .374 .681 .38400004 .69 .43100003 .69 L .48000003 .69 C .564 .69 .61200007 .65000006 .61200007 .58 C .61200007 .519 .58400008 .47100003 .53000006 .439 C .49300004 .417 .46300004 .412 .37900005 .412 L .30100004 .412 Z "/>
</symbol>
<use xlink:href="#font_7_4" transform="matrix(12.8805,0,0,-12.8805,110.225009,80.78821)"/>
<use xlink:href="#font_7_3" transform="matrix(12.8805,0,0,-12.8805,223.47092,79.76633)"/>
<symbol id="font_7_2">
<path d="M .386 .16600001 C .359 .104 .333 .076000008 .3 .076000008 C .286 .076000008 .261 .082 .23300001 .09200001 C .17200002 .113000009 .16 .116000007 .132 .116000007 C .119 .116000007 .107 .11400001 .083000008 .10700001 C .106000009 .136 .125 .15 .204 .19600001 C .28100003 .24000001 .322 .272 .37100003 .328 C .418 .38100005 .45000003 .43600006 .45000003 .462 C .45000003 .47500003 .44 .485 .426 .485 C .41500003 .485 .407 .477 .402 .46000005 C .396 .439 .39000003 .43400003 .37600003 .43400003 C .359 .43400003 .33400003 .44200004 .30400003 .45700003 C .259 .47900004 .24200002 .485 .22 .485 C .156 .485 .103 .44 .055 .34600003 L .088 .329 C .119 .384 .14500001 .40900005 .17000002 .40900005 C .18 .40900005 .204 .403 .23000002 .39500005 C .285 .37600006 .292 .375 .322 .375 C .336 .375 .34800003 .37700004 .373 .38300003 C .34800003 .357 .337 .347 .299 .323 C .15200001 .23200001 .12900001 .21400002 .072 .15200001 C .026 .101 0 .054 0 .024 C 0 .009000001 .009 0 .024 0 C .043 0 .054 .017 .054 .046000005 C .054 .062000004 .055 .063 .063 .063 C .075 .063 .075 .063 .14000002 .032 C .188 .01 .224 0 .259 0 C .327 0 .39000003 .060000004 .421 .15400002 L .386 .16600001 Z "/>
</symbol>
<use xlink:href="#font_7_2" transform="matrix(9.66036,0,0,-9.66036,234.15753,81.79499)"/>
<symbol id="font_6_3">
<path d="M .24300002 .8590001 C .18300002 .8220001 .15100001 .79600009 .11700001 .75600007 C .041000006 .66600009 0 .55100008 0 .43 C 0 .316 .036000004 .209 .103000018 .120000008 C .141 .072 .17500001 .042000005 .24300002 0 L .24300002 .037 C .143 .125 .103000018 .238 .103000018 .43 C .103000018 .62200006 .143 .734 .24300002 .8220001 L .24300002 .8590001 Z "/>
</symbol>
<use xlink:href="#font_6_3" transform="matrix(12.8804,0,0,-12.8804,240.2021,81.15741)"/>
<symbol id="font_9_1">
<path d="M .467 .37700004 C .47900004 .43500004 .48800005 .49700005 .48800005 .55300006 C .48800005 .66400006 .45200003 .75500008 .32700003 .75500008 C .088 .75500008 0 .39800004 0 .198 C 0 .08400001 .040000004 0 .163 0 C .34600003 0 .42400003 .185 .467 .37700004 M .37600003 .40700004 L .126 .40700004 C .14400001 .49200005 .199 .72200009 .319 .72200009 C .38200004 .72200009 .4 .66 .4 .58800008 C .4 .52300009 .38500003 .44900004 .37600003 .40700004 M .368 .37100003 C .34300003 .25300003 .287 .030000002 .169 .030000002 C .107999999 .030000002 .09 .089 .09 .163 C .09 .23200001 .106000009 .31400005 .118 .37100003 L .368 .37100003 Z "/>
</symbol>
<use xlink:href="#font_9_1" transform="matrix(12.465,0,0,-12.465,244.42714,79.73517)"/>
<symbol id="font_6_1">
<path d="M 0 0 C .060000007 .037 .09200001 .063 .126 .104 C .202 .193 .24300002 .30900003 .24300002 .43 C .24300002 .544 .207 .651 .14 .7390001 C .102 .78800007 .068 .8180001 0 .8590001 L 0 .8220001 C .10000001 .734 .14 .62200006 .14 .43 C .14 .23700002 .10000001 .125 0 .037 L 0 0 Z "/>
</symbol>
<use xlink:href="#font_6_1" transform="matrix(12.8804,0,0,-12.8804,252.06401,81.15741)"/>
<use xlink:href="#font_8_2" transform="matrix(12.742,0,0,-12.742,258.7316,76.316829)"/>
<use xlink:href="#font_8_2" transform="matrix(12.742,0,0,-12.742,258.7316,83.96291)"/>
<use xlink:href="#font_9_2" transform="matrix(12.465,0,0,-12.465,261.56993,82.58968)"/>
<use xlink:href="#font_8_1" transform="matrix(12.742,0,0,-12.742,272.1771,83.45249)"/>
</g>
</g>
</svg>
