<?xml version="1.0" encoding="UTF-8" standalone="no"?>
<!DOCTYPE svg PUBLIC "-//W3C//DTD SVG 1.1//EN" "http://www.w3.org/Graphics/SVG/1.1/DTD/svg11.dtd">
<svg xmlns="http://www.w3.org/2000/svg" xmlns:xlink="http://www.w3.org/1999/xlink" version="1.1" width="385pt" height="57pt" viewBox="0 0 385 57">
<g enable-background="new">
<clipPath id="cp0">
<path transform="matrix(1,0,0,-1,-299,555)" d="M 0 0 L 1001 0 L 1001 709 L 0 709 Z "/>
</clipPath>
<g clip-path="url(#cp0)">
<path transform="matrix(.1,0,0,-.1,-299,555)" d="M 3315.2 5432.75 C 3315.2 5445.5 3304.87 5455.83 3292.12 5455.83 C 3279.37 5455.83 3269.03 5445.5 3269.03 5432.75 C 3269.03 5420 3279.37 5409.66 3292.12 5409.66 C 3304.87 5409.66 3315.2 5420 3315.2 5432.75 Z M 3292.12 5432.75 "/>
<path transform="matrix(.1,0,0,-.1,-299,555)" d="M 4973.25 5432.75 C 4973.25 5445.5 4962.92 5455.83 4950.17 5455.83 C 4937.42 5455.83 4927.09 5445.5 4927.09 5432.75 C 4927.09 5420 4937.42 5409.66 4950.17 5409.66 C 4962.92 5409.66 4973.25 5420 4973.25 5432.75 Z M 4950.17 5432.75 "/>
<path transform="matrix(.1,0,0,-.1,-299,555)" d="M 6092.18 5432.75 C 6092.18 5445.5 6081.84 5455.83 6069.09 5455.83 C 6056.34 5455.83 6046.01 5445.5 6046.01 5432.75 C 6046.01 5420 6056.34 5409.66 6069.09 5409.66 C 6081.84 5409.66 6092.18 5420 6092.18 5432.75 Z M 6069.09 5432.75 "/>
<clipPath id="cp1">
<path transform="matrix(.1,0,0,-.1,-299,555)" d="M 4999.14 5104.35 C 4999.14 5131.39 4977.21 5153.32 4950.17 5153.32 C 4923.13 5153.32 4901.2 5131.39 4901.2 5104.35 C 4901.2 5077.3 4923.13 5055.38 4950.17 5055.38 C 4977.21 5055.38 4999.14 5077.3 4999.14 5104.35 Z M 4950.17 5104.35 "/>
</clipPath>
<g clip-path="url(#cp1)">
<path transform="matrix(.1,0,0,-.1,-299,555)" stroke-width="9.23334" stroke-linecap="butt" stroke-miterlimit="10" stroke-linejoin="miter" fill="none" stroke="#000000" d="M 4950.17 5153.32 L 4950.17 5055.38 M 4901.2 5104.35 L 4999.14 5104.35 "/>
</g>
<path transform="matrix(.1,0,0,-.1,-299,555)" stroke-width="9.23334" stroke-linecap="butt" stroke-miterlimit="10" stroke-linejoin="miter" fill="none" stroke="#000000" d="M 4999.14 5104.35 C 4999.14 5131.39 4977.21 5153.32 4950.17 5153.32 C 4923.13 5153.32 4901.2 5131.39 4901.2 5104.35 C 4901.2 5077.3 4923.13 5055.38 4950.17 5055.38 C 4977.21 5055.38 4999.14 5077.3 4999.14 5104.35 Z M 4950.17 5104.35 "/>
<clipPath id="cp2">
<path transform="matrix(.1,0,0,-.1,-299,555)" d="M 6118.06 5104.35 C 6118.06 5131.39 6096.14 5153.32 6069.09 5153.32 C 6042.05 5153.32 6020.12 5131.39 6020.12 5104.35 C 6020.12 5077.3 6042.05 5055.38 6069.09 5055.38 C 6096.14 5055.38 6118.06 5077.3 6118.06 5104.35 Z M 6069.09 5104.35 "/>
</clipPath>
<g clip-path="url(#cp2)">
<path transform="matrix(.1,0,0,-.1,-299,555)" stroke-width="9.23334" stroke-linecap="butt" stroke-miterlimit="10" stroke-linejoin="miter" fill="none" stroke="#000000" d="M 6069.09 5153.32 L 6069.09 5055.38 M 6020.12 5104.35 L 6118.06 5104.35 "/>
</g>
<path transform="matrix(.1,0,0,-.1,-299,555)" stroke-width="9.23334" stroke-linecap="butt" stroke-miterlimit="10" stroke-linejoin="miter" fill="none" stroke="#000000" d="M 6118.06 5104.35 C 6118.06 5131.39 6096.14 5153.32 6069.09 5153.32 C 6042.05 5153.32 6020.12 5131.39 6020.12 5104.35 C 6020.12 5077.3 6042.05 5055.38 6069.09 5055.38 C 6096.14 5055.38 6118.06 5077.3 6118.06 5104.35 Z M 6069.09 5104.35 "/>
<path transform="matrix(.1,0,0,-.1,-299,555)" stroke-width="9.23334" stroke-linecap="butt" stroke-miterlimit="10" stroke-linejoin="miter" fill="none" stroke="#000000" d="M 3269.01 5432.74 L 2998.21 5432.74 "/>
<path transform="matrix(.1,0,0,-.1,-299,555)" stroke-width="9.23334" stroke-linecap="butt" stroke-miterlimit="10" stroke-linejoin="miter" fill="none" stroke="#000000" d="M 3292.09 5409.66 L 3292.09 5208.21 "/>
<path transform="matrix(.1,0,0,-.1,-299,555)" stroke-width="9.23334" stroke-linecap="butt" stroke-miterlimit="10" stroke-linejoin="miter" fill="none" stroke="#000000" d="M 3585.97 5432.74 L 3315.18 5432.74 "/>
<path transform="matrix(.1,0,0,-.1,-299,555)" stroke-width="9.23334" stroke-linecap="butt" stroke-miterlimit="10" stroke-linejoin="miter" fill="none" stroke="#000000" d="M 4436.54 5432.74 L 3976.5 5432.74 "/>
<path transform="matrix(.1,0,0,-.1,-299,555)" stroke-width="9.23334" stroke-linecap="butt" stroke-miterlimit="10" stroke-linejoin="miter" fill="none" stroke="#000000" d="M 4927.08 5432.74 L 4436.54 5432.74 "/>
<path transform="matrix(.1,0,0,-.1,-299,555)" stroke-width="9.23334" stroke-linecap="butt" stroke-miterlimit="10" stroke-linejoin="miter" fill="none" stroke="#000000" d="M 4950.16 5409.66 L 4950.16 5153.32 "/>
<path transform="matrix(.1,0,0,-.1,-299,555)" stroke-width="9.23334" stroke-linecap="butt" stroke-miterlimit="10" stroke-linejoin="miter" fill="none" stroke="#000000" d="M 5509.63 5432.74 L 4973.25 5432.74 "/>
<path transform="matrix(.1,0,0,-.1,-299,555)" stroke-width="9.23334" stroke-linecap="butt" stroke-miterlimit="10" stroke-linejoin="miter" fill="none" stroke="#000000" d="M 6046.02 5432.74 L 5509.63 5432.74 "/>
<path transform="matrix(.1,0,0,-.1,-299,555)" stroke-width="9.23334" stroke-linecap="butt" stroke-miterlimit="10" stroke-linejoin="miter" fill="none" stroke="#000000" d="M 6069.1 5409.66 L 6069.1 5153.32 "/>
<path transform="matrix(.1,0,0,-.1,-299,555)" stroke-width="9.23334" stroke-linecap="butt" stroke-miterlimit="10" stroke-linejoin="miter" fill="none" stroke="#000000" d="M 6286.89 5432.74 L 6092.18 5432.74 "/>
<path transform="matrix(.1,0,0,-.1,-299,555)" stroke-width="9.23334" stroke-linecap="butt" stroke-miterlimit="10" stroke-linejoin="miter" fill="none" stroke="#000000" d="M 6833.72 5432.74 L 6669.53 5432.74 "/>
<path transform="matrix(.1,0,0,-.1,-299,555)" stroke-width="9.23334" stroke-linecap="butt" stroke-miterlimit="10" stroke-linejoin="miter" fill="none" stroke="#000000" d="M 3162.41 5104.34 L 2998.21 5104.34 "/>
<path transform="matrix(.1,0,0,-.1,-299,555)" stroke-width="9.23334" stroke-linecap="butt" stroke-miterlimit="10" stroke-linejoin="miter" fill="none" stroke="#000000" d="M 3603.87 5104.34 L 3421.77 5104.34 "/>
<path transform="matrix(.1,0,0,-.1,-299,555)" stroke-width="9.23334" stroke-linecap="butt" stroke-miterlimit="10" stroke-linejoin="miter" fill="none" stroke="#000000" d="M 4140.7 5104.34 L 3958.6 5104.34 "/>
<path transform="matrix(.1,0,0,-.1,-299,555)" stroke-width="9.23334" stroke-linecap="butt" stroke-miterlimit="10" stroke-linejoin="miter" fill="none" stroke="#000000" d="M 4901.2 5104.34 L 4732.38 5104.34 "/>
<path transform="matrix(.1,0,0,-.1,-299,555)" stroke-width="9.23334" stroke-linecap="butt" stroke-miterlimit="10" stroke-linejoin="miter" fill="none" stroke="#000000" d="M 5167.95 5104.34 L 4999.14 5104.34 "/>
<path transform="matrix(.1,0,0,-.1,-299,555)" stroke-width="9.23334" stroke-linecap="butt" stroke-miterlimit="10" stroke-linejoin="miter" fill="none" stroke="#000000" d="M 6020.13 5104.34 L 5851.32 5104.34 "/>
<path transform="matrix(.1,0,0,-.1,-299,555)" stroke-width="9.23334" stroke-linecap="butt" stroke-miterlimit="10" stroke-linejoin="miter" fill="none" stroke="#000000" d="M 6478.21 5104.34 L 6118.07 5104.34 "/>
<path transform="matrix(.1,0,0,-.1,-299,555)" stroke-width="9.23334" stroke-linecap="butt" stroke-miterlimit="10" stroke-linejoin="miter" fill="none" stroke="#000000" d="M 6833.72 5104.34 L 6478.21 5104.34 "/>
<symbol id="font_3_4">
<path d="M 0 0 L .504 0 L .504 .08 L 0 .08 L 0 0 M 0 .202 L .504 .202 L .504 .282 L 0 .282 L 0 .202 Z "/>
</symbol>
<use xlink:href="#font_3_4" transform="matrix(12.8804,0,0,-12.8804,75.87989,29.236413)"/>
<path transform="matrix(.1,0,0,-.1,-299,555)" d="M 6286.89 5321.95 L 6669.5314 5321.95 L 6669.5314 5543.536 L 6286.89 5543.536 Z " fill="#ffffff"/>
<path transform="matrix(.1,0,0,-.1,-299,555)" stroke-width="9.23334" stroke-linecap="butt" stroke-miterlimit="10" stroke-linejoin="miter" fill="none" stroke="#000000" d="M 6286.89 5321.95 L 6669.5314 5321.95 L 6669.5314 5543.536 L 6286.89 5543.536 Z "/>
<symbol id="font_4_2">
<path d="M .28 .31800003 L .298 .31800003 C .48400004 .31800003 .51900008 .323 .587 .35900004 C .657 .397 .69600006 .462 .69600006 .541 C .69600006 .60300007 .67 .65300008 .62200006 .68600007 C .58500006 .711 .532 .72200009 .449 .72200009 L .15400002 .72200009 L .148 .675 L .174 .675 C .23900002 .675 .25300003 .67 .25300003 .648 C .25300003 .64000007 .24900002 .619 .24400002 .59900006 L .116000007 .123 C .102000009 .069000009 .101 .069000009 .093 .061000006 C .082 .051000004 .059 .047000003 .009999998 .047000003 L .004999999 .047000003 L 0 0 L .31800003 0 L .323 .047000003 L .297 .047000003 C .23200003 .047000003 .218 .052 .218 .074 C .218 .082 .218 .082 .22800002 .123 L .28 .31800003 M .293 .365 L .363 .62700006 C .373 .665 .386 .675 .42700003 .675 L .439 .675 C .544 .675 .584 .64100006 .584 .55200007 C .584 .503 .568 .45600004 .541 .42200003 C .51500007 .39000003 .479 .372 .42400003 .367 C .41 .365 .41 .365 .312 .365 L .293 .365 Z "/>
</symbol>
<use xlink:href="#font_4_2" transform="matrix(12.8805,0,0,-12.8805,334.15498,14.452026)"/>
<symbol id="font_5_1">
<path d="M .48900006 .154 C .46300004 .10300001 .42300005 .051 .40100003 .051 C .38900004 .051 .38600005 .063 .38600005 .08100001 C .38600005 .09200001 .38700003 .105000007 .38900004 .11800001 L .45700003 .437 L .544 .437 L .584 .51400008 C .555 .507 .514 .503 .46700005 .503 L .18300002 .503 C .13200002 .503 .062000004 .47800002 .024000004 .41700004 L .040000004 .39900003 C .08 .43 .13200002 .437 .18500002 .437 C .142 .261 .113000009 .10400001 .057000009 .094000007 C .032 .09 0 .074 0 .036 C 0 .013 .031 0 .046 0 C .09900001 0 .136 .066 .15400002 .11100001 C .17700002 .169 .21200001 .294 .24200002 .437 L .367 .437 L .30200003 .135 C .29900003 .11400001 .29700003 .095000009 .29700003 .079 C .29700003 .028 .31300003 0 .349 0 C .42200003 0 .47800002 .056 .513 .14 L .48900006 .154 Z "/>
</symbol>
<use xlink:href="#font_5_1" transform="matrix(9.34872,0,0,-9.34872,343.7721,18.18921)"/>
<symbol id="font_3_2">
<path d="M .26700003 .75000008 L 0 0 L .058000003 0 L .32500003 .75000008 L .26700003 .75000008 Z "/>
</symbol>
<symbol id="font_3_3">
<path d="M .47 .216 L .42600004 .216 L .41600005 .165 C .40300004 .101 .395 .094000007 .33300004 .094000007 L .10900001 .094000007 C .17800002 .16600001 .20100002 .187 .26500003 .23700002 C .35600005 .307 .395 .342 .418 .372 C .45000003 .416 .46600006 .46100004 .46600006 .509 C .46600006 .62200006 .37100003 .70400008 .24100003 .70400008 C .11400001 .70400008 .016000003 .62200006 .016000003 .51600006 C .016000003 .453 .048000006 .41000004 .096000019 .41000004 C .13300002 .41000004 .158 .43500004 .158 .47100003 C .158 .49600003 .14400001 .51900008 .12200001 .528 C .08500001 .544 .083000008 .545 .083000008 .558 C .083000008 .573 .09300001 .596 .10700001 .61300006 C .13200002 .643 .17400001 .661 .22100002 .661 C .30300004 .661 .35300002 .61 .35300002 .526 C .35300002 .45200003 .31800003 .38500003 .23500002 .29700003 L .17600002 .23500002 C .14100002 .19800002 .11500001 .17 .098000008 .15100001 C .062000004 .109000008 .044000005 .086 0 .028 L 0 0 L .45100004 0 L .47 .216 Z "/>
</symbol>
<use xlink:href="#font_3_2" transform="matrix(9.66036,0,0,-9.66036,349.31956,18.21227)"/>
<use xlink:href="#font_3_3" transform="matrix(9.66036,0,0,-9.66036,352.56547,18.077027)"/>
<symbol id="font_4_4">
<path d="M .305 .75200006 L .106000009 .73700007 L .102000009 .70100006 L .133 .70100006 C .17400001 .70100006 .19 .69200006 .19 .67 C .19 .66 .187 .648 .18100001 .626 L 0 .015000001 L .087000008 .015000001 L .125 .14500001 C .145 .21200001 .183 .292 .215 .333 C .259 .389 .31100003 .425 .349 .425 C .375 .425 .395 .403 .395 .374 C .395 .333 .36600004 .301 .298 .26700003 C .27600003 .256 .263 .25100003 .256 .25100003 C .254 .25100003 .24900002 .25200004 .243 .254 C .236 .25700004 .224 .259 .216 .259 C .19600001 .259 .185 .24900002 .185 .23200001 C .185 .22000002 .19500001 .21000001 .207 .21000001 C .209 .21000001 .214 .21000001 .221 .21100001 C .23900001 .21300002 .23900001 .21300002 .24100001 .21300002 C .252 .21300002 .257 .20400001 .257 .186 L .257 .149 C .256 .123 .256 .104 .256 .1 C .256 .033 .28 0 .33 0 C .38500003 0 .435 .045 .497 .149 L .46600003 .16900002 C .409 .081 .386 .056 .36200003 .056 C .34800003 .056 .344 .065 .34100003 .105000007 C .33600004 .17500001 .32500003 .201 .293 .22700002 C .411 .269 .476 .32700003 .476 .394 C .476 .445 .43300004 .485 .37800003 .485 C .30900003 .485 .24900002 .439 .18100001 .334 L .305 .75200006 Z "/>
</symbol>
<use xlink:href="#font_4_4" transform="matrix(7.51366,0,0,-7.51366,357.8038,15.188145)"/>
<path transform="matrix(.1,0,0,-.1,-299,555)" d="M 3162.41 5000.48 L 3421.765 5000.48 L 3421.765 5208.203 L 3162.41 5208.203 Z " fill="#ffffff"/>
<path transform="matrix(.1,0,0,-.1,-299,555)" stroke-width="9.23334" stroke-linecap="butt" stroke-miterlimit="10" stroke-linejoin="miter" fill="none" stroke="#000000" d="M 3162.41 5000.48 L 3421.765 5000.48 L 3421.765 5208.203 L 3162.41 5208.203 Z "/>
<symbol id="font_4_3">
<path d="M .289 .365 L .358 .365 C .44200004 .365 .47400005 .34000004 .47400005 .27500005 C .47400005 .263 .47300003 .24200002 .47100003 .22100002 C .46500004 .14500001 .46500004 .14 .46500004 .12100001 C .46500004 .049000004 .508 0 .57100006 0 C .63500007 0 .675 .041 .71400007 .147 L .67800006 .162 C .65300008 .091000009 .63600006 .069000009 .60800006 .069000009 C .587 .069000009 .578 .08800001 .578 .13 L .57900008 .18100001 C .58000007 .194 .58000007 .20600002 .58000007 .21700001 C .58000007 .30400003 .55 .352 .47700004 .379 C .555 .388 .59400007 .397 .63000008 .41500003 C .69200006 .44700004 .73200008 .508 .73200008 .573 C .73200008 .632 .70100006 .681 .646 .709 C .60700008 .72900006 .558 .73700007 .47400005 .73700007 L .15400002 .73700007 L .148 .69 L .174 .69 C .23900002 .69 .25300003 .685 .25300003 .663 C .25300003 .65500006 .24900002 .634 .24400002 .614 L .116000007 .13800001 C .102000009 .085 .101 .08400001 .093 .076000008 C .082 .066 .059 .062000004 .01 .062000004 L .004999999 .062000004 L 0 .015000001 L .31800003 .015000001 L .323 .062000004 L .29700003 .062000004 C .23200003 .062000004 .218 .067 .218 .089 C .218 .097 .218 .097 .22800002 .13800001 L .289 .365 M .30100004 .412 L .36 .63 C .374 .681 .38400004 .69 .43100003 .69 L .48000003 .69 C .564 .69 .61200007 .65000006 .61200007 .58 C .61200007 .519 .58400008 .47100003 .53000006 .439 C .49300004 .417 .46300004 .412 .37900005 .412 L .30100004 .412 Z "/>
</symbol>
<use xlink:href="#font_4_3" transform="matrix(12.8805,0,0,-12.8805,21.608893,48.178194)"/>
<use xlink:href="#font_4_4" transform="matrix(9.66036,0,0,-9.66036,32.35859,50.324045)"/>
<path transform="matrix(.1,0,0,-.1,-299,555)" d="M 4140.7 4986.53 L 4732.376 4986.53 L 4732.376 5222.1628 L 4140.7 5222.1628 Z " fill="#ffffff"/>
<path transform="matrix(.1,0,0,-.1,-299,555)" stroke-width="9.23334" stroke-linecap="butt" stroke-miterlimit="10" stroke-linejoin="miter" fill="none" stroke="#000000" d="M 4140.7 4986.53 L 4732.376 4986.53 L 4732.376 5222.1628 L 4140.7 5222.1628 Z "/>
<use xlink:href="#font_4_3" transform="matrix(12.8805,0,0,-12.8805,119.4369,49.690217)"/>
<symbol id="font_4_1">
<path d="M .386 .16600001 C .359 .104 .333 .076000008 .3 .076000008 C .286 .076000008 .261 .082 .23300001 .09200001 C .17200002 .113000009 .16 .116000007 .132 .116000007 C .119 .116000007 .107 .11400001 .083000008 .10700001 C .106000009 .136 .125 .15 .204 .19600001 C .28100003 .24000001 .322 .272 .37100003 .328 C .418 .38100005 .45000003 .43600006 .45000003 .462 C .45000003 .47500003 .44 .485 .426 .485 C .41500003 .485 .407 .477 .402 .46000005 C .396 .439 .39000003 .43400003 .37600003 .43400003 C .359 .43400003 .33400003 .44200004 .30400003 .45700003 C .259 .47900004 .24200002 .485 .22 .485 C .156 .485 .103 .44 .055 .34600003 L .088 .329 C .119 .384 .14500001 .40900005 .17000002 .40900005 C .18 .40900005 .204 .403 .23000002 .39500005 C .285 .37600006 .292 .375 .322 .375 C .336 .375 .34800003 .37700004 .373 .38300003 C .34800003 .357 .337 .347 .299 .323 C .15200001 .23200001 .12900001 .21400002 .072 .15200001 C .026 .101 0 .054 0 .024 C 0 .009000001 .009 0 .024 0 C .043 0 .054 .017 .054 .046000005 C .054 .062000004 .055 .063 .063 .063 C .075 .063 .075 .063 .14000002 .032 C .188 .01 .224 0 .259 0 C .327 0 .39000003 .060000004 .421 .15400002 L .386 .16600001 Z "/>
</symbol>
<use xlink:href="#font_4_1" transform="matrix(9.66036,0,0,-9.66036,130.1239,51.719247)"/>
<symbol id="font_3_5">
<path d="M .24300002 .8590001 C .18300002 .8220001 .15100001 .79600009 .11700001 .75600007 C .041000006 .66600009 0 .55100008 0 .43 C 0 .316 .036000004 .209 .103000018 .120000008 C .141 .072 .17500001 .042000005 .24300002 0 L .24300002 .037 C .143 .125 .103000018 .238 .103000018 .43 C .103000018 .62200006 .143 .734 .24300002 .8220001 L .24300002 .8590001 Z "/>
</symbol>
<use xlink:href="#font_3_5" transform="matrix(12.8804,0,0,-12.8804,136.1681,51.0813)"/>
<use xlink:href="#font_5_1" transform="matrix(12.465,0,0,-12.465,140.42935,49.64659)"/>
<use xlink:href="#font_3_2" transform="matrix(12.8804,0,0,-12.8804,147.82729,49.677335)"/>
<use xlink:href="#font_3_3" transform="matrix(12.8804,0,0,-12.8804,152.1551,49.49701)"/>
<use xlink:href="#font_4_4" transform="matrix(9.66036,0,0,-9.66036,159.12833,44.614175)"/>
<symbol id="font_3_1">
<path d="M 0 0 C .060000007 .037 .09200001 .063 .126 .104 C .202 .193 .24300002 .30900003 .24300002 .43 C .24300002 .544 .207 .651 .14 .7390001 C .102 .78800007 .068 .8180001 0 .8590001 L 0 .8220001 C .10000001 .734 .14 .62200006 .14 .43 C .14 .23700002 .10000001 .125 0 .037 L 0 0 Z "/>
</symbol>
<use xlink:href="#font_3_1" transform="matrix(12.8804,0,0,-12.8804,166.02727,51.0813)"/>
<path transform="matrix(.1,0,0,-.1,-299,555)" d="M 5167.95 4986.53 L 5851.313 4986.53 L 5851.313 5222.1628 L 5167.95 5222.1628 Z " fill="#ffffff"/>
<path transform="matrix(.1,0,0,-.1,-299,555)" stroke-width="9.23334" stroke-linecap="butt" stroke-miterlimit="10" stroke-linejoin="miter" fill="none" stroke="#000000" d="M 5167.95 4986.53 L 5851.313 4986.53 L 5851.313 5222.1628 L 5167.95 5222.1628 Z "/>
<use xlink:href="#font_4_3" transform="matrix(12.8805,0,0,-12.8805,222.16092,49.690217)"/>
<use xlink:href="#font_4_1" transform="matrix(9.66036,0,0,-9.66036,232.84754,51.719247)"/>
<use xlink:href="#font_3_5" transform="matrix(12.8804,0,0,-12.8804,238.89174,51.0813)"/>
<symbol id="font_6_1">
<path d="M .5500001 0 L .5500001 .058 L 0 .058 L 0 0 L .5500001 0 Z "/>
</symbol>
<use xlink:href="#font_6_1" transform="matrix(12.742,0,0,-12.742,243.80017,46.273286)"/>
<use xlink:href="#font_5_1" transform="matrix(12.465,0,0,-12.465,252.32172,49.64659)"/>
<use xlink:href="#font_3_2" transform="matrix(12.8804,0,0,-12.8804,259.71928,49.677335)"/>
<use xlink:href="#font_3_3" transform="matrix(12.8804,0,0,-12.8804,264.04707,49.49701)"/>
<use xlink:href="#font_4_4" transform="matrix(9.66036,0,0,-9.66036,271.02073,44.614175)"/>
<use xlink:href="#font_3_1" transform="matrix(12.8804,0,0,-12.8804,277.91969,51.0813)"/>
</g>
</g>
</svg>
